/* XPM */
static char * enemy_0_l_xpm[] = {
"76 76 451 2",
"  	c #F0D68C",
". 	c #EFD48D",
"+ 	c #F0D58E",
"@ 	c #F2D889",
"# 	c #F1D690",
"$ 	c #000000",
"% 	c #F1D78D",
"& 	c #F0D68F",
"* 	c #F1D692",
"= 	c #F1D590",
"- 	c #F0D58F",
"; 	c #F1D78E",
"> 	c #F0D68D",
", 	c #F0D68E",
"' 	c #F2D998",
") 	c #EFD58C",
"! 	c #F1D68F",
"~ 	c #EFD58B",
"{ 	c #EED48D",
"] 	c #EED48B",
"^ 	c #EDD28C",
"/ 	c #F0D58D",
"( 	c #F3D983",
"_ 	c #F1D691",
": 	c #F4D984",
"< 	c #F1D790",
"[ 	c #ECD18A",
"} 	c #F3D891",
"| 	c #F3D793",
"1 	c #F2D994",
"2 	c #F2D996",
"3 	c #F2D793",
"4 	c #F1D895",
"5 	c #F2D791",
"6 	c #F1D791",
"7 	c #EDD389",
"8 	c #F0D590",
"9 	c #F0D78F",
"0 	c #F1D794",
"a 	c #F1D78B",
"b 	c #F1D68C",
"c 	c #F2DA94",
"d 	c #F2D792",
"e 	c #F2D884",
"f 	c #ECD084",
"g 	c #ECD085",
"h 	c #EBCF86",
"i 	c #ECD087",
"j 	c #EDD38C",
"k 	c #F3DA99",
"l 	c #F2D997",
"m 	c #F3D99C",
"n 	c #F2D995",
"o 	c #F1D78F",
"p 	c #F2D894",
"q 	c #F3DA98",
"r 	c #F2D895",
"s 	c #F2D887",
"t 	c #F0D68B",
"u 	c #F1D689",
"v 	c #F1D68A",
"w 	c #F1D68E",
"x 	c #F2D999",
"y 	c #EFD58D",
"z 	c #F4DB83",
"A 	c #F2D98D",
"B 	c #F3D892",
"C 	c #F3D894",
"D 	c #EED289",
"E 	c #EDD189",
"F 	c #E8CC81",
"G 	c #EBCF88",
"H 	c #E8CC80",
"I 	c #E7CB80",
"J 	c #E7CA7C",
"K 	c #E7CA7D",
"L 	c #F0D893",
"M 	c #F1D893",
"N 	c #F4DC9D",
"O 	c #ECD28C",
"P 	c #E9CF92",
"Q 	c #ECD18C",
"R 	c #EED28A",
"S 	c #F0D690",
"T 	c #F4DB93",
"U 	c #F3D99A",
"V 	c #F2D88A",
"W 	c #F3D88E",
"X 	c #F4DB87",
"Y 	c #E8CE7C",
"Z 	c #EBCE7C",
"` 	c #E8CD81",
" .	c #EACE79",
"..	c #EBCE7F",
"+.	c #E8CB7D",
"@.	c #F2D790",
"#.	c #F3D893",
"$.	c #EDD185",
"%.	c #E8CD7F",
"&.	c #E9CC7B",
"*.	c #E7CA7B",
"=.	c #E7CB7E",
"-.	c #E7CB7D",
";.	c #E8CB7F",
">.	c #E9CC7F",
",.	c #F0D38F",
"'.	c #F1D592",
").	c #F0D796",
"!.	c #F2D898",
"~.	c #F2D990",
"{.	c #F3D996",
"].	c #F1D996",
"^.	c #F2D99B",
"/.	c #F2D893",
"(.	c #F0D791",
"_.	c #EBCF85",
":.	c #ECD27F",
"<.	c #E8CE7E",
"[.	c #E7CC80",
"}.	c #EBD081",
"|.	c #ECD08A",
"1.	c #EACE84",
"2.	c #EED48A",
"3.	c #EFD38A",
"4.	c #FF3737",
"5.	c #EACE83",
"6.	c #E8CC7E",
"7.	c #E8CB7E",
"8.	c #E8CC7A",
"9.	c #E9CD7A",
"0.	c #EACC80",
"a.	c #E9CC82",
"b.	c #E8CD84",
"c.	c #E6C97A",
"d.	c #E9CC80",
"e.	c #EDD390",
"f.	c #F1D795",
"g.	c #F1D995",
"h.	c #F2DA96",
"i.	c #F3D999",
"j.	c #F3D99B",
"k.	c #F2D991",
"l.	c #F0D58B",
"m.	c #F0D58C",
"n.	c #F0D694",
"o.	c #EED591",
"p.	c #EDD287",
"q.	c #EFD58E",
"r.	c #EDD28B",
"s.	c #EAD089",
"t.	c #F3DA8E",
"u.	c #F2D993",
"v.	c #E7CB7F",
"w.	c #EACD84",
"x.	c #E8CC79",
"y.	c #E8CD82",
"z.	c #E8CA7C",
"A.	c #E9CE86",
"B.	c #E9CE85",
"C.	c #E9CD87",
"D.	c #E9CE82",
"E.	c #EFD48E",
"F.	c #F1D792",
"G.	c #F0D48C",
"H.	c #EFD48B",
"I.	c #F2DA93",
"J.	c #EFD48F",
"K.	c #ECD28A",
"L.	c #E9CD82",
"M.	c #E8CD7E",
"N.	c #E6CB7D",
"O.	c #E9CD7C",
"P.	c #E8CB80",
"Q.	c #E9CB7F",
"R.	c #EACE82",
"S.	c #EACF82",
"T.	c #EDD187",
"U.	c #ECD38F",
"V.	c #F0D687",
"W.	c #F0D79A",
"X.	c #F0D795",
"Y.	c #F1D994",
"Z.	c #F1D993",
"`.	c #E9CD83",
" +	c #E6CA7F",
".+	c #EAD085",
"++	c #E9CD7F",
"@+	c #E8CD85",
"#+	c #ECD188",
"$+	c #EED38C",
"%+	c #F0D789",
"&+	c #EFD688",
"*+	c #F3DA9C",
"=+	c #F3DA97",
"-+	c #E9CD85",
";+	c #E5C97D",
">+	c #B82525",
",+	c #F3D794",
"'+	c #F3D998",
")+	c #F0D895",
"!+	c #F2D88F",
"~+	c #E8CA7F",
"{+	c #EDD186",
"]+	c #EDD38A",
"^+	c #EFD68E",
"/+	c #F2D980",
"(+	c #ECD186",
"_+	c #EACF7F",
":+	c #EACE85",
"<+	c #EACF84",
"[+	c #EDD28F",
"}+	c #EED389",
"|+	c #EED388",
"1+	c #EED18B",
"2+	c #EBCF87",
"3+	c #EDD27D",
"4+	c #EACF81",
"5+	c #E9CE80",
"6+	c #E9CE7F",
"7+	c #EDD188",
"8+	c #ECD086",
"9+	c #ECD088",
"0+	c #EED48F",
"a+	c #EFD492",
"b+	c #EED391",
"c+	c #F0D792",
"d+	c #F1D894",
"e+	c #F0D892",
"f+	c #F2DAA0",
"g+	c #EED288",
"h+	c #EED58D",
"i+	c #EED38A",
"j+	c #EBD18D",
"k+	c #F2D896",
"l+	c #F3DB93",
"m+	c #F3DB9F",
"n+	c #F1D892",
"o+	c #EFD48A",
"p+	c #F1D581",
"q+	c #EFD38B",
"r+	c #F1D997",
"s+	c #EFD791",
"t+	c #EBD084",
"u+	c #ECD287",
"v+	c #EBD28B",
"w+	c #EED489",
"x+	c #F2D78D",
"y+	c #F2D78F",
"z+	c #F0D693",
"A+	c #F1D787",
"B+	c #F0D692",
"C+	c #F0D799",
"D+	c #EACF85",
"E+	c #F0D68A",
"F+	c #EACF83",
"G+	c #E9CD81",
"H+	c #EBCF84",
"I+	c #E8CC7F",
"J+	c #EFD694",
"K+	c #F1D68D",
"L+	c #F3DA93",
"M+	c #EDD288",
"N+	c #EAD080",
"O+	c #EBCF82",
"P+	c #ECD17B",
"Q+	c #E8CC83",
"R+	c #E9CD84",
"S+	c #EED48C",
"T+	c #ECD288",
"U+	c #F1D78A",
"V+	c #F0D894",
"W+	c #F3D88B",
"X+	c #F1D694",
"Y+	c #F1D899",
"Z+	c #ECD181",
"`+	c #EFD491",
" @	c #E7CB81",
".@	c #EBD085",
"+@	c #EDD285",
"@@	c #F3DA8C",
"#@	c #F2D981",
"$@	c #EFD48C",
"%@	c #EFD28C",
"&@	c #EED590",
"*@	c #F0D691",
"=@	c #EED592",
"-@	c #F0D794",
";@	c #F3DB9E",
">@	c #F3DB9D",
",@	c #F3D896",
"'@	c #F3DA8D",
")@	c #F2D78C",
"!@	c #EED58F",
"~@	c #F0D896",
"{@	c #FFFFFF",
"]@	c #EBD290",
"^@	c #F2D98B",
"/@	c #EBD187",
"(@	c #F1D88A",
"_@	c #EDD38B",
":@	c #F0D790",
"<@	c #EDD084",
"[@	c #F1D693",
"}@	c #F3DA96",
"|@	c #F3DA95",
"1@	c #E9CE79",
"2@	c #F0D78D",
"3@	c #F1D88D",
"4@	c #F4D994",
"5@	c #E9CC83",
"6@	c #E7CB7C",
"7@	c #EACE7B",
"8@	c #EACD7F",
"9@	c #ECD185",
"0@	c #ECD187",
"a@	c #EFD389",
"b@	c #F0D58A",
"c@	c #F1D785",
"d@	c #F1D898",
"e@	c #F3D895",
"f@	c #F2D794",
"g@	c #FFFFFE",
"h@	c #F2D68E",
"i@	c #EBCD7F",
"j@	c #EBD086",
"k@	c #EACF77",
"l@	c #E6CB79",
"m@	c #E9CC7E",
"n@	c #EFD386",
"o@	c #EED38B",
"p@	c #F1D888",
"q@	c #F3D993",
"r@	c #F3D991",
"s@	c #F1D786",
"t@	c #E9CD7D",
"u@	c #EBCE84",
"v@	c #EFD58F",
"w@	c #F1D793",
"x@	c #EACE81",
"y@	c #EACF86",
"z@	c #ECD189",
"A@	c #EED48E",
"B@	c #EFD384",
"C@	c #ECD08B",
"D@	c #E9CD80",
"E@	c #EDD289",
"F@	c #F0D587",
"G@	c #EED38E",
"H@	c #EDD089",
"I@	c #EED490",
"J@	c #EFD692",
"K@	c #F3D885",
"L@	c #EFD58A",
"M@	c #F1D797",
"N@	c #F2DA95",
"O@	c #EAD18A",
"P@	c #F4D995",
"Q@	c #F4DA96",
"R@	c #F4D996",
"S@	c #EFD68F",
"T@	c #F0D78E",
"U@	c #E8CB81",
"V@	c #E6C97B",
"W@	c #F2D891",
"X@	c #F1D896",
"Y@	c #E9CD7E",
"Z@	c #F3D986",
"`@	c #ECD28D",
" #	c #ECCF85",
".#	c #ECD38A",
"+#	c #F1D788",
"@#	c #F3D995",
"##	c #F1D891",
"$#	c #F4DB9C",
"%#	c #ECD38D",
"&#	c #EED480",
"*#	c #F1D88F",
"=#	c #EDD183",
"-#	c #EFD78E",
";#	c #F0D48B",
">#	c #F0D48D",
",#	c #EED68B",
"'#	c #F2D892",
")#	c #F3D994",
"!#	c #F0D78C",
"~#	c #F3DA84",
"{#	c #F0D897",
"]#	c #E6CB82",
"^#	c #EACE7A",
"/#	c #EBD07A",
"(#	c #EACE86",
"_#	c #EDD38E",
":#	c #F1D890",
"<#	c #F1D991",
"[#	c #EED58E",
"}#	c #EED58B",
"|#	c #E9CB7E",
"1#	c #E7CC7F",
"2#	c #E6CC7D",
"3#	c #E6CA7C",
"4#	c #EED484",
"5#	c #EFD585",
"6#	c #EACC7F",
"7#	c #EAD083",
"8#	c #E9CE81",
"9#	c #EBCF7F",
"0#	c #EBD07B",
"a#	c #EDD382",
"b#	c #F1D58F",
"c#	c #E8CC7C",
"d#	c #E7CC7D",
"e#	c #EBCE85",
"f#	c #EBD08B",
"g#	c #F1D783",
"h#	c #EFD487",
"i#	c #ECD184",
"j#	c #E8CC7D",
"k#	c #E4C87E",
"l#	c #EACD81",
"m#	c #E6C97C",
"n#	c #EED58C",
"o#	c #EFD489",
"p#	c #EED28F",
"q#	c #EBCF83",
"r#	c #E8CD80",
"s#	c #EACD82",
"t#	c #EACE7E",
"u#	c #E5C97F",
"v#	c #EFD385",
"w#	c #F2D695",
"x#	c #F1D885",
"y#	c #E9CC81",
"z#	c #E8CC82",
"A#	c #EFD387",
"B#	c #EED38D",
"C#	c #EFD68B",
"D#	c #EACF88",
"E#	c #EBD083",
"F#	c #EACF87",
"G#	c #EACE8C",
"H#	c #F0D485",
"I#	c #F0D591",
"J#	c #F0D686",
"K#	c #EED384",
"L#	c #EDD18A",
"M#	c #EACE80",
"N#	c #F2D795",
"O#	c #F0D695",
"P#	c #F0D689",
"Q#	c #F0D688",
"R#	c #F1D68B",
"  . +       @   #       $ $ $ $ $ $ $ $ $ $ $ $ $ $ % &   * = #   - - ; > ,   ' # ) + ! ~ > , ~ , { ] ~ ^ ~ / ( > _ , $ $ $ $ $ $ $ $ $ $ : > > > , > > ",
"< [ < < } | 1 2 3 3 4 3 $ $ $ $ $ $ $ $ $ $ $ $ $ $ ' 5 !             /   & # 4 < 6 ;     _ _ ~ ~   > 6 7 ) 8   9 0 * $ $ $ $ $ $ $ $ $ $ + a b     > + ",
"c 2 c d e + 7 f g h i j $ $ $ $ $ $ $ $ $ $ $ $ $ $ k l m n } d o   , p q l l q 2 2 2 r d ! +   s t u v ! w > - ,     $ $ $ $ $ $ $ $ $ $ x + y z A B C ",
"3 o   + D E F G H I J K $ $ $ $ $ $ $ $ $ $ $ $ $ $ L M N k 2 n 2 d 3 { O P Q i R S l l T c U x 2 3 #         + * V W $ $ $ $ $ $ $ $ $ $ X 1 2 2 2 2 2 ",
"+ D f Y Z `  ...+.+.K ` $ $ $ $ $ $ $ $ $ $ $ $ $ $ _     @.#.d / $.%.&.*.=.-.;.J J >.,.'.p 2 2 l ).4 !.p ' ~.{.l n l $ $ $ $ $ $ $ $ $ $ l ' ].^./.0 (.",
"_.:.<.[.}.%.|.h 1.}.2.3.$ $ $ $ $ 4.4.4.4.4.4.4.4.4.$ $ $ $ $ 5.6.7.8.9.0.;.a.b.=.c.;.d.%.%.e.f.g.h.i.2 l j.k.$ $ $ $ 4.4.4.4.4.$ $ $ $ $ _ - l.m.n.o.p.",
"~ q.~ 3.. . r.s.@.t.u.#.$ $ $ $ $ 4.4.4.4.4.4.4.4.4.$ $ $ $ $ v.w.I J x.y.H z.A.;.B.C.H |.D.E.~   _ ; @.- F.w $ $ $ $ 4.4.4.4.4.$ $ $ $ $ ! - - > # G.H.",
"< < C } #.I.J.K.L.M.N.D.$ $ $ $ $ 4.4.4.4.4.4.4.4.4.$ $ $ $ $ M.K O.+.J P.Q.-.R.S.h T.R U.* H.  V.u     9 W.X.$ $ $ $ 4.4.4.4.4.$ $ $ $ $ U ' Y./.M X.F.",
"2 2 Z.. `.+.` K  +K 7.J $ $ $ $ $ 4.4.4.4.4.4.4.4.4.$ $ $ $ $ .+p.++@+T..+G #+7 $+p.] ~ ~ o - , %+*   ) &+5 > $ $ $ $ 4.4.4.4.4.$ $ $ $ $ 2 *+c ' U k =+",
"y T.y.+.7.-++.F J [.;.J B.;+-+%._.$ $ $ $ 4.4.4.4.4.4.4.4.4.4.$ $ $ $ $ $ $ $ $ $ $ $ $ $ $ $ $ $ $ $ $ $ $ $ >+>+>+>+4.4.4.4.4.$ $ $ $ $ ,+'+)+~.!+5 ,+",
"L.+.H J L.~+J J J +.7.v.v.7.{+]+#+$ $ $ $ 4.4.4.4.4.4.4.4.4.4.$ $ $ $ $ $ $ $ $ $ $ $ $ $ $ $ $ $ $ $ $ $ $ $ >+>+>+>+4.4.4.4.4.$ $ $ $ $ ^+  /+8 (+h S.",
"` ` J +._++.7.7.K :+<+$+[+}+~ q.+ $ $ $ $ 4.4.4.4.4.4.4.4.4.4.$ $ $ $ $ $ $ $ $ $ $ $ $ $ $ $ $ $ $ $ $ $ $ $ >+>+>+>+4.4.4.4.4.$ $ $ $ $ _ ~ |+1+g 2+3+",
"4++.5+6+`.7+8+H 9+0+a+7 b+> c+j d+$ $ $ $ 4.4.4.4.4.4.4.4.4.4.$ $ $ $ $ $ $ $ $ $ $ $ $ $ $ $ $ $ $ $ $ $ $ $ >+>+>+>+4.4.4.4.4.$ $ $ $ $ e+f+l * ) |.$.",
"8+T.$+~ 7+g+h+i+E., + & j+k+d ! / $ $ $ $ 4.4.4.4.4.4.4.4.4.4.$ $ $ $ $ $ $ $ $ $ $ $ $ $ $ $ $ $ $ $ $ $ $ $ >+>+>+>+4.4.4.4.4.$ $ $ $ $ l+m+n+o+p+o+q+",
"~ r+$ $ $ $ $ $ $ $ $ $ s+t T.t+R._.5+u+v+$ $ $ $ $ $ $ $ $ $ $ $ $ $ $ 4.4.4.4.4.4.4.4.4.4.4.4.4.4.>+>+>+>+>+$ $ $ $ $ $ $ $ $ w+x+$+d y+w z+A+B+C+0+D+",
"  E+$ $ $ $ $ $ $ $ $ $ K.#+F+G+H+R.>.L.I+$ $ $ $ $ $ $ $ $ $ $ $ $ $ $ 4.4.4.4.4.4.4.4.4.4.4.4.4.4.>+>+>+>+>+$ $ $ $ $ $ $ $ $ J+; , K+        > / / (.",
"L+l $ $ $ $ $ $ $ $ $ $ M+5.N+5.O+P+`.Q+R+$ $ $ $ $ $ $ $ $ $ $ $ $ $ $ 4.4.4.4.4.4.4.4.4.4.4.4.4.4.>+>+>+>+>+$ $ $ $ $ $ $ $ $ S+T+H.+ U+V+m.w W+> > X+",
"Y+u.$ $ $ $ $ $ $ $ $ $ Z+i `+ @.@O+M+M++@$ $ $ $ $ $ $ $ $ $ $ $ $ $ $ 4.4.4.4.4.4.4.4.4.4.4.4.4.4.>+>+>+>+>+$ $ $ $ $ $ $ $ $ 2 u.@.3 !.* d @@' ' i.=+",
"#@, $ $ $ $ $ $ $ $ $ $ $@#++ M+%@&@# & z+$ $ $ $ $ $ $ $ $ $ $ $ $ $ $ 4.4.4.4.4.4.4.4.4.4.4.4.4.4.>+>+>+>+>+$ $ $ $ $ $ $ $ $ *@=@-@;@>@,@p '@_ o )@; ",
"    $ $ $ $ $ 4.4.4.4.4.$ $ $ $ $ !@. ~@+ $ $ $ $ $ 4.4.4.4.4.4.4.4.4.4.{@{@{@{@{@{@{@{@{@{@{@{@{@{@4.4.4.4.4.4.4.4.4.4.4.4.4.4.$ $ $ $ $ # n.b ]@  ^@  ",
"5 r+$ $ $ $ $ 4.4.4.4.4.$ $ $ $ $ , /@w > $ $ $ $ $ 4.4.4.4.4.4.4.4.4.4.{@{@{@{@{@{@{@{@{@{@{@{@{@{@4.4.4.4.4.4.4.4.4.4.4.4.4.4.$ $ $ $ $ e+i.y S     3 ",
"n 6 $ $ $ $ $ 4.4.4.4.4.$ $ $ $ $ > ! (@_@$ $ $ $ $ 4.4.4.4.4.4.4.4.4.4.{@{@{@{@{@{@{@{@{@{@{@{@{@{@4.4.4.4.4.4.4.4.4.4.4.4.4.4.$ $ $ $ $ :@o y+8 , u.2 ",
"}+<@$ $ $ $ $ 4.4.4.4.4.$ $ $ $ $ , w <   $ $ $ $ $ 4.4.4.4.4.4.4.4.4.4.{@{@{@{@{@{@{@{@{@{@{@{@{@{@4.4.4.4.4.4.4.4.4.4.4.4.4.4.$ $ $ $ $ ! [@_ @.}@|@> ",
"+.1@$ $ $ $ $ 4.4.4.4.4.$ $ $ $ $ 5 2@3@S $ $ $ $ $ 4.4.4.4.4.4.4.4.4.4.{@{@{@{@{@{@{@{@{@{@{@{@{@{@4.4.4.4.4.4.4.4.4.4.4.4.4.4.$ $ $ $ $ _ , d 4@y .@5@",
"+.@+$ $ $ $ $ 4.4.4.4.4.$ $ $ $ $ $ $ $ $ $ $ $ $ $ {@{@{@{@{@{@{@{@{@{@$ $ $ $ $ $ $ $ $ {@{@{@{@{@4.4.4.4.4.4.4.4.4.4.4.4.4.4.4.4.4.4.4.$ $ $ $ $ L.6@",
"+.:+$ $ $ $ $ 4.4.4.4.4.$ $ $ $ $ $ $ $ $ $ $ $ $ $ {@{@{@{@{@{@{@{@{@{@$ $ $ $ $ $ $ $ $ {@{@{@{@{@4.4.4.4.4.4.4.4.4.4.4.4.4.4.4.4.4.4.4.$ $ $ $ $ 6@+.",
"[.H $ $ $ $ $ 4.4.4.4.4.$ $ $ $ $ $ $ $ $ $ $ $ $ $ {@{@{@{@{@{@{@{@{@{@$ $ $ $ $ $ $ $ $ {@{@{@{@{@4.4.4.4.4.4.4.4.4.4.4.4.4.4.4.4.4.4.4.$ $ $ $ $ 7@8@",
"9@g $ $ $ $ $ 4.4.4.4.4.$ $ $ $ $ $ $ $ $ $ $ $ $ $ {@{@{@{@{@{@{@{@{@{@$ $ $ $ $ $ $ $ $ {@{@{@{@{@4.4.4.4.4.4.4.4.4.4.4.4.4.4.4.4.4.4.4.$ $ $ $ $ p.0@",
"a@b@$ $ $ $ $ {@{@{@{@{@$ $ $ $ $ 4.4.4.4.4.4.4.4.4.{@{@{@{@{@$ $ $ $ $ $ $ $ $ {@{@{@{@{@4.4.4.4.4.4.4.4.4.4.{@{@{@{@4.4.4.4.4.4.4.4.4.4.$ $ $ $ $ + o+",
"    $ $ $ $ $ {@{@{@{@{@$ $ $ $ $ 4.4.4.4.4.4.4.4.4.{@{@{@{@{@$ $ $ $ $ $ $ $ $ {@{@{@{@{@4.4.4.4.4.4.4.4.4.4.{@{@{@{@4.4.4.4.4.4.4.4.4.4.$ $ $ $ $ m.m.",
"*@  $ $ $ $ $ {@{@{@{@{@$ $ $ $ $ 4.4.4.4.4.4.4.4.4.{@{@{@{@{@$ $ $ $ $ $ $ $ $ {@{@{@{@{@4.4.4.4.4.4.4.4.4.4.{@{@{@{@4.4.4.4.4.4.4.4.4.4.$ $ $ $ $ K+c@",
"d@e@$ $ $ $ $ {@{@{@{@{@$ $ $ $ $ 4.4.4.4.4.4.4.4.4.{@{@{@{@{@$ $ $ $ $ $ $ $ $ {@{@{@{@{@4.4.4.4.4.4.4.4.4.4.{@{@{@{@4.4.4.4.4.4.4.4.4.4.$ $ $ $ $ # f@",
"2 r $ $ $ $ $ {@{@{@{@{@$ $ $ $ $ 4.4.4.4.4.4.4.4.4.{@{@{@{@{@$ $ $ $ $ $ $ $ $ {@{@{@{@{@4.4.4.4.4.4.4.4.4.4.{@{@{@{@4.4.4.4.4.4.4.4.4.4.$ $ $ $ $ *+l ",
", # $ $ $ $ $ {@{@{@{@{@$ $ $ $ $ {@{@{@{@4.4.4.4.4.{@{@{@{@{@{@{@{@{@{@{@{@{@{@{@{@{@{@{@4.4.4.4.4.g@g@g@g@g@{@{@{@{@{@{@{@{@{@4.4.4.4.4.$ $ $ $ $ d@> ",
"h@p.$ $ $ $ $ {@{@{@{@{@$ $ $ $ $ {@{@{@{@4.4.4.4.4.{@{@{@{@{@{@{@{@{@{@{@{@{@{@{@{@{@{@{@4.4.4.4.4.g@g@g@g@g@{@{@{@{@{@{@{@{@{@4.4.4.4.4.$ $ $ $ $ > %+",
"i@~+$ $ $ $ $ {@{@{@{@{@$ $ $ $ $ {@{@{@{@4.4.4.4.4.{@{@{@{@{@{@{@{@{@{@{@{@{@{@{@{@{@{@{@4.4.4.4.4.g@g@g@g@g@{@{@{@{@{@{@{@{@{@4.4.4.4.4.$ $ $ $ $ 9@j@",
"+.J $ $ $ $ $ {@{@{@{@{@$ $ $ $ $ {@{@{@{@4.4.4.4.4.{@{@{@{@{@{@{@{@{@{@{@{@{@{@{@{@{@{@{@4.4.4.4.4.g@g@g@g@g@{@{@{@{@{@{@{@{@{@4.4.4.4.4.$ $ $ $ $ ;.=.",
"k@6.$ $ $ $ $ {@{@{@{@{@$ $ $ $ $ {@{@{@{@4.4.4.4.4.{@{@{@{@{@{@{@{@{@{@{@{@{@{@{@{@{@{@{@4.4.4.4.4.g@g@g@g@g@{@{@{@{@{@{@{@{@{@4.4.4.4.4.$ $ $ $ $ l@+.",
"+.G+$ $ $ $ $ {@{@{@{@{@$ $ $ $ $ {@{@{@{@4.4.4.4.4.{@{@{@{@{@{@{@{@{@{@{@{@{@{@{@{@{@{@{@4.4.4.4.4.{@{@{@{@{@{@{@{@{@{@{@{@{@{@4.4.4.4.4.$ $ $ $ $ m@7.",
"n@o@$ $ $ $ $ {@{@{@{@{@$ $ $ $ $ {@{@{@{@4.4.4.4.4.{@{@{@{@{@{@{@{@{@{@{@{@{@{@{@{@{@{@{@4.4.4.4.4.{@{@{@{@{@{@{@{@{@{@{@{@{@{@4.4.4.4.4.$ $ $ $ $ j@.@",
"p@2.$ $ $ $ $ {@{@{@{@{@$ $ $ $ $ {@{@{@{@4.4.4.4.4.{@{@{@{@{@{@{@{@{@{@{@{@{@{@{@{@{@{@{@4.4.4.4.4.{@{@{@{@{@{@{@{@{@{@{@{@{@{@4.4.4.4.4.$ $ $ $ $ >   ",
"q@M $ $ $ $ $ {@{@{@{@{@$ $ $ $ $ {@{@{@{@4.4.4.4.4.{@{@{@{@{@{@{@{@{@{@{@{@{@{@{@{@{@{@{@4.4.4.4.4.{@{@{@{@{@{@{@{@{@{@{@{@{@{@4.4.4.4.4.$ $ $ $ $ r@X+",
"d+2 $ $ $ $ $ {@{@{@{@{@$ $ $ $ $ {@{@{@{@4.4.4.4.4.{@{@{@{@{@{@{@{@{@{@{@{@{@{@{@{@{@{@{@4.4.4.4.4.{@{@{@{@{@{@{@{@{@{@{@{@{@{@4.4.4.4.4.$ $ $ $ $ d F.",
"s@H.$ $ $ $ $ {@{@{@{@{@$ $ $ $ $ 4.4.4.4.4.4.4.4.4.{@{@{@{@{@$ $ $ $ $ $ $ $ $ {@{@{@{@{@4.4.4.4.4.4.4.4.4.4.{@{@{@{@4.4.4.4.4.4.4.4.4.4.$ $ $ $ $     ",
"t@1.$ $ $ $ $ {@{@{@{@{@$ $ $ $ $ 4.4.4.4.4.4.4.4.4.{@{@{@{@{@$ $ $ $ $ $ $ $ $ {@{@{@{@{@4.4.4.4.4.4.4.4.4.4.{@{@{@{@4.4.4.4.4.4.4.4.4.4.$ $ $ $ $ 7+u@",
"S._.$ $ $ $ $ {@{@{@{@{@$ $ $ $ $ 4.4.4.4.4.4.4.4.4.{@{@{@{@{@$ $ $ $ $ $ $ $ $ {@{@{@{@{@4.4.4.4.4.4.4.4.4.4.{@{@{@{@4.4.4.4.4.4.4.4.4.4.$ $ $ $ $ T.h ",
"Q+0@$ $ $ $ $ {@{@{@{@{@$ $ $ $ $ 4.4.4.4.4.4.4.4.4.{@{@{@{@{@$ $ $ $ $ $ $ $ $ {@{@{@{@{@4.4.4.4.4.4.4.4.4.4.{@{@{@{@4.4.4.4.4.4.4.4.4.4.$ $ $ $ $ M+i+",
"v@$@$ $ $ $ $ 4.4.4.4.4.$ $ $ $ $ $ $ $ $ $ $ $ $ $ {@{@{@{@{@{@{@{@{@{@$ $ $ $ $ $ $ $ $ {@{@{@{@{@4.4.4.4.4.4.4.4.4.4.4.4.4.4.4.4.4.4.4.$ $ $ $ $ $@y ",
"> '.$ $ $ $ $ 4.4.4.4.4.$ $ $ $ $ $ $ $ $ $ $ $ $ $ {@{@{@{@{@{@{@{@{@{@$ $ $ $ $ $ $ $ $ {@{@{@{@{@4.4.4.4.4.4.4.4.4.4.4.4.4.4.4.4.4.4.4.$ $ $ $ $ - [@",
"w@d $ $ $ $ $ 4.4.4.4.4.$ $ $ $ $ $ $ $ $ $ $ $ $ $ {@{@{@{@{@{@{@{@{@{@$ $ $ $ $ $ $ $ $ {@{@{@{@{@4.4.4.4.4.4.4.4.4.4.4.4.4.4.4.4.4.4.4.$ $ $ $ $ 9 n.",
"n 2 $ $ $ $ $ 4.4.4.4.4.$ $ $ $ $ $ $ $ $ $ $ $ $ $ {@{@{@{@{@{@{@{@{@{@$ $ $ $ $ $ $ $ $ {@{@{@{@{@4.4.4.4.4.4.4.4.4.4.4.4.4.4.4.4.4.4.4.$ $ $ $ $ }@{.",
"p r $ $ $ $ $ 4.4.4.4.4.$ $ $ $ $ $ $ $ $ $ $ $ $ $ {@{@{@{@{@{@{@{@{@{@$ $ $ $ $ $ $ $ $ {@{@{@{@{@4.4.4.4.4.4.4.4.4.4.4.4.4.4.4.4.4.4.4.$ $ $ $ $ w @.",
"x@y@$ $ $ $ $ 4.4.4.4.4.$ $ $ $ $ R+z@(+S+$ $ $ $ $ 4.4.4.4.4.4.4.4.4.4.{@{@{@{@{@{@{@{@{@{@{@{@{@{@4.4.4.4.4.4.4.4.4.4.4.4.4.4.$ $ $ $ $ i+/ ^.A@}+r.B@",
"C@D@$ $ $ $ $ 4.4.4.4.4.$ $ $ $ $ E@7 F@y $ $ $ $ $ 4.4.4.4.4.4.4.4.4.4.{@{@{@{@{@{@{@{@{@{@{@{@{@{@4.4.4.4.4.4.4.4.4.4.4.4.4.4.$ $ $ $ $ > y M+T.G@_.d.",
".@L.$ $ $ $ $ 4.4.4.4.4.$ $ $ $ $ ! % ! > $ $ $ $ $ 4.4.4.4.4.4.4.4.4.4.{@{@{@{@{@{@{@{@{@{@{@{@{@{@4.4.4.4.4.4.4.4.4.4.4.4.4.4.$ $ $ $ $ > , / M+t+.@5.",
"T.H@$ $ $ $ $ 4.4.4.4.4.$ $ $ $ $ K+2.  ; $ $ $ $ $ 4.4.4.4.4.4.4.4.4.4.{@{@{@{@{@{@{@{@{@{@{@{@{@{@4.4.4.4.4.4.4.4.4.4.4.4.4.4.$ $ $ $ $ l.y > l.}+}+R ",
". o+$ $ $ $ $ 4.4.4.4.4.$ $ $ $ $ ! 3 I@J@$ $ $ $ $ 4.4.4.4.4.4.4.4.4.4.{@{@{@{@{@{@{@{@{@{@{@{@{@{@4.4.4.4.4.4.4.4.4.4.4.4.4.4.$ $ $ $ $ y K@/ L@~ ~ w+",
"    $ $ $ $ $ $ $ $ $ $ _   K+^+*@1 2 n c $ $ $ $ $ $ $ $ $ $ $ $ $ $ $ 4.4.4.4.4.4.4.4.4.4.4.4.4.4.>+>+>+>+>+$ $ $ $ $ $ $ $ $ > ; z+_ ~   , M@8 /     ",
"  > $ $ $ $ $ $ $ $ $ $ % % :@1 Y.c N@Z.O@$ $ $ $ $ $ $ $ $ $ $ $ $ $ $ 4.4.4.4.4.4.4.4.4.4.4.4.4.4.>+>+>+>+>+$ $ $ $ $ $ $ $ $ P@Q@l |@R@{.p , #   + t ",
"S@> $ $ $ $ $ $ $ $ $ $ T@p l n }@{ _.U@V@$ $ $ $ $ $ $ $ $ $ $ $ $ $ $ 4.4.4.4.4.4.4.4.4.4.4.4.4.4.>+>+>+>+>+$ $ $ $ $ $ $ $ $ W@3 w@X@/.2 2 n F.> _ w ",
"n+  $ $ $ $ $ $ $ $ $ $ i.=+n *@0.6.Y@+.+.$ $ $ $ $ $ $ $ $ $ $ $ $ $ $ 4.4.4.4.4.4.4.4.4.4.4.4.4.4.>+>+>+>+>+$ $ $ $ $ $ $ $ $ > > > +   Z@1 2 2 < ! 6 ",
"; T@$ $ $ $ $ $ $ $ $ $ w@`@ #.#m@+.M.I+m@$ $ $ $ $ $ $ $ $ $ $ $ $ $ $ 4.4.4.4.4.4.4.4.4.4.4.4.4.4.>+>+>+>+>+$ $ $ $ $ $ $ $ $       +#E+  % < u.@#r ##",
"< p q $#d k.%#M /.S o@#+&#_.5.h =.$ $ $ $ 4.4.4.4.4.4.4.4.4.4.$ $ $ $ $ $ $ $ $ $ $ $ $ $ $ $ $ $ $ $ $ $ $ $ >+>+>+>+4.4.4.4.4.$ $ $ $ $   > >   > d ! ",
"> 7 + s     *#(.~ p.{+8+=#(+.@L.j@$ $ $ $ 4.4.4.4.4.4.4.4.4.4.$ $ $ $ $ $ $ $ $ $ $ $ $ $ $ $ $ $ $ $ $ $ $ $ >+>+>+>+4.4.4.4.4.$ $ $ $ $       > , <   ",
"&   f@o     -#+   > ;#m.>#3.y ,#  $ $ $ $ 4.4.4.4.4.4.4.4.4.4.$ $ $ $ $ $ $ $ $ $ $ $ $ $ $ $ $ $ $ $ $ $ $ $ >+>+>+>+4.4.4.4.4.$ $ $ $ $ )     > w ,   ",
"g.  w ) < < o '##.R@p e@)#{.{.)#u.$ $ $ $ 4.4.4.4.4.4.4.4.4.4.$ $ $ $ $ $ $ $ $ $ $ $ $ $ $ $ $ $ $ $ $ $ $ $ >+>+>+>+4.4.4.4.4.$ $ $ $ $   K+!#  w ~#w ",
"  > *@##/.e@##h+i+}+) {#$ $ $ $ $ 4.4.4.4.4.4.4.4.4.$ $ $ $ $ D+6.G ]#^#+.6@++/#Y@F j@(#7+_#*@@#N@{.{.,@/.F.:#$ $ $ $ 4.4.4.4.4.$ $ $ $ $ '+, <#o # t p ",
"W@d [#:#}#0@+.G+.+M.+.|#$ $ $ $ $ 4.4.4.4.4.4.4.4.4.$ $ $ $ $ 1#2#6.3#D.+.6.F+4#` I `.5#D+_.u+& 6 3@n+'#k+u.u.$ $ $ $ 4.4.4.4.4.$ $ $ $ $ d+c k #.C d 6 ",
"m.}+F+6#;.R.Y@+.7#8#J J $ $ $ $ $ 4.4.4.4.4.4.4.4.4.$ $ $ $ $ R+H+M.9#0#8#H a#K+}+M+(+D+|+l.~   ~         ~ 8+$ $ $ $ 4.4.4.4.4.$ $ $ $ $ 7.(+b#> > >   ",
"6+c#-.;.+.M.J +.d#G++.J $ $ $ $ $ 4.4.4.4.4.4.4.4.4.$ $ $ $ $ p.o+g 0@]+i+e#f#L@t g#h#H.)   E+  > > 2.M+.@#+G+$ $ $ $ 4.4.4.4.4.$ $ $ $ $ 7.6.-.i#p.(+g ",
"G+Q.j#k#G+<+l#6.D@+.m#l#$ $ $ $ $ 4.4.4.4.4.4.4.4.4.$ $ $ $ $ q.n#o#$@) i+  y 8 n.p#m./ / y $@M+T.q#v.w.r#s#L.$ $ $ $ 4.4.4.4.4.$ $ $ $ $ ++1.D@D@L.5.G ",
"_.t#;.u#D.L.j@O+<+l#g v#$ $ $ $ $ $ $ $ $ $ $ $ $ $ ) ~ ~ ) w#y+x#, > )@U+& ) y H.~ / l.f y i I G+F x@y#D@J z#z#g F H $ $ $ $ $ $ $ $ $ $ A#1.T.H+.@.@<+",
"g+8+f {+o+7+B#H.p.}+o+) $ $ $ $ $ $ $ $ $ $ $ $ $ $ +     t ! w t > > / C#l.L@# m.) ) { M+8+G+9@D#2+E#M.Y@-.u@1#I+F#G#$ $ $ $ $ $ $ $ $ $ H#p.l.o+. 2.(+",
"F@}+v o+. l.m.$@> E+    $ $ $ $ $ $ $ $ $ $ $ $ $ $ + I#! ! K+K+T@2@>   > # (.F.* >   J#K#f L#1.<+1.s#+.2+5+M#++D@f T.$ $ $ $ $ $ $ $ $ $ o+}+    2.) 2.",
"V.  +                   $ $ $ $ $ $ $ $ $ $ $ $ $ $ 5 & % N#0 f.O#_ > t P#, d+F., ~ 2.) , }+R }+M+i p.j@t+p.m.M+7+8+. $ $ $ $ $ $ $ $ $ $ > > ~ u+Q#o m.",
"& o >   ) # t     t 5   $ $ $ $ $ $ $ $ $ $ $ $ $ $ > & # ! l.S S > >     , > _ G@z@2.    ~ o+  M+G.}+l.H.H.~ o+}+~ ) $ $ $ $ $ $ $ $ $ $ , 9   m.    R#"};
