/* XPM */
static char * enemy_2_d_xpm[] = {
"76 76 470 2",
"  	c #F0D68C",
". 	c #EFD48D",
"+ 	c #F0D58E",
"@ 	c #F2D889",
"# 	c #F1D690",
"$ 	c #F0D68E",
"% 	c #F0D894",
"& 	c #F1D691",
"* 	c #F0D68D",
"= 	c #F0D590",
"- 	c #F1D78E",
"; 	c #F1D78D",
"> 	c #F0D68F",
", 	c #F1D692",
"' 	c #F1D590",
") 	c #F0D58F",
"! 	c #F2D998",
"~ 	c #EFD58C",
"{ 	c #F1D68F",
"] 	c #EFD58B",
"^ 	c #EED48D",
"/ 	c #EED48B",
"( 	c #EDD28C",
"_ 	c #F0D58D",
": 	c #F3D983",
"< 	c #F1D78C",
"[ 	c #F1D68B",
"} 	c #F4D984",
"| 	c #F1D790",
"1 	c #ECD18A",
"2 	c #F3D891",
"3 	c #F3D793",
"4 	c #F2D994",
"5 	c #F2D996",
"6 	c #F2D793",
"7 	c #F1D895",
"8 	c #F0D795",
"9 	c #F0D897",
"0 	c #F4DA8C",
"a 	c #F2D893",
"b 	c #F2DA94",
"c 	c #F2D791",
"d 	c #F1D791",
"e 	c #EDD389",
"f 	c #F0D78F",
"g 	c #F1D794",
"h 	c #F0D68A",
"i 	c #F0D68B",
"j 	c #F1D78B",
"k 	c #F1D68C",
"l 	c #F2D792",
"m 	c #F2D884",
"n 	c #ECD084",
"o 	c #ECD085",
"p 	c #EBCF86",
"q 	c #ECD087",
"r 	c #EDD38C",
"s 	c #F2D995",
"t 	c #F2D997",
"u 	c #F1D894",
"v 	c #F3D894",
"w 	c #000000",
"x 	c #F1D68E",
"y 	c #F0D789",
"z 	c #F2D694",
"A 	c #F0D690",
"B 	c #EFD68F",
"C 	c #F2D999",
"D 	c #EFD58D",
"E 	c #F4DB83",
"F 	c #F2D98D",
"G 	c #F3D892",
"H 	c #F1D78F",
"I 	c #EED289",
"J 	c #EDD189",
"K 	c #E8CC81",
"L 	c #EBCF88",
"M 	c #E8CC80",
"N 	c #E7CB80",
"O 	c #E7CA7C",
"P 	c #E7CA7D",
"Q 	c #E7CC80",
"R 	c #EED38D",
"S 	c #F3D893",
"T 	c #F3DA9C",
"U 	c #F3DA9B",
"V 	c #F3D99B",
"W 	c #F2D88A",
"X 	c #F3D88E",
"Y 	c #F2D88D",
"Z 	c #EED38E",
"` 	c #F0D692",
" .	c #F3D98B",
"..	c #F1D798",
"+.	c #F4DB87",
"@.	c #E8CE7C",
"#.	c #EBCE7C",
"$.	c #E8CD81",
"%.	c #EACE79",
"&.	c #EBCE7F",
"*.	c #E8CB7D",
"=.	c #E9CE7F",
"-.	c #ECD086",
";.	c #F0D592",
">.	c #F3D992",
",.	c #F4D993",
"'.	c #F2DA95",
").	c #F2D99B",
"!.	c #F0D99F",
"~.	c #F2D894",
"{.	c #F2D990",
"].	c #F3D996",
"^.	c #EDD590",
"/.	c #F3D997",
"(.	c #F3DA91",
"_.	c #F1D996",
":.	c #F0D791",
"<.	c #EBCF85",
"[.	c #ECD27F",
"}.	c #E8CE7E",
"|.	c #EBD081",
"1.	c #E8CD7F",
"2.	c #ECD08A",
"3.	c #EACE84",
"4.	c #EED48A",
"5.	c #EFD38A",
"6.	c #EDD188",
"7.	c #F0D48B",
"8.	c #F1D994",
"9.	c #F2D892",
"0.	c #F1D993",
"a.	c #EFD795",
"b.	c #F2D991",
"c.	c #F3D994",
"d.	c #F2DA97",
"e.	c #F2D896",
"f.	c #F0D58B",
"g.	c #F0D58C",
"h.	c #F0D694",
"i.	c #EED591",
"j.	c #EDD287",
"k.	c #EFD58E",
"l.	c #EDD28B",
"m.	c #EAD089",
"n.	c #F2D790",
"o.	c #F3DA8E",
"p.	c #F2D993",
"q.	c #F2D891",
"r.	c #EBD18A",
"s.	c #F0D78E",
"t.	c #F1D792",
"u.	c #F1D891",
"v.	c #F3D99E",
"w.	c #F3DA97",
"x.	c #F0D48C",
"y.	c #EFD48B",
"z.	c #0069FF",
"A.	c #ECD38A",
"B.	c #EACE82",
"C.	c #ECD38D",
"D.	c #EFD693",
"E.	c #F0D793",
"F.	c #ECD390",
"G.	c #E9CD85",
"H.	c #EDD286",
"I.	c #F0D794",
"J.	c #EDD186",
"K.	c #EDD38A",
"L.	c #ECD188",
"M.	c #EFD38B",
"N.	c #EFD591",
"O.	c #F1D896",
"P.	c #ECCF7D",
"Q.	c #E9CC83",
"R.	c #ECD28F",
"S.	c #F0D797",
"T.	c #F1D998",
"U.	c #0668FE",
"V.	c #0469FF",
"W.	c #FFFFFF",
"X.	c #F1D899",
"Y.	c #EED592",
"Z.	c #EED38C",
"`.	c #004AB8",
" +	c #F3DA8C",
".+	c #F3D999",
"++	c #F2D981",
"@+	c #F3DA8D",
"#+	c #F2D78C",
"$+	c #EBD290",
"%+	c #F2D98B",
"&+	c #F1D997",
"*+	c #F2D78F",
"=+	c #F0D792",
"-+	c #F2D992",
";+	c #F0D893",
">+	c #FFFFFE",
",+	c #EED491",
"'+	c #F0D790",
")+	c #EED389",
"!+	c #EDD084",
"~+	c #E8CC7F",
"{+	c #E8CD80",
"]+	c #E8CB7F",
"^+	c #F1D88B",
"/+	c #F1D693",
"(+	c #F3DA96",
"_+	c #F3DA95",
":+	c #E9CE79",
"<+	c #E8CB82",
"[+	c #E8CC78",
"}+	c #E9CC7E",
"|+	c #E9CD87",
"1+	c #E8CC7E",
"2+	c #F2DB9A",
"3+	c #F2D692",
"4+	c #F4D994",
"5+	c #EBD085",
"6+	c #E8CD85",
"7+	c #E8CD86",
"8+	c #E5C97D",
"9+	c #F2D795",
"0+	c #E7CC7E",
"a+	c #E9CD82",
"b+	c #E7CB7C",
"c+	c #EACE85",
"d+	c #E9CE83",
"e+	c #E7CB7F",
"f+	c #EACF85",
"g+	c #E8CC7C",
"h+	c #E9CE80",
"i+	c #F1D897",
"j+	c #F2DA98",
"k+	c #F2DA9A",
"l+	c #EDD17E",
"m+	c #E9CC7F",
"n+	c #EED58C",
"o+	c #EBD084",
"p+	c #F2D99A",
"q+	c #F1D793",
"r+	c #EACD83",
"s+	c #E8CB7B",
"t+	c #EACE7B",
"u+	c #EACD7F",
"v+	c #ECD185",
"w+	c #EDD187",
"x+	c #EFD482",
"y+	c #ECD189",
"z+	c #EFD390",
"A+	c #EDD28A",
"B+	c #EACF88",
"C+	c #EBD08A",
"D+	c #EBD086",
"E+	c #EDD17F",
"F+	c #ECD187",
"G+	c #EFD389",
"H+	c #F0D58A",
"I+	c #ECD088",
"J+	c #EDD391",
"K+	c #EED58F",
"L+	c #EFD694",
"M+	c #EFD48A",
"N+	c #EFD489",
"O+	c #F0D591",
"P+	c #EDD28E",
"Q+	c #F1D795",
"R+	c #F0D994",
"S+	c #EED28B",
"T+	c #EFD685",
"U+	c #F0D691",
"V+	c #EFD793",
"W+	c #ECD28C",
"X+	c #F2D78A",
"Y+	c #F1D688",
"Z+	c #F1D68D",
"`+	c #F1D785",
" @	c #F1D898",
".@	c #F3D895",
"+@	c #F3DA98",
"@@	c #F2D794",
"#@	c #F2D895",
"$@	c #F1D893",
"%@	c #F2D691",
"&@	c #EBD188",
"*@	c #F2D98F",
"=@	c #F4D996",
"-@	c #F3DA92",
";@	c #EED489",
">@	c #EBD083",
",@	c #E9CD7E",
"'@	c #F3DB9B",
")@	c #F1D98E",
"!@	c #F2D68E",
"~@	c #E9CF84",
"{@	c #E7CC7D",
"]@	c #E9CC82",
"^@	c #F2D88E",
"/@	c #F1D986",
"(@	c #EBCD7F",
"_@	c #E8CA7F",
":@	c #E9CE78",
"<@	c #EAD076",
"[@	c #EBD077",
"}@	c #E7CB7D",
"|@	c #EED48C",
"1@	c #EFD692",
"2@	c #E8CC7D",
"3@	c #E9CD81",
"4@	c #E7CB7E",
"5@	c #EACF77",
"6@	c #E9CB7D",
"7@	c #EACF8D",
"8@	c #EFD386",
"9@	c #EFD384",
"0@	c #EDD490",
"a@	c #EBCE86",
"b@	c #EACE87",
"c@	c #E9CD80",
"d@	c #EACF80",
"e@	c #E6CB79",
"f@	c #EACF81",
"g@	c #E9CF86",
"h@	c #EBD088",
"i@	c #EACE7F",
"j@	c #EBCF7F",
"k@	c #EBD08B",
"l@	c #EED393",
"m@	c #EACF83",
"n@	c #E9CE7C",
"o@	c #E8CB7E",
"p@	c #EED38B",
"q@	c #EED286",
"r@	c #EFD480",
"s@	c #EED388",
"t@	c #EED287",
"u@	c #EED38A",
"v@	c #EED28A",
"w@	c #EFD48E",
"x@	c #EDD486",
"y@	c #F0D491",
"z@	c #F1D888",
"A@	c #F1D784",
"B@	c #F1D58E",
"C@	c #F0D995",
"D@	c #F0D687",
"E@	c #EFD48C",
"F@	c #F3D993",
"G@	c #EDD392",
"H@	c #F0D78D",
"I@	c #F3D995",
"J@	c #F1D789",
"K@	c #EDD38B",
"L@	c #F3D991",
"M@	c #F1D694",
"N@	c #F2DA93",
"O@	c #F2DA96",
"P@	c #F3DA99",
"Q@	c #EFD490",
"R@	c #F3D898",
"S@	c #F1D786",
"T@	c #F3D98D",
"U@	c #E9CD7D",
"V@	c #E9CE81",
"W@	c #EBD17E",
"X@	c #EBCF80",
"Y@	c #F1D88C",
"Z@	c #EBCE84",
"`@	c #EACF82",
" #	c #EBCF84",
".#	c #E8CC83",
"+#	c #EED288",
"@#	c #EDD288",
"##	c #EFD58F",
"$#	c #F0D898",
"%#	c #EBD08C",
"&#	c #F0D891",
"*#	c #F1D592",
"=#	c #EFD592",
"-#	c #F1D885",
";#	c #F2D890",
">#	c #F0D796",
",#	c #EED490",
"'#	c #EFD68E",
")#	c #EBD174",
"!#	c #E6CB7C",
"~#	c #E9CE84",
"{#	c #EFD590",
"]#	c #EAD18A",
"^#	c #ECD18B",
"/#	c #ECCF85",
"(#	c #EACC80",
"_#	c #F5DC9D",
":#	c #ECD28D",
"<#	c #E8CD7E",
"[#	c #EFD683",
"}#	c #EED480",
"|#	c #EACE83",
"1#	c #EBCE82",
"2#	c #E8CD82",
"3#	c #EDD183",
"4#	c #ECD186",
"5#	c #E9CF85",
"6#	c #EFD78E",
"7#	c #F0D48D",
"8#	c #F1D995",
"9#	c #F4D997",
"0#	c #F0D78C",
"a#	c #F3DA84",
"b#	c #EED58D",
"c#	c #ECD28A",
"d#	c #E6CC86",
"e#	c #F2D98C",
"f#	c #F3D897",
"g#	c #EDD493",
"h#	c #F3D998",
"i#	c #F1D991",
"j#	c #EED58E",
"k#	c #F1D890",
"l#	c #EED58B",
"m#	c #EAD085",
"n#	c #E9CB7E",
"o#	c #E5CA7D",
"p#	c #E6CA7C",
"q#	c #E6C97D",
"r#	c #E8CC82",
"s#	c #EACC7F",
"t#	c #EAD083",
"u#	c #EACF7C",
"v#	c #EBD17C",
"w#	c #E7CC81",
"x#	c #E8CB81",
"y#	c #E9CD7B",
"z#	c #F1D58F",
"A#	c #EACE81",
"B#	c #EBCF7B",
"C#	c #ECD081",
"D#	c #ECD184",
"E#	c #E9CB7F",
"F#	c #E4C87E",
"G#	c #EACF84",
"H#	c #EACD81",
"I#	c #E6C97C",
"J#	c #EBCE85",
"K#	c #E9CC81",
"L#	c #EACF8A",
"M#	c #E8CB80",
"N#	c #E9CD7F",
"O#	c #EACE7E",
"P#	c #E5C97F",
"Q#	c #E9CE82",
"R#	c #EBCF82",
"S#	c #EFD385",
"T#	c #EED386",
"U#	c #E8CA7C",
"V#	c #E9CC80",
"W#	c #EFD387",
"X#	c #EBD089",
"Y#	c #EED48E",
"Z#	c #EBD087",
"`#	c #F0D485",
" $	c #F0D587",
".$	c #F1D68A",
"+$	c #EED495",
"@$	c #EFD68C",
"#$	c #F0D695",
"$$	c #F0D689",
"%$	c #EDD289",
"&$	c #F0D684",
"*$	c #ECD287",
"=$	c #F0D688",
"  . +       @   #           +         + $ % & * = - ; >   , ' #   ) ) - * $   ! # ~ + { ] * $ ] $ ^ / ] ( ] _ : * & $   ; ) # ; ] < ) _ [ } * * * $ * * ",
"| 1 | | 2 3 4 5 6 6 7 6 | | # +   +     8 9 0 a 5 b ! c {             _   > # 7 | d -     & & ] ]   * d e ~ =   f g ,     ] _ *     h i + + j k     * + ",
"b 5 b l m + e n o p q r 7 s t u { +   # v 5 7 5 w w w w w w w w w w w w w w w w w w w w w w w w w w w w { x * ) $         y + + z _ _ A B C + D E F G v ",
"6 H   + I J K L M N O P Q R S t T b a 5 U V t s w w w w w w w w w w w w w w w w w w w w w w w w w w w w       + , W X Y Z a H   `  .| ..7 +.4 5 5 5 5 5 ",
"+ I n @.#.$.%.&.*.*.P $.=.=.-.;.>.5 ,.'.).!.& + w w w w w w w w w w w w w w w w w w w w w w w w w w w w ~.! {.].t s t s 5 5 s ^./.(.5 5 ! t ! _.).a g :.",
"<.[.}.Q |.1.2.p 3.|.4.5.6.5.7.8.{ 9.0.5 # & { a.w w w w w w w w w w w w w w w w w w w w w w w w w w w w t V b.>.l | 5 7 5 ].c.t d.d.e.& & & ) f.g.h.i.j.",
"] k.] 5.. . l.m.n.o.p.S S q.+   = + + + r.n.s.u w w w w w w w w w w w w w w w w w w w w w w w w w w w w ) t.x ] ;   _ + u.C C s t v.w.5 | { ) ) * # x.y.",
"w w w w w w w w w w w w w w s t v 5 s w w w w w z.z.z.z.z.z.z.z.z.z.z.z.z.z.z.z.z.z.z.z.z.z.z.z.z.z.z.z.w w w w w D   > { A.w w w w w w w w w w w w w w ",
"w w w w w w w w w w w w w w B.C.D.x   w w w w w z.z.z.z.z.z.z.z.z.z.z.z.z.z.z.z.z.z.z.z.z.z.z.z.z.z.z.z.w w w w w E.{ F.$ k w w w w w w w w w w w w w w ",
"w w w w w w w w w w w w w w G.1.<.H.  w w w w w z.z.z.z.z.z.z.z.z.z.z.z.z.z.z.z.z.z.z.z.z.z.z.z.z.z.z.z.w w w w w 4 g I...# w w w w w w w w w w w w w w ",
"w w w w w w w w w w w w w w J.K.L.M._ w w w w w z.z.z.z.z.z.z.z.z.z.z.z.z.z.z.z.z.z.z.z.z.z.z.z.z.z.z.z.w w w w w N.O.t t s w w w w w w w w w w w w w w ",
"w w w w w w w w w w w w w w ] k.+ ]   w w w w w z.z.z.z.z.z.z.z.z.z.z.z.z.z.z.z.z.z.z.z.z.z.z.z.z.z.z.z.w w w w w P.Q.R.S.T.w w w w w w w w w w w w w w ",
"w w w w w U.U.U.U.V.V.V.V.V.w w w w w z.z.z.z.z.z.z.z.z.z.z.z.z.z.W.W.W.W.W.W.W.W.W.W.z.z.z.z.z.z.z.z.z.z.z.z.z.z.w w w w w z.z.z.z.z.z.z.z.z.w w w w w ",
"w w w w w U.U.U.U.V.V.V.V.V.w w w w w z.z.z.z.z.z.z.z.z.z.z.z.z.z.W.W.W.W.W.W.W.W.W.W.z.z.z.z.z.z.z.z.z.z.z.z.z.z.w w w w w z.z.z.z.z.z.z.z.z.w w w w w ",
"w w w w w U.U.U.U.V.V.V.V.V.w w w w w z.z.z.z.z.z.z.z.z.z.z.z.z.z.W.W.W.W.W.W.W.W.W.W.z.z.z.z.z.z.z.z.z.z.z.z.z.z.w w w w w z.z.z.z.z.z.z.z.z.w w w w w ",
"w w w w w U.U.U.U.V.V.V.V.V.w w w w w z.z.z.z.z.z.z.z.z.z.z.z.z.z.W.W.W.W.W.W.W.W.W.W.z.z.z.z.z.z.z.z.z.z.z.z.z.z.w w w w w z.z.z.z.z.z.z.z.z.w w w w w ",
"w w w w w U.U.U.U.V.V.V.V.V.w w w w w z.z.z.z.z.z.z.z.z.z.z.z.z.z.W.W.W.W.W.W.W.W.W.W.z.z.z.z.z.z.z.z.z.z.z.z.z.z.w w w w w z.z.z.z.z.z.z.z.z.w w w w w ",
"X.p.s Y.Z.w w w w `.`.`.`.`.w w w w w z.z.z.z.z.z.z.z.z.W.W.W.W.W.W.W.W.W.W.W.W.W.W.W.W.W.W.W.z.z.z.z.z.z.z.z.z.z.w w w w w `.`.`.`.w w w w w  +! ! .+w.",
"++$   ] ~ w w w w `.`.`.`.`.w w w w w z.z.z.z.z.z.z.z.z.W.W.W.W.W.W.W.W.W.W.W.W.W.W.W.W.W.W.W.z.z.z.z.z.z.z.z.z.z.w w w w w `.`.`.`.w w w w w @+& H #+- ",
"      * H w w w w `.`.`.`.`.w w w w w z.z.z.z.z.z.z.z.z.W.W.W.W.W.W.W.W.W.W.W.W.W.W.W.W.W.W.W.z.z.z.z.z.z.z.z.z.z.w w w w w `.`.`.`.w w w w w k $+  %+  ",
"c &+v t u w w w w `.`.`.`.`.w w w w w z.z.z.z.z.z.z.z.z.W.W.W.W.W.W.W.W.W.W.W.W.W.W.W.W.W.W.W.z.z.z.z.z.z.z.z.z.z.w w w w w `.`.`.`.w w w w w D A     6 ",
"s d - *+g ` =+-+;+w w w w w `.`.`.`.`.z.z.z.z.z.z.z.z.z.z.z.z.z.z.>+>+>+>+>+W.W.W.W.W.z.z.z.z.z.z.z.z.z.z.z.z.z.z.`.`.`.`.`.w w w w x { ,+'+H *+= $ p.5 ",
")+!+~+{+]+*.N O ~+w w w w w `.`.`.`.`.z.z.z.z.z.z.z.z.z.z.z.z.z.z.>+>+>+>+>+W.W.W.W.W.z.z.z.z.z.z.z.z.z.z.z.z.z.z.`.`.`.`.`.w w w w s.^+4.{ /+& n.(+_+* ",
"*.:+*.N <+[+}+|+1+w w w w w `.`.`.`.`.z.z.z.z.z.z.z.z.z.z.z.z.z.z.>+>+>+>+>+W.W.W.W.W.z.z.z.z.z.z.z.z.z.z.z.z.z.z.`.`.`.`.`.w w w w 2+i 3+& $ l 4+D 5+Q.",
"*.6+7+O O }+*.8+K w w w w w `.`.`.`.`.z.z.z.z.z.z.z.z.z.z.z.z.z.z.>+>+>+>+>+W.W.W.W.W.z.z.z.z.z.z.z.z.z.z.z.z.z.z.`.`.`.`.`.w w w w ~.d 9+v 4 c.H.0+a+b+",
"*.c+d+N e+G.f+g+h+w w w w w `.`.`.`.`.z.z.z.z.z.z.z.z.z.z.z.z.z.z.>+>+>+>+>+W.W.W.W.W.z.z.z.z.z.z.z.z.z.z.z.z.z.z.`.`.`.`.`.w w w w i+s j+k+b.l+1+1+b+*.",
"Q M M m+1+q n+o+<.w w w w w z.z.z.z.z.W.W.W.W.W.W.W.W.W.z.z.z.z.z.z.z.z.z.z.z.z.z.z.z.z.z.z.z.W.W.W.W.W.W.W.W.W.W.z.z.z.z.z.w w w w 5 p+d.q+~+r+M s+t+u+",
"v+o y.w+-.6.x+y.5.w w w w w z.z.z.z.z.W.W.W.W.W.W.W.W.W.z.z.z.z.z.z.z.z.z.z.z.z.z.z.z.z.z.z.z.W.W.W.W.W.W.W.W.W.W.z.z.z.z.z.w w w w y+z+A+B+C+D+c+E+j.F+",
"G+H+_ I+  i * y.> w w w w w z.z.z.z.z.W.W.W.W.W.W.W.W.W.z.z.z.z.z.z.z.z.z.z.z.z.z.z.z.z.z.z.z.W.W.W.W.W.W.W.W.W.W.z.z.z.z.z.w w w w J J+A+K+L+M+I N++ M+",
"      O+$ P+= Q+R+w w w w w z.z.z.z.z.W.W.W.W.W.W.W.W.W.z.z.z.z.z.z.z.z.z.z.z.z.z.z.z.z.z.z.z.W.W.W.W.W.W.W.W.W.W.z.z.z.z.z.w w w w L.= $ D S+T+h ] g.g.",
"U+  A V+| W+Z | ;+w w w w w z.z.z.z.z.W.W.W.W.W.W.W.W.W.z.z.z.z.z.z.z.z.z.z.z.z.z.z.z.z.z.z.z.W.W.W.W.W.W.W.W.W.W.z.z.z.z.z.w w w w X+i h Y+~ g.  _ Z+`+",
" @.@C +@C Q+5 ]./.w w w w w z.z.z.z.z.W.W.W.W.W.w w w w W.W.W.W.W.W.W.W.W.W.W.W.W.W.W.W.W.W.W.w w w w w W.W.W.W.W.z.z.z.z.z.w w w w $ < *   * 8.D $ # @@",
"5 #@u $@c %@x + $ w w w w w z.z.z.z.z.W.W.W.W.W.w w w w W.W.W.W.W.W.W.W.W.W.W.W.W.W.W.W.W.W.W.w w w w w W.W.W.W.W.z.z.z.z.z.w w w w &@n.l *@2 =@-@).T t ",
"$ # , g.;@o >@L ,@w w w w w z.z.z.z.z.W.W.W.W.W.w w w w W.W.W.W.W.W.W.W.W.W.W.W.W.W.W.W.W.W.W.w w w w w W.W.W.W.W.z.z.z.z.z.w w w w /.5 ].'@s ! #@)@ @* ",
"!@j.~@Q.{@N O ]@O w w w w w z.z.z.z.z.W.W.W.W.W.w w w w W.W.W.W.W.W.W.W.W.W.W.W.W.W.W.W.W.W.W.w w w w w W.W.W.W.W.z.z.z.z.z.w w w w ^@, # ) j * A /@* y ",
"(@_@:@O $.<@*.P [@w w w w w z.z.z.z.z.W.W.W.W.W.w w w w W.W.W.W.W.W.W.W.W.W.W.W.W.W.W.W.W.W.W.w w w w w W.W.W.W.W.z.z.z.z.z.w w w w $ < x & $ d E.M+v+D+",
"*.O }+}@O *.O c+P w w w w w z.z.z.z.z.W.W.W.W.W.w w w w w w w w w W.W.W.W.W.W.W.W.W.W.w w w w w w w w w W.W.W.W.W.z.z.z.z.z.w w w w |@1@/ F+I v+2@3@]+4@",
"5@1+*.K O 6@*.7@O w w w w w z.z.z.z.z.W.W.W.W.W.w w w w w w w w w W.W.W.W.W.W.W.W.W.W.w w w w w w w w w W.W.W.W.W.z.z.z.z.z.w w w w 8@9@0@a@b@c@d@~+e@*.",
"*.3@Q ~+f@g@h@i@j@w w w w w z.z.z.z.z.W.W.W.W.W.w w w w w w w w w W.W.W.W.W.W.W.W.W.W.w w w w w w w w w W.W.W.W.W.z.z.z.z.z.w w w w 5.k@l@5+J m@o n@}+o@",
"8@p@q@r@s@Z.t@u@v@w w w w w z.z.z.z.z.W.W.W.W.W.w w w w w w w w w W.W.W.W.W.W.W.W.W.W.w w w w w w w w w W.W.W.W.W.z.z.z.z.z.w w w w i p@( w@x@6.y@r D+5+",
"z@4.A@B@C@4._ e   w w w w w w w w w w z.z.z.z.z.W.W.W.W.w w w w w W.W.W.W.W.W.W.W.W.W.w w w w W.W.W.W.W.z.z.z.z.z.w w w w w w w w w D@Y+~ & . / E@4.*   ",
"F@$@d @ G@H@- 9.I@w w w w w w w w w w z.z.z.z.z.W.W.W.W.w w w w w W.W.W.W.W.W.W.W.W.W.w w w w W.W.W.W.W.z.z.z.z.z.w w w w w w w w w , '+J@/+$ K@& d L@M@",
"u 5 ! N@O@P@'.Q@e.w w w w w w w w w w z.z.z.z.z.W.W.W.W.w w w w w W.W.W.W.W.W.W.W.W.W.w w w w W.W.W.W.W.z.z.z.z.z.w w w w w w w w w R@t ].! 5 p.| ( l t.",
"S@y.` B t P@5 -@7.w w w w w w w w w w z.z.z.z.z.W.W.W.W.w w w w w W.W.W.W.W.W.W.W.W.W.w w w w W.W.W.W.W.z.z.z.z.z.w w w w w w w w w s /.].0 T@$ x       ",
"U@3.V@a+M M m+W@X@w w w w w w w w w w z.z.z.z.z.W.W.W.W.w w w w w W.W.W.W.W.W.W.W.W.W.w w w w W.W.W.W.W.z.z.z.z.z.w w w w w w w w w Y@H x ~ f.  y.I+6.Z@",
"`@<.h+ #$.w w w w z.z.z.z.z.w w w w w z.z.z.z.z.W.W.W.W.W.W.W.W.W.W.W.W.W.W.W.W.W.W.W.W.W.W.W.W.W.W.W.W.z.z.z.z.z.w w w w w z.z.z.z.w w w w w   )+w+w+p ",
".#F++#v+5+w w w w z.z.z.z.z.w w w w w z.z.z.z.z.W.W.W.W.W.W.W.W.W.W.W.W.W.W.W.W.W.W.W.W.W.W.W.W.W.W.W.W.z.z.z.z.z.w w w w w z.z.z.z.w w w w w   f.)+@#u@",
"##E@$#~ %#w w w w z.z.z.z.z.w w w w w z.z.z.z.z.W.W.W.W.W.W.W.W.W.W.W.W.W.W.W.W.W.W.W.W.W.W.W.W.W.W.W.W.z.z.z.z.z.w w w w w z.z.z.z.w w w w w     &#E@D ",
"* *#_ $ A w w w w z.z.z.z.z.w w w w w z.z.z.z.z.W.W.W.W.W.W.W.W.W.W.W.W.W.W.W.W.W.W.W.W.W.W.W.W.W.W.W.W.z.z.z.z.z.w w w w w z.z.z.z.w w w w w { $ g ) /+",
"q+l #@5 ! w w w w z.z.z.z.z.w w w w w z.z.z.z.z.W.W.W.W.W.W.W.W.W.W.W.W.W.W.W.W.W.W.W.W.W.W.W.W.W.W.W.W.z.z.z.z.z.w w w w w z.z.z.z.w w w w w =#I@d f h.",
"w w w w w z.z.z.z.z.z.z.z.z.w w w w w w w w w w w w w w z.z.z.z.z.z.z.z.z.z.z.z.z.z.z.z.z.z.z.w w w w w w w w w w w w w w w z.z.z.z.z.z.z.z.z.w w w w w ",
"w w w w w z.z.z.z.z.z.z.z.z.w w w w w w w w w w w w w w z.z.z.z.z.z.z.z.z.z.z.z.z.z.z.z.z.z.z.w w w w w w w w w w w w w w w z.z.z.z.z.z.z.z.z.w w w w w ",
"w w w w w z.z.z.z.z.z.z.z.z.w w w w w w w w w w w w w w z.z.z.z.z.z.z.z.z.z.z.z.z.z.z.z.z.z.z.w w w w w w w w w w w w w w w z.z.z.z.z.z.z.z.z.w w w w w ",
"w w w w w z.z.z.z.z.z.z.z.z.w w w w w w w w w w w w w w z.z.z.z.z.z.z.z.z.z.z.z.z.z.z.z.z.z.z.w w w w w w w w w w w w w w w z.z.z.z.z.z.z.z.z.w w w w w ",
"w w w w w z.z.z.z.z.z.z.z.z.w w w w w w w w w w w w w w z.z.z.z.z.z.z.z.z.z.z.z.z.z.z.z.z.z.z.w w w w w w w w w w w w w w w z.z.z.z.z.z.z.z.z.w w w w w ",
"w w w w w z.z.z.z.w w w w w -#$   Z+4.  - H d t.w w w w z.z.z.z.z.W.W.W.W.W.W.W.W.W.W.z.z.z.z.w w w w w 8.s I@.@9.;#;       w w w w z.z.z.z.z.w w w w w ",
"w w w w w z.z.z.z.w w w w w >#I.  { 6 ,#1@d.5 5 w w w w z.z.z.z.z.W.W.W.W.W.W.W.W.W.W.z.z.z.z.w w w w w Z@@#$ s 4 w.,+9.*   w w w w z.z.z.z.z.w w w w w ",
"w w w w w z.z.z.z.w w w w w Z+'#U+4 5 s b b 5 s w w w w z.z.z.z.z.W.W.W.W.W.W.W.W.W.W.z.z.z.z.w w w w w )#!#{@~#| +@5 t {#9.w w w w z.z.z.z.z.w w w w w ",
"w w w w w z.z.z.z.w w w w w '+4 8.b '.0.]#/ ^#p w w w w z.z.z.z.z.W.W.W.W.W.W.W.W.W.W.z.z.z.z.w w w w w P 4@1+2@*./## t ].5 w w w w z.z.z.z.z.w w w w w ",
"w w w w w w w w w   G   s.~.t s (+^ <.w w w w w w w w w w w w w w w w w w w w w w w w w w w w w w w w w w w w w w c@h+x+# 5 #@9.q.6 w w w w w w w w w w ",
"w w w w w w w w w * H {#.+w.s U+(#1+,@w w w w w w w w w w w w w w w w w w w w w w w w w w w w w w w w w w w w w w w+N+E@_ y.D $ * * w w w w w w w w w w ",
"w w w w w w w w w ]._#I@q+:#/#A.}+*.<#w w w w w w w w w w w w w w w w w w w w w w w w w w w w w w w w w w w w w w [#k * ] e Z+      w w w w w w w w w w ",
"w w w w w w w w w A p@L.}#<.|#p 4@1#2#w w w w w w w w w w w w w w w w w w w w w w w w w w w w w w w w w w w w w w   ] . +   & *     w w w w w w w w w w ",
"w w w w w w w w w j.J.-.3#4#5+a+D+)+5+w w w w w w w w w w w w w w w w w w w w w w w w w w w w w w w w w w w w w w x   l./   u._   5#w w w w w w w w w w ",
">   @@H     6#+   * 7.g.7#5.w w w w w z.z.z.z.z.z.z.z.z.W.W.W.W.W.W.W.W.W.W.W.W.W.W.W.W.W.W.W.z.z.z.z.z.z.z.z.z.z.w w w w w $ < - -     / ~     * x $   ",
"8#  x ~ | | H 9.S =@~..@c.].w w w w w z.z.z.z.z.z.z.z.z.W.W.W.W.W.W.W.W.W.W.W.W.W.W.W.W.W.W.W.z.z.z.z.z.z.z.z.z.z.w w w w w *+;#9#9.H * '#  Z+0#  x a#x ",
"  * U+u.a .@u.b#u@)+~ 9 K++@w w w w w z.z.z.z.z.z.z.z.z.W.W.W.W.W.W.W.W.W.W.W.W.W.W.W.W.W.W.W.z.z.z.z.z.z.z.z.z.z.w w w w w S+c#d#e##@f#g#h#$ i#H # i ~.",
"q.l j#k#l#F+*.3@m#<#*.n#}+c@w w w w w z.z.z.z.z.z.z.z.z.W.W.W.W.W.W.W.W.W.W.W.W.W.W.W.W.W.W.W.z.z.z.z.z.z.z.z.z.z.w w w w w V@o#|#p#q#r#K@u b P@S v l d ",
"g.)+m@s#]+B.,@*.t#V@O O O O w w w w w z.z.z.z.z.z.z.z.z.W.W.W.W.W.W.W.W.W.W.W.W.W.W.W.W.W.W.W.z.z.z.z.z.z.z.z.z.z.w w w w w u#v#w#4@x#~+y#o@4#z#* * *   ",
"=.g+}@]+*.<#O *.{@3@*.O *.}@w w w w w w w w w w w w w w w w w w w w w w w w w w w w w w w w w w w w w w w w w w w w w w w w A#B#C#]+e+e+M o@1+}@D#j.4#o ",
"3@E#2@F#3@G#H#1+c@*.I#H#c@m@w w w w w w w w w w w w w w w w w w w w w w w w w w w w w w w w w w w w w w w w w w w w w w w w J#M K#}@L#M#}@N#3.c@c@a+|#L ",
"<.O#]+P#Q#a+D+R#G#H#o S#T#)+w w w w w w w w w w w w w w w w w w w w w w w w w w w w w w w w w w w w w w w w w w w w w w w w U#M#O V#c@r+q W#3.w+ #5+5+G#",
"+#-.n J.M+6.R y.j.)+M+~ g.. w w w w w w w w w w w w w w w w w w w w w w w w w w w w w w w w w w w w w w w w w w w w w w w w X#Y#-.w+4#Z#1@`#j.f.M+. 4.4#",
" $)+.$M+. f.g.E@* h     '+* w w w w w w w w w w w w w w w w w w w w w w w w w w w w w w w w w w w w w w w w w w w w w w w w u@+$K@)+K@. y.M+)+    4.~ 4.",
"D@  +                       @$  + h   +   * # * { n.c > ; 9+g Q+#$& * i $$$ u t.$ ] 4.~ $ )+v@)+@#q j.D+o+j.g.@#6.-.. )+t@%$f.##b#l#&$M+  * * ] *$=$H g.",
"> H *   ~ # i     i c             *   *   * #   >   * > # { f.A A * *     $ * & Z y+4.    ] M+  @#x.)+f.y.y.] M+)+] ~ + f.  * *   ] 4.    $ f   g.    [ "};
