/* XPM */
static char * enemy_1_l_xpm[] = {
"76 76 452 2",
"  	c #F0D68C",
". 	c #EFD48D",
"+ 	c #F0D58E",
"@ 	c #F2D889",
"# 	c #F1D690",
"$ 	c #000000",
"% 	c #F1D78D",
"& 	c #F0D68F",
"* 	c #F1D692",
"= 	c #F1D590",
"- 	c #F0D58F",
"; 	c #F1D78E",
"> 	c #F0D68D",
", 	c #F0D68E",
"' 	c #F2D998",
") 	c #EFD58C",
"! 	c #F1D68F",
"~ 	c #EFD58B",
"{ 	c #EED48D",
"] 	c #EED48B",
"^ 	c #EDD28C",
"/ 	c #F0D58D",
"( 	c #F3D983",
"_ 	c #F1D691",
": 	c #F4D984",
"< 	c #F1D790",
"[ 	c #ECD18A",
"} 	c #F3D891",
"| 	c #F3D793",
"1 	c #F2D994",
"2 	c #F2D996",
"3 	c #F2D793",
"4 	c #F1D895",
"5 	c #F2D791",
"6 	c #F1D791",
"7 	c #EDD389",
"8 	c #F0D590",
"9 	c #F0D78F",
"0 	c #F1D794",
"a 	c #F1D78B",
"b 	c #F1D68C",
"c 	c #F2DA94",
"d 	c #F2D792",
"e 	c #F2D884",
"f 	c #ECD084",
"g 	c #ECD085",
"h 	c #EBCF86",
"i 	c #ECD087",
"j 	c #EDD38C",
"k 	c #F3DA99",
"l 	c #F2D997",
"m 	c #F3D99C",
"n 	c #F2D995",
"o 	c #F1D78F",
"p 	c #F2D894",
"q 	c #F3DA98",
"r 	c #F2D895",
"s 	c #F2D887",
"t 	c #F0D68B",
"u 	c #F1D689",
"v 	c #F1D68A",
"w 	c #F1D68E",
"x 	c #F2D999",
"y 	c #EFD58D",
"z 	c #F4DB83",
"A 	c #F2D98D",
"B 	c #F3D892",
"C 	c #F3D894",
"D 	c #EED289",
"E 	c #EDD189",
"F 	c #E8CC81",
"G 	c #EBCF88",
"H 	c #E8CC80",
"I 	c #E7CB80",
"J 	c #E7CA7C",
"K 	c #E7CA7D",
"L 	c #F0D893",
"M 	c #F1D893",
"N 	c #F4DC9D",
"O 	c #ECD28C",
"P 	c #E9CF92",
"Q 	c #ECD18C",
"R 	c #EED28A",
"S 	c #F0D690",
"T 	c #F4DB93",
"U 	c #F3D99A",
"V 	c #F2D88A",
"W 	c #F3D88E",
"X 	c #F4DB87",
"Y 	c #E8CE7C",
"Z 	c #EBCE7C",
"` 	c #E8CD81",
" .	c #EACE79",
"..	c #EBCE7F",
"+.	c #E8CB7D",
"@.	c #F2D790",
"#.	c #F3D893",
"$.	c #EDD185",
"%.	c #E8CD7F",
"&.	c #E9CC7B",
"*.	c #E7CA7B",
"=.	c #E7CB7E",
"-.	c #E7CB7D",
";.	c #E8CB7F",
">.	c #E9CC7F",
",.	c #F0D38F",
"'.	c #F1D592",
").	c #F0D796",
"!.	c #F2D898",
"~.	c #F2D990",
"{.	c #F3D996",
"].	c #F1D996",
"^.	c #F2D99B",
"/.	c #F2D893",
"(.	c #F0D791",
"_.	c #EBCF85",
":.	c #ECD27F",
"<.	c #E8CE7E",
"[.	c #E7CC80",
"}.	c #EBD081",
"|.	c #ECD08A",
"1.	c #EACE84",
"2.	c #EED48A",
"3.	c #EFD38A",
"4.	c #5AF85A",
"5.	c #EACE83",
"6.	c #E8CC7E",
"7.	c #E8CB7E",
"8.	c #E8CC7A",
"9.	c #E9CD7A",
"0.	c #EACC80",
"a.	c #E9CC82",
"b.	c #E8CD84",
"c.	c #E6C97A",
"d.	c #E9CC80",
"e.	c #EDD390",
"f.	c #F1D795",
"g.	c #F1D995",
"h.	c #F2DA96",
"i.	c #F3D999",
"j.	c #F3D99B",
"k.	c #F2D991",
"l.	c #F0D58B",
"m.	c #F0D58C",
"n.	c #F0D694",
"o.	c #EED591",
"p.	c #EDD287",
"q.	c #EFD58E",
"r.	c #EDD28B",
"s.	c #EAD089",
"t.	c #F3DA8E",
"u.	c #F2D993",
"v.	c #E7CB7F",
"w.	c #EACD84",
"x.	c #E8CC79",
"y.	c #E8CD82",
"z.	c #E8CA7C",
"A.	c #E9CE86",
"B.	c #E9CE85",
"C.	c #E9CD87",
"D.	c #E9CE82",
"E.	c #EFD48E",
"F.	c #F1D792",
"G.	c #F0D48C",
"H.	c #EFD48B",
"I.	c #F2DA93",
"J.	c #EFD48F",
"K.	c #ECD28A",
"L.	c #E9CD82",
"M.	c #E8CD7E",
"N.	c #E6CB7D",
"O.	c #E9CD7C",
"P.	c #E8CB80",
"Q.	c #E9CB7F",
"R.	c #EACE82",
"S.	c #EACF82",
"T.	c #EDD187",
"U.	c #ECD38F",
"V.	c #F0D687",
"W.	c #F0D79A",
"X.	c #F0D795",
"Y.	c #F1D994",
"Z.	c #F1D993",
"`.	c #E9CD83",
" +	c #E6CA7F",
".+	c #EAD085",
"++	c #E9CD7F",
"@+	c #E8CD85",
"#+	c #ECD188",
"$+	c #EED38C",
"%+	c #F0D789",
"&+	c #EFD688",
"*+	c #F3DA9C",
"=+	c #F3DA97",
"-+	c #E9CD85",
";+	c #E5C97D",
">+	c #3FB33F",
",+	c #F3D794",
"'+	c #F3D998",
")+	c #F0D895",
"!+	c #F2D88F",
"~+	c #E8CA7F",
"{+	c #EDD186",
"]+	c #EDD38A",
"^+	c #EFD68E",
"/+	c #F2D980",
"(+	c #ECD186",
"_+	c #EACF7F",
":+	c #EACE85",
"<+	c #EACF84",
"[+	c #EDD28F",
"}+	c #EED389",
"|+	c #EED388",
"1+	c #EED18B",
"2+	c #EBCF87",
"3+	c #EDD27D",
"4+	c #EACF81",
"5+	c #E9CE80",
"6+	c #E9CE7F",
"7+	c #EDD188",
"8+	c #ECD086",
"9+	c #ECD088",
"0+	c #EED48F",
"a+	c #EFD492",
"b+	c #EED391",
"c+	c #F0D792",
"d+	c #F1D894",
"e+	c #F0D892",
"f+	c #F2DAA0",
"g+	c #EED288",
"h+	c #EED58D",
"i+	c #EED38A",
"j+	c #EBD18D",
"k+	c #F2D896",
"l+	c #F3DB93",
"m+	c #F3DB9F",
"n+	c #F1D892",
"o+	c #EFD48A",
"p+	c #F1D581",
"q+	c #EFD38B",
"r+	c #F1D997",
"s+	c #EFD791",
"t+	c #EBD084",
"u+	c #ECD287",
"v+	c #EBD28B",
"w+	c #EED489",
"x+	c #F2D78D",
"y+	c #F2D78F",
"z+	c #F0D693",
"A+	c #F1D787",
"B+	c #F0D692",
"C+	c #F0D799",
"D+	c #EACF85",
"E+	c #F0D68A",
"F+	c #EACF83",
"G+	c #E9CD81",
"H+	c #EBCF84",
"I+	c #E8CC7F",
"J+	c #EFD694",
"K+	c #F1D68D",
"L+	c #F3DA93",
"M+	c #EDD288",
"N+	c #EAD080",
"O+	c #EBCF82",
"P+	c #ECD17B",
"Q+	c #E8CC83",
"R+	c #E9CD84",
"S+	c #EED48C",
"T+	c #ECD288",
"U+	c #F1D78A",
"V+	c #F0D894",
"W+	c #F3D88B",
"X+	c #F1D694",
"Y+	c #F1D899",
"Z+	c #ECD181",
"`+	c #EFD491",
" @	c #E7CB81",
".@	c #EBD085",
"+@	c #EDD285",
"@@	c #F3DA8C",
"#@	c #F2D981",
"$@	c #EFD48C",
"%@	c #EFD28C",
"&@	c #EED590",
"*@	c #F0D691",
"=@	c #EED592",
"-@	c #F0D794",
";@	c #F3DB9E",
">@	c #F3DB9D",
",@	c #F3D896",
"'@	c #F3DA8D",
")@	c #F2D78C",
"!@	c #EED58F",
"~@	c #F0D896",
"{@	c #FFFFFF",
"]@	c #54F954",
"^@	c #EBD290",
"/@	c #F2D98B",
"(@	c #EBD187",
"_@	c #F1D88A",
":@	c #EDD38B",
"<@	c #F0D790",
"[@	c #EDD084",
"}@	c #F1D693",
"|@	c #F3DA96",
"1@	c #F3DA95",
"2@	c #E9CE79",
"3@	c #F0D78D",
"4@	c #F1D88D",
"5@	c #F4D994",
"6@	c #E9CC83",
"7@	c #E7CB7C",
"8@	c #EACE7B",
"9@	c #EACD7F",
"0@	c #ECD185",
"a@	c #ECD187",
"b@	c #EFD389",
"c@	c #F0D58A",
"d@	c #F1D785",
"e@	c #F1D898",
"f@	c #F3D895",
"g@	c #F2D794",
"h@	c #FFFFFE",
"i@	c #F2D68E",
"j@	c #EBCD7F",
"k@	c #EBD086",
"l@	c #EACF77",
"m@	c #E6CB79",
"n@	c #E9CC7E",
"o@	c #EFD386",
"p@	c #EED38B",
"q@	c #F1D888",
"r@	c #F3D993",
"s@	c #F3D991",
"t@	c #F1D786",
"u@	c #E9CD7D",
"v@	c #EBCE84",
"w@	c #EFD58F",
"x@	c #F1D793",
"y@	c #EACE81",
"z@	c #EACF86",
"A@	c #ECD189",
"B@	c #EED48E",
"C@	c #EFD384",
"D@	c #ECD08B",
"E@	c #E9CD80",
"F@	c #EDD289",
"G@	c #F0D587",
"H@	c #EED38E",
"I@	c #EDD089",
"J@	c #EED490",
"K@	c #EFD692",
"L@	c #F3D885",
"M@	c #EFD58A",
"N@	c #F1D797",
"O@	c #F2DA95",
"P@	c #EAD18A",
"Q@	c #F4D995",
"R@	c #F4DA96",
"S@	c #F4D996",
"T@	c #EFD68F",
"U@	c #F0D78E",
"V@	c #E8CB81",
"W@	c #E6C97B",
"X@	c #F2D891",
"Y@	c #F1D896",
"Z@	c #E9CD7E",
"`@	c #F3D986",
" #	c #ECD28D",
".#	c #ECCF85",
"+#	c #ECD38A",
"@#	c #F1D788",
"##	c #F3D995",
"$#	c #F1D891",
"%#	c #F4DB9C",
"&#	c #ECD38D",
"*#	c #EED480",
"=#	c #F1D88F",
"-#	c #EDD183",
";#	c #EFD78E",
">#	c #F0D48B",
",#	c #F0D48D",
"'#	c #EED68B",
")#	c #F2D892",
"!#	c #F3D994",
"~#	c #F0D78C",
"{#	c #F3DA84",
"]#	c #F0D897",
"^#	c #E6CB82",
"/#	c #EACE7A",
"(#	c #EBD07A",
"_#	c #EACE86",
":#	c #EDD38E",
"<#	c #F1D890",
"[#	c #F1D991",
"}#	c #EED58E",
"|#	c #EED58B",
"1#	c #E9CB7E",
"2#	c #E7CC7F",
"3#	c #E6CC7D",
"4#	c #E6CA7C",
"5#	c #EED484",
"6#	c #EFD585",
"7#	c #EACC7F",
"8#	c #EAD083",
"9#	c #E9CE81",
"0#	c #EBCF7F",
"a#	c #EBD07B",
"b#	c #EDD382",
"c#	c #F1D58F",
"d#	c #E8CC7C",
"e#	c #E7CC7D",
"f#	c #EBCE85",
"g#	c #EBD08B",
"h#	c #F1D783",
"i#	c #EFD487",
"j#	c #ECD184",
"k#	c #E8CC7D",
"l#	c #E4C87E",
"m#	c #EACD81",
"n#	c #E6C97C",
"o#	c #EED58C",
"p#	c #EFD489",
"q#	c #EED28F",
"r#	c #EBCF83",
"s#	c #E8CD80",
"t#	c #EACD82",
"u#	c #EACE7E",
"v#	c #E5C97F",
"w#	c #EFD385",
"x#	c #F2D695",
"y#	c #F1D885",
"z#	c #E9CC81",
"A#	c #E8CC82",
"B#	c #EFD387",
"C#	c #EED38D",
"D#	c #EFD68B",
"E#	c #EACF88",
"F#	c #EBD083",
"G#	c #EACF87",
"H#	c #EACE8C",
"I#	c #F0D485",
"J#	c #F0D591",
"K#	c #F0D686",
"L#	c #EED384",
"M#	c #EDD18A",
"N#	c #EACE80",
"O#	c #F2D795",
"P#	c #F0D695",
"Q#	c #F0D689",
"R#	c #F0D688",
"S#	c #F1D68B",
"  . +       @   #       $ $ $ $ $ $ $ $ $ $ $ $ $ $ % &   * = #   - - ; > ,   ' # ) + ! ~ > , ~ , { ] ~ ^ ~ / ( > _ , $ $ $ $ $ $ $ $ $ $ : > > > , > > ",
"< [ < < } | 1 2 3 3 4 3 $ $ $ $ $ $ $ $ $ $ $ $ $ $ ' 5 !             /   & # 4 < 6 ;     _ _ ~ ~   > 6 7 ) 8   9 0 * $ $ $ $ $ $ $ $ $ $ + a b     > + ",
"c 2 c d e + 7 f g h i j $ $ $ $ $ $ $ $ $ $ $ $ $ $ k l m n } d o   , p q l l q 2 2 2 r d ! +   s t u v ! w > - ,     $ $ $ $ $ $ $ $ $ $ x + y z A B C ",
"3 o   + D E F G H I J K $ $ $ $ $ $ $ $ $ $ $ $ $ $ L M N k 2 n 2 d 3 { O P Q i R S l l T c U x 2 3 #         + * V W $ $ $ $ $ $ $ $ $ $ X 1 2 2 2 2 2 ",
"+ D f Y Z `  ...+.+.K ` $ $ $ $ $ $ $ $ $ $ $ $ $ $ _     @.#.d / $.%.&.*.=.-.;.J J >.,.'.p 2 2 l ).4 !.p ' ~.{.l n l $ $ $ $ $ $ $ $ $ $ l ' ].^./.0 (.",
"_.:.<.[.}.%.|.h 1.}.2.3.$ $ $ $ $ 4.4.4.4.4.4.4.4.4.$ $ $ $ $ 5.6.7.8.9.0.;.a.b.=.c.;.d.%.%.e.f.g.h.i.2 l j.k.$ $ $ $ 4.4.4.4.4.$ $ $ $ $ _ - l.m.n.o.p.",
"~ q.~ 3.. . r.s.@.t.u.#.$ $ $ $ $ 4.4.4.4.4.4.4.4.4.$ $ $ $ $ v.w.I J x.y.H z.A.;.B.C.H |.D.E.~   _ ; @.- F.w $ $ $ $ 4.4.4.4.4.$ $ $ $ $ ! - - > # G.H.",
"< < C } #.I.J.K.L.M.N.D.$ $ $ $ $ 4.4.4.4.4.4.4.4.4.$ $ $ $ $ M.K O.+.J P.Q.-.R.S.h T.R U.* H.  V.u     9 W.X.$ $ $ $ 4.4.4.4.4.$ $ $ $ $ U ' Y./.M X.F.",
"2 2 Z.. `.+.` K  +K 7.J $ $ $ $ $ 4.4.4.4.4.4.4.4.4.$ $ $ $ $ .+p.++@+T..+G #+7 $+p.] ~ ~ o - , %+*   ) &+5 > $ $ $ $ 4.4.4.4.4.$ $ $ $ $ 2 *+c ' U k =+",
"y T.y.+.7.-++.F J [.;.J B.;+-+%._.$ $ $ $ 4.4.4.4.4.4.4.4.4.4.$ $ $ $ $ $ $ $ $ $ $ $ $ $ $ $ $ $ $ $ $ $ $ $ >+>+>+>+4.4.4.4.4.$ $ $ $ $ ,+'+)+~.!+5 ,+",
"L.+.H J L.~+J J J +.7.v.v.7.{+]+#+$ $ $ $ 4.4.4.4.4.4.4.4.4.4.$ $ $ $ $ $ $ $ $ $ $ $ $ $ $ $ $ $ $ $ $ $ $ $ >+>+>+>+4.4.4.4.4.$ $ $ $ $ ^+  /+8 (+h S.",
"` ` J +._++.7.7.K :+<+$+[+}+~ q.+ $ $ $ $ 4.4.4.4.4.4.4.4.4.4.$ $ $ $ $ $ $ $ $ $ $ $ $ $ $ $ $ $ $ $ $ $ $ $ >+>+>+>+4.4.4.4.4.$ $ $ $ $ _ ~ |+1+g 2+3+",
"4++.5+6+`.7+8+H 9+0+a+7 b+> c+j d+$ $ $ $ 4.4.4.4.4.4.4.4.4.4.$ $ $ $ $ $ $ $ $ $ $ $ $ $ $ $ $ $ $ $ $ $ $ $ >+>+>+>+4.4.4.4.4.$ $ $ $ $ e+f+l * ) |.$.",
"8+T.$+~ 7+g+h+i+E., + & j+k+d ! / $ $ $ $ 4.4.4.4.4.4.4.4.4.4.$ $ $ $ $ $ $ $ $ $ $ $ $ $ $ $ $ $ $ $ $ $ $ $ >+>+>+>+4.4.4.4.4.$ $ $ $ $ l+m+n+o+p+o+q+",
"~ r+$ $ $ $ $ $ $ $ $ $ s+t T.t+R._.5+u+v+$ $ $ $ $ $ $ $ $ $ $ $ $ $ $ 4.4.4.4.4.4.4.4.4.4.4.4.4.4.>+>+>+>+>+$ $ $ $ $ $ $ $ $ w+x+$+d y+w z+A+B+C+0+D+",
"  E+$ $ $ $ $ $ $ $ $ $ K.#+F+G+H+R.>.L.I+$ $ $ $ $ $ $ $ $ $ $ $ $ $ $ 4.4.4.4.4.4.4.4.4.4.4.4.4.4.>+>+>+>+>+$ $ $ $ $ $ $ $ $ J+; , K+        > / / (.",
"L+l $ $ $ $ $ $ $ $ $ $ M+5.N+5.O+P+`.Q+R+$ $ $ $ $ $ $ $ $ $ $ $ $ $ $ 4.4.4.4.4.4.4.4.4.4.4.4.4.4.>+>+>+>+>+$ $ $ $ $ $ $ $ $ S+T+H.+ U+V+m.w W+> > X+",
"Y+u.$ $ $ $ $ $ $ $ $ $ Z+i `+ @.@O+M+M++@$ $ $ $ $ $ $ $ $ $ $ $ $ $ $ 4.4.4.4.4.4.4.4.4.4.4.4.4.4.>+>+>+>+>+$ $ $ $ $ $ $ $ $ 2 u.@.3 !.* d @@' ' i.=+",
"#@, $ $ $ $ $ $ $ $ $ $ $@#++ M+%@&@# & z+$ $ $ $ $ $ $ $ $ $ $ $ $ $ $ 4.4.4.4.4.4.4.4.4.4.4.4.4.4.>+>+>+>+>+$ $ $ $ $ $ $ $ $ *@=@-@;@>@,@p '@_ o )@; ",
"    $ $ $ $ $ 4.4.4.4.4.$ $ $ $ $ !@. ~@+ $ $ $ $ $ 4.4.4.4.4.4.4.4.4.4.{@{@{@{@{@{@{@{@{@{@{@{@{@{@4.4.4.4.4.4.4.4.4.]@]@]@]@]@$ $ $ $ $ # n.b ^@  /@  ",
"5 r+$ $ $ $ $ 4.4.4.4.4.$ $ $ $ $ , (@w > $ $ $ $ $ 4.4.4.4.4.4.4.4.4.4.{@{@{@{@{@{@{@{@{@{@{@{@{@{@4.4.4.4.4.4.4.4.4.]@]@]@]@]@$ $ $ $ $ e+i.y S     3 ",
"n 6 $ $ $ $ $ 4.4.4.4.4.$ $ $ $ $ > ! _@:@$ $ $ $ $ 4.4.4.4.4.4.4.4.4.4.{@{@{@{@{@{@{@{@{@{@{@{@{@{@4.4.4.4.4.4.4.4.4.]@]@]@]@]@$ $ $ $ $ <@o y+8 , u.2 ",
"}+[@$ $ $ $ $ 4.4.4.4.4.$ $ $ $ $ , w <   $ $ $ $ $ 4.4.4.4.4.4.4.4.4.4.{@{@{@{@{@{@{@{@{@{@{@{@{@{@4.4.4.4.4.4.4.4.4.]@]@]@]@]@$ $ $ $ $ ! }@_ @.|@1@> ",
"+.2@$ $ $ $ $ 4.4.4.4.4.$ $ $ $ $ 5 3@4@S $ $ $ $ $ 4.4.4.4.4.4.4.4.4.4.{@{@{@{@{@{@{@{@{@{@{@{@{@{@4.4.4.4.4.4.4.4.4.]@]@]@]@]@$ $ $ $ $ _ , d 5@y .@6@",
"+.@+$ $ $ $ $ 4.4.4.4.4.$ $ $ $ $ $ $ $ $ $ $ $ $ $ {@{@{@{@{@{@{@{@{@{@$ $ $ $ $ $ $ $ $ {@{@{@{@{@4.4.4.4.4.4.4.4.4.]@]@]@]@]@4.4.4.4.4.$ $ $ $ $ L.7@",
"+.:+$ $ $ $ $ 4.4.4.4.4.$ $ $ $ $ $ $ $ $ $ $ $ $ $ {@{@{@{@{@{@{@{@{@{@$ $ $ $ $ $ $ $ $ {@{@{@{@{@4.4.4.4.4.4.4.4.4.]@]@]@]@]@4.4.4.4.4.$ $ $ $ $ 7@+.",
"[.H $ $ $ $ $ 4.4.4.4.4.$ $ $ $ $ $ $ $ $ $ $ $ $ $ {@{@{@{@{@{@{@{@{@{@$ $ $ $ $ $ $ $ $ {@{@{@{@{@4.4.4.4.4.4.4.4.4.]@]@]@]@]@4.4.4.4.4.$ $ $ $ $ 8@9@",
"0@g $ $ $ $ $ 4.4.4.4.4.$ $ $ $ $ $ $ $ $ $ $ $ $ $ {@{@{@{@{@{@{@{@{@{@$ $ $ $ $ $ $ $ $ {@{@{@{@{@4.4.4.4.4.4.4.4.4.]@]@]@]@]@4.4.4.4.4.$ $ $ $ $ p.a@",
"b@c@$ $ $ $ $ {@{@{@{@{@$ $ $ $ $ 4.4.4.4.4.4.4.4.4.{@{@{@{@{@$ $ $ $ $ $ $ $ $ {@{@{@{@{@4.4.4.4.4.4.4.4.4.4.{@{@{@{@4.4.4.4.4.4.4.4.4.4.$ $ $ $ $ + o+",
"    $ $ $ $ $ {@{@{@{@{@$ $ $ $ $ 4.4.4.4.4.4.4.4.4.{@{@{@{@{@$ $ $ $ $ $ $ $ $ {@{@{@{@{@4.4.4.4.4.4.4.4.4.4.{@{@{@{@4.4.4.4.4.4.4.4.4.4.$ $ $ $ $ m.m.",
"*@  $ $ $ $ $ {@{@{@{@{@$ $ $ $ $ 4.4.4.4.4.4.4.4.4.{@{@{@{@{@$ $ $ $ $ $ $ $ $ {@{@{@{@{@4.4.4.4.4.4.4.4.4.4.{@{@{@{@4.4.4.4.4.4.4.4.4.4.$ $ $ $ $ K+d@",
"e@f@$ $ $ $ $ {@{@{@{@{@$ $ $ $ $ 4.4.4.4.4.4.4.4.4.{@{@{@{@{@$ $ $ $ $ $ $ $ $ {@{@{@{@{@4.4.4.4.4.4.4.4.4.4.{@{@{@{@4.4.4.4.4.4.4.4.4.4.$ $ $ $ $ # g@",
"2 r $ $ $ $ $ {@{@{@{@{@$ $ $ $ $ 4.4.4.4.4.4.4.4.4.{@{@{@{@{@$ $ $ $ $ $ $ $ $ {@{@{@{@{@4.4.4.4.4.4.4.4.4.4.{@{@{@{@4.4.4.4.4.4.4.4.4.4.$ $ $ $ $ *+l ",
", # $ $ $ $ $ {@{@{@{@{@$ $ $ $ $ {@{@{@{@4.4.4.4.4.{@{@{@{@{@{@{@{@{@{@{@{@{@{@{@{@{@{@{@4.4.4.4.4.h@h@h@h@h@{@{@{@{@{@{@{@{@{@4.4.4.4.4.$ $ $ $ $ e@> ",
"i@p.$ $ $ $ $ {@{@{@{@{@$ $ $ $ $ {@{@{@{@4.4.4.4.4.{@{@{@{@{@{@{@{@{@{@{@{@{@{@{@{@{@{@{@4.4.4.4.4.h@h@h@h@h@{@{@{@{@{@{@{@{@{@4.4.4.4.4.$ $ $ $ $ > %+",
"j@~+$ $ $ $ $ {@{@{@{@{@$ $ $ $ $ {@{@{@{@4.4.4.4.4.{@{@{@{@{@{@{@{@{@{@{@{@{@{@{@{@{@{@{@4.4.4.4.4.h@h@h@h@h@{@{@{@{@{@{@{@{@{@4.4.4.4.4.$ $ $ $ $ 0@k@",
"+.J $ $ $ $ $ {@{@{@{@{@$ $ $ $ $ {@{@{@{@4.4.4.4.4.{@{@{@{@{@{@{@{@{@{@{@{@{@{@{@{@{@{@{@4.4.4.4.4.h@h@h@h@h@{@{@{@{@{@{@{@{@{@4.4.4.4.4.$ $ $ $ $ ;.=.",
"l@6.$ $ $ $ $ {@{@{@{@{@$ $ $ $ $ {@{@{@{@4.4.4.4.4.{@{@{@{@{@{@{@{@{@{@{@{@{@{@{@{@{@{@{@4.4.4.4.4.h@h@h@h@h@{@{@{@{@{@{@{@{@{@4.4.4.4.4.$ $ $ $ $ m@+.",
"+.G+$ $ $ $ $ {@{@{@{@{@$ $ $ $ $ {@{@{@{@4.4.4.4.4.{@{@{@{@{@{@{@{@{@{@{@{@{@{@{@{@{@{@{@4.4.4.4.4.{@{@{@{@{@{@{@{@{@{@{@{@{@{@4.4.4.4.4.$ $ $ $ $ n@7.",
"o@p@$ $ $ $ $ {@{@{@{@{@$ $ $ $ $ {@{@{@{@4.4.4.4.4.{@{@{@{@{@{@{@{@{@{@{@{@{@{@{@{@{@{@{@4.4.4.4.4.{@{@{@{@{@{@{@{@{@{@{@{@{@{@4.4.4.4.4.$ $ $ $ $ k@.@",
"q@2.$ $ $ $ $ {@{@{@{@{@$ $ $ $ $ {@{@{@{@4.4.4.4.4.{@{@{@{@{@{@{@{@{@{@{@{@{@{@{@{@{@{@{@4.4.4.4.4.{@{@{@{@{@{@{@{@{@{@{@{@{@{@4.4.4.4.4.$ $ $ $ $ >   ",
"r@M $ $ $ $ $ {@{@{@{@{@$ $ $ $ $ {@{@{@{@4.4.4.4.4.{@{@{@{@{@{@{@{@{@{@{@{@{@{@{@{@{@{@{@4.4.4.4.4.{@{@{@{@{@{@{@{@{@{@{@{@{@{@4.4.4.4.4.$ $ $ $ $ s@X+",
"d+2 $ $ $ $ $ {@{@{@{@{@$ $ $ $ $ {@{@{@{@4.4.4.4.4.{@{@{@{@{@{@{@{@{@{@{@{@{@{@{@{@{@{@{@4.4.4.4.4.{@{@{@{@{@{@{@{@{@{@{@{@{@{@4.4.4.4.4.$ $ $ $ $ d F.",
"t@H.$ $ $ $ $ {@{@{@{@{@$ $ $ $ $ 4.4.4.4.4.4.4.4.4.{@{@{@{@{@$ $ $ $ $ $ $ $ $ {@{@{@{@{@4.4.4.4.4.4.4.4.4.4.{@{@{@{@4.4.4.4.4.4.4.4.4.4.$ $ $ $ $     ",
"u@1.$ $ $ $ $ {@{@{@{@{@$ $ $ $ $ 4.4.4.4.4.4.4.4.4.{@{@{@{@{@$ $ $ $ $ $ $ $ $ {@{@{@{@{@4.4.4.4.4.4.4.4.4.4.{@{@{@{@4.4.4.4.4.4.4.4.4.4.$ $ $ $ $ 7+v@",
"S._.$ $ $ $ $ {@{@{@{@{@$ $ $ $ $ 4.4.4.4.4.4.4.4.4.{@{@{@{@{@$ $ $ $ $ $ $ $ $ {@{@{@{@{@4.4.4.4.4.4.4.4.4.4.{@{@{@{@4.4.4.4.4.4.4.4.4.4.$ $ $ $ $ T.h ",
"Q+a@$ $ $ $ $ {@{@{@{@{@$ $ $ $ $ 4.4.4.4.4.4.4.4.4.{@{@{@{@{@$ $ $ $ $ $ $ $ $ {@{@{@{@{@4.4.4.4.4.4.4.4.4.4.{@{@{@{@4.4.4.4.4.4.4.4.4.4.$ $ $ $ $ M+i+",
"w@$@$ $ $ $ $ 4.4.4.4.4.$ $ $ $ $ $ $ $ $ $ $ $ $ $ {@{@{@{@{@{@{@{@{@{@$ $ $ $ $ $ $ $ $ {@{@{@{@{@4.4.4.4.4.4.4.4.4.4.4.4.4.4.4.4.4.4.4.$ $ $ $ $ $@y ",
"> '.$ $ $ $ $ 4.4.4.4.4.$ $ $ $ $ $ $ $ $ $ $ $ $ $ {@{@{@{@{@{@{@{@{@{@$ $ $ $ $ $ $ $ $ {@{@{@{@{@4.4.4.4.4.4.4.4.4.4.4.4.4.4.4.4.4.4.4.$ $ $ $ $ - }@",
"x@d $ $ $ $ $ 4.4.4.4.4.$ $ $ $ $ $ $ $ $ $ $ $ $ $ {@{@{@{@{@{@{@{@{@{@$ $ $ $ $ $ $ $ $ {@{@{@{@{@4.4.4.4.4.4.4.4.4.4.4.4.4.4.4.4.4.4.4.$ $ $ $ $ 9 n.",
"n 2 $ $ $ $ $ 4.4.4.4.4.$ $ $ $ $ $ $ $ $ $ $ $ $ $ {@{@{@{@{@{@{@{@{@{@$ $ $ $ $ $ $ $ $ {@{@{@{@{@4.4.4.4.4.4.4.4.4.4.4.4.4.4.4.4.4.4.4.$ $ $ $ $ |@{.",
"p r $ $ $ $ $ 4.4.4.4.4.$ $ $ $ $ $ $ $ $ $ $ $ $ $ {@{@{@{@{@{@{@{@{@{@$ $ $ $ $ $ $ $ $ {@{@{@{@{@4.4.4.4.4.4.4.4.4.4.4.4.4.4.4.4.4.4.4.$ $ $ $ $ w @.",
"y@z@$ $ $ $ $ 4.4.4.4.4.$ $ $ $ $ R+A@(+S+$ $ $ $ $ 4.4.4.4.4.4.4.4.4.4.{@{@{@{@{@{@{@{@{@{@{@{@{@{@4.4.4.4.4.4.4.4.4.4.4.4.4.4.$ $ $ $ $ i+/ ^.B@}+r.C@",
"D@E@$ $ $ $ $ 4.4.4.4.4.$ $ $ $ $ F@7 G@y $ $ $ $ $ 4.4.4.4.4.4.4.4.4.4.{@{@{@{@{@{@{@{@{@{@{@{@{@{@4.4.4.4.4.4.4.4.4.4.4.4.4.4.$ $ $ $ $ > y M+T.H@_.d.",
".@L.$ $ $ $ $ 4.4.4.4.4.$ $ $ $ $ ! % ! > $ $ $ $ $ 4.4.4.4.4.4.4.4.4.4.{@{@{@{@{@{@{@{@{@{@{@{@{@{@4.4.4.4.4.4.4.4.4.4.4.4.4.4.$ $ $ $ $ > , / M+t+.@5.",
"T.I@$ $ $ $ $ 4.4.4.4.4.$ $ $ $ $ K+2.  ; $ $ $ $ $ 4.4.4.4.4.4.4.4.4.4.{@{@{@{@{@{@{@{@{@{@{@{@{@{@4.4.4.4.4.4.4.4.4.4.4.4.4.4.$ $ $ $ $ l.y > l.}+}+R ",
". o+$ $ $ $ $ 4.4.4.4.4.$ $ $ $ $ ! 3 J@K@$ $ $ $ $ 4.4.4.4.4.4.4.4.4.4.{@{@{@{@{@{@{@{@{@{@{@{@{@{@4.4.4.4.4.4.4.4.4.4.4.4.4.4.$ $ $ $ $ y L@/ M@~ ~ w+",
"    $ $ $ $ $ $ $ $ $ $ _   K+^+*@1 2 n c $ $ $ $ $ $ $ $ $ $ $ $ $ $ $ 4.4.4.4.4.4.4.4.4.4.4.4.4.4.>+>+>+>+>+$ $ $ $ $ $ $ $ $ > ; z+_ ~   , N@8 /     ",
"  > $ $ $ $ $ $ $ $ $ $ % % <@1 Y.c O@Z.P@$ $ $ $ $ $ $ $ $ $ $ $ $ $ $ 4.4.4.4.4.4.4.4.4.4.4.4.4.4.>+>+>+>+>+$ $ $ $ $ $ $ $ $ Q@R@l 1@S@{.p , #   + t ",
"T@> $ $ $ $ $ $ $ $ $ $ U@p l n |@{ _.V@W@$ $ $ $ $ $ $ $ $ $ $ $ $ $ $ 4.4.4.4.4.4.4.4.4.4.4.4.4.4.>+>+>+>+>+$ $ $ $ $ $ $ $ $ X@3 x@Y@/.2 2 n F.> _ w ",
"n+  $ $ $ $ $ $ $ $ $ $ i.=+n *@0.6.Z@+.+.$ $ $ $ $ $ $ $ $ $ $ $ $ $ $ 4.4.4.4.4.4.4.4.4.4.4.4.4.4.>+>+>+>+>+$ $ $ $ $ $ $ $ $ > > > +   `@1 2 2 < ! 6 ",
"; U@$ $ $ $ $ $ $ $ $ $ x@ #.#+#n@+.M.I+n@$ $ $ $ $ $ $ $ $ $ $ $ $ $ $ 4.4.4.4.4.4.4.4.4.4.4.4.4.4.>+>+>+>+>+$ $ $ $ $ $ $ $ $       @#E+  % < u.##r $#",
"< p q %#d k.&#M /.S p@#+*#_.5.h =.$ $ $ $ 4.4.4.4.4.4.4.4.4.4.$ $ $ $ $ $ $ $ $ $ $ $ $ $ $ $ $ $ $ $ $ $ $ $ >+>+>+>+4.4.4.4.4.$ $ $ $ $   > >   > d ! ",
"> 7 + s     =#(.~ p.{+8+-#(+.@L.k@$ $ $ $ 4.4.4.4.4.4.4.4.4.4.$ $ $ $ $ $ $ $ $ $ $ $ $ $ $ $ $ $ $ $ $ $ $ $ >+>+>+>+4.4.4.4.4.$ $ $ $ $       > , <   ",
"&   g@o     ;#+   > >#m.,#3.y '#  $ $ $ $ 4.4.4.4.4.4.4.4.4.4.$ $ $ $ $ $ $ $ $ $ $ $ $ $ $ $ $ $ $ $ $ $ $ $ >+>+>+>+4.4.4.4.4.$ $ $ $ $ )     > w ,   ",
"g.  w ) < < o )##.S@p f@!#{.{.!#u.$ $ $ $ 4.4.4.4.4.4.4.4.4.4.$ $ $ $ $ $ $ $ $ $ $ $ $ $ $ $ $ $ $ $ $ $ $ $ >+>+>+>+4.4.4.4.4.$ $ $ $ $   K+~#  w {#w ",
"  > *@$#/.f@$#h+i+}+) ]#$ $ $ $ $ 4.4.4.4.4.4.4.4.4.$ $ $ $ $ D+6.G ^#/#+.7@++(#Z@F k@_#7+:#*@##O@{.{.,@/.F.<#$ $ $ $ 4.4.4.4.4.$ $ $ $ $ '+, [#o # t p ",
"X@d }#<#|#a@+.G+.+M.+.1#$ $ $ $ $ 4.4.4.4.4.4.4.4.4.$ $ $ $ $ 2#3#6.4#D.+.6.F+5#` I `.6#D+_.u+& 6 4@n+)#k+u.u.$ $ $ $ 4.4.4.4.4.$ $ $ $ $ d+c k #.C d 6 ",
"m.}+F+7#;.R.Z@+.8#9#J J $ $ $ $ $ 4.4.4.4.4.4.4.4.4.$ $ $ $ $ R+H+M.0#a#9#H b#K+}+M+(+D+|+l.~   ~         ~ 8+$ $ $ $ 4.4.4.4.4.$ $ $ $ $ 7.(+c#> > >   ",
"6+d#-.;.+.M.J +.e#G++.J $ $ $ $ $ 4.4.4.4.4.4.4.4.4.$ $ $ $ $ p.o+g a@]+i+f#g#M@t h#i#H.)   E+  > > 2.M+.@#+G+$ $ $ $ 4.4.4.4.4.$ $ $ $ $ 7.6.-.j#p.(+g ",
"G+Q.k#l#G+<+m#6.E@+.n#m#$ $ $ $ $ 4.4.4.4.4.4.4.4.4.$ $ $ $ $ q.o#p#$@) i+  y 8 n.q#m./ / y $@M+T.r#v.w.s#t#L.$ $ $ $ 4.4.4.4.4.$ $ $ $ $ ++1.E@E@L.5.G ",
"_.u#;.v#D.L.k@O+<+m#g w#$ $ $ $ $ $ $ $ $ $ $ $ $ $ ) ~ ~ ) x#y+y#, > )@U+& ) y H.~ / l.f y i I G+F y@z#E@J A#A#g F H $ $ $ $ $ $ $ $ $ $ B#1.T.H+.@.@<+",
"g+8+f {+o+7+C#H.p.}+o+) $ $ $ $ $ $ $ $ $ $ $ $ $ $ +     t ! w t > > / D#l.M@# m.) ) { M+8+G+0@E#2+F#M.Z@-.v@2#I+G#H#$ $ $ $ $ $ $ $ $ $ I#p.l.o+. 2.(+",
"G@}+v o+. l.m.$@> E+    $ $ $ $ $ $ $ $ $ $ $ $ $ $ + J#! ! K+K+U@3@>   > # (.F.* >   K#L#f M#1.<+1.t#+.2+5+N#++E@f T.$ $ $ $ $ $ $ $ $ $ o+}+    2.) 2.",
"V.  +                   $ $ $ $ $ $ $ $ $ $ $ $ $ $ 5 & % O#0 f.P#_ > t Q#, d+F., ~ 2.) , }+R }+M+i p.k@t+p.m.M+7+8+. $ $ $ $ $ $ $ $ $ $ > > ~ u+R#o m.",
"& o >   ) # t     t 5   $ $ $ $ $ $ $ $ $ $ $ $ $ $ > & # ! l.S S > >     , > _ H@A@2.    ~ o+  M+G.}+l.H.H.~ o+}+~ ) $ $ $ $ $ $ $ $ $ $ , 9   m.    S#"};
