/* XPM */
static char * enemy_0_xpm[] = {
"76 76 41 1",
" 	c #00FF00",
".	c #F4F4F4",
"+	c #DBDBDB",
"@	c #CDCDCD",
"#	c #EEEEEE",
"$	c #8A8A8A",
"%	c #000000",
"&	c #646464",
"*	c #AAAAAA",
"=	c #585858",
"-	c #CBCBCB",
";	c #5B5B5B",
">	c #1E1E1E",
",	c #272727",
"'	c #A9A9A9",
")	c #212121",
"!	c #E8E8E8",
"~	c #C7C7C7",
"{	c #131313",
"]	c #919191",
"^	c #BCBCBC",
"/	c #7C7C7C",
"(	c #898989",
"_	c #595959",
":	c #363636",
"<	c #6F6F6F",
"[	c #636363",
"}	c #9A9A9A",
"|	c #3E3E3E",
"1	c #313131",
"2	c #7A7A7A",
"3	c #969696",
"4	c #686868",
"5	c #383838",
"6	c #A0A0A0",
"7	c #303030",
"8	c #4E4E4E",
"9	c #555555",
"0	c #767676",
"a	c #959595",
"b	c #BABABA",
"                                                                            ",
"                                                                            ",
"                                                                            ",
"                                                                            ",
"                                                                            ",
"                                                                            ",
"                                                                            ",
"              .+@@+.                                                        ",
"             #$%%%%&#                                      .*%%=-           ",
"            .;%%%%%%>.                                    #,%%%%%'          ",
"            *%%%%%%%%)!                                  .%%%%%%%%-         ",
"            %%%%%%%%%%%~                                 {%%%%%%%%%         ",
"            %%%%%%%%%%%%]                              ^%%%%%%%%%%%         ",
"            =%%%%%%%%%%%%/                           ^%%%%%%%%%%%%%         ",
"            -%%%%%%%%%%%%%^                         (%%%%%%%%%%%%%%         ",
"             _%%%%%%%%%%%%%                        ^%%%%%%%%%%%%%%-         ",
"              :%%%%%%%%%%%%                        %%%%%%%%%%%%%%<          ",
"               [%%%%%%%%%%%                        %%%%%%%%%%%%%;           ",
"                (%%%%%%%%%%                        %%%%%%%%%%%%}            ",
"                 ^%%%%%%%%^                        %%%%%%%%%%%+             ",
"                   |%%%%%(                         ^%%%%%%%%%!              ",
"                    ^%%%^                           (%%%%%%1                ",
"                                                     ^%%%%(                 ",
"                                                                            ",
"                                                                            ",
"                                                                            ",
"                                                                            ",
"                                                                            ",
"                   2%%%%!                      -=%%*.                       ",
"                  %%%%%%%+                    '%%%%%;#                      ",
"                 2%%%%%%%%!                  -%%%%%%%$.                     ",
"                 %%%%%%%%%@                  %%%%%%%%%+                     ",
"                 %%%%%%%%%@                  %%%%%%%%%@                     ",
"                 %%%%%%%%%@                  %%%%%%%%%@                     ",
"                 2%%%%%%%%!                  %%%%%%%%%+                     ",
"                  %%%%%%%+                   -%%%%%%%$.                     ",
"                   2%%%%!                     '%%%%%;#                      ",
"                                               -=%%*.                       ",
"                                                                            ",
"                                                                            ",
"                                                                            ",
"                                                                            ",
"                                                                            ",
"                                                                            ",
"                                                                            ",
"                                                                            ",
"                                                                            ",
"                                                                            ",
"                          !3%%%%%%3!                                        ",
"                         4%%%%%%%%%%%^                                      ",
"                        %%%%%%%%%%%%%%%^                                    ",
"                       %%%%%%%%%%%%%%%%%/                                   ",
"                      5%%%%%%%%%%%%%%%%%%6                                  ",
"                     6%%%%%%%%%%%%%%%%%%%%!                                 ",
"                    !%%%%%%%%%%%%%%%%%%%%%7                                 ",
"                    8%%%%%%%%%%%%%%%%%%%%%%^                                ",
"                   ^%%%%%%%%%%%%%%%%%%%%%%%%                                ",
"                   %%%%%%%%%%%%%%%%%%%%%%%%%^                               ",
"                   %%%%%%%%%%%   *%%%%%%%%%%%                               ",
"                   %%%%%%%%%%^    6%%%%%%%%%%                               ",
"                   %%%%%%%%%%      %%%%%%%%%%                               ",
"                   %%%%%%%%%%      9%%%%%%%%%                               ",
"                   |%%%%%%%%|      0%%%%%%%%%                               ",
"                   -%%%%%%%%-      a%%%%%%%%%                               ",
"                    '%%%%%%'       b%%%%%%%%%                               ",
"                     -%%%%-        !%%%%%%%%2                               ",
"                                    +%%%%%%%                                ",
"                                     !%%%%2                                 ",
"                                                                            ",
"                                                                            ",
"                                                                            ",
"                                                                            ",
"                                                                            ",
"                                                                            ",
"                                                                            ",
"                                                                            "};
