/* XPM */
static char * enemy_3_d_xpm[] = {
"76 76 469 2",
"  	c #F0D68C",
". 	c #EFD48D",
"+ 	c #F0D58E",
"@ 	c #F2D889",
"# 	c #F1D690",
"$ 	c #F0D68E",
"% 	c #F0D894",
"& 	c #F1D691",
"* 	c #F0D68D",
"= 	c #F0D590",
"- 	c #F1D78E",
"; 	c #F1D78D",
"> 	c #F0D68F",
", 	c #F1D692",
"' 	c #F1D590",
") 	c #F0D58F",
"! 	c #F2D998",
"~ 	c #EFD58C",
"{ 	c #F1D68F",
"] 	c #EFD58B",
"^ 	c #EED48D",
"/ 	c #EED48B",
"( 	c #EDD28C",
"_ 	c #F0D58D",
": 	c #F3D983",
"< 	c #F1D78C",
"[ 	c #F1D68B",
"} 	c #F4D984",
"| 	c #F1D790",
"1 	c #ECD18A",
"2 	c #F3D891",
"3 	c #F3D793",
"4 	c #F2D994",
"5 	c #F2D996",
"6 	c #F2D793",
"7 	c #F1D895",
"8 	c #F0D795",
"9 	c #F0D897",
"0 	c #F4DA8C",
"a 	c #F2D893",
"b 	c #F2DA94",
"c 	c #F2D791",
"d 	c #F1D791",
"e 	c #EDD389",
"f 	c #F0D78F",
"g 	c #F1D794",
"h 	c #F0D68A",
"i 	c #F0D68B",
"j 	c #F1D78B",
"k 	c #F1D68C",
"l 	c #F2D792",
"m 	c #F2D884",
"n 	c #ECD084",
"o 	c #ECD085",
"p 	c #EBCF86",
"q 	c #ECD087",
"r 	c #EDD38C",
"s 	c #F2D995",
"t 	c #F2D997",
"u 	c #F1D894",
"v 	c #F3D894",
"w 	c #000000",
"x 	c #F1D68E",
"y 	c #F0D789",
"z 	c #F2D694",
"A 	c #F0D690",
"B 	c #EFD68F",
"C 	c #F2D999",
"D 	c #EFD58D",
"E 	c #F4DB83",
"F 	c #F2D98D",
"G 	c #F3D892",
"H 	c #F1D78F",
"I 	c #EED289",
"J 	c #EDD189",
"K 	c #E8CC81",
"L 	c #EBCF88",
"M 	c #E8CC80",
"N 	c #E7CB80",
"O 	c #E7CA7C",
"P 	c #E7CA7D",
"Q 	c #E7CC80",
"R 	c #EED38D",
"S 	c #F3D893",
"T 	c #F3DA9C",
"U 	c #F3DA9B",
"V 	c #F3D99B",
"W 	c #F2D88A",
"X 	c #F3D88E",
"Y 	c #F2D88D",
"Z 	c #EED38E",
"` 	c #F0D692",
" .	c #F3D98B",
"..	c #F1D798",
"+.	c #F4DB87",
"@.	c #E8CE7C",
"#.	c #EBCE7C",
"$.	c #E8CD81",
"%.	c #EACE79",
"&.	c #EBCE7F",
"*.	c #E8CB7D",
"=.	c #E9CE7F",
"-.	c #ECD086",
";.	c #F0D592",
">.	c #F3D992",
",.	c #F4D993",
"'.	c #F2DA95",
").	c #F2D99B",
"!.	c #F0D99F",
"~.	c #F2D894",
"{.	c #F2D990",
"].	c #F3D996",
"^.	c #EDD590",
"/.	c #F3D997",
"(.	c #F3DA91",
"_.	c #F1D996",
":.	c #F0D791",
"<.	c #EBCF85",
"[.	c #ECD27F",
"}.	c #E8CE7E",
"|.	c #EBD081",
"1.	c #E8CD7F",
"2.	c #ECD08A",
"3.	c #EACE84",
"4.	c #EED48A",
"5.	c #EFD38A",
"6.	c #EDD188",
"7.	c #F0D48B",
"8.	c #F1D994",
"9.	c #F2D892",
"0.	c #F1D993",
"a.	c #EFD795",
"b.	c #F2D991",
"c.	c #F3D994",
"d.	c #F2DA97",
"e.	c #F2D896",
"f.	c #F0D58B",
"g.	c #F0D58C",
"h.	c #F0D694",
"i.	c #EED591",
"j.	c #EDD287",
"k.	c #EFD58E",
"l.	c #EDD28B",
"m.	c #EAD089",
"n.	c #F2D790",
"o.	c #F3DA8E",
"p.	c #F2D993",
"q.	c #F2D891",
"r.	c #EBD18A",
"s.	c #F0D78E",
"t.	c #F1D792",
"u.	c #F1D891",
"v.	c #F3D99E",
"w.	c #F3DA97",
"x.	c #F0D48C",
"y.	c #EFD48B",
"z.	c #FEFE39",
"A.	c #FFFF38",
"B.	c #ECD38A",
"C.	c #EACE82",
"D.	c #ECD38D",
"E.	c #EFD693",
"F.	c #F0D793",
"G.	c #ECD390",
"H.	c #E9CD85",
"I.	c #EDD286",
"J.	c #F0D794",
"K.	c #EDD186",
"L.	c #EDD38A",
"M.	c #ECD188",
"N.	c #EFD38B",
"O.	c #EFD591",
"P.	c #F1D896",
"Q.	c #ECCF7D",
"R.	c #E9CC83",
"S.	c #ECD28F",
"T.	c #F0D797",
"U.	c #F1D998",
"V.	c #FFFFFF",
"W.	c #F1D899",
"X.	c #EED592",
"Y.	c #EED38C",
"Z.	c #B8B826",
"`.	c #F3DA8C",
" +	c #F3D999",
".+	c #F2D981",
"++	c #F3DA8D",
"@+	c #F2D78C",
"#+	c #EBD290",
"$+	c #F2D98B",
"%+	c #F1D997",
"&+	c #F2D78F",
"*+	c #F0D792",
"=+	c #F2D992",
"-+	c #F0D893",
";+	c #FFFFFE",
">+	c #EED491",
",+	c #F0D790",
"'+	c #EED389",
")+	c #EDD084",
"!+	c #E8CC7F",
"~+	c #E8CD80",
"{+	c #E8CB7F",
"]+	c #F1D88B",
"^+	c #F1D693",
"/+	c #F3DA96",
"(+	c #F3DA95",
"_+	c #E9CE79",
":+	c #E8CB82",
"<+	c #E8CC78",
"[+	c #E9CC7E",
"}+	c #E9CD87",
"|+	c #E8CC7E",
"1+	c #F2DB9A",
"2+	c #F2D692",
"3+	c #F4D994",
"4+	c #EBD085",
"5+	c #E8CD85",
"6+	c #E8CD86",
"7+	c #E5C97D",
"8+	c #F2D795",
"9+	c #E7CC7E",
"0+	c #E9CD82",
"a+	c #E7CB7C",
"b+	c #EACE85",
"c+	c #E9CE83",
"d+	c #E7CB7F",
"e+	c #EACF85",
"f+	c #E8CC7C",
"g+	c #E9CE80",
"h+	c #F1D897",
"i+	c #F2DA98",
"j+	c #F2DA9A",
"k+	c #EDD17E",
"l+	c #E9CC7F",
"m+	c #EED58C",
"n+	c #EBD084",
"o+	c #F2D99A",
"p+	c #F1D793",
"q+	c #EACD83",
"r+	c #E8CB7B",
"s+	c #EACE7B",
"t+	c #EACD7F",
"u+	c #ECD185",
"v+	c #EDD187",
"w+	c #EFD482",
"x+	c #ECD189",
"y+	c #EFD390",
"z+	c #EDD28A",
"A+	c #EACF88",
"B+	c #EBD08A",
"C+	c #EBD086",
"D+	c #EDD17F",
"E+	c #ECD187",
"F+	c #EFD389",
"G+	c #F0D58A",
"H+	c #ECD088",
"I+	c #EDD391",
"J+	c #EED58F",
"K+	c #EFD694",
"L+	c #EFD48A",
"M+	c #EFD489",
"N+	c #F0D591",
"O+	c #EDD28E",
"P+	c #F1D795",
"Q+	c #F0D994",
"R+	c #EED28B",
"S+	c #EFD685",
"T+	c #F0D691",
"U+	c #EFD793",
"V+	c #ECD28C",
"W+	c #F2D78A",
"X+	c #F1D688",
"Y+	c #F1D68D",
"Z+	c #F1D785",
"`+	c #F1D898",
" @	c #F3D895",
".@	c #F3DA98",
"+@	c #F2D794",
"@@	c #F2D895",
"#@	c #F1D893",
"$@	c #F2D691",
"%@	c #EBD188",
"&@	c #F2D98F",
"*@	c #F4D996",
"=@	c #F3DA92",
"-@	c #EED489",
";@	c #EBD083",
">@	c #E9CD7E",
",@	c #F3DB9B",
"'@	c #F1D98E",
")@	c #F2D68E",
"!@	c #E9CF84",
"~@	c #E7CC7D",
"{@	c #E9CC82",
"]@	c #F2D88E",
"^@	c #F1D986",
"/@	c #EBCD7F",
"(@	c #E8CA7F",
"_@	c #E9CE78",
":@	c #EAD076",
"<@	c #EBD077",
"[@	c #E7CB7D",
"}@	c #EED48C",
"|@	c #EFD692",
"1@	c #E8CC7D",
"2@	c #E9CD81",
"3@	c #E7CB7E",
"4@	c #EACF77",
"5@	c #E9CB7D",
"6@	c #EACF8D",
"7@	c #EFD386",
"8@	c #EFD384",
"9@	c #EDD490",
"0@	c #EBCE86",
"a@	c #EACE87",
"b@	c #E9CD80",
"c@	c #EACF80",
"d@	c #E6CB79",
"e@	c #EACF81",
"f@	c #E9CF86",
"g@	c #EBD088",
"h@	c #EACE7F",
"i@	c #EBCF7F",
"j@	c #EBD08B",
"k@	c #EED393",
"l@	c #EACF83",
"m@	c #E9CE7C",
"n@	c #E8CB7E",
"o@	c #EED38B",
"p@	c #EED286",
"q@	c #EFD480",
"r@	c #EED388",
"s@	c #EED287",
"t@	c #EED38A",
"u@	c #EED28A",
"v@	c #EFD48E",
"w@	c #EDD486",
"x@	c #F0D491",
"y@	c #F1D888",
"z@	c #F1D784",
"A@	c #F1D58E",
"B@	c #F0D995",
"C@	c #F0D687",
"D@	c #EFD48C",
"E@	c #F3D993",
"F@	c #EDD392",
"G@	c #F0D78D",
"H@	c #F3D995",
"I@	c #F1D789",
"J@	c #EDD38B",
"K@	c #F3D991",
"L@	c #F1D694",
"M@	c #F2DA93",
"N@	c #F2DA96",
"O@	c #F3DA99",
"P@	c #EFD490",
"Q@	c #F3D898",
"R@	c #F1D786",
"S@	c #F3D98D",
"T@	c #E9CD7D",
"U@	c #E9CE81",
"V@	c #EBD17E",
"W@	c #EBCF80",
"X@	c #F1D88C",
"Y@	c #EBCE84",
"Z@	c #EACF82",
"`@	c #EBCF84",
" #	c #E8CC83",
".#	c #EED288",
"+#	c #EDD288",
"@#	c #EFD58F",
"##	c #F0D898",
"$#	c #EBD08C",
"%#	c #F0D891",
"&#	c #F1D592",
"*#	c #EFD592",
"=#	c #F1D885",
"-#	c #F2D890",
";#	c #F0D796",
">#	c #EED490",
",#	c #EFD68E",
"'#	c #EBD174",
")#	c #E6CB7C",
"!#	c #E9CE84",
"~#	c #EFD590",
"{#	c #EAD18A",
"]#	c #ECD18B",
"^#	c #ECCF85",
"/#	c #EACC80",
"(#	c #F5DC9D",
"_#	c #ECD28D",
":#	c #E8CD7E",
"<#	c #EFD683",
"[#	c #EED480",
"}#	c #EACE83",
"|#	c #EBCE82",
"1#	c #E8CD82",
"2#	c #EDD183",
"3#	c #ECD186",
"4#	c #E9CF85",
"5#	c #EFD78E",
"6#	c #F0D48D",
"7#	c #F1D995",
"8#	c #F4D997",
"9#	c #F0D78C",
"0#	c #F3DA84",
"a#	c #EED58D",
"b#	c #ECD28A",
"c#	c #E6CC86",
"d#	c #F2D98C",
"e#	c #F3D897",
"f#	c #EDD493",
"g#	c #F3D998",
"h#	c #F1D991",
"i#	c #EED58E",
"j#	c #F1D890",
"k#	c #EED58B",
"l#	c #EAD085",
"m#	c #E9CB7E",
"n#	c #E5CA7D",
"o#	c #E6CA7C",
"p#	c #E6C97D",
"q#	c #E8CC82",
"r#	c #EACC7F",
"s#	c #EAD083",
"t#	c #EACF7C",
"u#	c #EBD17C",
"v#	c #E7CC81",
"w#	c #E8CB81",
"x#	c #E9CD7B",
"y#	c #F1D58F",
"z#	c #EACE81",
"A#	c #EBCF7B",
"B#	c #ECD081",
"C#	c #ECD184",
"D#	c #E9CB7F",
"E#	c #E4C87E",
"F#	c #EACF84",
"G#	c #EACD81",
"H#	c #E6C97C",
"I#	c #EBCE85",
"J#	c #E9CC81",
"K#	c #EACF8A",
"L#	c #E8CB80",
"M#	c #E9CD7F",
"N#	c #EACE7E",
"O#	c #E5C97F",
"P#	c #E9CE82",
"Q#	c #EBCF82",
"R#	c #EFD385",
"S#	c #EED386",
"T#	c #E8CA7C",
"U#	c #E9CC80",
"V#	c #EFD387",
"W#	c #EBD089",
"X#	c #EED48E",
"Y#	c #EBD087",
"Z#	c #F0D485",
"`#	c #F0D587",
" $	c #F1D68A",
".$	c #EED495",
"+$	c #EFD68C",
"@$	c #F0D695",
"#$	c #F0D689",
"$$	c #EDD289",
"%$	c #F0D684",
"&$	c #ECD287",
"*$	c #F0D688",
"  . +       @   #           +         + $ % & * = - ; >   , ' #   ) ) - * $   ! # ~ + { ] * $ ] $ ^ / ] ( ] _ : * & $   ; ) # ; ] < ) _ [ } * * * $ * * ",
"| 1 | | 2 3 4 5 6 6 7 6 | | # +   +     8 9 0 a 5 b ! c {             _   > # 7 | d -     & & ] ]   * d e ~ =   f g ,     ] _ *     h i + + j k     * + ",
"b 5 b l m + e n o p q r 7 s t u { +   # v 5 7 5 w w w w w w w w w w w w w w w w w w w w w w w w w w w w { x * ) $         y + + z _ _ A B C + D E F G v ",
"6 H   + I J K L M N O P Q R S t T b a 5 U V t s w w w w w w w w w w w w w w w w w w w w w w w w w w w w       + , W X Y Z a H   `  .| ..7 +.4 5 5 5 5 5 ",
"+ I n @.#.$.%.&.*.*.P $.=.=.-.;.>.5 ,.'.).!.& + w w w w w w w w w w w w w w w w w w w w w w w w w w w w ~.! {.].t s t s 5 5 s ^./.(.5 5 ! t ! _.).a g :.",
"<.[.}.Q |.1.2.p 3.|.4.5.6.5.7.8.{ 9.0.5 # & { a.w w w w w w w w w w w w w w w w w w w w w w w w w w w w t V b.>.l | 5 7 5 ].c.t d.d.e.& & & ) f.g.h.i.j.",
"] k.] 5.. . l.m.n.o.p.S S q.+   = + + + r.n.s.u w w w w w w w w w w w w w w w w w w w w w w w w w w w w ) t.x ] ;   _ + u.C C s t v.w.5 | { ) ) * # x.y.",
"w w w w w w w w w w w w w w s t v 5 s w w w w w z.z.z.z.z.z.z.z.z.A.A.A.A.A.A.A.A.A.A.z.z.z.z.z.z.z.z.z.w w w w w D   > { B.w w w w w w w w w w w w w w ",
"w w w w w w w w w w w w w w C.D.E.x   w w w w w z.z.z.z.z.z.z.z.z.A.A.A.A.A.A.A.A.A.A.z.z.z.z.z.z.z.z.z.w w w w w F.{ G.$ k w w w w w w w w w w w w w w ",
"w w w w w w w w w w w w w w H.1.<.I.  w w w w w z.z.z.z.z.z.z.z.z.A.A.A.A.A.A.A.A.A.A.z.z.z.z.z.z.z.z.z.w w w w w 4 g J...# w w w w w w w w w w w w w w ",
"w w w w w w w w w w w w w w K.L.M.N._ w w w w w z.z.z.z.z.z.z.z.z.A.A.A.A.A.A.A.A.A.A.z.z.z.z.z.z.z.z.z.w w w w w O.P.t t s w w w w w w w w w w w w w w ",
"w w w w w w w w w w w w w w ] k.+ ]   w w w w w z.z.z.z.z.z.z.z.z.A.A.A.A.A.A.A.A.A.A.z.z.z.z.z.z.z.z.z.w w w w w Q.R.S.T.U.w w w w w w w w w w w w w w ",
"w w w w w A.A.A.A.A.A.A.A.A.w w w w w A.A.A.A.A.A.A.A.A.z.z.z.z.z.V.V.V.V.V.V.V.V.V.V.z.z.z.z.z.z.z.z.z.A.A.A.A.A.w w w w w A.A.A.A.A.A.A.A.A.w w w w w ",
"w w w w w A.A.A.A.A.A.A.A.A.w w w w w A.A.A.A.A.A.A.A.A.z.z.z.z.z.V.V.V.V.V.V.V.V.V.V.z.z.z.z.z.z.z.z.z.A.A.A.A.A.w w w w w A.A.A.A.A.A.A.A.A.w w w w w ",
"w w w w w A.A.A.A.A.A.A.A.A.w w w w w A.A.A.A.A.A.A.A.A.z.z.z.z.z.V.V.V.V.V.V.V.V.V.V.z.z.z.z.z.z.z.z.z.A.A.A.A.A.w w w w w A.A.A.A.A.A.A.A.A.w w w w w ",
"w w w w w A.A.A.A.A.A.A.A.A.w w w w w A.A.A.A.A.A.A.A.A.z.z.z.z.z.V.V.V.V.V.V.V.V.V.V.z.z.z.z.z.z.z.z.z.A.A.A.A.A.w w w w w A.A.A.A.A.A.A.A.A.w w w w w ",
"w w w w w A.A.A.A.A.A.A.A.A.w w w w w A.A.A.A.A.A.A.A.A.z.z.z.z.z.V.V.V.V.V.V.V.V.V.V.z.z.z.z.z.z.z.z.z.A.A.A.A.A.w w w w w A.A.A.A.A.A.A.A.A.w w w w w ",
"W.p.s X.Y.w w w w Z.Z.Z.Z.Z.w w w w w A.A.A.A.A.A.A.A.A.V.V.V.V.V.V.V.V.V.V.V.V.V.V.V.V.V.V.V.A.A.A.A.A.A.A.A.A.A.w w w w w Z.Z.Z.Z.w w w w w `.! !  +w.",
".+$   ] ~ w w w w Z.Z.Z.Z.Z.w w w w w A.A.A.A.A.A.A.A.A.V.V.V.V.V.V.V.V.V.V.V.V.V.V.V.V.V.V.V.A.A.A.A.A.A.A.A.A.A.w w w w w Z.Z.Z.Z.w w w w w ++& H @+- ",
"      * H w w w w Z.Z.Z.Z.Z.w w w w w A.A.A.A.A.A.A.A.A.V.V.V.V.V.V.V.V.V.V.V.V.V.V.V.V.V.V.V.A.A.A.A.A.A.A.A.A.A.w w w w w Z.Z.Z.Z.w w w w w k #+  $+  ",
"c %+v t u w w w w Z.Z.Z.Z.Z.w w w w w A.A.A.A.A.A.A.A.A.V.V.V.V.V.V.V.V.V.V.V.V.V.V.V.V.V.V.V.A.A.A.A.A.A.A.A.A.A.w w w w w Z.Z.Z.Z.w w w w w D A     6 ",
"s d - &+g ` *+=+-+w w w w w Z.Z.Z.Z.Z.A.A.A.A.A.A.A.A.A.A.A.A.A.A.;+;+;+;+;+V.V.V.V.V.A.A.A.A.A.A.A.A.A.A.A.A.A.A.Z.Z.Z.Z.Z.w w w w x { >+,+H &+= $ p.5 ",
"'+)+!+~+{+*.N O !+w w w w w Z.Z.Z.Z.Z.A.A.A.A.A.A.A.A.A.A.A.A.A.A.;+;+;+;+;+V.V.V.V.V.A.A.A.A.A.A.A.A.A.A.A.A.A.A.Z.Z.Z.Z.Z.w w w w s.]+4.{ ^+& n./+(+* ",
"*._+*.N :+<+[+}+|+w w w w w Z.Z.Z.Z.Z.A.A.A.A.A.A.A.A.A.A.A.A.A.A.;+;+;+;+;+V.V.V.V.V.A.A.A.A.A.A.A.A.A.A.A.A.A.A.Z.Z.Z.Z.Z.w w w w 1+i 2+& $ l 3+D 4+R.",
"*.5+6+O O [+*.7+K w w w w w Z.Z.Z.Z.Z.A.A.A.A.A.A.A.A.A.A.A.A.A.A.;+;+;+;+;+V.V.V.V.V.A.A.A.A.A.A.A.A.A.A.A.A.A.A.Z.Z.Z.Z.Z.w w w w ~.d 8+v 4 c.I.9+0+a+",
"*.b+c+N d+H.e+f+g+w w w w w Z.Z.Z.Z.Z.A.A.A.A.A.A.A.A.A.A.A.A.A.A.;+;+;+;+;+V.V.V.V.V.A.A.A.A.A.A.A.A.A.A.A.A.A.A.Z.Z.Z.Z.Z.w w w w h+s i+j+b.k+|+|+a+*.",
"Q M M l+|+q m+n+<.w w w w w A.A.A.A.A.V.V.V.V.V.V.V.V.V.A.A.A.A.A.A.A.A.A.A.A.A.A.A.A.A.A.A.A.V.V.V.V.V.V.V.V.V.V.A.A.A.A.A.w w w w 5 o+d.p+!+q+M r+s+t+",
"u+o y.v+-.6.w+y.5.w w w w w A.A.A.A.A.V.V.V.V.V.V.V.V.V.A.A.A.A.A.A.A.A.A.A.A.A.A.A.A.A.A.A.A.V.V.V.V.V.V.V.V.V.V.A.A.A.A.A.w w w w x+y+z+A+B+C+b+D+j.E+",
"F+G+_ H+  i * y.> w w w w w A.A.A.A.A.V.V.V.V.V.V.V.V.V.A.A.A.A.A.A.A.A.A.A.A.A.A.A.A.A.A.A.A.V.V.V.V.V.V.V.V.V.V.A.A.A.A.A.w w w w J I+z+J+K+L+I M++ L+",
"      N+$ O+= P+Q+w w w w w A.A.A.A.A.V.V.V.V.V.V.V.V.V.A.A.A.A.A.A.A.A.A.A.A.A.A.A.A.A.A.A.A.V.V.V.V.V.V.V.V.V.V.A.A.A.A.A.w w w w M.= $ D R+S+h ] g.g.",
"T+  A U+| V+Z | -+w w w w w A.A.A.A.A.V.V.V.V.V.V.V.V.V.A.A.A.A.A.A.A.A.A.A.A.A.A.A.A.A.A.A.A.V.V.V.V.V.V.V.V.V.V.A.A.A.A.A.w w w w W+i h X+~ g.  _ Y+Z+",
"`+ @C .@C P+5 ]./.w w w w w A.A.A.A.A.V.V.V.V.V.w w w w V.V.V.V.V.V.V.V.V.V.V.V.V.V.V.V.V.V.V.w w w w w V.V.V.V.V.A.A.A.A.A.w w w w $ < *   * 8.D $ # +@",
"5 @@u #@c $@x + $ w w w w w A.A.A.A.A.V.V.V.V.V.w w w w V.V.V.V.V.V.V.V.V.V.V.V.V.V.V.V.V.V.V.w w w w w V.V.V.V.V.A.A.A.A.A.w w w w %@n.l &@2 *@=@).T t ",
"$ # , g.-@o ;@L >@w w w w w A.A.A.A.A.V.V.V.V.V.w w w w V.V.V.V.V.V.V.V.V.V.V.V.V.V.V.V.V.V.V.w w w w w V.V.V.V.V.A.A.A.A.A.w w w w /.5 ].,@s ! @@'@`+* ",
")@j.!@R.~@N O {@O w w w w w A.A.A.A.A.V.V.V.V.V.w w w w V.V.V.V.V.V.V.V.V.V.V.V.V.V.V.V.V.V.V.w w w w w V.V.V.V.V.A.A.A.A.A.w w w w ]@, # ) j * A ^@* y ",
"/@(@_@O $.:@*.P <@w w w w w A.A.A.A.A.V.V.V.V.V.w w w w V.V.V.V.V.V.V.V.V.V.V.V.V.V.V.V.V.V.V.w w w w w V.V.V.V.V.A.A.A.A.A.w w w w $ < x & $ d F.L+u+C+",
"*.O [+[@O *.O b+P w w w w w A.A.A.A.A.V.V.V.V.V.w w w w w w w w w V.V.V.V.V.V.V.V.V.V.w w w w w w w w w V.V.V.V.V.A.A.A.A.A.w w w w }@|@/ E+I u+1@2@{+3@",
"4@|+*.K O 5@*.6@O w w w w w A.A.A.A.A.V.V.V.V.V.w w w w w w w w w V.V.V.V.V.V.V.V.V.V.w w w w w w w w w V.V.V.V.V.A.A.A.A.A.w w w w 7@8@9@0@a@b@c@!+d@*.",
"*.2@Q !+e@f@g@h@i@w w w w w A.A.A.A.A.V.V.V.V.V.w w w w w w w w w V.V.V.V.V.V.V.V.V.V.w w w w w w w w w V.V.V.V.V.A.A.A.A.A.w w w w 5.j@k@4+J l@o m@[+n@",
"7@o@p@q@r@Y.s@t@u@w w w w w A.A.A.A.A.V.V.V.V.V.w w w w w w w w w V.V.V.V.V.V.V.V.V.V.w w w w w w w w w V.V.V.V.V.A.A.A.A.A.w w w w i o@( v@w@6.x@r C+4+",
"y@4.z@A@B@4._ e   w w w w w w w w w w A.A.A.A.A.V.V.V.V.w w w w w V.V.V.V.V.V.V.V.V.V.w w w w V.V.V.V.V.A.A.A.A.A.w w w w w w w w w C@X+~ & . / D@4.*   ",
"E@#@d @ F@G@- 9.H@w w w w w w w w w w A.A.A.A.A.V.V.V.V.w w w w w V.V.V.V.V.V.V.V.V.V.w w w w V.V.V.V.V.A.A.A.A.A.w w w w w w w w w , ,+I@^+$ J@& d K@L@",
"u 5 ! M@N@O@'.P@e.w w w w w w w w w w A.A.A.A.A.V.V.V.V.w w w w w V.V.V.V.V.V.V.V.V.V.w w w w V.V.V.V.V.A.A.A.A.A.w w w w w w w w w Q@t ].! 5 p.| ( l t.",
"R@y.` B t O@5 =@7.w w w w w w w w w w A.A.A.A.A.V.V.V.V.w w w w w V.V.V.V.V.V.V.V.V.V.w w w w V.V.V.V.V.A.A.A.A.A.w w w w w w w w w s /.].0 S@$ x       ",
"T@3.U@0+M M l+V@W@w w w w w w w w w w A.A.A.A.A.V.V.V.V.w w w w w V.V.V.V.V.V.V.V.V.V.w w w w V.V.V.V.V.A.A.A.A.A.w w w w w w w w w X@H x ~ f.  y.H+6.Y@",
"Z@<.g+`@$.w w w w A.A.A.A.A.w w w w w A.A.A.A.A.V.V.V.V.V.V.V.V.V.V.V.V.V.V.V.V.V.V.V.V.V.V.V.V.V.V.V.V.A.A.A.A.A.w w w w w A.A.A.A.w w w w w   '+v+v+p ",
" #E+.#u+4+w w w w A.A.A.A.A.w w w w w A.A.A.A.A.V.V.V.V.V.V.V.V.V.V.V.V.V.V.V.V.V.V.V.V.V.V.V.V.V.V.V.V.A.A.A.A.A.w w w w w A.A.A.A.w w w w w   f.'++#t@",
"@#D@##~ $#w w w w A.A.A.A.A.w w w w w A.A.A.A.A.V.V.V.V.V.V.V.V.V.V.V.V.V.V.V.V.V.V.V.V.V.V.V.V.V.V.V.V.A.A.A.A.A.w w w w w A.A.A.A.w w w w w     %#D@D ",
"* &#_ $ A w w w w A.A.A.A.A.w w w w w A.A.A.A.A.V.V.V.V.V.V.V.V.V.V.V.V.V.V.V.V.V.V.V.V.V.V.V.V.V.V.V.V.A.A.A.A.A.w w w w w A.A.A.A.w w w w w { $ g ) ^+",
"p+l @@5 ! w w w w A.A.A.A.A.w w w w w A.A.A.A.A.V.V.V.V.V.V.V.V.V.V.V.V.V.V.V.V.V.V.V.V.V.V.V.V.V.V.V.V.A.A.A.A.A.w w w w w A.A.A.A.w w w w w *#H@d f h.",
"w w w w w A.A.A.A.A.A.A.A.A.w w w w w w w w w w w w w w A.A.A.A.A.A.A.A.A.A.A.A.A.A.A.A.A.A.A.w w w w w w w w w w w w w w w A.A.A.A.A.A.A.A.A.w w w w w ",
"w w w w w A.A.A.A.A.A.A.A.A.w w w w w w w w w w w w w w A.A.A.A.A.A.A.A.A.A.A.A.A.A.A.A.A.A.A.w w w w w w w w w w w w w w w A.A.A.A.A.A.A.A.A.w w w w w ",
"w w w w w A.A.A.A.A.A.A.A.A.w w w w w w w w w w w w w w A.A.A.A.A.A.A.A.A.A.A.A.A.A.A.A.A.A.A.w w w w w w w w w w w w w w w A.A.A.A.A.A.A.A.A.w w w w w ",
"w w w w w A.A.A.A.A.A.A.A.A.w w w w w w w w w w w w w w A.A.A.A.A.A.A.A.A.A.A.A.A.A.A.A.A.A.A.w w w w w w w w w w w w w w w A.A.A.A.A.A.A.A.A.w w w w w ",
"w w w w w A.A.A.A.A.A.A.A.A.w w w w w w w w w w w w w w A.A.A.A.A.A.A.A.A.A.A.A.A.A.A.A.A.A.A.w w w w w w w w w w w w w w w A.A.A.A.A.A.A.A.A.w w w w w ",
"w w w w w A.A.A.A.w w w w w =#$   Y+4.  - H d t.w w w w A.A.A.A.A.V.V.V.V.V.V.V.V.V.V.A.A.A.A.w w w w w 8.s H@ @9.-#;       w w w w A.A.A.A.A.w w w w w ",
"w w w w w A.A.A.A.w w w w w ;#J.  { 6 >#|@d.5 5 w w w w A.A.A.A.A.V.V.V.V.V.V.V.V.V.V.A.A.A.A.w w w w w Y@+#$ s 4 w.>+9.*   w w w w A.A.A.A.A.w w w w w ",
"w w w w w A.A.A.A.w w w w w Y+,#T+4 5 s b b 5 s w w w w A.A.A.A.A.V.V.V.V.V.V.V.V.V.V.A.A.A.A.w w w w w '#)#~@!#| .@5 t ~#9.w w w w A.A.A.A.A.w w w w w ",
"w w w w w A.A.A.A.w w w w w ,+4 8.b '.0.{#/ ]#p w w w w A.A.A.A.A.V.V.V.V.V.V.V.V.V.V.A.A.A.A.w w w w w P 3@|+1@*.^## t ].5 w w w w A.A.A.A.A.w w w w w ",
"w w w w w w w w w   G   s.~.t s /+^ <.w w w w w w w w w w w w w w w w w w w w w w w w w w w w w w w w w w w w w w b@g+w+# 5 @@9.q.6 w w w w w w w w w w ",
"w w w w w w w w w * H ~# +w.s T+/#|+>@w w w w w w w w w w w w w w w w w w w w w w w w w w w w w w w w w w w w w w v+M+D@_ y.D $ * * w w w w w w w w w w ",
"w w w w w w w w w ].(#H@p+_#^#B.[+*.:#w w w w w w w w w w w w w w w w w w w w w w w w w w w w w w w w w w w w w w <#k * ] e Y+      w w w w w w w w w w ",
"w w w w w w w w w A o@M.[#<.}#p 3@|#1#w w w w w w w w w w w w w w w w w w w w w w w w w w w w w w w w w w w w w w   ] . +   & *     w w w w w w w w w w ",
"w w w w w w w w w j.K.-.2#3#4+0+C+'+4+w w w w w w w w w w w w w w w w w w w w w w w w w w w w w w w w w w w w w w x   l./   u._   4#w w w w w w w w w w ",
">   +@H     5#+   * 7.g.6#5.w w w w w A.A.A.A.A.A.A.A.A.V.V.V.V.V.V.V.V.V.V.V.V.V.V.V.V.V.V.V.A.A.A.A.A.A.A.A.A.A.w w w w w $ < - -     / ~     * x $   ",
"7#  x ~ | | H 9.S *@~. @c.].w w w w w A.A.A.A.A.A.A.A.A.V.V.V.V.V.V.V.V.V.V.V.V.V.V.V.V.V.V.V.A.A.A.A.A.A.A.A.A.A.w w w w w &+-#8#9.H * ,#  Y+9#  x 0#x ",
"  * T+u.a  @u.a#t@'+~ 9 J+.@w w w w w A.A.A.A.A.A.A.A.A.V.V.V.V.V.V.V.V.V.V.V.V.V.V.V.V.V.V.V.A.A.A.A.A.A.A.A.A.A.w w w w w R+b#c#d#@@e#f#g#$ h#H # i ~.",
"q.l i#j#k#E+*.2@l#:#*.m#[+b@w w w w w A.A.A.A.A.A.A.A.A.V.V.V.V.V.V.V.V.V.V.V.V.V.V.V.V.V.V.V.A.A.A.A.A.A.A.A.A.A.w w w w w U@n#}#o#p#q#J@u b O@S v l d ",
"g.'+l@r#{+C.>@*.s#U@O O O O w w w w w A.A.A.A.A.A.A.A.A.V.V.V.V.V.V.V.V.V.V.V.V.V.V.V.V.V.V.V.A.A.A.A.A.A.A.A.A.A.w w w w w t#u#v#3@w#!+x#n@3#y#* * *   ",
"=.f+[@{+*.:#O *.~@2@*.O *.[@w w w w w w w w w w w w w w w w w w w w w w w w w w w w w w w w w w w w w w w w w w w w w w w w z#A#B#{+d+d+M n@|+[@C#j.3#o ",
"2@D#1@E#2@F#G#|+b@*.H#G#b@l@w w w w w w w w w w w w w w w w w w w w w w w w w w w w w w w w w w w w w w w w w w w w w w w w I#M J#[@K#L#[@M#3.b@b@0+}#L ",
"<.N#{+O#P#0+C+Q#F#G#o R#S#'+w w w w w w w w w w w w w w w w w w w w w w w w w w w w w w w w w w w w w w w w w w w w w w w w T#L#O U#b@q+q V#3.v+`@4+4+F#",
".#-.n K.L+6.R y.j.'+L+~ g.. w w w w w w w w w w w w w w w w w w w w w w w w w w w w w w w w w w w w w w w w w w w w w w w w W#X#-.v+3#Y#|@Z#j.f.L+. 4.3#",
"`#'+ $L+. f.g.D@* h     ,+* w w w w w w w w w w w w w w w w w w w w w w w w w w w w w w w w w w w w w w w w w w w w w w w w t@.$J@'+J@. y.L+'+    4.~ 4.",
"C@  +                       +$  + h   +   * # * { n.c > ; 8+g P+@$& * i #$$ u t.$ ] 4.~ $ '+u@'++#q j.C+n+j.g.+#6.-.. '+s@$$f.@#a#k#%$L+  * * ] &$*$H g.",
"> H *   ~ # i     i c             *   *   * #   >   * > # { f.A A * *     $ * & Z x+4.    ] L+  +#x.'+f.y.y.] L+'+] ~ + f.  * *   ] 4.    $ f   g.    [ "};
