/* XPM */
static char * enemy_0_d_xpm[] = {
"76 76 468 2",
"  	c #F0D68C",
". 	c #EFD48D",
"+ 	c #F0D58E",
"@ 	c #F2D889",
"# 	c #F1D690",
"$ 	c #F0D68E",
"% 	c #F0D894",
"& 	c #F1D691",
"* 	c #F0D68D",
"= 	c #F0D590",
"- 	c #F1D78E",
"; 	c #F1D78D",
"> 	c #F0D68F",
", 	c #F1D692",
"' 	c #F1D590",
") 	c #F0D58F",
"! 	c #F2D998",
"~ 	c #EFD58C",
"{ 	c #F1D68F",
"] 	c #EFD58B",
"^ 	c #EED48D",
"/ 	c #EED48B",
"( 	c #EDD28C",
"_ 	c #F0D58D",
": 	c #F3D983",
"< 	c #F1D78C",
"[ 	c #F1D68B",
"} 	c #F4D984",
"| 	c #F1D790",
"1 	c #ECD18A",
"2 	c #F3D891",
"3 	c #F3D793",
"4 	c #F2D994",
"5 	c #F2D996",
"6 	c #F2D793",
"7 	c #F1D895",
"8 	c #F0D795",
"9 	c #F0D897",
"0 	c #F4DA8C",
"a 	c #F2D893",
"b 	c #F2DA94",
"c 	c #F2D791",
"d 	c #F1D791",
"e 	c #EDD389",
"f 	c #F0D78F",
"g 	c #F1D794",
"h 	c #F0D68A",
"i 	c #F0D68B",
"j 	c #F1D78B",
"k 	c #F1D68C",
"l 	c #F2D792",
"m 	c #F2D884",
"n 	c #ECD084",
"o 	c #ECD085",
"p 	c #EBCF86",
"q 	c #ECD087",
"r 	c #EDD38C",
"s 	c #F2D995",
"t 	c #F2D997",
"u 	c #F1D894",
"v 	c #F3D894",
"w 	c #000000",
"x 	c #F1D68E",
"y 	c #F0D789",
"z 	c #F2D694",
"A 	c #F0D690",
"B 	c #EFD68F",
"C 	c #F2D999",
"D 	c #EFD58D",
"E 	c #F4DB83",
"F 	c #F2D98D",
"G 	c #F3D892",
"H 	c #F1D78F",
"I 	c #EED289",
"J 	c #EDD189",
"K 	c #E8CC81",
"L 	c #EBCF88",
"M 	c #E8CC80",
"N 	c #E7CB80",
"O 	c #E7CA7C",
"P 	c #E7CA7D",
"Q 	c #E7CC80",
"R 	c #EED38D",
"S 	c #F3D893",
"T 	c #F3DA9C",
"U 	c #F3DA9B",
"V 	c #F3D99B",
"W 	c #F2D88A",
"X 	c #F3D88E",
"Y 	c #F2D88D",
"Z 	c #EED38E",
"` 	c #F0D692",
" .	c #F3D98B",
"..	c #F1D798",
"+.	c #F4DB87",
"@.	c #E8CE7C",
"#.	c #EBCE7C",
"$.	c #E8CD81",
"%.	c #EACE79",
"&.	c #EBCE7F",
"*.	c #E8CB7D",
"=.	c #E9CE7F",
"-.	c #ECD086",
";.	c #F0D592",
">.	c #F3D992",
",.	c #F4D993",
"'.	c #F2DA95",
").	c #F2D99B",
"!.	c #F0D99F",
"~.	c #F2D894",
"{.	c #F2D990",
"].	c #F3D996",
"^.	c #EDD590",
"/.	c #F3D997",
"(.	c #F3DA91",
"_.	c #F1D996",
":.	c #F0D791",
"<.	c #EBCF85",
"[.	c #ECD27F",
"}.	c #E8CE7E",
"|.	c #EBD081",
"1.	c #E8CD7F",
"2.	c #ECD08A",
"3.	c #EACE84",
"4.	c #EED48A",
"5.	c #EFD38A",
"6.	c #EDD188",
"7.	c #F0D48B",
"8.	c #F1D994",
"9.	c #F2D892",
"0.	c #F1D993",
"a.	c #EFD795",
"b.	c #F2D991",
"c.	c #F3D994",
"d.	c #F2DA97",
"e.	c #F2D896",
"f.	c #F0D58B",
"g.	c #F0D58C",
"h.	c #F0D694",
"i.	c #EED591",
"j.	c #EDD287",
"k.	c #EFD58E",
"l.	c #EDD28B",
"m.	c #EAD089",
"n.	c #F2D790",
"o.	c #F3DA8E",
"p.	c #F2D993",
"q.	c #F2D891",
"r.	c #EBD18A",
"s.	c #F0D78E",
"t.	c #F1D792",
"u.	c #F1D891",
"v.	c #F3D99E",
"w.	c #F3DA97",
"x.	c #F0D48C",
"y.	c #EFD48B",
"z.	c #FF3737",
"A.	c #ECD38A",
"B.	c #EACE82",
"C.	c #ECD38D",
"D.	c #EFD693",
"E.	c #F0D793",
"F.	c #ECD390",
"G.	c #E9CD85",
"H.	c #EDD286",
"I.	c #F0D794",
"J.	c #EDD186",
"K.	c #EDD38A",
"L.	c #ECD188",
"M.	c #EFD38B",
"N.	c #EFD591",
"O.	c #F1D896",
"P.	c #ECCF7D",
"Q.	c #E9CC83",
"R.	c #ECD28F",
"S.	c #F0D797",
"T.	c #F1D998",
"U.	c #FFFFFF",
"V.	c #F1D899",
"W.	c #EED592",
"X.	c #EED38C",
"Y.	c #B82525",
"Z.	c #F3DA8C",
"`.	c #F3D999",
" +	c #F2D981",
".+	c #F3DA8D",
"++	c #F2D78C",
"@+	c #EBD290",
"#+	c #F2D98B",
"$+	c #F1D997",
"%+	c #F2D78F",
"&+	c #F0D792",
"*+	c #F2D992",
"=+	c #F0D893",
"-+	c #FFFFFE",
";+	c #EED491",
">+	c #F0D790",
",+	c #EED389",
"'+	c #EDD084",
")+	c #E8CC7F",
"!+	c #E8CD80",
"~+	c #E8CB7F",
"{+	c #F1D88B",
"]+	c #F1D693",
"^+	c #F3DA96",
"/+	c #F3DA95",
"(+	c #E9CE79",
"_+	c #E8CB82",
":+	c #E8CC78",
"<+	c #E9CC7E",
"[+	c #E9CD87",
"}+	c #E8CC7E",
"|+	c #F2DB9A",
"1+	c #F2D692",
"2+	c #F4D994",
"3+	c #EBD085",
"4+	c #E8CD85",
"5+	c #E8CD86",
"6+	c #E5C97D",
"7+	c #F2D795",
"8+	c #E7CC7E",
"9+	c #E9CD82",
"0+	c #E7CB7C",
"a+	c #EACE85",
"b+	c #E9CE83",
"c+	c #E7CB7F",
"d+	c #EACF85",
"e+	c #E8CC7C",
"f+	c #E9CE80",
"g+	c #F1D897",
"h+	c #F2DA98",
"i+	c #F2DA9A",
"j+	c #EDD17E",
"k+	c #E9CC7F",
"l+	c #EED58C",
"m+	c #EBD084",
"n+	c #F2D99A",
"o+	c #F1D793",
"p+	c #EACD83",
"q+	c #E8CB7B",
"r+	c #EACE7B",
"s+	c #EACD7F",
"t+	c #ECD185",
"u+	c #EDD187",
"v+	c #EFD482",
"w+	c #ECD189",
"x+	c #EFD390",
"y+	c #EDD28A",
"z+	c #EACF88",
"A+	c #EBD08A",
"B+	c #EBD086",
"C+	c #EDD17F",
"D+	c #ECD187",
"E+	c #EFD389",
"F+	c #F0D58A",
"G+	c #ECD088",
"H+	c #EDD391",
"I+	c #EED58F",
"J+	c #EFD694",
"K+	c #EFD48A",
"L+	c #EFD489",
"M+	c #F0D591",
"N+	c #EDD28E",
"O+	c #F1D795",
"P+	c #F0D994",
"Q+	c #EED28B",
"R+	c #EFD685",
"S+	c #F0D691",
"T+	c #EFD793",
"U+	c #ECD28C",
"V+	c #F2D78A",
"W+	c #F1D688",
"X+	c #F1D68D",
"Y+	c #F1D785",
"Z+	c #F1D898",
"`+	c #F3D895",
" @	c #F3DA98",
".@	c #F2D794",
"+@	c #F2D895",
"@@	c #F1D893",
"#@	c #F2D691",
"$@	c #EBD188",
"%@	c #F2D98F",
"&@	c #F4D996",
"*@	c #F3DA92",
"=@	c #EED489",
"-@	c #EBD083",
";@	c #E9CD7E",
">@	c #F3DB9B",
",@	c #F1D98E",
"'@	c #F2D68E",
")@	c #E9CF84",
"!@	c #E7CC7D",
"~@	c #E9CC82",
"{@	c #F2D88E",
"]@	c #F1D986",
"^@	c #EBCD7F",
"/@	c #E8CA7F",
"(@	c #E9CE78",
"_@	c #EAD076",
":@	c #EBD077",
"<@	c #E7CB7D",
"[@	c #EED48C",
"}@	c #EFD692",
"|@	c #E8CC7D",
"1@	c #E9CD81",
"2@	c #E7CB7E",
"3@	c #EACF77",
"4@	c #E9CB7D",
"5@	c #EACF8D",
"6@	c #EFD386",
"7@	c #EFD384",
"8@	c #EDD490",
"9@	c #EBCE86",
"0@	c #EACE87",
"a@	c #E9CD80",
"b@	c #EACF80",
"c@	c #E6CB79",
"d@	c #EACF81",
"e@	c #E9CF86",
"f@	c #EBD088",
"g@	c #EACE7F",
"h@	c #EBCF7F",
"i@	c #EBD08B",
"j@	c #EED393",
"k@	c #EACF83",
"l@	c #E9CE7C",
"m@	c #E8CB7E",
"n@	c #EED38B",
"o@	c #EED286",
"p@	c #EFD480",
"q@	c #EED388",
"r@	c #EED287",
"s@	c #EED38A",
"t@	c #EED28A",
"u@	c #EFD48E",
"v@	c #EDD486",
"w@	c #F0D491",
"x@	c #F1D888",
"y@	c #F1D784",
"z@	c #F1D58E",
"A@	c #F0D995",
"B@	c #F0D687",
"C@	c #EFD48C",
"D@	c #F3D993",
"E@	c #EDD392",
"F@	c #F0D78D",
"G@	c #F3D995",
"H@	c #F1D789",
"I@	c #EDD38B",
"J@	c #F3D991",
"K@	c #F1D694",
"L@	c #F2DA93",
"M@	c #F2DA96",
"N@	c #F3DA99",
"O@	c #EFD490",
"P@	c #F3D898",
"Q@	c #F1D786",
"R@	c #F3D98D",
"S@	c #E9CD7D",
"T@	c #E9CE81",
"U@	c #EBD17E",
"V@	c #EBCF80",
"W@	c #F1D88C",
"X@	c #EBCE84",
"Y@	c #EACF82",
"Z@	c #EBCF84",
"`@	c #E8CC83",
" #	c #EED288",
".#	c #EDD288",
"+#	c #EFD58F",
"@#	c #F0D898",
"##	c #EBD08C",
"$#	c #F0D891",
"%#	c #F1D592",
"&#	c #EFD592",
"*#	c #F1D885",
"=#	c #F2D890",
"-#	c #F0D796",
";#	c #EED490",
">#	c #EFD68E",
",#	c #EBD174",
"'#	c #E6CB7C",
")#	c #E9CE84",
"!#	c #EFD590",
"~#	c #EAD18A",
"{#	c #ECD18B",
"]#	c #ECCF85",
"^#	c #EACC80",
"/#	c #F5DC9D",
"(#	c #ECD28D",
"_#	c #E8CD7E",
":#	c #EFD683",
"<#	c #EED480",
"[#	c #EACE83",
"}#	c #EBCE82",
"|#	c #E8CD82",
"1#	c #EDD183",
"2#	c #ECD186",
"3#	c #E9CF85",
"4#	c #EFD78E",
"5#	c #F0D48D",
"6#	c #F1D995",
"7#	c #F4D997",
"8#	c #F0D78C",
"9#	c #F3DA84",
"0#	c #EED58D",
"a#	c #ECD28A",
"b#	c #E6CC86",
"c#	c #F2D98C",
"d#	c #F3D897",
"e#	c #EDD493",
"f#	c #F3D998",
"g#	c #F1D991",
"h#	c #EED58E",
"i#	c #F1D890",
"j#	c #EED58B",
"k#	c #EAD085",
"l#	c #E9CB7E",
"m#	c #E5CA7D",
"n#	c #E6CA7C",
"o#	c #E6C97D",
"p#	c #E8CC82",
"q#	c #EACC7F",
"r#	c #EAD083",
"s#	c #EACF7C",
"t#	c #EBD17C",
"u#	c #E7CC81",
"v#	c #E8CB81",
"w#	c #E9CD7B",
"x#	c #F1D58F",
"y#	c #EACE81",
"z#	c #EBCF7B",
"A#	c #ECD081",
"B#	c #ECD184",
"C#	c #E9CB7F",
"D#	c #E4C87E",
"E#	c #EACF84",
"F#	c #EACD81",
"G#	c #E6C97C",
"H#	c #EBCE85",
"I#	c #E9CC81",
"J#	c #EACF8A",
"K#	c #E8CB80",
"L#	c #E9CD7F",
"M#	c #EACE7E",
"N#	c #E5C97F",
"O#	c #E9CE82",
"P#	c #EBCF82",
"Q#	c #EFD385",
"R#	c #EED386",
"S#	c #E8CA7C",
"T#	c #E9CC80",
"U#	c #EFD387",
"V#	c #EBD089",
"W#	c #EED48E",
"X#	c #EBD087",
"Y#	c #F0D485",
"Z#	c #F0D587",
"`#	c #F1D68A",
" $	c #EED495",
".$	c #EFD68C",
"+$	c #F0D695",
"@$	c #F0D689",
"#$	c #EDD289",
"$$	c #F0D684",
"%$	c #ECD287",
"&$	c #F0D688",
"  . +       @   #           +         + $ % & * = - ; >   , ' #   ) ) - * $   ! # ~ + { ] * $ ] $ ^ / ] ( ] _ : * & $   ; ) # ; ] < ) _ [ } * * * $ * * ",
"| 1 | | 2 3 4 5 6 6 7 6 | | # +   +     8 9 0 a 5 b ! c {             _   > # 7 | d -     & & ] ]   * d e ~ =   f g ,     ] _ *     h i + + j k     * + ",
"b 5 b l m + e n o p q r 7 s t u { +   # v 5 7 5 w w w w w w w w w w w w w w w w w w w w w w w w w w w w { x * ) $         y + + z _ _ A B C + D E F G v ",
"6 H   + I J K L M N O P Q R S t T b a 5 U V t s w w w w w w w w w w w w w w w w w w w w w w w w w w w w       + , W X Y Z a H   `  .| ..7 +.4 5 5 5 5 5 ",
"+ I n @.#.$.%.&.*.*.P $.=.=.-.;.>.5 ,.'.).!.& + w w w w w w w w w w w w w w w w w w w w w w w w w w w w ~.! {.].t s t s 5 5 s ^./.(.5 5 ! t ! _.).a g :.",
"<.[.}.Q |.1.2.p 3.|.4.5.6.5.7.8.{ 9.0.5 # & { a.w w w w w w w w w w w w w w w w w w w w w w w w w w w w t V b.>.l | 5 7 5 ].c.t d.d.e.& & & ) f.g.h.i.j.",
"] k.] 5.. . l.m.n.o.p.S S q.+   = + + + r.n.s.u w w w w w w w w w w w w w w w w w w w w w w w w w w w w ) t.x ] ;   _ + u.C C s t v.w.5 | { ) ) * # x.y.",
"w w w w w w w w w w w w w w s t v 5 s w w w w w z.z.z.z.z.z.z.z.z.z.z.z.z.z.z.z.z.z.z.z.z.z.z.z.z.z.z.z.w w w w w D   > { A.w w w w w w w w w w w w w w ",
"w w w w w w w w w w w w w w B.C.D.x   w w w w w z.z.z.z.z.z.z.z.z.z.z.z.z.z.z.z.z.z.z.z.z.z.z.z.z.z.z.z.w w w w w E.{ F.$ k w w w w w w w w w w w w w w ",
"w w w w w w w w w w w w w w G.1.<.H.  w w w w w z.z.z.z.z.z.z.z.z.z.z.z.z.z.z.z.z.z.z.z.z.z.z.z.z.z.z.z.w w w w w 4 g I...# w w w w w w w w w w w w w w ",
"w w w w w w w w w w w w w w J.K.L.M._ w w w w w z.z.z.z.z.z.z.z.z.z.z.z.z.z.z.z.z.z.z.z.z.z.z.z.z.z.z.z.w w w w w N.O.t t s w w w w w w w w w w w w w w ",
"w w w w w w w w w w w w w w ] k.+ ]   w w w w w z.z.z.z.z.z.z.z.z.z.z.z.z.z.z.z.z.z.z.z.z.z.z.z.z.z.z.z.w w w w w P.Q.R.S.T.w w w w w w w w w w w w w w ",
"w w w w w z.z.z.z.z.z.z.z.z.w w w w w z.z.z.z.z.z.z.z.z.z.z.z.z.z.U.U.U.U.U.U.U.U.U.U.z.z.z.z.z.z.z.z.z.z.z.z.z.z.w w w w w z.z.z.z.z.z.z.z.z.w w w w w ",
"w w w w w z.z.z.z.z.z.z.z.z.w w w w w z.z.z.z.z.z.z.z.z.z.z.z.z.z.U.U.U.U.U.U.U.U.U.U.z.z.z.z.z.z.z.z.z.z.z.z.z.z.w w w w w z.z.z.z.z.z.z.z.z.w w w w w ",
"w w w w w z.z.z.z.z.z.z.z.z.w w w w w z.z.z.z.z.z.z.z.z.z.z.z.z.z.U.U.U.U.U.U.U.U.U.U.z.z.z.z.z.z.z.z.z.z.z.z.z.z.w w w w w z.z.z.z.z.z.z.z.z.w w w w w ",
"w w w w w z.z.z.z.z.z.z.z.z.w w w w w z.z.z.z.z.z.z.z.z.z.z.z.z.z.U.U.U.U.U.U.U.U.U.U.z.z.z.z.z.z.z.z.z.z.z.z.z.z.w w w w w z.z.z.z.z.z.z.z.z.w w w w w ",
"w w w w w z.z.z.z.z.z.z.z.z.w w w w w z.z.z.z.z.z.z.z.z.z.z.z.z.z.U.U.U.U.U.U.U.U.U.U.z.z.z.z.z.z.z.z.z.z.z.z.z.z.w w w w w z.z.z.z.z.z.z.z.z.w w w w w ",
"V.p.s W.X.w w w w Y.Y.Y.Y.Y.w w w w w z.z.z.z.z.z.z.z.z.U.U.U.U.U.U.U.U.U.U.U.U.U.U.U.U.U.U.U.z.z.z.z.z.z.z.z.z.z.w w w w w Y.Y.Y.Y.w w w w w Z.! ! `.w.",
" +$   ] ~ w w w w Y.Y.Y.Y.Y.w w w w w z.z.z.z.z.z.z.z.z.U.U.U.U.U.U.U.U.U.U.U.U.U.U.U.U.U.U.U.z.z.z.z.z.z.z.z.z.z.w w w w w Y.Y.Y.Y.w w w w w .+& H ++- ",
"      * H w w w w Y.Y.Y.Y.Y.w w w w w z.z.z.z.z.z.z.z.z.U.U.U.U.U.U.U.U.U.U.U.U.U.U.U.U.U.U.U.z.z.z.z.z.z.z.z.z.z.w w w w w Y.Y.Y.Y.w w w w w k @+  #+  ",
"c $+v t u w w w w Y.Y.Y.Y.Y.w w w w w z.z.z.z.z.z.z.z.z.U.U.U.U.U.U.U.U.U.U.U.U.U.U.U.U.U.U.U.z.z.z.z.z.z.z.z.z.z.w w w w w Y.Y.Y.Y.w w w w w D A     6 ",
"s d - %+g ` &+*+=+w w w w w Y.Y.Y.Y.Y.z.z.z.z.z.z.z.z.z.z.z.z.z.z.-+-+-+-+-+U.U.U.U.U.z.z.z.z.z.z.z.z.z.z.z.z.z.z.Y.Y.Y.Y.Y.w w w w x { ;+>+H %+= $ p.5 ",
",+'+)+!+~+*.N O )+w w w w w Y.Y.Y.Y.Y.z.z.z.z.z.z.z.z.z.z.z.z.z.z.-+-+-+-+-+U.U.U.U.U.z.z.z.z.z.z.z.z.z.z.z.z.z.z.Y.Y.Y.Y.Y.w w w w s.{+4.{ ]+& n.^+/+* ",
"*.(+*.N _+:+<+[+}+w w w w w Y.Y.Y.Y.Y.z.z.z.z.z.z.z.z.z.z.z.z.z.z.-+-+-+-+-+U.U.U.U.U.z.z.z.z.z.z.z.z.z.z.z.z.z.z.Y.Y.Y.Y.Y.w w w w |+i 1+& $ l 2+D 3+Q.",
"*.4+5+O O <+*.6+K w w w w w Y.Y.Y.Y.Y.z.z.z.z.z.z.z.z.z.z.z.z.z.z.-+-+-+-+-+U.U.U.U.U.z.z.z.z.z.z.z.z.z.z.z.z.z.z.Y.Y.Y.Y.Y.w w w w ~.d 7+v 4 c.H.8+9+0+",
"*.a+b+N c+G.d+e+f+w w w w w Y.Y.Y.Y.Y.z.z.z.z.z.z.z.z.z.z.z.z.z.z.-+-+-+-+-+U.U.U.U.U.z.z.z.z.z.z.z.z.z.z.z.z.z.z.Y.Y.Y.Y.Y.w w w w g+s h+i+b.j+}+}+0+*.",
"Q M M k+}+q l+m+<.w w w w w z.z.z.z.z.U.U.U.U.U.U.U.U.U.z.z.z.z.z.z.z.z.z.z.z.z.z.z.z.z.z.z.z.U.U.U.U.U.U.U.U.U.U.z.z.z.z.z.w w w w 5 n+d.o+)+p+M q+r+s+",
"t+o y.u+-.6.v+y.5.w w w w w z.z.z.z.z.U.U.U.U.U.U.U.U.U.z.z.z.z.z.z.z.z.z.z.z.z.z.z.z.z.z.z.z.U.U.U.U.U.U.U.U.U.U.z.z.z.z.z.w w w w w+x+y+z+A+B+a+C+j.D+",
"E+F+_ G+  i * y.> w w w w w z.z.z.z.z.U.U.U.U.U.U.U.U.U.z.z.z.z.z.z.z.z.z.z.z.z.z.z.z.z.z.z.z.U.U.U.U.U.U.U.U.U.U.z.z.z.z.z.w w w w J H+y+I+J+K+I L++ K+",
"      M+$ N+= O+P+w w w w w z.z.z.z.z.U.U.U.U.U.U.U.U.U.z.z.z.z.z.z.z.z.z.z.z.z.z.z.z.z.z.z.z.U.U.U.U.U.U.U.U.U.U.z.z.z.z.z.w w w w L.= $ D Q+R+h ] g.g.",
"S+  A T+| U+Z | =+w w w w w z.z.z.z.z.U.U.U.U.U.U.U.U.U.z.z.z.z.z.z.z.z.z.z.z.z.z.z.z.z.z.z.z.U.U.U.U.U.U.U.U.U.U.z.z.z.z.z.w w w w V+i h W+~ g.  _ X+Y+",
"Z+`+C  @C O+5 ]./.w w w w w z.z.z.z.z.U.U.U.U.U.w w w w U.U.U.U.U.U.U.U.U.U.U.U.U.U.U.U.U.U.U.w w w w w U.U.U.U.U.z.z.z.z.z.w w w w $ < *   * 8.D $ # .@",
"5 +@u @@c #@x + $ w w w w w z.z.z.z.z.U.U.U.U.U.w w w w U.U.U.U.U.U.U.U.U.U.U.U.U.U.U.U.U.U.U.w w w w w U.U.U.U.U.z.z.z.z.z.w w w w $@n.l %@2 &@*@).T t ",
"$ # , g.=@o -@L ;@w w w w w z.z.z.z.z.U.U.U.U.U.w w w w U.U.U.U.U.U.U.U.U.U.U.U.U.U.U.U.U.U.U.w w w w w U.U.U.U.U.z.z.z.z.z.w w w w /.5 ].>@s ! +@,@Z+* ",
"'@j.)@Q.!@N O ~@O w w w w w z.z.z.z.z.U.U.U.U.U.w w w w U.U.U.U.U.U.U.U.U.U.U.U.U.U.U.U.U.U.U.w w w w w U.U.U.U.U.z.z.z.z.z.w w w w {@, # ) j * A ]@* y ",
"^@/@(@O $._@*.P :@w w w w w z.z.z.z.z.U.U.U.U.U.w w w w U.U.U.U.U.U.U.U.U.U.U.U.U.U.U.U.U.U.U.w w w w w U.U.U.U.U.z.z.z.z.z.w w w w $ < x & $ d E.K+t+B+",
"*.O <+<@O *.O a+P w w w w w z.z.z.z.z.U.U.U.U.U.w w w w w w w w w U.U.U.U.U.U.U.U.U.U.w w w w w w w w w U.U.U.U.U.z.z.z.z.z.w w w w [@}@/ D+I t+|@1@~+2@",
"3@}+*.K O 4@*.5@O w w w w w z.z.z.z.z.U.U.U.U.U.w w w w w w w w w U.U.U.U.U.U.U.U.U.U.w w w w w w w w w U.U.U.U.U.z.z.z.z.z.w w w w 6@7@8@9@0@a@b@)+c@*.",
"*.1@Q )+d@e@f@g@h@w w w w w z.z.z.z.z.U.U.U.U.U.w w w w w w w w w U.U.U.U.U.U.U.U.U.U.w w w w w w w w w U.U.U.U.U.z.z.z.z.z.w w w w 5.i@j@3+J k@o l@<+m@",
"6@n@o@p@q@X.r@s@t@w w w w w z.z.z.z.z.U.U.U.U.U.w w w w w w w w w U.U.U.U.U.U.U.U.U.U.w w w w w w w w w U.U.U.U.U.z.z.z.z.z.w w w w i n@( u@v@6.w@r B+3+",
"x@4.y@z@A@4._ e   w w w w w w w w w w z.z.z.z.z.U.U.U.U.w w w w w U.U.U.U.U.U.U.U.U.U.w w w w U.U.U.U.U.z.z.z.z.z.w w w w w w w w w B@W+~ & . / C@4.*   ",
"D@@@d @ E@F@- 9.G@w w w w w w w w w w z.z.z.z.z.U.U.U.U.w w w w w U.U.U.U.U.U.U.U.U.U.w w w w U.U.U.U.U.z.z.z.z.z.w w w w w w w w w , >+H@]+$ I@& d J@K@",
"u 5 ! L@M@N@'.O@e.w w w w w w w w w w z.z.z.z.z.U.U.U.U.w w w w w U.U.U.U.U.U.U.U.U.U.w w w w U.U.U.U.U.z.z.z.z.z.w w w w w w w w w P@t ].! 5 p.| ( l t.",
"Q@y.` B t N@5 *@7.w w w w w w w w w w z.z.z.z.z.U.U.U.U.w w w w w U.U.U.U.U.U.U.U.U.U.w w w w U.U.U.U.U.z.z.z.z.z.w w w w w w w w w s /.].0 R@$ x       ",
"S@3.T@9+M M k+U@V@w w w w w w w w w w z.z.z.z.z.U.U.U.U.w w w w w U.U.U.U.U.U.U.U.U.U.w w w w U.U.U.U.U.z.z.z.z.z.w w w w w w w w w W@H x ~ f.  y.G+6.X@",
"Y@<.f+Z@$.w w w w z.z.z.z.z.w w w w w z.z.z.z.z.U.U.U.U.U.U.U.U.U.U.U.U.U.U.U.U.U.U.U.U.U.U.U.U.U.U.U.U.z.z.z.z.z.w w w w w z.z.z.z.w w w w w   ,+u+u+p ",
"`@D+ #t+3+w w w w z.z.z.z.z.w w w w w z.z.z.z.z.U.U.U.U.U.U.U.U.U.U.U.U.U.U.U.U.U.U.U.U.U.U.U.U.U.U.U.U.z.z.z.z.z.w w w w w z.z.z.z.w w w w w   f.,+.#s@",
"+#C@@#~ ##w w w w z.z.z.z.z.w w w w w z.z.z.z.z.U.U.U.U.U.U.U.U.U.U.U.U.U.U.U.U.U.U.U.U.U.U.U.U.U.U.U.U.z.z.z.z.z.w w w w w z.z.z.z.w w w w w     $#C@D ",
"* %#_ $ A w w w w z.z.z.z.z.w w w w w z.z.z.z.z.U.U.U.U.U.U.U.U.U.U.U.U.U.U.U.U.U.U.U.U.U.U.U.U.U.U.U.U.z.z.z.z.z.w w w w w z.z.z.z.w w w w w { $ g ) ]+",
"o+l +@5 ! w w w w z.z.z.z.z.w w w w w z.z.z.z.z.U.U.U.U.U.U.U.U.U.U.U.U.U.U.U.U.U.U.U.U.U.U.U.U.U.U.U.U.z.z.z.z.z.w w w w w z.z.z.z.w w w w w &#G@d f h.",
"w w w w w z.z.z.z.z.z.z.z.z.w w w w w w w w w w w w w w z.z.z.z.z.z.z.z.z.z.z.z.z.z.z.z.z.z.z.w w w w w w w w w w w w w w w z.z.z.z.z.z.z.z.z.w w w w w ",
"w w w w w z.z.z.z.z.z.z.z.z.w w w w w w w w w w w w w w z.z.z.z.z.z.z.z.z.z.z.z.z.z.z.z.z.z.z.w w w w w w w w w w w w w w w z.z.z.z.z.z.z.z.z.w w w w w ",
"w w w w w z.z.z.z.z.z.z.z.z.w w w w w w w w w w w w w w z.z.z.z.z.z.z.z.z.z.z.z.z.z.z.z.z.z.z.w w w w w w w w w w w w w w w z.z.z.z.z.z.z.z.z.w w w w w ",
"w w w w w z.z.z.z.z.z.z.z.z.w w w w w w w w w w w w w w z.z.z.z.z.z.z.z.z.z.z.z.z.z.z.z.z.z.z.w w w w w w w w w w w w w w w z.z.z.z.z.z.z.z.z.w w w w w ",
"w w w w w z.z.z.z.z.z.z.z.z.w w w w w w w w w w w w w w z.z.z.z.z.z.z.z.z.z.z.z.z.z.z.z.z.z.z.w w w w w w w w w w w w w w w z.z.z.z.z.z.z.z.z.w w w w w ",
"w w w w w z.z.z.z.w w w w w *#$   X+4.  - H d t.w w w w z.z.z.z.z.U.U.U.U.U.U.U.U.U.U.z.z.z.z.w w w w w 8.s G@`+9.=#;       w w w w z.z.z.z.z.w w w w w ",
"w w w w w z.z.z.z.w w w w w -#I.  { 6 ;#}@d.5 5 w w w w z.z.z.z.z.U.U.U.U.U.U.U.U.U.U.z.z.z.z.w w w w w X@.#$ s 4 w.;+9.*   w w w w z.z.z.z.z.w w w w w ",
"w w w w w z.z.z.z.w w w w w X+>#S+4 5 s b b 5 s w w w w z.z.z.z.z.U.U.U.U.U.U.U.U.U.U.z.z.z.z.w w w w w ,#'#!@)#|  @5 t !#9.w w w w z.z.z.z.z.w w w w w ",
"w w w w w z.z.z.z.w w w w w >+4 8.b '.0.~#/ {#p w w w w z.z.z.z.z.U.U.U.U.U.U.U.U.U.U.z.z.z.z.w w w w w P 2@}+|@*.]## t ].5 w w w w z.z.z.z.z.w w w w w ",
"w w w w w w w w w   G   s.~.t s ^+^ <.w w w w w w w w w w w w w w w w w w w w w w w w w w w w w w w w w w w w w w a@f+v+# 5 +@9.q.6 w w w w w w w w w w ",
"w w w w w w w w w * H !#`.w.s S+^#}+;@w w w w w w w w w w w w w w w w w w w w w w w w w w w w w w w w w w w w w w u+L+C@_ y.D $ * * w w w w w w w w w w ",
"w w w w w w w w w ]./#G@o+(#]#A.<+*._#w w w w w w w w w w w w w w w w w w w w w w w w w w w w w w w w w w w w w w :#k * ] e X+      w w w w w w w w w w ",
"w w w w w w w w w A n@L.<#<.[#p 2@}#|#w w w w w w w w w w w w w w w w w w w w w w w w w w w w w w w w w w w w w w   ] . +   & *     w w w w w w w w w w ",
"w w w w w w w w w j.J.-.1#2#3+9+B+,+3+w w w w w w w w w w w w w w w w w w w w w w w w w w w w w w w w w w w w w w x   l./   u._   3#w w w w w w w w w w ",
">   .@H     4#+   * 7.g.5#5.w w w w w z.z.z.z.z.z.z.z.z.U.U.U.U.U.U.U.U.U.U.U.U.U.U.U.U.U.U.U.z.z.z.z.z.z.z.z.z.z.w w w w w $ < - -     / ~     * x $   ",
"6#  x ~ | | H 9.S &@~.`+c.].w w w w w z.z.z.z.z.z.z.z.z.U.U.U.U.U.U.U.U.U.U.U.U.U.U.U.U.U.U.U.z.z.z.z.z.z.z.z.z.z.w w w w w %+=#7#9.H * >#  X+8#  x 9#x ",
"  * S+u.a `+u.0#s@,+~ 9 I+ @w w w w w z.z.z.z.z.z.z.z.z.U.U.U.U.U.U.U.U.U.U.U.U.U.U.U.U.U.U.U.z.z.z.z.z.z.z.z.z.z.w w w w w Q+a#b#c#+@d#e#f#$ g#H # i ~.",
"q.l h#i#j#D+*.1@k#_#*.l#<+a@w w w w w z.z.z.z.z.z.z.z.z.U.U.U.U.U.U.U.U.U.U.U.U.U.U.U.U.U.U.U.z.z.z.z.z.z.z.z.z.z.w w w w w T@m#[#n#o#p#I@u b N@S v l d ",
"g.,+k@q#~+B.;@*.r#T@O O O O w w w w w z.z.z.z.z.z.z.z.z.U.U.U.U.U.U.U.U.U.U.U.U.U.U.U.U.U.U.U.z.z.z.z.z.z.z.z.z.z.w w w w w s#t#u#2@v#)+w#m@2#x#* * *   ",
"=.e+<@~+*._#O *.!@1@*.O *.<@w w w w w w w w w w w w w w w w w w w w w w w w w w w w w w w w w w w w w w w w w w w w w w w w y#z#A#~+c+c+M m@}+<@B#j.2#o ",
"1@C#|@D#1@E#F#}+a@*.G#F#a@k@w w w w w w w w w w w w w w w w w w w w w w w w w w w w w w w w w w w w w w w w w w w w w w w w H#M I#<@J#K#<@L#3.a@a@9+[#L ",
"<.M#~+N#O#9+B+P#E#F#o Q#R#,+w w w w w w w w w w w w w w w w w w w w w w w w w w w w w w w w w w w w w w w w w w w w w w w w S#K#O T#a@p+q U#3.u+Z@3+3+E#",
" #-.n J.K+6.R y.j.,+K+~ g.. w w w w w w w w w w w w w w w w w w w w w w w w w w w w w w w w w w w w w w w w w w w w w w w w V#W#-.u+2#X#}@Y#j.f.K+. 4.2#",
"Z#,+`#K+. f.g.C@* h     >+* w w w w w w w w w w w w w w w w w w w w w w w w w w w w w w w w w w w w w w w w w w w w w w w w s@ $I@,+I@. y.K+,+    4.~ 4.",
"B@  +                       .$  + h   +   * # * { n.c > ; 7+g O++$& * i @$$ u t.$ ] 4.~ $ ,+t@,+.#q j.B+m+j.g..#6.-.. ,+r@#$f.+#0#j#$$K+  * * ] %$&$H g.",
"> H *   ~ # i     i c             *   *   * #   >   * > # { f.A A * *     $ * & Z w+4.    ] K+  .#x.,+f.y.y.] K+,+] ~ + f.  * *   ] 4.    $ f   g.    [ "};
