/* XPM */
static char * enemy_2_l_xpm[] = {
"76 76 453 2",
"  	c #F0D68C",
". 	c #EFD48D",
"+ 	c #F0D58E",
"@ 	c #F2D889",
"# 	c #F1D690",
"$ 	c #000000",
"% 	c #F1D78D",
"& 	c #F0D68F",
"* 	c #F1D692",
"= 	c #F1D590",
"- 	c #F0D58F",
"; 	c #F1D78E",
"> 	c #F0D68D",
", 	c #F0D68E",
"' 	c #F2D998",
") 	c #EFD58C",
"! 	c #F1D68F",
"~ 	c #EFD58B",
"{ 	c #EED48D",
"] 	c #EED48B",
"^ 	c #EDD28C",
"/ 	c #F0D58D",
"( 	c #F3D983",
"_ 	c #F1D691",
": 	c #F4D984",
"< 	c #F1D790",
"[ 	c #ECD18A",
"} 	c #F3D891",
"| 	c #F3D793",
"1 	c #F2D994",
"2 	c #F2D996",
"3 	c #F2D793",
"4 	c #F1D895",
"5 	c #F2D791",
"6 	c #F1D791",
"7 	c #EDD389",
"8 	c #F0D590",
"9 	c #F0D78F",
"0 	c #F1D794",
"a 	c #F1D78B",
"b 	c #F1D68C",
"c 	c #F2DA94",
"d 	c #F2D792",
"e 	c #F2D884",
"f 	c #ECD084",
"g 	c #ECD085",
"h 	c #EBCF86",
"i 	c #ECD087",
"j 	c #EDD38C",
"k 	c #F3DA99",
"l 	c #F2D997",
"m 	c #F3D99C",
"n 	c #F2D995",
"o 	c #F1D78F",
"p 	c #F2D894",
"q 	c #F3DA98",
"r 	c #F2D895",
"s 	c #F2D887",
"t 	c #F0D68B",
"u 	c #F1D689",
"v 	c #F1D68A",
"w 	c #F1D68E",
"x 	c #F2D999",
"y 	c #EFD58D",
"z 	c #F4DB83",
"A 	c #F2D98D",
"B 	c #F3D892",
"C 	c #F3D894",
"D 	c #EED289",
"E 	c #EDD189",
"F 	c #E8CC81",
"G 	c #EBCF88",
"H 	c #E8CC80",
"I 	c #E7CB80",
"J 	c #E7CA7C",
"K 	c #E7CA7D",
"L 	c #F0D893",
"M 	c #F1D893",
"N 	c #F4DC9D",
"O 	c #ECD28C",
"P 	c #E9CF92",
"Q 	c #ECD18C",
"R 	c #EED28A",
"S 	c #F0D690",
"T 	c #F4DB93",
"U 	c #F3D99A",
"V 	c #F2D88A",
"W 	c #F3D88E",
"X 	c #F4DB87",
"Y 	c #E8CE7C",
"Z 	c #EBCE7C",
"` 	c #E8CD81",
" .	c #EACE79",
"..	c #EBCE7F",
"+.	c #E8CB7D",
"@.	c #F2D790",
"#.	c #F3D893",
"$.	c #EDD185",
"%.	c #E8CD7F",
"&.	c #E9CC7B",
"*.	c #E7CA7B",
"=.	c #E7CB7E",
"-.	c #E7CB7D",
";.	c #E8CB7F",
">.	c #E9CC7F",
",.	c #F0D38F",
"'.	c #F1D592",
").	c #F0D796",
"!.	c #F2D898",
"~.	c #F2D990",
"{.	c #F3D996",
"].	c #F1D996",
"^.	c #F2D99B",
"/.	c #F2D893",
"(.	c #F0D791",
"_.	c #EBCF85",
":.	c #ECD27F",
"<.	c #E8CE7E",
"[.	c #E7CC80",
"}.	c #EBD081",
"|.	c #ECD08A",
"1.	c #EACE84",
"2.	c #EED48A",
"3.	c #EFD38A",
"4.	c #0069FF",
"5.	c #EACE83",
"6.	c #E8CC7E",
"7.	c #E8CB7E",
"8.	c #E8CC7A",
"9.	c #E9CD7A",
"0.	c #EACC80",
"a.	c #E9CC82",
"b.	c #E8CD84",
"c.	c #E6C97A",
"d.	c #E9CC80",
"e.	c #EDD390",
"f.	c #F1D795",
"g.	c #F1D995",
"h.	c #F2DA96",
"i.	c #F3D999",
"j.	c #F3D99B",
"k.	c #F2D991",
"l.	c #0668FE",
"m.	c #F0D58B",
"n.	c #F0D58C",
"o.	c #F0D694",
"p.	c #EED591",
"q.	c #EDD287",
"r.	c #EFD58E",
"s.	c #EDD28B",
"t.	c #EAD089",
"u.	c #F3DA8E",
"v.	c #F2D993",
"w.	c #E7CB7F",
"x.	c #EACD84",
"y.	c #E8CC79",
"z.	c #E8CD82",
"A.	c #E8CA7C",
"B.	c #E9CE86",
"C.	c #E9CE85",
"D.	c #E9CD87",
"E.	c #E9CE82",
"F.	c #EFD48E",
"G.	c #F1D792",
"H.	c #F0D48C",
"I.	c #EFD48B",
"J.	c #F2DA93",
"K.	c #EFD48F",
"L.	c #ECD28A",
"M.	c #E9CD82",
"N.	c #E8CD7E",
"O.	c #E6CB7D",
"P.	c #E9CD7C",
"Q.	c #E8CB80",
"R.	c #E9CB7F",
"S.	c #EACE82",
"T.	c #EACF82",
"U.	c #EDD187",
"V.	c #ECD38F",
"W.	c #F0D687",
"X.	c #F0D79A",
"Y.	c #F0D795",
"Z.	c #F1D994",
"`.	c #F1D993",
" +	c #E9CD83",
".+	c #E6CA7F",
"++	c #EAD085",
"@+	c #E9CD7F",
"#+	c #E8CD85",
"$+	c #ECD188",
"%+	c #EED38C",
"&+	c #F0D789",
"*+	c #EFD688",
"=+	c #F3DA9C",
"-+	c #F3DA97",
";+	c #E9CD85",
">+	c #E5C97D",
",+	c #004AB8",
"'+	c #0469FF",
")+	c #F3D794",
"!+	c #F3D998",
"~+	c #F0D895",
"{+	c #F2D88F",
"]+	c #E8CA7F",
"^+	c #EDD186",
"/+	c #EDD38A",
"(+	c #EFD68E",
"_+	c #F2D980",
":+	c #ECD186",
"<+	c #EACF7F",
"[+	c #EACE85",
"}+	c #EACF84",
"|+	c #EDD28F",
"1+	c #EED389",
"2+	c #EED388",
"3+	c #EED18B",
"4+	c #EBCF87",
"5+	c #EDD27D",
"6+	c #EACF81",
"7+	c #E9CE80",
"8+	c #E9CE7F",
"9+	c #EDD188",
"0+	c #ECD086",
"a+	c #ECD088",
"b+	c #EED48F",
"c+	c #EFD492",
"d+	c #EED391",
"e+	c #F0D792",
"f+	c #F1D894",
"g+	c #F0D892",
"h+	c #F2DAA0",
"i+	c #EED288",
"j+	c #EED58D",
"k+	c #EED38A",
"l+	c #EBD18D",
"m+	c #F2D896",
"n+	c #F3DB93",
"o+	c #F3DB9F",
"p+	c #F1D892",
"q+	c #EFD48A",
"r+	c #F1D581",
"s+	c #EFD38B",
"t+	c #F1D997",
"u+	c #EFD791",
"v+	c #EBD084",
"w+	c #ECD287",
"x+	c #EBD28B",
"y+	c #EED489",
"z+	c #F2D78D",
"A+	c #F2D78F",
"B+	c #F0D693",
"C+	c #F1D787",
"D+	c #F0D692",
"E+	c #F0D799",
"F+	c #EACF85",
"G+	c #F0D68A",
"H+	c #EACF83",
"I+	c #E9CD81",
"J+	c #EBCF84",
"K+	c #E8CC7F",
"L+	c #EFD694",
"M+	c #F1D68D",
"N+	c #F3DA93",
"O+	c #EDD288",
"P+	c #EAD080",
"Q+	c #EBCF82",
"R+	c #ECD17B",
"S+	c #E8CC83",
"T+	c #E9CD84",
"U+	c #EED48C",
"V+	c #ECD288",
"W+	c #F1D78A",
"X+	c #F0D894",
"Y+	c #F3D88B",
"Z+	c #F1D694",
"`+	c #F1D899",
" @	c #ECD181",
".@	c #EFD491",
"+@	c #E7CB81",
"@@	c #EBD085",
"#@	c #EDD285",
"$@	c #F3DA8C",
"%@	c #F2D981",
"&@	c #EFD48C",
"*@	c #EFD28C",
"=@	c #EED590",
"-@	c #F0D691",
";@	c #EED592",
">@	c #F0D794",
",@	c #F3DB9E",
"'@	c #F3DB9D",
")@	c #F3D896",
"!@	c #F3DA8D",
"~@	c #F2D78C",
"{@	c #EED58F",
"]@	c #F0D896",
"^@	c #FFFFFF",
"/@	c #EBD290",
"(@	c #F2D98B",
"_@	c #EBD187",
":@	c #F1D88A",
"<@	c #EDD38B",
"[@	c #F0D790",
"}@	c #EDD084",
"|@	c #F1D693",
"1@	c #F3DA96",
"2@	c #F3DA95",
"3@	c #E9CE79",
"4@	c #F0D78D",
"5@	c #F1D88D",
"6@	c #F4D994",
"7@	c #E9CC83",
"8@	c #E7CB7C",
"9@	c #EACE7B",
"0@	c #EACD7F",
"a@	c #ECD185",
"b@	c #ECD187",
"c@	c #EFD389",
"d@	c #F0D58A",
"e@	c #F1D785",
"f@	c #F1D898",
"g@	c #F3D895",
"h@	c #F2D794",
"i@	c #FFFFFE",
"j@	c #F2D68E",
"k@	c #EBCD7F",
"l@	c #EBD086",
"m@	c #EACF77",
"n@	c #E6CB79",
"o@	c #E9CC7E",
"p@	c #EFD386",
"q@	c #EED38B",
"r@	c #F1D888",
"s@	c #F3D993",
"t@	c #F3D991",
"u@	c #F1D786",
"v@	c #E9CD7D",
"w@	c #EBCE84",
"x@	c #EFD58F",
"y@	c #F1D793",
"z@	c #EACE81",
"A@	c #EACF86",
"B@	c #ECD189",
"C@	c #EED48E",
"D@	c #EFD384",
"E@	c #ECD08B",
"F@	c #E9CD80",
"G@	c #EDD289",
"H@	c #F0D587",
"I@	c #EED38E",
"J@	c #EDD089",
"K@	c #EED490",
"L@	c #EFD692",
"M@	c #F3D885",
"N@	c #EFD58A",
"O@	c #F1D797",
"P@	c #F2DA95",
"Q@	c #EAD18A",
"R@	c #F4D995",
"S@	c #F4DA96",
"T@	c #F4D996",
"U@	c #EFD68F",
"V@	c #F0D78E",
"W@	c #E8CB81",
"X@	c #E6C97B",
"Y@	c #F2D891",
"Z@	c #F1D896",
"`@	c #E9CD7E",
" #	c #F3D986",
".#	c #ECD28D",
"+#	c #ECCF85",
"@#	c #ECD38A",
"##	c #F1D788",
"$#	c #F3D995",
"%#	c #F1D891",
"&#	c #F4DB9C",
"*#	c #ECD38D",
"=#	c #EED480",
"-#	c #F1D88F",
";#	c #EDD183",
">#	c #EFD78E",
",#	c #F0D48B",
"'#	c #F0D48D",
")#	c #EED68B",
"!#	c #F2D892",
"~#	c #F3D994",
"{#	c #F0D78C",
"]#	c #F3DA84",
"^#	c #F0D897",
"/#	c #E6CB82",
"(#	c #EACE7A",
"_#	c #EBD07A",
":#	c #EACE86",
"<#	c #EDD38E",
"[#	c #F1D890",
"}#	c #F1D991",
"|#	c #EED58E",
"1#	c #EED58B",
"2#	c #E9CB7E",
"3#	c #E7CC7F",
"4#	c #E6CC7D",
"5#	c #E6CA7C",
"6#	c #EED484",
"7#	c #EFD585",
"8#	c #EACC7F",
"9#	c #EAD083",
"0#	c #E9CE81",
"a#	c #EBCF7F",
"b#	c #EBD07B",
"c#	c #EDD382",
"d#	c #F1D58F",
"e#	c #E8CC7C",
"f#	c #E7CC7D",
"g#	c #EBCE85",
"h#	c #EBD08B",
"i#	c #F1D783",
"j#	c #EFD487",
"k#	c #ECD184",
"l#	c #E8CC7D",
"m#	c #E4C87E",
"n#	c #EACD81",
"o#	c #E6C97C",
"p#	c #EED58C",
"q#	c #EFD489",
"r#	c #EED28F",
"s#	c #EBCF83",
"t#	c #E8CD80",
"u#	c #EACD82",
"v#	c #EACE7E",
"w#	c #E5C97F",
"x#	c #EFD385",
"y#	c #F2D695",
"z#	c #F1D885",
"A#	c #E9CC81",
"B#	c #E8CC82",
"C#	c #EFD387",
"D#	c #EED38D",
"E#	c #EFD68B",
"F#	c #EACF88",
"G#	c #EBD083",
"H#	c #EACF87",
"I#	c #EACE8C",
"J#	c #F0D485",
"K#	c #F0D591",
"L#	c #F0D686",
"M#	c #EED384",
"N#	c #EDD18A",
"O#	c #EACE80",
"P#	c #F2D795",
"Q#	c #F0D695",
"R#	c #F0D689",
"S#	c #F0D688",
"T#	c #F1D68B",
"  . +       @   #       $ $ $ $ $ $ $ $ $ $ $ $ $ $ % &   * = #   - - ; > ,   ' # ) + ! ~ > , ~ , { ] ~ ^ ~ / ( > _ , $ $ $ $ $ $ $ $ $ $ : > > > , > > ",
"< [ < < } | 1 2 3 3 4 3 $ $ $ $ $ $ $ $ $ $ $ $ $ $ ' 5 !             /   & # 4 < 6 ;     _ _ ~ ~   > 6 7 ) 8   9 0 * $ $ $ $ $ $ $ $ $ $ + a b     > + ",
"c 2 c d e + 7 f g h i j $ $ $ $ $ $ $ $ $ $ $ $ $ $ k l m n } d o   , p q l l q 2 2 2 r d ! +   s t u v ! w > - ,     $ $ $ $ $ $ $ $ $ $ x + y z A B C ",
"3 o   + D E F G H I J K $ $ $ $ $ $ $ $ $ $ $ $ $ $ L M N k 2 n 2 d 3 { O P Q i R S l l T c U x 2 3 #         + * V W $ $ $ $ $ $ $ $ $ $ X 1 2 2 2 2 2 ",
"+ D f Y Z `  ...+.+.K ` $ $ $ $ $ $ $ $ $ $ $ $ $ $ _     @.#.d / $.%.&.*.=.-.;.J J >.,.'.p 2 2 l ).4 !.p ' ~.{.l n l $ $ $ $ $ $ $ $ $ $ l ' ].^./.0 (.",
"_.:.<.[.}.%.|.h 1.}.2.3.$ $ $ $ $ 4.4.4.4.4.4.4.4.4.$ $ $ $ $ 5.6.7.8.9.0.;.a.b.=.c.;.d.%.%.e.f.g.h.i.2 l j.k.$ $ $ $ l.l.l.l.l.$ $ $ $ $ _ - m.n.o.p.q.",
"~ r.~ 3.. . s.t.@.u.v.#.$ $ $ $ $ 4.4.4.4.4.4.4.4.4.$ $ $ $ $ w.x.I J y.z.H A.B.;.C.D.H |.E.F.~   _ ; @.- G.w $ $ $ $ l.l.l.l.l.$ $ $ $ $ ! - - > # H.I.",
"< < C } #.J.K.L.M.N.O.E.$ $ $ $ $ 4.4.4.4.4.4.4.4.4.$ $ $ $ $ N.K P.+.J Q.R.-.S.T.h U.R V.* I.  W.u     9 X.Y.$ $ $ $ l.l.l.l.l.$ $ $ $ $ U ' Z./.M Y.G.",
"2 2 `..  ++.` K .+K 7.J $ $ $ $ $ 4.4.4.4.4.4.4.4.4.$ $ $ $ $ ++q.@+#+U.++G $+7 %+q.] ~ ~ o - , &+*   ) *+5 > $ $ $ $ l.l.l.l.l.$ $ $ $ $ 2 =+c ' U k -+",
"y U.z.+.7.;++.F J [.;.J C.>+;+%._.$ $ $ $ 4.4.4.4.4.4.4.4.4.4.$ $ $ $ $ $ $ $ $ $ $ $ $ $ $ $ $ $ $ $ $ $ $ $ ,+,+,+,+'+'+'+'+'+$ $ $ $ $ )+!+~+~.{+5 )+",
"M.+.H J M.]+J J J +.7.w.w.7.^+/+$+$ $ $ $ 4.4.4.4.4.4.4.4.4.4.$ $ $ $ $ $ $ $ $ $ $ $ $ $ $ $ $ $ $ $ $ $ $ $ ,+,+,+,+'+'+'+'+'+$ $ $ $ $ (+  _+8 :+h T.",
"` ` J +.<++.7.7.K [+}+%+|+1+~ r.+ $ $ $ $ 4.4.4.4.4.4.4.4.4.4.$ $ $ $ $ $ $ $ $ $ $ $ $ $ $ $ $ $ $ $ $ $ $ $ ,+,+,+,+'+'+'+'+'+$ $ $ $ $ _ ~ 2+3+g 4+5+",
"6++.7+8+ +9+0+H a+b+c+7 d+> e+j f+$ $ $ $ 4.4.4.4.4.4.4.4.4.4.$ $ $ $ $ $ $ $ $ $ $ $ $ $ $ $ $ $ $ $ $ $ $ $ ,+,+,+,+'+'+'+'+'+$ $ $ $ $ g+h+l * ) |.$.",
"0+U.%+~ 9+i+j+k+F., + & l+m+d ! / $ $ $ $ 4.4.4.4.4.4.4.4.4.4.$ $ $ $ $ $ $ $ $ $ $ $ $ $ $ $ $ $ $ $ $ $ $ $ ,+,+,+,+'+'+'+'+'+$ $ $ $ $ n+o+p+q+r+q+s+",
"~ t+$ $ $ $ $ $ $ $ $ $ u+t U.v+S._.7+w+x+$ $ $ $ $ $ $ $ $ $ $ $ $ $ $ 4.4.4.4.4.4.4.4.4.4.4.4.4.4.,+,+,+,+,+$ $ $ $ $ $ $ $ $ y+z+%+d A+w B+C+D+E+b+F+",
"  G+$ $ $ $ $ $ $ $ $ $ L.$+H+I+J+S.>.M.K+$ $ $ $ $ $ $ $ $ $ $ $ $ $ $ 4.4.4.4.4.4.4.4.4.4.4.4.4.4.,+,+,+,+,+$ $ $ $ $ $ $ $ $ L+; , M+        > / / (.",
"N+l $ $ $ $ $ $ $ $ $ $ O+5.P+5.Q+R+ +S+T+$ $ $ $ $ $ $ $ $ $ $ $ $ $ $ 4.4.4.4.4.4.4.4.4.4.4.4.4.4.,+,+,+,+,+$ $ $ $ $ $ $ $ $ U+V+I.+ W+X+n.w Y+> > Z+",
"`+v.$ $ $ $ $ $ $ $ $ $  @i .@+@@@Q+O+O+#@$ $ $ $ $ $ $ $ $ $ $ $ $ $ $ 4.4.4.4.4.4.4.4.4.4.4.4.4.4.,+,+,+,+,+$ $ $ $ $ $ $ $ $ 2 v.@.3 !.* d $@' ' i.-+",
"%@, $ $ $ $ $ $ $ $ $ $ &@$++ O+*@=@# & B+$ $ $ $ $ $ $ $ $ $ $ $ $ $ $ 4.4.4.4.4.4.4.4.4.4.4.4.4.4.,+,+,+,+,+$ $ $ $ $ $ $ $ $ -@;@>@,@'@)@p !@_ o ~@; ",
"    $ $ $ $ $ 4.4.4.4.4.$ $ $ $ $ {@. ]@+ $ $ $ $ $ 4.4.4.4.4.4.4.4.4.4.^@^@^@^@^@^@^@^@^@^@^@^@^@^@4.4.4.4.4.4.4.4.4.4.4.4.4.4.$ $ $ $ $ # o.b /@  (@  ",
"5 t+$ $ $ $ $ 4.4.4.4.4.$ $ $ $ $ , _@w > $ $ $ $ $ 4.4.4.4.4.4.4.4.4.4.^@^@^@^@^@^@^@^@^@^@^@^@^@^@4.4.4.4.4.4.4.4.4.4.4.4.4.4.$ $ $ $ $ g+i.y S     3 ",
"n 6 $ $ $ $ $ 4.4.4.4.4.$ $ $ $ $ > ! :@<@$ $ $ $ $ 4.4.4.4.4.4.4.4.4.4.^@^@^@^@^@^@^@^@^@^@^@^@^@^@4.4.4.4.4.4.4.4.4.4.4.4.4.4.$ $ $ $ $ [@o A+8 , v.2 ",
"1+}@$ $ $ $ $ 4.4.4.4.4.$ $ $ $ $ , w <   $ $ $ $ $ 4.4.4.4.4.4.4.4.4.4.^@^@^@^@^@^@^@^@^@^@^@^@^@^@4.4.4.4.4.4.4.4.4.4.4.4.4.4.$ $ $ $ $ ! |@_ @.1@2@> ",
"+.3@$ $ $ $ $ 4.4.4.4.4.$ $ $ $ $ 5 4@5@S $ $ $ $ $ 4.4.4.4.4.4.4.4.4.4.^@^@^@^@^@^@^@^@^@^@^@^@^@^@4.4.4.4.4.4.4.4.4.4.4.4.4.4.$ $ $ $ $ _ , d 6@y @@7@",
"+.#+$ $ $ $ $ 4.4.4.4.4.$ $ $ $ $ $ $ $ $ $ $ $ $ $ ^@^@^@^@^@^@^@^@^@^@$ $ $ $ $ $ $ $ $ ^@^@^@^@^@4.4.4.4.4.4.4.4.4.4.4.4.4.4.4.4.4.4.4.$ $ $ $ $ M.8@",
"+.[+$ $ $ $ $ 4.4.4.4.4.$ $ $ $ $ $ $ $ $ $ $ $ $ $ ^@^@^@^@^@^@^@^@^@^@$ $ $ $ $ $ $ $ $ ^@^@^@^@^@4.4.4.4.4.4.4.4.4.4.4.4.4.4.4.4.4.4.4.$ $ $ $ $ 8@+.",
"[.H $ $ $ $ $ 4.4.4.4.4.$ $ $ $ $ $ $ $ $ $ $ $ $ $ ^@^@^@^@^@^@^@^@^@^@$ $ $ $ $ $ $ $ $ ^@^@^@^@^@4.4.4.4.4.4.4.4.4.4.4.4.4.4.4.4.4.4.4.$ $ $ $ $ 9@0@",
"a@g $ $ $ $ $ 4.4.4.4.4.$ $ $ $ $ $ $ $ $ $ $ $ $ $ ^@^@^@^@^@^@^@^@^@^@$ $ $ $ $ $ $ $ $ ^@^@^@^@^@4.4.4.4.4.4.4.4.4.4.4.4.4.4.4.4.4.4.4.$ $ $ $ $ q.b@",
"c@d@$ $ $ $ $ ^@^@^@^@^@$ $ $ $ $ 4.4.4.4.4.4.4.4.4.^@^@^@^@^@$ $ $ $ $ $ $ $ $ ^@^@^@^@^@4.4.4.4.4.4.4.4.4.4.^@^@^@^@4.4.4.4.4.4.4.4.4.4.$ $ $ $ $ + q+",
"    $ $ $ $ $ ^@^@^@^@^@$ $ $ $ $ 4.4.4.4.4.4.4.4.4.^@^@^@^@^@$ $ $ $ $ $ $ $ $ ^@^@^@^@^@4.4.4.4.4.4.4.4.4.4.^@^@^@^@4.4.4.4.4.4.4.4.4.4.$ $ $ $ $ n.n.",
"-@  $ $ $ $ $ ^@^@^@^@^@$ $ $ $ $ 4.4.4.4.4.4.4.4.4.^@^@^@^@^@$ $ $ $ $ $ $ $ $ ^@^@^@^@^@4.4.4.4.4.4.4.4.4.4.^@^@^@^@4.4.4.4.4.4.4.4.4.4.$ $ $ $ $ M+e@",
"f@g@$ $ $ $ $ ^@^@^@^@^@$ $ $ $ $ 4.4.4.4.4.4.4.4.4.^@^@^@^@^@$ $ $ $ $ $ $ $ $ ^@^@^@^@^@4.4.4.4.4.4.4.4.4.4.^@^@^@^@4.4.4.4.4.4.4.4.4.4.$ $ $ $ $ # h@",
"2 r $ $ $ $ $ ^@^@^@^@^@$ $ $ $ $ 4.4.4.4.4.4.4.4.4.^@^@^@^@^@$ $ $ $ $ $ $ $ $ ^@^@^@^@^@4.4.4.4.4.4.4.4.4.4.^@^@^@^@4.4.4.4.4.4.4.4.4.4.$ $ $ $ $ =+l ",
", # $ $ $ $ $ ^@^@^@^@^@$ $ $ $ $ ^@^@^@^@4.4.4.4.4.^@^@^@^@^@^@^@^@^@^@^@^@^@^@^@^@^@^@^@4.4.4.4.4.i@i@i@i@i@^@^@^@^@^@^@^@^@^@4.4.4.4.4.$ $ $ $ $ f@> ",
"j@q.$ $ $ $ $ ^@^@^@^@^@$ $ $ $ $ ^@^@^@^@4.4.4.4.4.^@^@^@^@^@^@^@^@^@^@^@^@^@^@^@^@^@^@^@4.4.4.4.4.i@i@i@i@i@^@^@^@^@^@^@^@^@^@4.4.4.4.4.$ $ $ $ $ > &+",
"k@]+$ $ $ $ $ ^@^@^@^@^@$ $ $ $ $ ^@^@^@^@4.4.4.4.4.^@^@^@^@^@^@^@^@^@^@^@^@^@^@^@^@^@^@^@4.4.4.4.4.i@i@i@i@i@^@^@^@^@^@^@^@^@^@4.4.4.4.4.$ $ $ $ $ a@l@",
"+.J $ $ $ $ $ ^@^@^@^@^@$ $ $ $ $ ^@^@^@^@4.4.4.4.4.^@^@^@^@^@^@^@^@^@^@^@^@^@^@^@^@^@^@^@4.4.4.4.4.i@i@i@i@i@^@^@^@^@^@^@^@^@^@4.4.4.4.4.$ $ $ $ $ ;.=.",
"m@6.$ $ $ $ $ ^@^@^@^@^@$ $ $ $ $ ^@^@^@^@4.4.4.4.4.^@^@^@^@^@^@^@^@^@^@^@^@^@^@^@^@^@^@^@4.4.4.4.4.i@i@i@i@i@^@^@^@^@^@^@^@^@^@4.4.4.4.4.$ $ $ $ $ n@+.",
"+.I+$ $ $ $ $ ^@^@^@^@^@$ $ $ $ $ ^@^@^@^@4.4.4.4.4.^@^@^@^@^@^@^@^@^@^@^@^@^@^@^@^@^@^@^@4.4.4.4.4.^@^@^@^@^@^@^@^@^@^@^@^@^@^@4.4.4.4.4.$ $ $ $ $ o@7.",
"p@q@$ $ $ $ $ ^@^@^@^@^@$ $ $ $ $ ^@^@^@^@4.4.4.4.4.^@^@^@^@^@^@^@^@^@^@^@^@^@^@^@^@^@^@^@4.4.4.4.4.^@^@^@^@^@^@^@^@^@^@^@^@^@^@4.4.4.4.4.$ $ $ $ $ l@@@",
"r@2.$ $ $ $ $ ^@^@^@^@^@$ $ $ $ $ ^@^@^@^@4.4.4.4.4.^@^@^@^@^@^@^@^@^@^@^@^@^@^@^@^@^@^@^@4.4.4.4.4.^@^@^@^@^@^@^@^@^@^@^@^@^@^@4.4.4.4.4.$ $ $ $ $ >   ",
"s@M $ $ $ $ $ ^@^@^@^@^@$ $ $ $ $ ^@^@^@^@4.4.4.4.4.^@^@^@^@^@^@^@^@^@^@^@^@^@^@^@^@^@^@^@4.4.4.4.4.^@^@^@^@^@^@^@^@^@^@^@^@^@^@4.4.4.4.4.$ $ $ $ $ t@Z+",
"f+2 $ $ $ $ $ ^@^@^@^@^@$ $ $ $ $ ^@^@^@^@4.4.4.4.4.^@^@^@^@^@^@^@^@^@^@^@^@^@^@^@^@^@^@^@4.4.4.4.4.^@^@^@^@^@^@^@^@^@^@^@^@^@^@4.4.4.4.4.$ $ $ $ $ d G.",
"u@I.$ $ $ $ $ ^@^@^@^@^@$ $ $ $ $ 4.4.4.4.4.4.4.4.4.^@^@^@^@^@$ $ $ $ $ $ $ $ $ ^@^@^@^@^@4.4.4.4.4.4.4.4.4.4.^@^@^@^@4.4.4.4.4.4.4.4.4.4.$ $ $ $ $     ",
"v@1.$ $ $ $ $ ^@^@^@^@^@$ $ $ $ $ 4.4.4.4.4.4.4.4.4.^@^@^@^@^@$ $ $ $ $ $ $ $ $ ^@^@^@^@^@4.4.4.4.4.4.4.4.4.4.^@^@^@^@4.4.4.4.4.4.4.4.4.4.$ $ $ $ $ 9+w@",
"T._.$ $ $ $ $ ^@^@^@^@^@$ $ $ $ $ 4.4.4.4.4.4.4.4.4.^@^@^@^@^@$ $ $ $ $ $ $ $ $ ^@^@^@^@^@4.4.4.4.4.4.4.4.4.4.^@^@^@^@4.4.4.4.4.4.4.4.4.4.$ $ $ $ $ U.h ",
"S+b@$ $ $ $ $ ^@^@^@^@^@$ $ $ $ $ 4.4.4.4.4.4.4.4.4.^@^@^@^@^@$ $ $ $ $ $ $ $ $ ^@^@^@^@^@4.4.4.4.4.4.4.4.4.4.^@^@^@^@4.4.4.4.4.4.4.4.4.4.$ $ $ $ $ O+k+",
"x@&@$ $ $ $ $ 4.4.4.4.4.$ $ $ $ $ $ $ $ $ $ $ $ $ $ ^@^@^@^@^@^@^@^@^@^@$ $ $ $ $ $ $ $ $ ^@^@^@^@^@4.4.4.4.4.4.4.4.4.4.4.4.4.4.4.4.4.4.4.$ $ $ $ $ &@y ",
"> '.$ $ $ $ $ 4.4.4.4.4.$ $ $ $ $ $ $ $ $ $ $ $ $ $ ^@^@^@^@^@^@^@^@^@^@$ $ $ $ $ $ $ $ $ ^@^@^@^@^@4.4.4.4.4.4.4.4.4.4.4.4.4.4.4.4.4.4.4.$ $ $ $ $ - |@",
"y@d $ $ $ $ $ 4.4.4.4.4.$ $ $ $ $ $ $ $ $ $ $ $ $ $ ^@^@^@^@^@^@^@^@^@^@$ $ $ $ $ $ $ $ $ ^@^@^@^@^@4.4.4.4.4.4.4.4.4.4.4.4.4.4.4.4.4.4.4.$ $ $ $ $ 9 o.",
"n 2 $ $ $ $ $ 4.4.4.4.4.$ $ $ $ $ $ $ $ $ $ $ $ $ $ ^@^@^@^@^@^@^@^@^@^@$ $ $ $ $ $ $ $ $ ^@^@^@^@^@4.4.4.4.4.4.4.4.4.4.4.4.4.4.4.4.4.4.4.$ $ $ $ $ 1@{.",
"p r $ $ $ $ $ 4.4.4.4.4.$ $ $ $ $ $ $ $ $ $ $ $ $ $ ^@^@^@^@^@^@^@^@^@^@$ $ $ $ $ $ $ $ $ ^@^@^@^@^@4.4.4.4.4.4.4.4.4.4.4.4.4.4.4.4.4.4.4.$ $ $ $ $ w @.",
"z@A@$ $ $ $ $ 4.4.4.4.4.$ $ $ $ $ T+B@:+U+$ $ $ $ $ 4.4.4.4.4.4.4.4.4.4.^@^@^@^@^@^@^@^@^@^@^@^@^@^@4.4.4.4.4.4.4.4.4.4.4.4.4.4.$ $ $ $ $ k+/ ^.C@1+s.D@",
"E@F@$ $ $ $ $ 4.4.4.4.4.$ $ $ $ $ G@7 H@y $ $ $ $ $ 4.4.4.4.4.4.4.4.4.4.^@^@^@^@^@^@^@^@^@^@^@^@^@^@4.4.4.4.4.4.4.4.4.4.4.4.4.4.$ $ $ $ $ > y O+U.I@_.d.",
"@@M.$ $ $ $ $ 4.4.4.4.4.$ $ $ $ $ ! % ! > $ $ $ $ $ 4.4.4.4.4.4.4.4.4.4.^@^@^@^@^@^@^@^@^@^@^@^@^@^@4.4.4.4.4.4.4.4.4.4.4.4.4.4.$ $ $ $ $ > , / O+v+@@5.",
"U.J@$ $ $ $ $ 4.4.4.4.4.$ $ $ $ $ M+2.  ; $ $ $ $ $ 4.4.4.4.4.4.4.4.4.4.^@^@^@^@^@^@^@^@^@^@^@^@^@^@4.4.4.4.4.4.4.4.4.4.4.4.4.4.$ $ $ $ $ m.y > m.1+1+R ",
". q+$ $ $ $ $ 4.4.4.4.4.$ $ $ $ $ ! 3 K@L@$ $ $ $ $ 4.4.4.4.4.4.4.4.4.4.^@^@^@^@^@^@^@^@^@^@^@^@^@^@4.4.4.4.4.4.4.4.4.4.4.4.4.4.$ $ $ $ $ y M@/ N@~ ~ y+",
"    $ $ $ $ $ $ $ $ $ $ _   M+(+-@1 2 n c $ $ $ $ $ $ $ $ $ $ $ $ $ $ $ 4.4.4.4.4.4.4.4.4.4.4.4.4.4.,+,+,+,+,+$ $ $ $ $ $ $ $ $ > ; B+_ ~   , O@8 /     ",
"  > $ $ $ $ $ $ $ $ $ $ % % [@1 Z.c P@`.Q@$ $ $ $ $ $ $ $ $ $ $ $ $ $ $ 4.4.4.4.4.4.4.4.4.4.4.4.4.4.,+,+,+,+,+$ $ $ $ $ $ $ $ $ R@S@l 2@T@{.p , #   + t ",
"U@> $ $ $ $ $ $ $ $ $ $ V@p l n 1@{ _.W@X@$ $ $ $ $ $ $ $ $ $ $ $ $ $ $ 4.4.4.4.4.4.4.4.4.4.4.4.4.4.,+,+,+,+,+$ $ $ $ $ $ $ $ $ Y@3 y@Z@/.2 2 n G.> _ w ",
"p+  $ $ $ $ $ $ $ $ $ $ i.-+n -@0.6.`@+.+.$ $ $ $ $ $ $ $ $ $ $ $ $ $ $ 4.4.4.4.4.4.4.4.4.4.4.4.4.4.,+,+,+,+,+$ $ $ $ $ $ $ $ $ > > > +    #1 2 2 < ! 6 ",
"; V@$ $ $ $ $ $ $ $ $ $ y@.#+#@#o@+.N.K+o@$ $ $ $ $ $ $ $ $ $ $ $ $ $ $ 4.4.4.4.4.4.4.4.4.4.4.4.4.4.,+,+,+,+,+$ $ $ $ $ $ $ $ $       ##G+  % < v.$#r %#",
"< p q &#d k.*#M /.S q@$+=#_.5.h =.$ $ $ $ 4.4.4.4.4.4.4.4.4.4.$ $ $ $ $ $ $ $ $ $ $ $ $ $ $ $ $ $ $ $ $ $ $ $ ,+,+,+,+4.4.4.4.4.$ $ $ $ $   > >   > d ! ",
"> 7 + s     -#(.~ q.^+0+;#:+@@M.l@$ $ $ $ 4.4.4.4.4.4.4.4.4.4.$ $ $ $ $ $ $ $ $ $ $ $ $ $ $ $ $ $ $ $ $ $ $ $ ,+,+,+,+4.4.4.4.4.$ $ $ $ $       > , <   ",
"&   h@o     >#+   > ,#n.'#3.y )#  $ $ $ $ 4.4.4.4.4.4.4.4.4.4.$ $ $ $ $ $ $ $ $ $ $ $ $ $ $ $ $ $ $ $ $ $ $ $ ,+,+,+,+4.4.4.4.4.$ $ $ $ $ )     > w ,   ",
"g.  w ) < < o !##.T@p g@~#{.{.~#v.$ $ $ $ 4.4.4.4.4.4.4.4.4.4.$ $ $ $ $ $ $ $ $ $ $ $ $ $ $ $ $ $ $ $ $ $ $ $ ,+,+,+,+4.4.4.4.4.$ $ $ $ $   M+{#  w ]#w ",
"  > -@%#/.g@%#j+k+1+) ^#$ $ $ $ $ 4.4.4.4.4.4.4.4.4.$ $ $ $ $ F+6.G /#(#+.8@@+_#`@F l@:#9+<#-@$#P@{.{.)@/.G.[#$ $ $ $ 4.4.4.4.4.$ $ $ $ $ !+, }#o # t p ",
"Y@d |#[#1#b@+.I+++N.+.2#$ $ $ $ $ 4.4.4.4.4.4.4.4.4.$ $ $ $ $ 3#4#6.5#E.+.6.H+6#` I  +7#F+_.w+& 6 5@p+!#m+v.v.$ $ $ $ 4.4.4.4.4.$ $ $ $ $ f+c k #.C d 6 ",
"n.1+H+8#;.S.`@+.9#0#J J $ $ $ $ $ 4.4.4.4.4.4.4.4.4.$ $ $ $ $ T+J+N.a#b#0#H c#M+1+O+:+F+2+m.~   ~         ~ 0+$ $ $ $ 4.4.4.4.4.$ $ $ $ $ 7.:+d#> > >   ",
"8+e#-.;.+.N.J +.f#I++.J $ $ $ $ $ 4.4.4.4.4.4.4.4.4.$ $ $ $ $ q.q+g b@/+k+g#h#N@t i#j#I.)   G+  > > 2.O+@@$+I+$ $ $ $ 4.4.4.4.4.$ $ $ $ $ 7.6.-.k#q.:+g ",
"I+R.l#m#I+}+n#6.F@+.o#n#$ $ $ $ $ 4.4.4.4.4.4.4.4.4.$ $ $ $ $ r.p#q#&@) k+  y 8 o.r#n./ / y &@O+U.s#w.x.t#u#M.$ $ $ $ 4.4.4.4.4.$ $ $ $ $ @+1.F@F@M.5.G ",
"_.v#;.w#E.M.l@Q+}+n#g x#$ $ $ $ $ $ $ $ $ $ $ $ $ $ ) ~ ~ ) y#A+z#, > ~@W+& ) y I.~ / m.f y i I I+F z@A#F@J B#B#g F H $ $ $ $ $ $ $ $ $ $ C#1.U.J+@@@@}+",
"i+0+f ^+q+9+D#I.q.1+q+) $ $ $ $ $ $ $ $ $ $ $ $ $ $ +     t ! w t > > / E#m.N@# n.) ) { O+0+I+a@F#4+G#N.`@-.w@3#K+H#I#$ $ $ $ $ $ $ $ $ $ J#q.m.q+. 2.:+",
"H@1+v q+. m.n.&@> G+    $ $ $ $ $ $ $ $ $ $ $ $ $ $ + K#! ! M+M+V@4@>   > # (.G.* >   L#M#f N#1.}+1.u#+.4+7+O#@+F@f U.$ $ $ $ $ $ $ $ $ $ q+1+    2.) 2.",
"W.  +                   $ $ $ $ $ $ $ $ $ $ $ $ $ $ 5 & % P#0 f.Q#_ > t R#, f+G., ~ 2.) , 1+R 1+O+i q.l@v+q.n.O+9+0+. $ $ $ $ $ $ $ $ $ $ > > ~ w+S#o n.",
"& o >   ) # t     t 5   $ $ $ $ $ $ $ $ $ $ $ $ $ $ > & # ! m.S S > >     , > _ I@B@2.    ~ q+  O+H.1+m.I.I.~ q+1+~ ) $ $ $ $ $ $ $ $ $ $ , 9   n.    T#"};
