/* XPM */
static char * enemy_2_r_xpm[] = {
"76 76 465 2",
"  	c #F0D68C",
". 	c #EFD48D",
"+ 	c #F0D58E",
"@ 	c #F2D889",
"# 	c #000000",
"$ 	c #F0D68E",
"% 	c #F0D894",
"& 	c #F1D691",
"* 	c #F0D68D",
"= 	c #F0D590",
"- 	c #F1D78E",
"; 	c #F1D78D",
"> 	c #F0D68F",
", 	c #F1D692",
"' 	c #F1D590",
") 	c #F1D690",
"! 	c #F0D58F",
"~ 	c #F2D998",
"{ 	c #EFD58C",
"] 	c #F1D68F",
"^ 	c #EFD58B",
"/ 	c #EED48D",
"( 	c #F1D78C",
"_ 	c #F0D58D",
": 	c #F1D68B",
"< 	c #F4D984",
"[ 	c #F1D790",
"} 	c #ECD18A",
"| 	c #F3D891",
"1 	c #F3D793",
"2 	c #F2D994",
"3 	c #F0D795",
"4 	c #F0D897",
"5 	c #F4DA8C",
"6 	c #F2D893",
"7 	c #F2D996",
"8 	c #F2DA94",
"9 	c #F2D791",
"0 	c #F1D895",
"a 	c #F1D791",
"b 	c #F0D68A",
"c 	c #F0D68B",
"d 	c #F1D78B",
"e 	c #F1D68C",
"f 	c #F2D792",
"g 	c #F2D884",
"h 	c #EDD389",
"i 	c #F3D894",
"j 	c #F2DA95",
"k 	c #F4DB9D",
"l 	c #F3DA99",
"m 	c #F2D997",
"n 	c #F3D99C",
"o 	c #F2D995",
"p 	c #F1D78F",
"q 	c #F2D894",
"r 	c #F3DA98",
"s 	c #F2D895",
"t 	c #F2D887",
"u 	c #F2D694",
"v 	c #F0D690",
"w 	c #EFD68F",
"x 	c #F2D999",
"y 	c #EFD58D",
"z 	c #F4DB83",
"A 	c #F2D98D",
"B 	c #F3D892",
"C 	c #F2D793",
"D 	c #EED289",
"E 	c #EDD189",
"F 	c #E8CC81",
"G 	c #F3DA9B",
"H 	c #F3D99B",
"I 	c #F2D892",
"J 	c #F0D893",
"K 	c #F1D893",
"L 	c #F4DC9D",
"M 	c #ECD28C",
"N 	c #E9CF92",
"O 	c #ECD18C",
"P 	c #ECD087",
"Q 	c #EED28A",
"R 	c #F4DB93",
"S 	c #F3D99A",
"T 	c #F0D692",
"U 	c #F3D98B",
"V 	c #F1D798",
"W 	c #F4DB87",
"X 	c #ECD084",
"Y 	c #E8CE7C",
"Z 	c #EBCE7C",
"` 	c #E8CD81",
" .	c #EACE79",
"..	c #F4D993",
"+.	c #F2D99B",
"@.	c #F0D99F",
"#.	c #F2D790",
"$.	c #F3D893",
"%.	c #EDD185",
"&.	c #E8CD7F",
"*.	c #E9CC7B",
"=.	c #E7CA7B",
"-.	c #E7CB7E",
";.	c #E7CB7D",
">.	c #E8CB7F",
",.	c #E7CA7C",
"'.	c #E9CC7F",
").	c #F0D38F",
"!.	c #F1D592",
"~.	c #F0D796",
"{.	c #F3D997",
"].	c #F3DA91",
"^.	c #F1D996",
"/.	c #F1D794",
"(.	c #F0D791",
"_.	c #EBCF85",
":.	c #ECD27F",
"<.	c #E8CE7E",
"[.	c #E7CC80",
"}.	c #EBD081",
"|.	c #ECD08A",
"1.	c #0069FF",
"2.	c #EFD795",
"3.	c #F1D68D",
"4.	c #F1D68E",
"5.	c #EED288",
"6.	c #EACE83",
"7.	c #E8CC7E",
"8.	c #E8CB7E",
"9.	c #E8CC7A",
"0.	c #E9CD7A",
"a.	c #EACC80",
"b.	c #E9CC82",
"c.	c #E8CD84",
"d.	c #E6C97A",
"e.	c #E9CC80",
"f.	c #F2DA97",
"g.	c #F2D896",
"h.	c #F0D58B",
"i.	c #F0D58C",
"j.	c #F0D694",
"k.	c #EED591",
"l.	c #EDD287",
"m.	c #EFD58E",
"n.	c #EFD38A",
"o.	c #EDD28B",
"p.	c #F0D78E",
"q.	c #F1D894",
"r.	c #EFD692",
"s.	c #EED48C",
"t.	c #ECD389",
"u.	c #E8CC7F",
"v.	c #E8CB7D",
"w.	c #E7CB7F",
"x.	c #EACD84",
"y.	c #E7CB80",
"z.	c #E8CC79",
"A.	c #E8CD82",
"B.	c #E8CC80",
"C.	c #E8CA7C",
"D.	c #E9CE86",
"E.	c #E9CE85",
"F.	c #E9CD87",
"G.	c #F3D99E",
"H.	c #F3DA97",
"I.	c #F0D48C",
"J.	c #EFD48B",
"K.	c #F2DA93",
"L.	c #EFD48F",
"M.	c #F1D77E",
"N.	c #ECD186",
"O.	c #EDD186",
"P.	c #EDD390",
"Q.	c #E8CD7E",
"R.	c #E7CA7D",
"S.	c #E9CD7C",
"T.	c #E8CB80",
"U.	c #E9CB7F",
"V.	c #EACE82",
"W.	c #EACF82",
"X.	c #EBCF86",
"Y.	c #EDD187",
"Z.	c #ECD38F",
"`.	c #F1D994",
" +	c #F1D792",
".+	c #F1D993",
"++	c #E9CD83",
"@+	c #EDD58F",
"#+	c #EDD188",
"$+	c #EBCF84",
"%+	c #EAD085",
"&+	c #E9CD7F",
"*+	c #E8CD85",
"=+	c #EBCF88",
"-+	c #ECD188",
";+	c #EED38C",
">+	c #EED48B",
",+	c #F2D99A",
"'+	c #F3DA9C",
")+	c #E9CD85",
"!+	c #004AB8",
"~+	c #F0D794",
"{+	c #EBD187",
"]+	c #EFD590",
"^+	c #F3D794",
"/+	c #F3D998",
"(+	c #F0D895",
"_+	c #F2D990",
":+	c #F2D88F",
"<+	c #E9CD82",
"[+	c #E8CA7F",
"}+	c #F0D798",
"|+	c #F0D691",
"1+	c #EFD68E",
"2+	c #F2D980",
"3+	c #EACF7F",
"4+	c #ECD28F",
"5+	c #F0D797",
"6+	c #F1D998",
"7+	c #F1DA9B",
"8+	c #EED491",
"9+	c #F2D795",
"0+	c #F0D792",
"a+	c #EFD58F",
"b+	c #F0D693",
"c+	c #EED388",
"d+	c #EED18B",
"e+	c #ECD085",
"f+	c #EBCF87",
"g+	c #EDD27D",
"h+	c #EACF81",
"i+	c #E9CE80",
"j+	c #E9CE7F",
"k+	c #ECD086",
"l+	c #EBD08D",
"m+	c #EBD189",
"n+	c #EED488",
"o+	c #F1D896",
"p+	c #F1D886",
"q+	c #F2D99C",
"r+	c #F2D897",
"s+	c #F2D796",
"t+	c #F0D892",
"u+	c #F2DAA0",
"v+	c #EED58D",
"w+	c #EBD186",
"x+	c #E8CE85",
"y+	c #EDD38C",
"z+	c #EAD084",
"A+	c #EED28C",
"B+	c #F2D98F",
"C+	c #F0D79B",
"D+	c #F6DC87",
"E+	c #F3DB93",
"F+	c #F3DB9F",
"G+	c #F1D892",
"H+	c #EFD48A",
"I+	c #F1D581",
"J+	c #EFD38B",
"K+	c #F1D997",
"L+	c #EDD48B",
"M+	c #ECD284",
"N+	c #EBD086",
"O+	c #EBD085",
"P+	c #EED38B",
"Q+	c #EFD48E",
"R+	c #EED390",
"S+	c #EED48F",
"T+	c #EACF85",
"U+	c #F1D693",
"V+	c #EFD693",
"W+	c #ECD18F",
"X+	c #ECD184",
"Y+	c #EED28B",
"Z+	c #EED48A",
"`+	c #F0D688",
" @	c #F1D88F",
".@	c #F3DA93",
"+@	c #F2D898",
"@@	c #E8CF89",
"#@	c #F1D694",
"$@	c #F1D899",
"%@	c #F2D993",
"&@	c #EED592",
"*@	c #F1D688",
"=@	c #EAD086",
"-@	c #EFD389",
";@	c #EDD388",
">@	c #F3DA8F",
",@	c #F1D897",
"'@	c #F3D999",
")@	c #F2D981",
"!@	c #ECD288",
"~@	c #F1D788",
"{@	c #F3DA96",
"]@	c #F3DA9A",
"^@	c #EED58B",
"/@	c #F2D78B",
"(@	c #F2D78C",
"_@	c #FFFFFF",
":@	c #ECD28A",
"<@	c #F1D890",
"[@	c #F2D98B",
"}@	c #EFD790",
"|@	c #F2D78F",
"1@	c #EED389",
"2@	c #EDD084",
"3@	c #E8CD80",
"4@	c #F3DA95",
"5@	c #E9CE79",
"6@	c #E8CB82",
"7@	c #E8CC78",
"8@	c #E9CC7E",
"9@	c #E9CC83",
"0@	c #E7CB7C",
"a@	c #EACE85",
"b@	c #EACE7B",
"c@	c #EACD7F",
"d@	c #ECD185",
"e@	c #ECD187",
"f@	c #F0D58A",
"g@	c #F1D785",
"h@	c #F1D898",
"i@	c #F3D895",
"j@	c #F2D794",
"k@	c #F2D68E",
"l@	c #F0D789",
"m@	c #EBCD7F",
"n@	c #EACF77",
"o@	c #E6CB79",
"p@	c #E9CD81",
"q@	c #FFFFFE",
"r@	c #EFD386",
"s@	c #F1D888",
"t@	c #F3D993",
"u@	c #F3D991",
"v@	c #F1D786",
"w@	c #E9CD7D",
"x@	c #EACE84",
"y@	c #EBCE84",
"z@	c #E8CC83",
"A@	c #EDD288",
"B@	c #EED38A",
"C@	c #EFD48C",
"D@	c #F1D793",
"E@	c #F0D78F",
"F@	c #F3D996",
"G@	c #EACE81",
"H@	c #EACF86",
"I@	c #E9CC81",
"J@	c #E9CD80",
"K@	c #EFD384",
"L@	c #ECD08B",
"M@	c #E9CD7E",
"N@	c #EFD489",
"O@	c #EBD18D",
"P@	c #EACF84",
"Q@	c #EED489",
"R@	c #EDD089",
"S@	c #F0D48B",
"T@	c #EDD28A",
"U@	c #F2D890",
"V@	c #E9CE84",
"W@	c #E8CC7D",
"X@	c #ECCF85",
"Y@	c #E6CA7D",
"Z@	c #EFD482",
"`@	c #F3D995",
" #	c #EBCF83",
".#	c #F0D78D",
"+#	c #F1D995",
"@#	c #F2DA98",
"##	c #F5DC9D",
"$#	c #EED58E",
"%#	c #EFD683",
"&#	c #F1D891",
"*#	c #F4DB9C",
"=#	c #F2D991",
"-#	c #ECD38D",
";#	c #0469FF",
">#	c #F3D983",
",#	c #E9CF85",
"'#	c #EFD78E",
")#	c #F4D997",
"!#	c #F0D78C",
"~#	c #F3DA84",
"{#	c #0668FE",
"]#	c #F4DA87",
"^#	c #F3D994",
"/#	c #EED48E",
"(#	c #E6CB82",
"_#	c #EACE7A",
":#	c #EBD07A",
"<#	c #EACE86",
"[#	c #E6CC86",
"}#	c #F2D98C",
"|#	c #F3D897",
"1#	c #EDD493",
"2#	c #F1D991",
"3#	c #F2D891",
"4#	c #F4DB9B",
"5#	c #E7CC7F",
"6#	c #E6CC7D",
"7#	c #E6CA7C",
"8#	c #E9CE82",
"9#	c #EACF83",
"0#	c #EED484",
"a#	c #EFD585",
"b#	c #E6C97D",
"c#	c #E8CC82",
"d#	c #EDD38B",
"e#	c #EACC7F",
"f#	c #E9CD84",
"g#	c #EBCF7F",
"h#	c #EBD07B",
"i#	c #E9CE81",
"j#	c #EDD382",
"k#	c #E7CC81",
"l#	c #E8CB81",
"m#	c #E9CD7B",
"n#	c #F1D58F",
"o#	c #E8CC7C",
"p#	c #EED387",
"q#	c #EDD38A",
"r#	c #EBCE85",
"s#	c #EBD08B",
"t#	c #EFD58A",
"u#	c #F1D783",
"v#	c #EFD487",
"w#	c #ECD081",
"x#	c #E4C87E",
"y#	c #EACD81",
"z#	c #F3D884",
"A#	c #EFD68D",
"B#	c #EED58C",
"C#	c #EED28F",
"D#	c #EACF8A",
"E#	c #EACE7E",
"F#	c #E5C97F",
"G#	c #F0D695",
"H#	c #F2D88B",
"I#	c #EFD690",
"J#	c #F2D695",
"K#	c #F1D885",
"L#	c #F1D78A",
"M#	c #EACD83",
"N#	c #EFD387",
"O#	c #EED38D",
"P#	c #EFD68B",
"Q#	c #EACF88",
"R#	c #EBD087",
"S#	c #F0D485",
"T#	c #F0D587",
"U#	c #F1D68A",
"V#	c #F0D591",
"W#	c #F0D686",
"X#	c #EED384",
"Y#	c #EDD18A",
"Z#	c #F0D687",
"`#	c #F1D795",
" $	c #F0D689",
".$	c #F0D684",
"+$	c #ECD287",
"@$	c #EED38E",
"#$	c #ECD189",
"  . +       @ # # # # # # # # # #     + $ % & * = - ; >   , ' )   ! ! - * $   ~ ) { + ] ^ * $ ^ $ / # # # # # # # # # # # # # # ^ ( ! _ : < * * * $ * * ",
"[ } [ [ | 1 2 # # # # # # # # # # +     3 4 5 6 7 8 ~ 9 ]             _   > ) 0 [ a -     & & ^ ^   # # # # # # # # # # # # # #     b c + + d e     * + ",
"8 7 8 f g + h # # # # # # # # # # +   ) i 7 0 7 j k l m n o | f p   $ q r m m r 7 7 7 s f ] +   t c # # # # # # # # # # # # # # u _ _ v w x + y z A B i ",
"C p   + D E F # # # # # # # # # # 8 6 7 G H m o I 3 J K L l 7 o 7 f C / M N O P Q v m m R 8 S x 7 C # # # # # # # # # # # # # # T U [ V 0 W 2 7 7 7 7 7 ",
"+ D X Y Z `  .# # # # # # # # # # 7 ..j +.@.& + = _ &     #.$.f _ %.&.*.=.-.;.>.,.,.'.).!.q 7 7 m ~.# # # # # # # # # # # # # # {.].7 7 ~ m ~ ^.+.6 /.(.",
"_.:.<.[.}.&.|.# # # # # 1.1.1.1.1.# # # # & ] 2.) ] 3.[ ] 4.5.6.7.8.9.0.a.>.b.c.-.d.>.e.&.# # # # # 1.1.1.1.1.1.1.1.1.# # # # # f.f.g.& & & ! h.i.j.k.l.",
"^ m.^ n.. . o.# # # # # 1.1.1.1.1.# # # # #.p.q.p * r.s.t.u.v.w.x.y.,.z.A.B.C.D.>.E.F.B.|.# # # # # 1.1.1.1.1.1.1.1.1.# # # # # m G.H.7 [ ] ! ! * ) I.J.",
"[ [ i | $.K.L.# # # # # 1.1.1.1.1.# # # # [ $   y M.N.h O.P.u.Q.R.S.v.,.T.U.;.V.W.X.Y.Q Z.# # # # # 1.1.1.1.1.1.1.1.1.# # # # # ~ H m ~ f.S ~ `.6 K 3  +",
"7 7 .+. ++v.` # # # # # 1.1.1.1.1.# # # # @+8 C + D #+_._.$+Q.%+l.&+*+Y.%+=+-+h ;+l.>+^ ^ # # # # # 1.1.1.1.1.1.1.1.1.# # # # # m r ~ m ,+7 '+8 ~ S l H.",
"y Y.A.v.8.)+v.# # # # # 1.1.1.1.1.!+!+!+!+# # # # # # # # # # # # # # # # # # # # # # # # 1.1.1.1.1.1.1.1.1.1.# # # # ~+V ) ) {++ _ ]+/.9 ^+/+(+_+:+9 ^+",
"<+v.B.,.<+[+,.# # # # # 1.1.1.1.1.!+!+!+!+# # # # # # # # # # # # # # # # # # # # # # # # 1.1.1.1.1.1.1.1.1.1.# # # # m m o C ! }+$ /.j.|+1+  2+= N.X.W.",
"` ` ,.v.3+v.8.# # # # # 1.1.1.1.1.!+!+!+!+# # # # # # # # # # # # # # # # # # # # # # # # 1.1.1.1.1.1.1.1.1.1.# # # # 4+5+6+7+8+9+0+a+b+_ & ^ c+d+e+f+g+",
"h+v.i+j+++#+k+# # # # # 1.1.1.1.1.!+!+!+!+# # # # # # # # # # # # # # # # # # # # # # # # 1.1.1.1.1.1.1.1.1.1.# # # # l+m+n+s o+o+p+q+r+s+t+u+m , { |.%.",
"k+Y.;+^ #+5.v+# # # # # 1.1.1.1.1.!+!+!+!+# # # # # # # # # # # # # # # # # # # # # # # # 1.1.1.1.1.1.1.1.1.1.# # # # w+x+y+z+A+B+7 m C+D+E+F+G+H+I+H+J+",
"^ K+^ ^ $   a+f > o+m o # # # # # # # # # !+!+!+!+!+1.1.1.1.1.1.1.1.1.1.1.1.1.1.# # # # # # # # # # # # # # # L+M+N+O+t.P+Q+R+J+# # # # # # # # # # S+T+",
"  b U+a i i 7 7 7 ~+V+W+# # # # # # # # # !+!+!+!+!+1.1.1.1.1.1.1.1.1.1.1.1.1.1.# # # # # # # # # # # # # # # X+Y+Z+h c+`+ @>+  # # # # # # # # # # _ (.",
".@m m 7 7 o +@a ;+F N+P # # # # # # # # # !+!+!+!+!+1.1.1.1.1.1.1.1.1.1.1.1.1.1.# # # # # # # # # # # # # # # Z+@@> #./ ! 9 ) * # # # # # # # # # # * #@",
"$@%@o &@;+c *@=@-@D ;@l.# # # # # # # # # !+!+!+!+!+1.1.1.1.1.1.1.1.1.1.1.1.1.1.# # # # # # # # # # # # # # # >@,@.+K+2 >@m 7 7 # # # # # # # # # # '@H.",
")@$   ^ {   { !@>+^ ~@c # # # # # # # # # !+!+!+!+!+1.1.1.1.1.1.1.1.1.1.1.1.1.1.# # # # # # # # # # # # # # # j j {@]@m .+^@/@] # # # # # # # # # # (@- ",
"      * p   ! # # # # # 1.1.1.1.1.1.1.1.1.1.1.1.1.1._@_@_@_@_@_@_@_@_@_@_@_@_@_@1.1.1.1.1.1.1.1.1.1.# # # # # ] :@<@ +# # # # # 1.1.1.1.1.# # # # # [@  ",
"9 K+i m q.9 [ # # # # # 1.1.1.1.1.1.1.1.1.1.1.1.1.1._@_@_@_@_@_@_@_@_@_@_@_@_@_@1.1.1.1.1.1.1.1.1.1.# # # # # * } w }@# # # # # 1.1.1.1.1.# # # # #   C ",
"o a - |@/.T 0+# # # # # 1.1.1.1.1.1.1.1.1.1.1.1.1.1._@_@_@_@_@_@_@_@_@_@_@_@_@_@1.1.1.1.1.1.1.1.1.1.# # # # # + 4.; * # # # # # 1.1.1.1.1.# # # # # %@7 ",
"1@2@u.3@>.v.y.# # # # # 1.1.1.1.1.1.1.1.1.1.1.1.1.1._@_@_@_@_@_@_@_@_@_@_@_@_@_@1.1.1.1.1.1.1.1.1.1.# # # # #  +) 4.  # # # # # 1.1.1.1.1.# # # # # 4@* ",
"v.5@v.y.6@7@8@# # # # # 1.1.1.1.1.1.1.1.1.1.1.1.1.1._@_@_@_@_@_@_@_@_@_@_@_@_@_@1.1.1.1.1.1.1.1.1.1.# # # # # ^ [ a a # # # # # 1.1.1.1.1.# # # # # O+9@",
"v.*+# # # # # 1.1.1.1.1.1.1.1.1.1.1.1.1.1.1.1.1.1.1._@_@_@_@_@# # # # # # # # # _@_@_@_@_@_@_@_@_@_@# # # # # # # # # # # # # # 1.1.1.1.1.# # # # # <+0@",
"v.a@# # # # # 1.1.1.1.1.1.1.1.1.1.1.1.1.1.1.1.1.1.1._@_@_@_@_@# # # # # # # # # _@_@_@_@_@_@_@_@_@_@# # # # # # # # # # # # # # 1.1.1.1.1.# # # # # 0@v.",
"[.B.# # # # # 1.1.1.1.1.1.1.1.1.1.1.1.1.1.1.1.1.1.1._@_@_@_@_@# # # # # # # # # _@_@_@_@_@_@_@_@_@_@# # # # # # # # # # # # # # 1.1.1.1.1.# # # # # b@c@",
"d@e+# # # # # 1.1.1.1.1.1.1.1.1.1.1.1.1.1.1.1.1.1.1._@_@_@_@_@# # # # # # # # # _@_@_@_@_@_@_@_@_@_@# # # # # # # # # # # # # # 1.1.1.1.1.# # # # # l.e@",
"-@f@# # # # # 1.1.1.1.1.1.1.1.1.1._@_@_@_@1.1.1.1.1.1.1.1.1.1._@_@_@_@_@# # # # # # # # # _@_@_@_@_@1.1.1.1.1.1.1.1.1.# # # # # _@_@_@_@_@# # # # # + H+",
"    # # # # # 1.1.1.1.1.1.1.1.1.1._@_@_@_@1.1.1.1.1.1.1.1.1.1._@_@_@_@_@# # # # # # # # # _@_@_@_@_@1.1.1.1.1.1.1.1.1.# # # # # _@_@_@_@_@# # # # # i.i.",
"|+  # # # # # 1.1.1.1.1.1.1.1.1.1._@_@_@_@1.1.1.1.1.1.1.1.1.1._@_@_@_@_@# # # # # # # # # _@_@_@_@_@1.1.1.1.1.1.1.1.1.# # # # # _@_@_@_@_@# # # # # 3.g@",
"h@i@# # # # # 1.1.1.1.1.1.1.1.1.1._@_@_@_@1.1.1.1.1.1.1.1.1.1._@_@_@_@_@# # # # # # # # # _@_@_@_@_@1.1.1.1.1.1.1.1.1.# # # # # _@_@_@_@_@# # # # # ) j@",
"7 s # # # # # 1.1.1.1.1.1.1.1.1.1._@_@_@_@1.1.1.1.1.1.1.1.1.1._@_@_@_@_@# # # # # # # # # _@_@_@_@_@1.1.1.1.1.1.1.1.1.# # # # # _@_@_@_@_@# # # # # '+m ",
"$ ) # # # # # 1.1.1.1.1._@_@_@_@_@_@_@_@_@_@_@_@_@_@1.1.1.1.1._@_@_@_@_@_@_@_@_@_@_@_@_@_@_@_@_@_@_@1.1.1.1.1._@_@_@_@# # # # # _@_@_@_@_@# # # # # h@* ",
"k@l.# # # # # 1.1.1.1.1._@_@_@_@_@_@_@_@_@_@_@_@_@_@1.1.1.1.1._@_@_@_@_@_@_@_@_@_@_@_@_@_@_@_@_@_@_@1.1.1.1.1._@_@_@_@# # # # # _@_@_@_@_@# # # # # * l@",
"m@[+# # # # # 1.1.1.1.1._@_@_@_@_@_@_@_@_@_@_@_@_@_@1.1.1.1.1._@_@_@_@_@_@_@_@_@_@_@_@_@_@_@_@_@_@_@1.1.1.1.1._@_@_@_@# # # # # _@_@_@_@_@# # # # # d@N+",
"v.,.# # # # # 1.1.1.1.1._@_@_@_@_@_@_@_@_@_@_@_@_@_@1.1.1.1.1._@_@_@_@_@_@_@_@_@_@_@_@_@_@_@_@_@_@_@1.1.1.1.1._@_@_@_@# # # # # _@_@_@_@_@# # # # # >.-.",
"n@7.# # # # # 1.1.1.1.1._@_@_@_@_@_@_@_@_@_@_@_@_@_@1.1.1.1.1._@_@_@_@_@_@_@_@_@_@_@_@_@_@_@_@_@_@_@1.1.1.1.1._@_@_@_@# # # # # _@_@_@_@_@# # # # # o@v.",
"v.p@# # # # # 1.1.1.1.1._@_@_@_@_@_@_@_@_@q@q@q@q@q@1.1.1.1.1._@_@_@_@_@_@_@_@_@_@_@_@_@_@_@_@_@_@_@1.1.1.1.1._@_@_@_@# # # # # _@_@_@_@_@# # # # # 8@8.",
"r@P+# # # # # 1.1.1.1.1._@_@_@_@_@_@_@_@_@q@q@q@q@q@1.1.1.1.1._@_@_@_@_@_@_@_@_@_@_@_@_@_@_@_@_@_@_@1.1.1.1.1._@_@_@_@# # # # # _@_@_@_@_@# # # # # N+O+",
"s@Z+# # # # # 1.1.1.1.1._@_@_@_@_@_@_@_@_@q@q@q@q@q@1.1.1.1.1._@_@_@_@_@_@_@_@_@_@_@_@_@_@_@_@_@_@_@1.1.1.1.1._@_@_@_@# # # # # _@_@_@_@_@# # # # # *   ",
"t@K # # # # # 1.1.1.1.1._@_@_@_@_@_@_@_@_@q@q@q@q@q@1.1.1.1.1._@_@_@_@_@_@_@_@_@_@_@_@_@_@_@_@_@_@_@1.1.1.1.1._@_@_@_@# # # # # _@_@_@_@_@# # # # # u@#@",
"q.7 # # # # # 1.1.1.1.1._@_@_@_@_@_@_@_@_@q@q@q@q@q@1.1.1.1.1._@_@_@_@_@_@_@_@_@_@_@_@_@_@_@_@_@_@_@1.1.1.1.1._@_@_@_@# # # # # _@_@_@_@_@# # # # # f  +",
"v@J.# # # # # 1.1.1.1.1.1.1.1.1.1._@_@_@_@1.1.1.1.1.1.1.1.1.1._@_@_@_@_@# # # # # # # # # _@_@_@_@_@1.1.1.1.1.1.1.1.1.# # # # # _@_@_@_@_@# # # # #     ",
"w@x@# # # # # 1.1.1.1.1.1.1.1.1.1._@_@_@_@1.1.1.1.1.1.1.1.1.1._@_@_@_@_@# # # # # # # # # _@_@_@_@_@1.1.1.1.1.1.1.1.1.# # # # # _@_@_@_@_@# # # # # #+y@",
"W._.# # # # # 1.1.1.1.1.1.1.1.1.1._@_@_@_@1.1.1.1.1.1.1.1.1.1._@_@_@_@_@# # # # # # # # # _@_@_@_@_@1.1.1.1.1.1.1.1.1.# # # # # _@_@_@_@_@# # # # # Y.X.",
"z@e@# # # # # 1.1.1.1.1.1.1.1.1.1._@_@_@_@1.1.1.1.1.1.1.1.1.1._@_@_@_@_@# # # # # # # # # _@_@_@_@_@1.1.1.1.1.1.1.1.1.# # # # # _@_@_@_@_@# # # # # A@B@",
"a+C@# # # # # 1.1.1.1.1.1.1.1.1.1.1.1.1.1.1.1.1.1.1._@_@_@_@_@# # # # # # # # # _@_@_@_@_@_@_@_@_@_@# # # # # # # # # # # # # # 1.1.1.1.1.# # # # # C@y ",
"* !.# # # # # 1.1.1.1.1.1.1.1.1.1.1.1.1.1.1.1.1.1.1._@_@_@_@_@# # # # # # # # # _@_@_@_@_@_@_@_@_@_@# # # # # # # # # # # # # # 1.1.1.1.1.# # # # # ! U+",
"D@f # # # # # 1.1.1.1.1.1.1.1.1.1.1.1.1.1.1.1.1.1.1._@_@_@_@_@# # # # # # # # # _@_@_@_@_@_@_@_@_@_@# # # # # # # # # # # # # # 1.1.1.1.1.# # # # # E@j.",
"o 7 # # # # # 1.1.1.1.1.1.1.1.1.1.1.1.1.1.1.1.1.1.1._@_@_@_@_@# # # # # # # # # _@_@_@_@_@_@_@_@_@_@# # # # # # # # # # # # # # 1.1.1.1.1.# # # # # {@F@",
"q s # # # # # 1.1.1.1.1.1.1.1.1.1.1.1.1.1.1.1.1.1.1._@_@_@_@_@# # # # # # # # # _@_@_@_@_@_@_@_@_@_@# # # # # # # # # # # # # # 1.1.1.1.1.# # # # # 4.#.",
"G@H@>.c.v.7.I@# # # # # 1.1.1.1.1.1.1.1.1.1.1.1.1.1._@_@_@_@_@_@_@_@_@_@_@_@_@_@1.1.1.1.1.1.1.1.1.1.# # # # # $+J@V.E.# # # # # 1.1.1.1.1.# # # # # o.K@",
"L@J@Q.w.8.8.M@# # # # # 1.1.1.1.1.1.1.1.1.1.1.1.1.1._@_@_@_@_@_@_@_@_@_@_@_@_@_@1.1.1.1.1.1.1.1.1.1.# # # # # e@-+N@1@# # # # # 1.1.1.1.1.# # # # # _.e.",
"O+<+&.e.O@J@P@# # # # # 1.1.1.1.1.1.1.1.1.1.1.1.1.1._@_@_@_@_@_@_@_@_@_@_@_@_@_@1.1.1.1.1.1.1.1.1.1.# # # # #   h Q@  # # # # # 1.1.1.1.1.# # # # # O+6.",
"Y.R@N+d@S@A@T@# # # # # 1.1.1.1.1.1.1.1.1.1.1.1.1.1._@_@_@_@_@_@_@_@_@_@_@_@_@_@1.1.1.1.1.1.1.1.1.1.# # # # # i@I U@; # # # # # 1.1.1.1.1.# # # # # 1@Q ",
". H+^ v > y J.# # # # # 1.1.1.1.1.1.1.1.1.1.1.1.1.1._@_@_@_@_@_@_@_@_@_@_@_@_@_@1.1.1.1.1.1.1.1.1.1.# # # # # o 2 H.8+# # # # # 1.1.1.1.1.# # # # # ^ Q@",
"    * g.3.>   * (   ^ _ # # # # # # # # # !+!+!+!+!+1.1.1.1.1.1.1.1.1.1.1.1.1.1.# # # # # # # # # # # # # # # V@[ r 7 m ]+I p $ # # # # # # # # # #     ",
"  * * > g@  p.3.* ^ ^   # # # # # # # # # !+!+!+!+!+1.1.1.1.1.1.1.1.1.1.1.1.1.1.# # # # # # # # # # # # # # # W@v.X@) m F@7 o F@# # # # # # # # # # + c ",
"w *         '@{ *   B   # # # # # # # # # !+!+!+!+!+1.1.1.1.1.1.1.1.1.1.1.1.1.1.# # # # # # # # # # # # # # # Y@u.J@i+Z@) 7 s I # # # # # # # # # # & 4.",
"G+        * a * `@* p ]+# # # # # # # # # !+!+!+!+!+1.1.1.1.1.1.1.1.1.1.1.1.1.1.# # # # # # # # # # # # # # #  #-@Y.N@C@_ J.y $ # # # # # # # # # # ] a ",
"- p..#p.3.6 +#U@@#F@##`@# # # # # # # # # !+!+!+!+!+1.1.1.1.1.1.1.1.1.1.1.1.1.1.# # # # # # # # # # # # # # # $#J.%#e * ^ h 3.  # # # # # # # # # # s &#",
"[ q r *#f =#-## # # # # ;#;#;#;#;#!+!+!+!+# # # # # # # # # # # # # # # # # # # # # # # # 1.1.1.1.1.1.1.1.1.1.# # # # . +   & *       * >#  * *   * f ] ",
"* h + t      @# # # # # ;#;#;#;#;#!+!+!+!+# # # # # # # # # # # # # # # # # # # # # # # # 1.1.1.1.1.1.1.1.1.1.# # # # o.>+  &#_   ,#  * *       * $ [   ",
">   j@p     '## # # # # ;#;#;#;#;#!+!+!+!+# # # # # # # # # # # # # # # # # # # # # # # # 1.1.1.1.1.1.1.1.1.1.# # # #   Z+i.$ ( - -     >+{     * 4.$   ",
"+#  4.{ [ [ p # # # # # ;#;#;#;#;#!+!+!+!+# # # # # # # # # # # # # # # # # # # # # # # # 1.1.1.1.1.1.1.1.1.1.# # # # *   $ |@U@)#I p * 1+  3.!#  4.~#4.",
"  * |+&#6 i@&## # # # # {#{#{#{#{## # # # F@]#f S+^#2 F@`.%@/#T+7.=+(#_#v.0@&+:#M@F N+<##+# # # # # 1.1.1.1.1.1.1.1.1.# # # # # [#}#s |#1#/+$ 2#p ) c q ",
"3#f $#<@^@e@v.# # # # # {#{#{#{#{## # # # 7 0 F@o 4#+#*#y $+&.5#6#7.7#8#v.7.9#0#` y.++a#T+# # # # # 1.1.1.1.1.1.1.1.1.# # # # # 6.7#b#c#d#q.8 l $.i f a ",
"i.1@9#e#>.V.M@# # # # # {#{#{#{#{## # # # F@/+F@o %@E@1@X 8#W.f#$+Q.g#h#i#B.j#3.1@A@N.T+c+# # # # # 1.1.1.1.1.1.1.1.1.# # # # # k#-.l#u.m#8.N.n#* * *   ",
"j+o#;.>.v.Q.,.# # # # # {#{#{#{#{## # # # -+{ _ p#s.B@N.T@$+P l.H+e+e@q#B@r#s#t#c u#v#J.{ # # # # # 1.1.1.1.1.1.1.1.1.# # # # # w#>.w.w.B.8.7.;.X+l.N.e+",
"p@U.W@x#p@P@y## # # # # {#{#{#{#{## # # # z#A#  &#J+i.+ ^ c+J.m.B#N@C@{ B@  y = j.C#i._ _ # # # # # 1.1.1.1.1.1.1.1.1.# # # # # I@;.D#T.;.&+x@J@J@<+6.=+",
"_.E#>.F#8#<+N+# # # # # # # # # # _   * { G#T H#G#I#{ ^ ^ { J#|@K#$ * (@L#> { y J.^ _ h.X y P y.p@F # # # # # # # # # # # # # # ,.e.J@M#P N#x@Y.$+O+O+P@",
"5.k+X O.H+#+O## # # # # # # # # #   ^ i.$ w $ T w V++     c ] 4.c * * _ P#h.t#) i.{ { / A@k+p@d@Q#f+# # # # # # # # # # # # # # k+Y.N.R#r.S#l.h.H+. Z+N.",
"T#1@U#H+. h.i.# # # # # # # # # #     *     ( $ ) * + V#] ] 3.3.p..#*   * ) (. +, *   W#X#X Y#x@P@x@# # # # # # # # # # # # # # d#1@d#. J.H+1@    Z+{ Z+",
"Z#  +         # # # # # # # # # # b   +   * ) * ] #.9 > ; 9+/.`#G#& * c  $$ q. +$ ^ Z+{ $ 1@Q 1@A@P # # # # # # # # # # # # # # v+^@.$H+  * * ^ +$`+p i.",
"> p *   { ) c # # # # # # # # # # *   *   * )   >   * > ) ] h.v v * *     $ * & @$#$Z+    ^ H+  A@I.# # # # # # # # # # # # # #   ^ Z+    $ E@  i.    : "};
