/* XPM */
static char * enemy_2_u_xpm[] = {
"76 76 467 2",
"  	c #F0D68C",
". 	c #EFD48D",
"+ 	c #F0D58E",
"@ 	c #F2D889",
"# 	c #F1D690",
"$ 	c #F0D68E",
"% 	c #F0D894",
"& 	c #F1D691",
"* 	c #F0D68D",
"= 	c #F0D590",
"- 	c #F1D78E",
"; 	c #F1D78D",
"> 	c #F0D68F",
", 	c #F1D692",
"' 	c #F1D590",
") 	c #F0D58F",
"! 	c #F2D998",
"~ 	c #EFD58C",
"{ 	c #F1D68F",
"] 	c #EFD58B",
"^ 	c #EED48D",
"/ 	c #EED48B",
"( 	c #EDD28C",
"_ 	c #F0D58D",
": 	c #F3D983",
"< 	c #F1D78C",
"[ 	c #F1D68B",
"} 	c #F4D984",
"| 	c #F1D790",
"1 	c #ECD18A",
"2 	c #F3D891",
"3 	c #F3D793",
"4 	c #F2D994",
"5 	c #F2D996",
"6 	c #F2D793",
"7 	c #F1D895",
"8 	c #F0D795",
"9 	c #F0D897",
"0 	c #F4DA8C",
"a 	c #F2D893",
"b 	c #F2DA94",
"c 	c #F2D791",
"d 	c #F1D791",
"e 	c #EDD389",
"f 	c #F0D78F",
"g 	c #F1D794",
"h 	c #F0D68A",
"i 	c #F0D68B",
"j 	c #F1D78B",
"k 	c #F1D68C",
"l 	c #F2D792",
"m 	c #F2D884",
"n 	c #ECD084",
"o 	c #ECD085",
"p 	c #EBCF86",
"q 	c #ECD087",
"r 	c #EDD38C",
"s 	c #F2D995",
"t 	c #000000",
"u 	c #F2D694",
"v 	c #F0D690",
"w 	c #EFD68F",
"x 	c #F2D999",
"y 	c #EFD58D",
"z 	c #F4DB83",
"A 	c #F2D98D",
"B 	c #F3D892",
"C 	c #F3D894",
"D 	c #F1D78F",
"E 	c #EED289",
"F 	c #EDD189",
"G 	c #E8CC81",
"H 	c #EBCF88",
"I 	c #E8CC80",
"J 	c #E7CB80",
"K 	c #E7CA7C",
"L 	c #E7CA7D",
"M 	c #E7CC80",
"N 	c #EED38D",
"O 	c #F0D692",
"P 	c #F3D98B",
"Q 	c #F1D798",
"R 	c #F4DB87",
"S 	c #E8CE7C",
"T 	c #EBCE7C",
"U 	c #E8CD81",
"V 	c #EACE79",
"W 	c #EBCE7F",
"X 	c #E8CB7D",
"Y 	c #E9CE7F",
"Z 	c #EDD590",
"` 	c #F3D997",
" .	c #F3DA91",
"..	c #F2D997",
"+.	c #F1D996",
"@.	c #F2D99B",
"#.	c #F0D791",
"$.	c #EBCF85",
"%.	c #ECD27F",
"&.	c #E8CE7E",
"*.	c #EBD081",
"=.	c #E8CD7F",
"-.	c #ECD08A",
";.	c #EACE84",
">.	c #EED48A",
",.	c #EFD38A",
"'.	c #EDD188",
").	c #F3D994",
"!.	c #F2DA97",
"~.	c #F2D896",
"{.	c #F0D58B",
"].	c #F0D58C",
"^.	c #F0D694",
"/.	c #EED591",
"(.	c #EDD287",
"_.	c #EFD58E",
":.	c #EDD28B",
"<.	c #EAD089",
"[.	c #F2D790",
"}.	c #F3DA8E",
"|.	c #F2D993",
"1.	c #F3D893",
"2.	c #F2D891",
"3.	c #F3D99E",
"4.	c #F3DA97",
"5.	c #F0D48C",
"6.	c #EFD48B",
"7.	c #F2DA93",
"8.	c #EFD48F",
"9.	c #ECD28A",
"0.	c #E9CD82",
"a.	c #E8CD7E",
"b.	c #E6CB7D",
"c.	c #E9CE82",
"d.	c #ECD086",
"e.	c #EFD591",
"f.	c #0069FF",
"g.	c #FFFFFF",
"h.	c #F1D89C",
"i.	c #F3D99B",
"j.	c #F3D99A",
"k.	c #F1D994",
"l.	c #F1D893",
"m.	c #F1D792",
"n.	c #F1D993",
"o.	c #E9CD83",
"p.	c #E6CA7F",
"q.	c #E8CB7E",
"r.	c #EBCE89",
"s.	c #EFD592",
"t.	c #F2D892",
"u.	c #F3DA98",
"v.	c #F2D99A",
"w.	c #F3DA9C",
"x.	c #F3DA99",
"y.	c #EDD187",
"z.	c #E8CD82",
"A.	c #E9CD85",
"B.	c #E8CB7F",
"C.	c #E9CE85",
"D.	c #E5C97D",
"E.	c #EBD187",
"F.	c #EFD590",
"G.	c #F3D794",
"H.	c #F3D998",
"I.	c #F0D895",
"J.	c #F2D990",
"K.	c #F2D88F",
"L.	c #E8CA7F",
"M.	c #E7CB7F",
"N.	c #F0D798",
"O.	c #F0D691",
"P.	c #EFD68E",
"Q.	c #F2D980",
"R.	c #ECD186",
"S.	c #EACF82",
"T.	c #EACF7F",
"U.	c #EACE85",
"V.	c #EACF84",
"W.	c #EED38C",
"X.	c #EDD28F",
"Y.	c #EED389",
"Z.	c #F1DA9B",
"`.	c #EED491",
" +	c #F2D795",
".+	c #F0D792",
"++	c #EFD58F",
"@+	c #F0D693",
"#+	c #EED388",
"$+	c #EED18B",
"%+	c #EBCF87",
"&+	c #EDD27D",
"*+	c #EED48F",
"=+	c #EFD492",
"-+	c #EED391",
";+	c #F1D894",
">+	c #E7CC81",
",+	c #EBD085",
"'+	c #EBD08D",
")+	c #EBD189",
"!+	c #EED488",
"~+	c #F2D895",
"{+	c #F1D896",
"]+	c #F1D886",
"^+	c #EBD18D",
"/+	c #EED38A",
"(+	c #EACE87",
"_+	c #EBD186",
":+	c #E8CE85",
"<+	c #EAD084",
"[+	c #EED28C",
"}+	c #F2D98F",
"|+	c #EFD791",
"1+	c #EBD084",
"2+	c #EACE82",
"3+	c #E9CE80",
"4+	c #EBD086",
"5+	c #ECD389",
"6+	c #EED38B",
"7+	c #EFD48E",
"8+	c #EED390",
"9+	c #EFD38B",
"0+	c #EED489",
"a+	c #F2D78D",
"b+	c #F0D794",
"c+	c #EFD693",
"d+	c #ECD18F",
"e+	c #ECD188",
"f+	c #EACF83",
"g+	c #E9CD81",
"h+	c #EBCF84",
"i+	c #E9CC7F",
"j+	c #F0D688",
"k+	c #F1D88F",
"l+	c #EFD694",
"m+	c #EDD288",
"n+	c #EACE83",
"o+	c #EAD080",
"p+	c #EBCF82",
"q+	c #ECD17B",
"r+	c #EED48C",
"s+	c #ECD288",
"t+	c #EFD491",
"u+	c #E7CB81",
"v+	c #EDD285",
"w+	c #EDD385",
"x+	c #EED692",
"y+	c #EED593",
"z+	c #EED594",
"A+	c #F3DA8F",
"B+	c #F1D897",
"C+	c #F1D997",
"D+	c #EFD28C",
"E+	c #EED590",
"F+	c #F4DB9A",
"G+	c #F3DA95",
"H+	c #F2DA95",
"I+	c #F3DA96",
"J+	c #F3DA9A",
"K+	c #EED58B",
"L+	c #EFD589",
"M+	c #EED58F",
"N+	c #F0D896",
"O+	c #F1D890",
"P+	c #F1D68E",
"Q+	c #F2D78F",
"R+	c #EFD790",
"S+	c #E8CC7E",
"T+	c #EACD83",
"U+	c #E8CB7B",
"V+	c #EACE7B",
"W+	c #EACD7F",
"X+	c #ECD185",
"Y+	c #EDD17F",
"Z+	c #ECD187",
"`+	c #EFD389",
" @	c #F0D58A",
".@	c #ECD088",
"+@	c #EFD48A",
"@@	c #EFD489",
"#@	c #F0D591",
"$@	c #EFD685",
"%@	c #EFD793",
"&@	c #F1D68D",
"*@	c #F1D785",
"=@	c #F1D898",
"-@	c #F3D895",
";@	c #F1D795",
">@	c #F3D996",
",@	c #F2D794",
"'@	c #F2D691",
")@	c #EBD188",
"!@	c #F4D996",
"~@	c #F3DA92",
"{@	c #EBD083",
"]@	c #E9CD7E",
"^@	c #F3DB9B",
"/@	c #F1D98E",
"(@	c #F2D68E",
"_@	c #E9CF84",
":@	c #E9CC83",
"<@	c #E7CC7D",
"[@	c #E9CC82",
"}@	c #F2D88E",
"|@	c #F1D986",
"1@	c #F0D789",
"2@	c #EBCD7F",
"3@	c #E9CE78",
"4@	c #EAD076",
"5@	c #EBD077",
"6@	c #F0D793",
"7@	c #E9CC7E",
"8@	c #E7CB7D",
"9@	c #EFD692",
"0@	c #E8CC7D",
"a@	c #E7CB7E",
"b@	c #EACF77",
"c@	c #E9CB7D",
"d@	c #EACF8D",
"e@	c #EFD386",
"f@	c #EFD384",
"g@	c #EDD490",
"h@	c #EBCE86",
"i@	c #E9CD80",
"j@	c #EACF80",
"k@	c #E8CC7F",
"l@	c #E6CB79",
"m@	c #EACF81",
"n@	c #E9CF86",
"o@	c #EBD088",
"p@	c #EACE7F",
"q@	c #EBCF7F",
"r@	c #EBD08B",
"s@	c #EED393",
"t@	c #E9CE7C",
"u@	c #EED286",
"v@	c #EFD480",
"w@	c #EED287",
"x@	c #EED28A",
"y@	c #EDD486",
"z@	c #F0D491",
"A@	c #F1D888",
"B@	c #F1D784",
"C@	c #F1D58E",
"D@	c #F0D995",
"E@	c #F0D687",
"F@	c #F1D688",
"G@	c #EFD48C",
"H@	c #F3D993",
"I@	c #EDD392",
"J@	c #F0D78D",
"K@	c #F3D995",
"L@	c #F0D790",
"M@	c #F1D789",
"N@	c #F1D693",
"O@	c #EDD38B",
"P@	c #F3D991",
"Q@	c #F1D694",
"R@	c #F2DA96",
"S@	c #EFD490",
"T@	c #F3D898",
"U@	c #F1D786",
"V@	c #F0D48B",
"W@	c #F3D98D",
"X@	c #E9CD7D",
"Y@	c #E9CE81",
"Z@	c #EBD17E",
"`@	c #EBCF80",
" #	c #F1D88C",
".#	c #EBCE84",
"+#	c #E9CC80",
"@#	c #F1D595",
"##	c #E8CC83",
"$#	c #EED288",
"%#	c #EED188",
"&#	c #EAD288",
"*#	c #F0D898",
"=#	c #EBD08C",
"-#	c #F1D793",
";#	c #F0D891",
">#	c #F1D592",
",#	c #E8CD80",
"'#	c #F4DB9D",
")#	c #E6CB7C",
"!#	c #F1DA94",
"~#	c #004AB8",
"{#	c #FFFFFE",
"]#	c #E6CA7E",
"^#	c #EDD289",
"/#	c #F2D898",
"(#	c #F2D894",
"_#	c #EACF85",
":#	c #EDD28A",
"<#	c #ECCF84",
"[#	c #EACE81",
"}#	c #EACF86",
"|#	c #E8CD84",
"1#	c #E9CC81",
"2#	c #E6CA7D",
"3#	c #E6CB7B",
"4#	c #EED48E",
"5#	c #ECD08B",
"6#	c #E9CE83",
"7#	c #EED38E",
"8#	c #EBCE88",
"9#	c #EDD089",
"0#	c #EFD58A",
"a#	c #F1D797",
"b#	c #0469FF",
"c#	c #0668FE",
"d#	c #EED68B",
"e#	c #F2DA80",
"f#	c #F3DA9B",
"g#	c #EFD68A",
"h#	c #EFD691",
"i#	c #F4D997",
"j#	c #ECCF87",
"k#	c #E9CC7C",
"l#	c #E7CB7C",
"m#	c #E9CF81",
"n#	c #E8CC7C",
"o#	c #EED386",
"p#	c #EBCF83",
"q#	c #EBCF7B",
"r#	c #ECD081",
"s#	c #ECD184",
"t#	c #E9CB7F",
"u#	c #E4C87E",
"v#	c #EACD81",
"w#	c #E6C97C",
"x#	c #EBD087",
"y#	c #F3D884",
"z#	c #EFD68D",
"A#	c #EACD82",
"B#	c #E7CC7E",
"C#	c #E9CE7E",
"D#	c #EBCE85",
"E#	c #EACF8A",
"F#	c #E8CB80",
"G#	c #E9CD7F",
"H#	c #EACE7E",
"I#	c #E5C97F",
"J#	c #EFD385",
"K#	c #F0D695",
"L#	c #F2D88B",
"M#	c #E8CC82",
"N#	c #E8CA7C",
"O#	c #EFD387",
"P#	c #EDD186",
"Q#	c #F0D588",
"R#	c #E7CC7F",
"S#	c #EACF87",
"T#	c #EACE8C",
"U#	c #EBD089",
"V#	c #F0D485",
"W#	c #F0D587",
"X#	c #F1D68A",
"Y#	c #F2D789",
"Z#	c #EACE80",
"`#	c #EFD493",
" $	c #EED495",
".$	c #EFD68C",
"+$	c #F0D689",
"@$	c #EED58D",
"#$	c #F0D684",
"$$	c #ECD287",
"%$	c #ECD189",
"  . +       @   #           +         + $ % & * = - ; >   , ' #   ) ) - * $   ! # ~ + { ] * $ ] $ ^ / ] ( ] _ : * & $   ; ) # ; ] < ) _ [ } * * * $ * * ",
"| 1 | | 2 3 4 5 6 6 7 6 | | # +   +     8 9 0 a 5 b ! c {             _   > # 7 | d -     & & ] ]   * d e ~ =   f g ,     ] _ *     h i + + j k     * + ",
"b 5 b l m + e n o p q r 7 s t t t t t t t t t t t t t t t t t t t t t t t t t t t t t t t t t t t t t t t t t t t t t t t t + + u _ _ v w x + y z A B C ",
"6 D   + E F G H I J K L M N t t t t t t t t t t t t t t t t t t t t t t t t t t t t t t t t t t t t t t t t t t t t t t t t D   O P | Q 7 R 4 5 5 5 5 5 ",
"+ E n S T U V W X X L U Y Y t t t t t t t t t t t t t t t t t t t t t t t t t t t t t t t t t t t t t t t t t t t t t t t t s Z `  .5 5 ! ..! +.@.a g #.",
"$.%.&.M *.=.-.p ;.*.>.,.'.,.t t t t t t t t t t t t t t t t t t t t t t t t t t t t t t t t t t t t t t t t t t t t t t t t )...!.!.~.& & & ) {.].^./.(.",
"] _.] ,.. . :.<.[.}.|.1.1.2.t t t t t t t t t t t t t t t t t t t t t t t t t t t t t t t t t t t t t t t t t t t t t t t t x s ..3.4.5 | { ) ) * # 5.6.",
"| | C 2 1.7.8.9.0.a.b.c.d.e.t t t t t f.f.f.f.f.f.f.f.f.g.g.g.g.g.g.g.g.g.g.g.g.g.g.g.g.g.g.g.f.f.f.f.f.f.f.f.f.f.t t t t t h...! i...! !.j.! k.a l.8 m.",
"5 5 n.. o.X U L p.L q.K r.X t t t t t f.f.f.f.f.f.f.f.f.g.g.g.g.g.g.g.g.g.g.g.g.g.g.g.g.g.g.g.f.f.f.f.f.f.f.f.f.f.t t t t t s.t...u.! ..v.5 w.b ! j.x.4.",
"y y.z.X q.A.X G K M B.K C.D.t t t t t f.f.f.f.f.f.f.f.f.g.g.g.g.g.g.g.g.g.g.g.g.g.g.g.g.g.g.g.f.f.f.f.f.f.f.f.f.f.t t t t t # E.+ _ F.g c G.H.I.J.K.c G.",
"0.X I K 0.L.K K K X q.M.M.q.t t t t t f.f.f.f.f.f.f.f.f.g.g.g.g.g.g.g.g.g.g.g.g.g.g.g.g.g.g.g.f.f.f.f.f.f.f.f.f.f.t t t t t 6 ) N.$ g ^.O.P.  Q.= R.p S.",
"U U K X T.X q.q.L U.V.W.X.Y.t t t t t f.f.f.f.f.f.f.f.f.g.g.g.g.g.g.g.g.g.g.g.g.g.g.g.g.g.g.g.f.f.f.f.f.f.f.f.f.f.t t t t t Z.`. +.+++@+_ & ] #+$+o %+&+",
"t t t t t t t t t *+=+e -+* .+r ;+l.1.t t t t t t t t t t t t t t t t t t t t t t t t t t t t t t t t t t t t t t >+,+'+)+!+~+{+{+]+t t t t t t t t t t ",
"t t t t t t t t t $ + > ^+~.l { _ /+'.t t t t t t t t t t t t t t t t t t t t t t t t t t t t t t t t t t t t t t p.(+_+:+r <+[+}+5 t t t t t t t t t t ",
"t t t t t t t t t {+..s |+i y.1+2+$.3+t t t t t t t t t t t t t t t t t t t t t t t t t t t t t t t t t t t t t t 4+,+5+6+7+8+9+0+a+t t t t t t t t t t ",
"t t t t t t t t t b+c+d+9.e+f+g+h+2+i+t t t t t t t t t t t t t t t t t t t t t t t t t t t t t t t t t t t t t t >.e #+j+k+/   l+- t t t t t t t t t t ",
"t t t t t t t t t G 4+q m+n+o+n+p+q+o.t t t t t t t t t t t t t t t t t t t t t t t t t t t t t t t t t t t t t t > [.^ ) c # * r+s+t t t t t t t t t t ",
"t t t t t f.f.f.f.t t t t t t+u+,+p+m+m+v+w+:.R.t t t t f.f.f.f.f.g.g.g.g.g.g.g.g.g.g.f.f.f.f.t t t t t x+y+z+A+B+n.C+4 A+..t t t t f.f.f.f.f.t t t t t ",
"t t t t t f.f.f.f.t t t t t + m+D+E+# > @+/ ) E.t t t t f.f.f.f.f.g.g.g.g.g.g.g.g.g.g.f.f.f.f.t t t t t t.F+G+H+H+I+J+..n.K+t t t t f.f.f.f.f.t t t t t ",
"t t t t t f.f.f.f.t t t t t L+i v M+. N++ * * + t t t t f.f.f.f.f.g.g.g.g.g.g.g.g.g.g.f.f.f.f.t t t t t   & { { 9.O+m.P.  v t t t t f.f.f.f.f.t t t t t ",
"t t t t t f.f.f.f.t t t t t   { ) $ E.P+*     _ t t t t f.f.f.f.f.g.g.g.g.g.g.g.g.g.g.f.f.f.f.t t t t t   * Q+* 1 w R+$ *   t t t t f.f.f.f.f.t t t t t ",
"t t t t t f.f.f.f.f.f.f.f.f.t t t t t t t t t t t t t t f.f.f.f.f.f.f.f.f.f.f.f.f.f.f.f.f.f.f.t t t t t t t t t t t t t t t f.f.f.f.f.f.f.f.f.t t t t t ",
"t t t t t f.f.f.f.f.f.f.f.f.t t t t t t t t t t t t t t f.f.f.f.f.f.f.f.f.f.f.f.f.f.f.f.f.f.f.t t t t t t t t t t t t t t t f.f.f.f.f.f.f.f.f.t t t t t ",
"t t t t t f.f.f.f.f.f.f.f.f.t t t t t t t t t t t t t t f.f.f.f.f.f.f.f.f.f.f.f.f.f.f.f.f.f.f.t t t t t t t t t t t t t t t f.f.f.f.f.f.f.f.f.t t t t t ",
"t t t t t f.f.f.f.f.f.f.f.f.t t t t t t t t t t t t t t f.f.f.f.f.f.f.f.f.f.f.f.f.f.f.f.f.f.f.t t t t t t t t t t t t t t t f.f.f.f.f.f.f.f.f.t t t t t ",
"t t t t t f.f.f.f.f.f.f.f.f.t t t t t t t t t t t t t t f.f.f.f.f.f.f.f.f.f.f.f.f.f.f.f.f.f.f.t t t t t t t t t t t t t t t f.f.f.f.f.f.f.f.f.t t t t t ",
"M I I i+S+t t t t f.f.f.f.f.t t t t t f.f.f.f.f.g.g.g.g.g.g.g.g.g.g.g.g.g.g.g.g.g.g.g.g.g.g.g.g.g.g.g.g.f.f.f.f.f.t t t t t f.f.f.f.t t t t t T+I U+V+W+",
"X+o 6.y.d.t t t t f.f.f.f.f.t t t t t f.f.f.f.f.g.g.g.g.g.g.g.g.g.g.g.g.g.g.g.g.g.g.g.g.g.g.g.g.g.g.g.g.f.f.f.f.f.t t t t t f.f.f.f.t t t t t 4+U.Y+(.Z+",
"`+ @_ .@  t t t t f.f.f.f.f.t t t t t f.f.f.f.f.g.g.g.g.g.g.g.g.g.g.g.g.g.g.g.g.g.g.g.g.g.g.g.g.g.g.g.g.f.f.f.f.f.t t t t t f.f.f.f.t t t t t +@E @@+ +@",
"      #@$ t t t t f.f.f.f.f.t t t t t f.f.f.f.f.g.g.g.g.g.g.g.g.g.g.g.g.g.g.g.g.g.g.g.g.g.g.g.g.g.g.g.g.f.f.f.f.f.t t t t t f.f.f.f.t t t t t $@h ] ].].",
"O.  v %@| t t t t f.f.f.f.f.t t t t t f.f.f.f.f.g.g.g.g.g.g.g.g.g.g.g.g.g.g.g.g.g.g.g.g.g.g.g.g.g.g.g.g.f.f.f.f.f.t t t t t f.f.f.f.t t t t t ].  _ &@*@",
"=@-@x u.x ;@5 >@` t t t t t t t t t t f.f.f.f.f.g.g.g.g.t t t t t g.g.g.g.g.g.g.g.g.g.t t t t g.g.g.g.g.f.f.f.f.f.t t t t t t t t t $ < *   * k.y $ # ,@",
"5 ~+;+l.c '@P++ $ t t t t t t t t t t f.f.f.f.f.g.g.g.g.t t t t t g.g.g.g.g.g.g.g.g.g.t t t t g.g.g.g.g.f.f.f.f.f.t t t t t t t t t )@[.l }+2 !@~@@.w...",
"$ # , ].0+o {@H ]@t t t t t t t t t t f.f.f.f.f.g.g.g.g.t t t t t g.g.g.g.g.g.g.g.g.g.t t t t g.g.g.g.g.f.f.f.f.f.t t t t t t t t t ` 5 >@^@s ! ~+/@=@* ",
"(@(._@:@<@J K [@K t t t t t t t t t t f.f.f.f.f.g.g.g.g.t t t t t g.g.g.g.g.g.g.g.g.g.t t t t g.g.g.g.g.f.f.f.f.f.t t t t t t t t t }@, # ) j * v |@* 1@",
"2@L.3@K U 4@X L 5@t t t t t t t t t t f.f.f.f.f.g.g.g.g.t t t t t g.g.g.g.g.g.g.g.g.g.t t t t g.g.g.g.g.f.f.f.f.f.t t t t t t t t t $ < P+& $ d 6@+@X+4+",
"X K 7@8@K X K U.L t t t t t f.f.f.f.f.g.g.g.g.g.t t t t t t t t t g.g.g.g.g.g.g.g.g.g.t t t t t t t t t g.g.g.g.g.f.f.f.f.f.t t t t r+9@/ Z+E X+0@g+B.a@",
"b@S+X G K c@X d@K t t t t t f.f.f.f.f.g.g.g.g.g.t t t t t t t t t g.g.g.g.g.g.g.g.g.g.t t t t t t t t t g.g.g.g.g.f.f.f.f.f.t t t t e@f@g@h@(+i@j@k@l@X ",
"X g+M k@m@n@o@p@q@t t t t t f.f.f.f.f.g.g.g.g.g.t t t t t t t t t g.g.g.g.g.g.g.g.g.g.t t t t t t t t t g.g.g.g.g.f.f.f.f.f.t t t t ,.r@s@,+F f+o t@7@q.",
"e@6+u@v@#+W.w@/+x@t t t t t f.f.f.f.f.g.g.g.g.g.t t t t t t t t t g.g.g.g.g.g.g.g.g.g.t t t t t t t t t g.g.g.g.g.f.f.f.f.f.t t t t i 6+( 7+y@'.z@r 4+,+",
"A@>.B@C@D@>._ e   t t t t t f.f.f.f.f.g.g.g.g.g.t t t t g.g.g.g.g.g.g.g.g.g.g.g.g.g.g.g.g.g.g.t t t t t g.g.g.g.g.f.f.f.f.f.t t t t E@F@~ & . / G@>.*   ",
"H@l.d @ I@J@- t.K@t t t t t f.f.f.f.f.g.g.g.g.g.t t t t g.g.g.g.g.g.g.g.g.g.g.g.g.g.g.g.g.g.g.t t t t t g.g.g.g.g.f.f.f.f.f.t t t t , L@M@N@$ O@& d P@Q@",
";+5 ! 7.R@x.H+S@~.t t t t t f.f.f.f.f.g.g.g.g.g.t t t t g.g.g.g.g.g.g.g.g.g.g.g.g.g.g.g.g.g.g.t t t t t g.g.g.g.g.f.f.f.f.f.t t t t T@..>@! 5 |.| ( l m.",
"U@6.O w ..x.5 ~@V@t t t t t f.f.f.f.f.g.g.g.g.g.t t t t g.g.g.g.g.g.g.g.g.g.g.g.g.g.g.g.g.g.g.t t t t t g.g.g.g.g.f.f.f.f.f.t t t t s ` >@0 W@$ P+      ",
"X@;.Y@0.I I i+Z@`@t t t t t f.f.f.f.f.g.g.g.g.g.t t t t g.g.g.g.g.g.g.g.g.g.g.g.g.g.g.g.g.g.g.t t t t t g.g.g.g.g.f.f.f.f.f.t t t t  #D P+~ {.  6..@'..#",
"S.$.3+h+U +#B.3+h+t t t t t f.f.f.f.f.g.g.g.g.g.g.g.g.g.f.f.f.f.f.f.f.f.f.f.f.f.f.f.f.f.f.f.f.g.g.g.g.g.g.g.g.g.g.f.f.f.f.f.t t t t O+9@7+~ @#  Y.y.y.p ",
"##Z+$#X+,+Z+%#&#F t t t t t f.f.f.f.f.g.g.g.g.g.g.g.g.g.f.f.f.f.f.f.f.f.f.f.f.f.f.f.f.f.f.f.f.g.g.g.g.g.g.g.g.g.g.f.f.f.f.f.t t t t ;+N+$ v >   {.Y.m+/+",
"++G@*#~ =#_ m.] ~ t t t t t f.f.f.f.f.g.g.g.g.g.g.g.g.g.f.f.f.f.f.f.f.f.f.f.f.f.f.f.f.f.f.f.f.g.g.g.g.g.g.g.g.g.g.f.f.f.f.f.t t t t 8.-#l   *     ;#G@y ",
"* >#_ $ v J@| k+7 t t t t t f.f.f.f.f.g.g.g.g.g.g.g.g.g.f.f.f.f.f.f.f.f.f.f.f.f.f.f.f.f.f.f.f.g.g.g.g.g.g.g.g.g.g.f.f.f.f.f.t t t t I ,#q G.t.{ $ g ) N@",
"-#l ~+5 ! ! '#|+b t t t t t f.f.f.f.f.g.g.g.g.g.g.g.g.g.f.f.f.f.f.f.f.f.f.f.f.f.f.f.f.f.f.f.f.g.g.g.g.g.g.g.g.g.g.f.f.f.f.f.t t t t $.a@)#Y@, s.K@d f ^.",
"s 5 4.5 5 5 b k.!#t t t t t ~#~#~#~#~#f.f.f.f.f.f.f.f.f.f.f.f.f.f.g.g.g.g.g.{#{#{#{#{#f.f.f.f.f.f.f.f.f.f.f.f.f.f.~#~#~#~#~#t t t t h+]#k@$.^#t./#H.I+>@",
"(#~+4.K@;+O *+V._#t t t t t ~#~#~#~#~#f.f.f.f.f.f.f.f.f.f.f.f.f.f.g.g.g.g.g.{#{#{#{#{#f.f.f.f.f.f.f.f.f.f.f.f.f.f.~#~#~#~#~#t t t t :#<##+q Y.6.{ # P+[.",
"[#}#B.|#X S+1#2#3#t t t t t ~#~#~#~#~#f.f.f.f.f.f.f.f.f.f.f.f.f.f.g.g.g.g.g.{#{#{#{#{#f.f.f.f.f.f.f.f.f.f.f.f.f.f.~#~#~#~#~#t t t t E e 6@/+_ @.4#Y.:.f@",
"5#i@a.M.q.q.]@6#<@t t t t t ~#~#~#~#~#f.f.f.f.f.f.f.f.f.f.f.f.f.f.g.g.g.g.g.{#{#{#{#{#f.f.f.f.f.f.f.f.f.f.f.f.f.f.~#~#~#~#~#t t t t >._ $ * y m+y.7#$.+#",
",+0.=.+#^+i@V.n 8#t t t t t ~#~#~#~#~#f.f.f.f.f.f.f.f.f.f.f.f.f.f.g.g.g.g.g.{#{#{#{#{#f.f.f.f.f.f.f.f.f.f.f.f.f.f.~#~#~#~#~#t t t t ~ _ _ * $ _ m+1+,+n+",
"y.9#4+X+V@t t t t ~#~#~#~#~#t t t t t f.f.f.f.f.f.f.f.f.g.g.g.g.g.g.g.g.g.g.g.g.g.g.g.g.g.g.g.f.f.f.f.f.f.f.f.f.f.t t t t t ~#~#~#~#t t t t t * {.Y.Y.x@",
". +@] v > t t t t ~#~#~#~#~#t t t t t f.f.f.f.f.f.f.f.f.g.g.g.g.g.g.g.g.g.g.g.g.g.g.g.g.g.g.g.f.f.f.f.f.f.f.f.f.f.t t t t t ~#~#~#~#t t t t t _ 0#] ] 0+",
"    * ~.&@t t t t ~#~#~#~#~#t t t t t f.f.f.f.f.f.f.f.f.g.g.g.g.g.g.g.g.g.g.g.g.g.g.g.g.g.g.g.f.f.f.f.f.f.f.f.f.f.t t t t t ~#~#~#~#t t t t t a#= _     ",
"  * * > *@t t t t ~#~#~#~#~#t t t t t f.f.f.f.f.f.f.f.f.g.g.g.g.g.g.g.g.g.g.g.g.g.g.g.g.g.g.g.f.f.f.f.f.f.f.f.f.f.t t t t t ~#~#~#~#t t t t t $ #   + i ",
"t t t t t f.f.f.f.f.f.f.f.f.t t t t t f.f.f.f.f.f.f.f.f.f.f.f.f.f.g.g.g.g.g.g.g.g.g.g.f.f.f.f.f.f.f.f.f.f.f.f.f.f.t t t t t b#b#b#b#c#c#c#c#c#t t t t t ",
"t t t t t f.f.f.f.f.f.f.f.f.t t t t t f.f.f.f.f.f.f.f.f.f.f.f.f.f.g.g.g.g.g.g.g.g.g.g.f.f.f.f.f.f.f.f.f.f.f.f.f.f.t t t t t b#b#b#b#c#c#c#c#c#t t t t t ",
"t t t t t f.f.f.f.f.f.f.f.f.t t t t t f.f.f.f.f.f.f.f.f.f.f.f.f.f.g.g.g.g.g.g.g.g.g.g.f.f.f.f.f.f.f.f.f.f.f.f.f.f.t t t t t b#b#b#b#c#c#c#c#c#t t t t t ",
"t t t t t f.f.f.f.f.f.f.f.f.t t t t t f.f.f.f.f.f.f.f.f.f.f.f.f.f.g.g.g.g.g.g.g.g.g.g.f.f.f.f.f.f.f.f.f.f.f.f.f.f.t t t t t b#b#b#b#c#c#c#c#c#t t t t t ",
"t t t t t f.f.f.f.f.f.f.f.f.t t t t t f.f.f.f.f.f.f.f.f.f.f.f.f.f.g.g.g.g.g.g.g.g.g.g.f.f.f.f.f.f.f.f.f.f.f.f.f.f.t t t t t b#b#b#b#c#c#c#c#c#t t t t t ",
"t t t t t t t t t t t t t t y d#  ] 4+t t t t t f.f.f.f.f.f.f.f.f.f.f.f.f.f.f.f.f.f.f.f.f.f.f.f.f.f.f.f.t t t t t {     >.].t t t t t t t t t t t t t t ",
"t t t t t t t t t t t t t t >@).|.-#| t t t t t f.f.f.f.f.f.f.f.f.f.f.f.f.f.f.f.f.f.f.f.f.f.f.f.f.f.f.f.t t t t t e#* *   $ t t t t t t t t t t t t t t ",
"t t t t t t t t t t t t t t 5 b H+x.f#t t t t t f.f.f.f.f.f.f.f.f.f.f.f.f.f.f.f.f.f.f.f.f.f.f.f.f.f.f.f.t t t t t | t.t.d ( t t t t t t t t t t t t t t ",
"t t t t t t t t t t t t t t y.g#h#R@i#t t t t t f.f.f.f.f.f.f.f.f.f.f.f.f.f.f.f.f.f.f.f.f.f.f.f.f.f.f.f.t t t t t /+j#i@3+i@t t t t t t t t t t t t t t ",
"t t t t t t t t t t t t t t q.k#X Y@o@t t t t t f.f.f.f.f.f.f.f.f.f.f.f.f.f.f.f.f.f.f.f.f.f.f.f.f.f.f.f.t t t t t a@l#B.q.m#t t t t t t t t t t t t t t ",
"Y n#8@B.X a.K X <@g+X K X 8@K S+2+Y@y.o#  e+~ _ t t t t t t t t t t t t t t t t t t t t t t t t t t t t ,+e+g+7@q@p#S+,#H R.[#q#r#B.M.M.I q.S+8@s#(.R.o ",
"g+t#0@u#g+V.v#S+i@X w#v#i@f+x#E y.x@+@] ~ y#z#  t t t t t t t t t t t t t t t t t t t t t t t t t t t t ,#A#0.0.o.0.B#C#0@i+D#I 1#8@E#F#8@G#;.i@i@0.n+H ",
"$.H#B.I#c.0.4+p+V.v#o J#o#Y.$#`+!+_   * ~ K#O L#t t t t t t t t t t t t t t t t t t t t t t t t t t t t i@K M#M#o G I F#X K N#F#K +#i@T+q O#;.y.h+,+,+V.",
"$#d.n P#+@'.N 6.(.Y.+@~ ].. Y.Q#    ] ].$ w $ O t t t t t t t t t t t t t t t t t t t t t t t t t t t t ]@8@.#R#k@S#T#l#q.N#U#4#d.y.R.x#9@V#(.{.+@. >.R.",
"W#Y.X#+@. {.].G@* h     L@* Y#        *     < $ t t t t t t t t t t t t t t t t t t t t t t t t t t t t %+3+Z#G#i@n y.V.h+`#/+ $O@Y.O@. 6.+@Y.    >.~ >.",
"E@  +                       .$  + h   +   * # * { [.c > ;  +g ;@K#& * i +$$ ;+m.$ ] >.~ $ Y.x@Y.m+q (.4+1+(.].m+'.d.. Y.w@^#{.++@$K+#$+@  * * ] $$j+D ].",
"> D *   ~ # i     i c             *   *   * #   >   * > # { {.v v * *     $ * & 7#%$>.    ] +@  m+5.Y.{.6.6.] +@Y.] ~ + {.  * *   ] >.    $ f   ].    [ "};
