/* XPM */
static char * enemy_3_r_xpm[] = {
"76 76 464 2",
"  	c #F0D68C",
". 	c #EFD48D",
"+ 	c #F0D58E",
"@ 	c #F2D889",
"# 	c #000000",
"$ 	c #F0D68E",
"% 	c #F0D894",
"& 	c #F1D691",
"* 	c #F0D68D",
"= 	c #F0D590",
"- 	c #F1D78E",
"; 	c #F1D78D",
"> 	c #F0D68F",
", 	c #F1D692",
"' 	c #F1D590",
") 	c #F1D690",
"! 	c #F0D58F",
"~ 	c #F2D998",
"{ 	c #EFD58C",
"] 	c #F1D68F",
"^ 	c #EFD58B",
"/ 	c #EED48D",
"( 	c #F1D78C",
"_ 	c #F0D58D",
": 	c #F1D68B",
"< 	c #F4D984",
"[ 	c #F1D790",
"} 	c #ECD18A",
"| 	c #F3D891",
"1 	c #F3D793",
"2 	c #F2D994",
"3 	c #F0D795",
"4 	c #F0D897",
"5 	c #F4DA8C",
"6 	c #F2D893",
"7 	c #F2D996",
"8 	c #F2DA94",
"9 	c #F2D791",
"0 	c #F1D895",
"a 	c #F1D791",
"b 	c #F0D68A",
"c 	c #F0D68B",
"d 	c #F1D78B",
"e 	c #F1D68C",
"f 	c #F2D792",
"g 	c #F2D884",
"h 	c #EDD389",
"i 	c #F3D894",
"j 	c #F2DA95",
"k 	c #F4DB9D",
"l 	c #F3DA99",
"m 	c #F2D997",
"n 	c #F3D99C",
"o 	c #F2D995",
"p 	c #F1D78F",
"q 	c #F2D894",
"r 	c #F3DA98",
"s 	c #F2D895",
"t 	c #F2D887",
"u 	c #F2D694",
"v 	c #F0D690",
"w 	c #EFD68F",
"x 	c #F2D999",
"y 	c #EFD58D",
"z 	c #F4DB83",
"A 	c #F2D98D",
"B 	c #F3D892",
"C 	c #F2D793",
"D 	c #EED289",
"E 	c #EDD189",
"F 	c #E8CC81",
"G 	c #F3DA9B",
"H 	c #F3D99B",
"I 	c #F2D892",
"J 	c #F0D893",
"K 	c #F1D893",
"L 	c #F4DC9D",
"M 	c #ECD28C",
"N 	c #E9CF92",
"O 	c #ECD18C",
"P 	c #ECD087",
"Q 	c #EED28A",
"R 	c #F4DB93",
"S 	c #F3D99A",
"T 	c #F0D692",
"U 	c #F3D98B",
"V 	c #F1D798",
"W 	c #F4DB87",
"X 	c #ECD084",
"Y 	c #E8CE7C",
"Z 	c #EBCE7C",
"` 	c #E8CD81",
" .	c #EACE79",
"..	c #F4D993",
"+.	c #F2D99B",
"@.	c #F0D99F",
"#.	c #F2D790",
"$.	c #F3D893",
"%.	c #EDD185",
"&.	c #E8CD7F",
"*.	c #E9CC7B",
"=.	c #E7CA7B",
"-.	c #E7CB7E",
";.	c #E7CB7D",
">.	c #E8CB7F",
",.	c #E7CA7C",
"'.	c #E9CC7F",
").	c #F0D38F",
"!.	c #F1D592",
"~.	c #F0D796",
"{.	c #F3D997",
"].	c #F3DA91",
"^.	c #F1D996",
"/.	c #F1D794",
"(.	c #F0D791",
"_.	c #EBCF85",
":.	c #ECD27F",
"<.	c #E8CE7E",
"[.	c #E7CC80",
"}.	c #EBD081",
"|.	c #ECD08A",
"1.	c #FFFF38",
"2.	c #EFD795",
"3.	c #F1D68D",
"4.	c #F1D68E",
"5.	c #EED288",
"6.	c #EACE83",
"7.	c #E8CC7E",
"8.	c #E8CB7E",
"9.	c #E8CC7A",
"0.	c #E9CD7A",
"a.	c #EACC80",
"b.	c #E9CC82",
"c.	c #E8CD84",
"d.	c #E6C97A",
"e.	c #E9CC80",
"f.	c #F2DA97",
"g.	c #F2D896",
"h.	c #F0D58B",
"i.	c #F0D58C",
"j.	c #F0D694",
"k.	c #EED591",
"l.	c #EDD287",
"m.	c #EFD58E",
"n.	c #EFD38A",
"o.	c #EDD28B",
"p.	c #F0D78E",
"q.	c #F1D894",
"r.	c #EFD692",
"s.	c #EED48C",
"t.	c #ECD389",
"u.	c #E8CC7F",
"v.	c #E8CB7D",
"w.	c #E7CB7F",
"x.	c #EACD84",
"y.	c #E7CB80",
"z.	c #E8CC79",
"A.	c #E8CD82",
"B.	c #E8CC80",
"C.	c #E8CA7C",
"D.	c #E9CE86",
"E.	c #E9CE85",
"F.	c #E9CD87",
"G.	c #F3D99E",
"H.	c #F3DA97",
"I.	c #F0D48C",
"J.	c #EFD48B",
"K.	c #F2DA93",
"L.	c #EFD48F",
"M.	c #F1D77E",
"N.	c #ECD186",
"O.	c #EDD186",
"P.	c #EDD390",
"Q.	c #E8CD7E",
"R.	c #E7CA7D",
"S.	c #E9CD7C",
"T.	c #E8CB80",
"U.	c #E9CB7F",
"V.	c #EACE82",
"W.	c #EACF82",
"X.	c #EBCF86",
"Y.	c #EDD187",
"Z.	c #ECD38F",
"`.	c #F1D994",
" +	c #F1D792",
".+	c #F1D993",
"++	c #E9CD83",
"@+	c #EDD58F",
"#+	c #EDD188",
"$+	c #EBCF84",
"%+	c #EAD085",
"&+	c #E9CD7F",
"*+	c #E8CD85",
"=+	c #EBCF88",
"-+	c #ECD188",
";+	c #EED38C",
">+	c #EED48B",
",+	c #F2D99A",
"'+	c #F3DA9C",
")+	c #E9CD85",
"!+	c #B8B826",
"~+	c #F0D794",
"{+	c #EBD187",
"]+	c #EFD590",
"^+	c #F3D794",
"/+	c #F3D998",
"(+	c #F0D895",
"_+	c #F2D990",
":+	c #F2D88F",
"<+	c #E9CD82",
"[+	c #E8CA7F",
"}+	c #F0D798",
"|+	c #F0D691",
"1+	c #EFD68E",
"2+	c #F2D980",
"3+	c #EACF7F",
"4+	c #ECD28F",
"5+	c #F0D797",
"6+	c #F1D998",
"7+	c #F1DA9B",
"8+	c #EED491",
"9+	c #F2D795",
"0+	c #F0D792",
"a+	c #EFD58F",
"b+	c #F0D693",
"c+	c #EED388",
"d+	c #EED18B",
"e+	c #ECD085",
"f+	c #EBCF87",
"g+	c #EDD27D",
"h+	c #EACF81",
"i+	c #E9CE80",
"j+	c #E9CE7F",
"k+	c #ECD086",
"l+	c #EBD08D",
"m+	c #EBD189",
"n+	c #EED488",
"o+	c #F1D896",
"p+	c #F1D886",
"q+	c #F2D99C",
"r+	c #F2D897",
"s+	c #F2D796",
"t+	c #F0D892",
"u+	c #F2DAA0",
"v+	c #EED58D",
"w+	c #EBD186",
"x+	c #E8CE85",
"y+	c #EDD38C",
"z+	c #EAD084",
"A+	c #EED28C",
"B+	c #F2D98F",
"C+	c #F0D79B",
"D+	c #F6DC87",
"E+	c #F3DB93",
"F+	c #F3DB9F",
"G+	c #F1D892",
"H+	c #EFD48A",
"I+	c #F1D581",
"J+	c #EFD38B",
"K+	c #F1D997",
"L+	c #EDD48B",
"M+	c #ECD284",
"N+	c #EBD086",
"O+	c #EBD085",
"P+	c #EED38B",
"Q+	c #EFD48E",
"R+	c #EED390",
"S+	c #EED48F",
"T+	c #EACF85",
"U+	c #F1D693",
"V+	c #EFD693",
"W+	c #ECD18F",
"X+	c #ECD184",
"Y+	c #EED28B",
"Z+	c #EED48A",
"`+	c #F0D688",
" @	c #F1D88F",
".@	c #F3DA93",
"+@	c #F2D898",
"@@	c #E8CF89",
"#@	c #F1D694",
"$@	c #F1D899",
"%@	c #F2D993",
"&@	c #EED592",
"*@	c #F1D688",
"=@	c #EAD086",
"-@	c #EFD389",
";@	c #EDD388",
">@	c #F3DA8F",
",@	c #F1D897",
"'@	c #F3D999",
")@	c #F2D981",
"!@	c #ECD288",
"~@	c #F1D788",
"{@	c #F3DA96",
"]@	c #F3DA9A",
"^@	c #EED58B",
"/@	c #F2D78B",
"(@	c #F2D78C",
"_@	c #FFFFFF",
":@	c #ECD28A",
"<@	c #F1D890",
"[@	c #F2D98B",
"}@	c #EFD790",
"|@	c #F2D78F",
"1@	c #EED389",
"2@	c #EDD084",
"3@	c #E8CD80",
"4@	c #F3DA95",
"5@	c #E9CE79",
"6@	c #E8CB82",
"7@	c #E8CC78",
"8@	c #E9CC7E",
"9@	c #E9CC83",
"0@	c #FEFE39",
"a@	c #E7CB7C",
"b@	c #EACE85",
"c@	c #EACE7B",
"d@	c #EACD7F",
"e@	c #ECD185",
"f@	c #ECD187",
"g@	c #F0D58A",
"h@	c #F1D785",
"i@	c #F1D898",
"j@	c #F3D895",
"k@	c #F2D794",
"l@	c #F2D68E",
"m@	c #F0D789",
"n@	c #EBCD7F",
"o@	c #EACF77",
"p@	c #E6CB79",
"q@	c #E9CD81",
"r@	c #FFFFFE",
"s@	c #EFD386",
"t@	c #F1D888",
"u@	c #F3D993",
"v@	c #F3D991",
"w@	c #F1D786",
"x@	c #E9CD7D",
"y@	c #EACE84",
"z@	c #EBCE84",
"A@	c #E8CC83",
"B@	c #EDD288",
"C@	c #EED38A",
"D@	c #EFD48C",
"E@	c #F1D793",
"F@	c #F0D78F",
"G@	c #F3D996",
"H@	c #EACE81",
"I@	c #EACF86",
"J@	c #E9CC81",
"K@	c #E9CD80",
"L@	c #EFD384",
"M@	c #ECD08B",
"N@	c #E9CD7E",
"O@	c #EFD489",
"P@	c #EBD18D",
"Q@	c #EACF84",
"R@	c #EED489",
"S@	c #EDD089",
"T@	c #F0D48B",
"U@	c #EDD28A",
"V@	c #F2D890",
"W@	c #E9CE84",
"X@	c #E8CC7D",
"Y@	c #ECCF85",
"Z@	c #E6CA7D",
"`@	c #EFD482",
" #	c #F3D995",
".#	c #EBCF83",
"+#	c #F0D78D",
"@#	c #F1D995",
"##	c #F2DA98",
"$#	c #F5DC9D",
"%#	c #EED58E",
"&#	c #EFD683",
"*#	c #F1D891",
"=#	c #F4DB9C",
"-#	c #F2D991",
";#	c #ECD38D",
">#	c #F3D983",
",#	c #E9CF85",
"'#	c #EFD78E",
")#	c #F4D997",
"!#	c #F0D78C",
"~#	c #F3DA84",
"{#	c #F4DA87",
"]#	c #F3D994",
"^#	c #EED48E",
"/#	c #E6CB82",
"(#	c #EACE7A",
"_#	c #EBD07A",
":#	c #EACE86",
"<#	c #E6CC86",
"[#	c #F2D98C",
"}#	c #F3D897",
"|#	c #EDD493",
"1#	c #F1D991",
"2#	c #F2D891",
"3#	c #F4DB9B",
"4#	c #E7CC7F",
"5#	c #E6CC7D",
"6#	c #E6CA7C",
"7#	c #E9CE82",
"8#	c #EACF83",
"9#	c #EED484",
"0#	c #EFD585",
"a#	c #E6C97D",
"b#	c #E8CC82",
"c#	c #EDD38B",
"d#	c #EACC7F",
"e#	c #E9CD84",
"f#	c #EBCF7F",
"g#	c #EBD07B",
"h#	c #E9CE81",
"i#	c #EDD382",
"j#	c #E7CC81",
"k#	c #E8CB81",
"l#	c #E9CD7B",
"m#	c #F1D58F",
"n#	c #E8CC7C",
"o#	c #EED387",
"p#	c #EDD38A",
"q#	c #EBCE85",
"r#	c #EBD08B",
"s#	c #EFD58A",
"t#	c #F1D783",
"u#	c #EFD487",
"v#	c #ECD081",
"w#	c #E4C87E",
"x#	c #EACD81",
"y#	c #F3D884",
"z#	c #EFD68D",
"A#	c #EED58C",
"B#	c #EED28F",
"C#	c #EACF8A",
"D#	c #EACE7E",
"E#	c #E5C97F",
"F#	c #F0D695",
"G#	c #F2D88B",
"H#	c #EFD690",
"I#	c #F2D695",
"J#	c #F1D885",
"K#	c #F1D78A",
"L#	c #EACD83",
"M#	c #EFD387",
"N#	c #EED38D",
"O#	c #EFD68B",
"P#	c #EACF88",
"Q#	c #EBD087",
"R#	c #F0D485",
"S#	c #F0D587",
"T#	c #F1D68A",
"U#	c #F0D591",
"V#	c #F0D686",
"W#	c #EED384",
"X#	c #EDD18A",
"Y#	c #F0D687",
"Z#	c #F1D795",
"`#	c #F0D689",
" $	c #F0D684",
".$	c #ECD287",
"+$	c #EED38E",
"@$	c #ECD189",
"  . +       @ # # # # # # # # # #     + $ % & * = - ; >   , ' )   ! ! - * $   ~ ) { + ] ^ * $ ^ $ / # # # # # # # # # # # # # # ^ ( ! _ : < * * * $ * * ",
"[ } [ [ | 1 2 # # # # # # # # # # +     3 4 5 6 7 8 ~ 9 ]             _   > ) 0 [ a -     & & ^ ^   # # # # # # # # # # # # # #     b c + + d e     * + ",
"8 7 8 f g + h # # # # # # # # # # +   ) i 7 0 7 j k l m n o | f p   $ q r m m r 7 7 7 s f ] +   t c # # # # # # # # # # # # # # u _ _ v w x + y z A B i ",
"C p   + D E F # # # # # # # # # # 8 6 7 G H m o I 3 J K L l 7 o 7 f C / M N O P Q v m m R 8 S x 7 C # # # # # # # # # # # # # # T U [ V 0 W 2 7 7 7 7 7 ",
"+ D X Y Z `  .# # # # # # # # # # 7 ..j +.@.& + = _ &     #.$.f _ %.&.*.=.-.;.>.,.,.'.).!.q 7 7 m ~.# # # # # # # # # # # # # # {.].7 7 ~ m ~ ^.+.6 /.(.",
"_.:.<.[.}.&.|.# # # # # 1.1.1.1.1.# # # # & ] 2.) ] 3.[ ] 4.5.6.7.8.9.0.a.>.b.c.-.d.>.e.&.# # # # # 1.1.1.1.1.1.1.1.1.# # # # # f.f.g.& & & ! h.i.j.k.l.",
"^ m.^ n.. . o.# # # # # 1.1.1.1.1.# # # # #.p.q.p * r.s.t.u.v.w.x.y.,.z.A.B.C.D.>.E.F.B.|.# # # # # 1.1.1.1.1.1.1.1.1.# # # # # m G.H.7 [ ] ! ! * ) I.J.",
"[ [ i | $.K.L.# # # # # 1.1.1.1.1.# # # # [ $   y M.N.h O.P.u.Q.R.S.v.,.T.U.;.V.W.X.Y.Q Z.# # # # # 1.1.1.1.1.1.1.1.1.# # # # # ~ H m ~ f.S ~ `.6 K 3  +",
"7 7 .+. ++v.` # # # # # 1.1.1.1.1.# # # # @+8 C + D #+_._.$+Q.%+l.&+*+Y.%+=+-+h ;+l.>+^ ^ # # # # # 1.1.1.1.1.1.1.1.1.# # # # # m r ~ m ,+7 '+8 ~ S l H.",
"y Y.A.v.8.)+v.# # # # # 1.1.1.1.1.!+!+!+!+# # # # # # # # # # # # # # # # # # # # # # # # 1.1.1.1.1.1.1.1.1.1.# # # # ~+V ) ) {++ _ ]+/.9 ^+/+(+_+:+9 ^+",
"<+v.B.,.<+[+,.# # # # # 1.1.1.1.1.!+!+!+!+# # # # # # # # # # # # # # # # # # # # # # # # 1.1.1.1.1.1.1.1.1.1.# # # # m m o C ! }+$ /.j.|+1+  2+= N.X.W.",
"` ` ,.v.3+v.8.# # # # # 1.1.1.1.1.!+!+!+!+# # # # # # # # # # # # # # # # # # # # # # # # 1.1.1.1.1.1.1.1.1.1.# # # # 4+5+6+7+8+9+0+a+b+_ & ^ c+d+e+f+g+",
"h+v.i+j+++#+k+# # # # # 1.1.1.1.1.!+!+!+!+# # # # # # # # # # # # # # # # # # # # # # # # 1.1.1.1.1.1.1.1.1.1.# # # # l+m+n+s o+o+p+q+r+s+t+u+m , { |.%.",
"k+Y.;+^ #+5.v+# # # # # 1.1.1.1.1.!+!+!+!+# # # # # # # # # # # # # # # # # # # # # # # # 1.1.1.1.1.1.1.1.1.1.# # # # w+x+y+z+A+B+7 m C+D+E+F+G+H+I+H+J+",
"^ K+^ ^ $   a+f > o+m o # # # # # # # # # !+!+!+!+!+1.1.1.1.1.1.1.1.1.1.1.1.1.1.# # # # # # # # # # # # # # # L+M+N+O+t.P+Q+R+J+# # # # # # # # # # S+T+",
"  b U+a i i 7 7 7 ~+V+W+# # # # # # # # # !+!+!+!+!+1.1.1.1.1.1.1.1.1.1.1.1.1.1.# # # # # # # # # # # # # # # X+Y+Z+h c+`+ @>+  # # # # # # # # # # _ (.",
".@m m 7 7 o +@a ;+F N+P # # # # # # # # # !+!+!+!+!+1.1.1.1.1.1.1.1.1.1.1.1.1.1.# # # # # # # # # # # # # # # Z+@@> #./ ! 9 ) * # # # # # # # # # # * #@",
"$@%@o &@;+c *@=@-@D ;@l.# # # # # # # # # !+!+!+!+!+1.1.1.1.1.1.1.1.1.1.1.1.1.1.# # # # # # # # # # # # # # # >@,@.+K+2 >@m 7 7 # # # # # # # # # # '@H.",
")@$   ^ {   { !@>+^ ~@c # # # # # # # # # !+!+!+!+!+1.1.1.1.1.1.1.1.1.1.1.1.1.1.# # # # # # # # # # # # # # # j j {@]@m .+^@/@] # # # # # # # # # # (@- ",
"      * p   ! # # # # # 1.1.1.1.1.1.1.1.1.1.1.1.1.1._@_@_@_@_@_@_@_@_@_@_@_@_@_@1.1.1.1.1.1.1.1.1.1.# # # # # ] :@<@ +# # # # # 1.1.1.1.1.# # # # # [@  ",
"9 K+i m q.9 [ # # # # # 1.1.1.1.1.1.1.1.1.1.1.1.1.1._@_@_@_@_@_@_@_@_@_@_@_@_@_@1.1.1.1.1.1.1.1.1.1.# # # # # * } w }@# # # # # 1.1.1.1.1.# # # # #   C ",
"o a - |@/.T 0+# # # # # 1.1.1.1.1.1.1.1.1.1.1.1.1.1._@_@_@_@_@_@_@_@_@_@_@_@_@_@1.1.1.1.1.1.1.1.1.1.# # # # # + 4.; * # # # # # 1.1.1.1.1.# # # # # %@7 ",
"1@2@u.3@>.v.y.# # # # # 1.1.1.1.1.1.1.1.1.1.1.1.1.1._@_@_@_@_@_@_@_@_@_@_@_@_@_@1.1.1.1.1.1.1.1.1.1.# # # # #  +) 4.  # # # # # 1.1.1.1.1.# # # # # 4@* ",
"v.5@v.y.6@7@8@# # # # # 1.1.1.1.1.1.1.1.1.1.1.1.1.1._@_@_@_@_@_@_@_@_@_@_@_@_@_@1.1.1.1.1.1.1.1.1.1.# # # # # ^ [ a a # # # # # 1.1.1.1.1.# # # # # O+9@",
"v.*+# # # # # 0@0@0@0@0@0@0@0@0@0@1.1.1.1.1.1.1.1.1._@_@_@_@_@# # # # # # # # # _@_@_@_@_@_@_@_@_@_@# # # # # # # # # # # # # # 1.1.1.1.1.# # # # # <+a@",
"v.b@# # # # # 0@0@0@0@0@0@0@0@0@0@1.1.1.1.1.1.1.1.1._@_@_@_@_@# # # # # # # # # _@_@_@_@_@_@_@_@_@_@# # # # # # # # # # # # # # 1.1.1.1.1.# # # # # a@v.",
"[.B.# # # # # 0@0@0@0@0@0@0@0@0@0@1.1.1.1.1.1.1.1.1._@_@_@_@_@# # # # # # # # # _@_@_@_@_@_@_@_@_@_@# # # # # # # # # # # # # # 1.1.1.1.1.# # # # # c@d@",
"e@e+# # # # # 0@0@0@0@0@0@0@0@0@0@1.1.1.1.1.1.1.1.1._@_@_@_@_@# # # # # # # # # _@_@_@_@_@_@_@_@_@_@# # # # # # # # # # # # # # 1.1.1.1.1.# # # # # l.f@",
"-@g@# # # # # 0@0@0@0@0@0@0@0@0@0@_@_@_@_@1.1.1.1.1.1.1.1.1.1._@_@_@_@_@# # # # # # # # # _@_@_@_@_@1.1.1.1.1.1.1.1.1.# # # # # _@_@_@_@_@# # # # # + H+",
"    # # # # # 0@0@0@0@0@0@0@0@0@0@_@_@_@_@1.1.1.1.1.1.1.1.1.1._@_@_@_@_@# # # # # # # # # _@_@_@_@_@1.1.1.1.1.1.1.1.1.# # # # # _@_@_@_@_@# # # # # i.i.",
"|+  # # # # # 0@0@0@0@0@0@0@0@0@0@_@_@_@_@1.1.1.1.1.1.1.1.1.1._@_@_@_@_@# # # # # # # # # _@_@_@_@_@1.1.1.1.1.1.1.1.1.# # # # # _@_@_@_@_@# # # # # 3.h@",
"i@j@# # # # # 0@0@0@0@0@0@0@0@0@0@_@_@_@_@1.1.1.1.1.1.1.1.1.1._@_@_@_@_@# # # # # # # # # _@_@_@_@_@1.1.1.1.1.1.1.1.1.# # # # # _@_@_@_@_@# # # # # ) k@",
"7 s # # # # # 0@0@0@0@0@0@0@0@0@0@_@_@_@_@1.1.1.1.1.1.1.1.1.1._@_@_@_@_@# # # # # # # # # _@_@_@_@_@1.1.1.1.1.1.1.1.1.# # # # # _@_@_@_@_@# # # # # '+m ",
"$ ) # # # # # 1.1.1.1.1._@_@_@_@_@_@_@_@_@_@_@_@_@_@1.1.1.1.1._@_@_@_@_@_@_@_@_@_@_@_@_@_@_@_@_@_@_@1.1.1.1.1._@_@_@_@# # # # # _@_@_@_@_@# # # # # i@* ",
"l@l.# # # # # 1.1.1.1.1._@_@_@_@_@_@_@_@_@_@_@_@_@_@1.1.1.1.1._@_@_@_@_@_@_@_@_@_@_@_@_@_@_@_@_@_@_@1.1.1.1.1._@_@_@_@# # # # # _@_@_@_@_@# # # # # * m@",
"n@[+# # # # # 1.1.1.1.1._@_@_@_@_@_@_@_@_@_@_@_@_@_@1.1.1.1.1._@_@_@_@_@_@_@_@_@_@_@_@_@_@_@_@_@_@_@1.1.1.1.1._@_@_@_@# # # # # _@_@_@_@_@# # # # # e@N+",
"v.,.# # # # # 1.1.1.1.1._@_@_@_@_@_@_@_@_@_@_@_@_@_@1.1.1.1.1._@_@_@_@_@_@_@_@_@_@_@_@_@_@_@_@_@_@_@1.1.1.1.1._@_@_@_@# # # # # _@_@_@_@_@# # # # # >.-.",
"o@7.# # # # # 1.1.1.1.1._@_@_@_@_@_@_@_@_@_@_@_@_@_@1.1.1.1.1._@_@_@_@_@_@_@_@_@_@_@_@_@_@_@_@_@_@_@1.1.1.1.1._@_@_@_@# # # # # _@_@_@_@_@# # # # # p@v.",
"v.q@# # # # # 1.1.1.1.1._@_@_@_@_@_@_@_@_@r@r@r@r@r@1.1.1.1.1._@_@_@_@_@_@_@_@_@_@_@_@_@_@_@_@_@_@_@1.1.1.1.1._@_@_@_@# # # # # _@_@_@_@_@# # # # # 8@8.",
"s@P+# # # # # 1.1.1.1.1._@_@_@_@_@_@_@_@_@r@r@r@r@r@1.1.1.1.1._@_@_@_@_@_@_@_@_@_@_@_@_@_@_@_@_@_@_@1.1.1.1.1._@_@_@_@# # # # # _@_@_@_@_@# # # # # N+O+",
"t@Z+# # # # # 1.1.1.1.1._@_@_@_@_@_@_@_@_@r@r@r@r@r@1.1.1.1.1._@_@_@_@_@_@_@_@_@_@_@_@_@_@_@_@_@_@_@1.1.1.1.1._@_@_@_@# # # # # _@_@_@_@_@# # # # # *   ",
"u@K # # # # # 1.1.1.1.1._@_@_@_@_@_@_@_@_@r@r@r@r@r@1.1.1.1.1._@_@_@_@_@_@_@_@_@_@_@_@_@_@_@_@_@_@_@1.1.1.1.1._@_@_@_@# # # # # _@_@_@_@_@# # # # # v@#@",
"q.7 # # # # # 1.1.1.1.1._@_@_@_@_@_@_@_@_@r@r@r@r@r@1.1.1.1.1._@_@_@_@_@_@_@_@_@_@_@_@_@_@_@_@_@_@_@1.1.1.1.1._@_@_@_@# # # # # _@_@_@_@_@# # # # # f  +",
"w@J.# # # # # 0@0@0@0@0@0@0@0@0@0@_@_@_@_@1.1.1.1.1.1.1.1.1.1._@_@_@_@_@# # # # # # # # # _@_@_@_@_@1.1.1.1.1.1.1.1.1.# # # # # _@_@_@_@_@# # # # #     ",
"x@y@# # # # # 0@0@0@0@0@0@0@0@0@0@_@_@_@_@1.1.1.1.1.1.1.1.1.1._@_@_@_@_@# # # # # # # # # _@_@_@_@_@1.1.1.1.1.1.1.1.1.# # # # # _@_@_@_@_@# # # # # #+z@",
"W._.# # # # # 0@0@0@0@0@0@0@0@0@0@_@_@_@_@1.1.1.1.1.1.1.1.1.1._@_@_@_@_@# # # # # # # # # _@_@_@_@_@1.1.1.1.1.1.1.1.1.# # # # # _@_@_@_@_@# # # # # Y.X.",
"A@f@# # # # # 0@0@0@0@0@0@0@0@0@0@_@_@_@_@1.1.1.1.1.1.1.1.1.1._@_@_@_@_@# # # # # # # # # _@_@_@_@_@1.1.1.1.1.1.1.1.1.# # # # # _@_@_@_@_@# # # # # B@C@",
"a+D@# # # # # 0@0@0@0@0@1.1.1.1.1.1.1.1.1.1.1.1.1.1._@_@_@_@_@# # # # # # # # # _@_@_@_@_@_@_@_@_@_@# # # # # # # # # # # # # # 1.1.1.1.1.# # # # # D@y ",
"* !.# # # # # 0@0@0@0@0@1.1.1.1.1.1.1.1.1.1.1.1.1.1._@_@_@_@_@# # # # # # # # # _@_@_@_@_@_@_@_@_@_@# # # # # # # # # # # # # # 1.1.1.1.1.# # # # # ! U+",
"E@f # # # # # 0@0@0@0@0@1.1.1.1.1.1.1.1.1.1.1.1.1.1._@_@_@_@_@# # # # # # # # # _@_@_@_@_@_@_@_@_@_@# # # # # # # # # # # # # # 1.1.1.1.1.# # # # # F@j.",
"o 7 # # # # # 0@0@0@0@0@1.1.1.1.1.1.1.1.1.1.1.1.1.1._@_@_@_@_@# # # # # # # # # _@_@_@_@_@_@_@_@_@_@# # # # # # # # # # # # # # 1.1.1.1.1.# # # # # {@G@",
"q s # # # # # 0@0@0@0@0@1.1.1.1.1.1.1.1.1.1.1.1.1.1._@_@_@_@_@# # # # # # # # # _@_@_@_@_@_@_@_@_@_@# # # # # # # # # # # # # # 1.1.1.1.1.# # # # # 4.#.",
"H@I@>.c.v.7.J@# # # # # 1.1.1.1.1.1.1.1.1.1.1.1.1.1._@_@_@_@_@_@_@_@_@_@_@_@_@_@1.1.1.1.1.1.1.1.1.1.# # # # # $+K@V.E.# # # # # 1.1.1.1.1.# # # # # o.L@",
"M@K@Q.w.8.8.N@# # # # # 1.1.1.1.1.1.1.1.1.1.1.1.1.1._@_@_@_@_@_@_@_@_@_@_@_@_@_@1.1.1.1.1.1.1.1.1.1.# # # # # f@-+O@1@# # # # # 1.1.1.1.1.# # # # # _.e.",
"O+<+&.e.P@K@Q@# # # # # 1.1.1.1.1.1.1.1.1.1.1.1.1.1._@_@_@_@_@_@_@_@_@_@_@_@_@_@1.1.1.1.1.1.1.1.1.1.# # # # #   h R@  # # # # # 1.1.1.1.1.# # # # # O+6.",
"Y.S@N+e@T@B@U@# # # # # 1.1.1.1.1.1.1.1.1.1.1.1.1.1._@_@_@_@_@_@_@_@_@_@_@_@_@_@1.1.1.1.1.1.1.1.1.1.# # # # # j@I V@; # # # # # 1.1.1.1.1.# # # # # 1@Q ",
". H+^ v > y J.# # # # # 1.1.1.1.1.1.1.1.1.1.1.1.1.1._@_@_@_@_@_@_@_@_@_@_@_@_@_@1.1.1.1.1.1.1.1.1.1.# # # # # o 2 H.8+# # # # # 1.1.1.1.1.# # # # # ^ R@",
"    * g.3.>   * (   ^ _ # # # # # # # # # !+!+!+!+!+1.1.1.1.1.1.1.1.1.1.1.1.1.1.# # # # # # # # # # # # # # # W@[ r 7 m ]+I p $ # # # # # # # # # #     ",
"  * * > h@  p.3.* ^ ^   # # # # # # # # # !+!+!+!+!+1.1.1.1.1.1.1.1.1.1.1.1.1.1.# # # # # # # # # # # # # # # X@v.Y@) m G@7 o G@# # # # # # # # # # + c ",
"w *         '@{ *   B   # # # # # # # # # !+!+!+!+!+1.1.1.1.1.1.1.1.1.1.1.1.1.1.# # # # # # # # # # # # # # # Z@u.K@i+`@) 7 s I # # # # # # # # # # & 4.",
"G+        * a *  #* p ]+# # # # # # # # # !+!+!+!+!+1.1.1.1.1.1.1.1.1.1.1.1.1.1.# # # # # # # # # # # # # # # .#-@Y.O@D@_ J.y $ # # # # # # # # # # ] a ",
"- p.+#p.3.6 @#V@##G@$# ## # # # # # # # # !+!+!+!+!+1.1.1.1.1.1.1.1.1.1.1.1.1.1.# # # # # # # # # # # # # # # %#J.&#e * ^ h 3.  # # # # # # # # # # s *#",
"[ q r =#f -#;## # # # # 1.1.1.1.1.!+!+!+!+# # # # # # # # # # # # # # # # # # # # # # # # 1.1.1.1.1.1.1.1.1.1.# # # # . +   & *       * >#  * *   * f ] ",
"* h + t      @# # # # # 1.1.1.1.1.!+!+!+!+# # # # # # # # # # # # # # # # # # # # # # # # 1.1.1.1.1.1.1.1.1.1.# # # # o.>+  *#_   ,#  * *       * $ [   ",
">   k@p     '## # # # # 1.1.1.1.1.!+!+!+!+# # # # # # # # # # # # # # # # # # # # # # # # 1.1.1.1.1.1.1.1.1.1.# # # #   Z+i.$ ( - -     >+{     * 4.$   ",
"@#  4.{ [ [ p # # # # # 1.1.1.1.1.!+!+!+!+# # # # # # # # # # # # # # # # # # # # # # # # 1.1.1.1.1.1.1.1.1.1.# # # # *   $ |@V@)#I p * 1+  3.!#  4.~#4.",
"  * |+*#6 j@*## # # # # 1.1.1.1.1.# # # # G@{#f S+]#2 G@`.%@^#T+7.=+/#(#v.a@&+_#N@F N+:##+# # # # # 1.1.1.1.1.1.1.1.1.# # # # # <#[#s }#|#/+$ 1#p ) c q ",
"2#f %#<@^@f@v.# # # # # 1.1.1.1.1.# # # # 7 0 G@o 3#@#=#y $+&.4#5#7.6#7#v.7.8#9#` y.++0#T+# # # # # 1.1.1.1.1.1.1.1.1.# # # # # 6.6#a#b#c#q.8 l $.i f a ",
"i.1@8#d#>.V.N@# # # # # 1.1.1.1.1.# # # # G@/+G@o %@F@1@X 7#W.e#$+Q.f#g#h#B.i#3.1@B@N.T+c+# # # # # 1.1.1.1.1.1.1.1.1.# # # # # j#-.k#u.l#8.N.m#* * *   ",
"j+n#;.>.v.Q.,.# # # # # 1.1.1.1.1.# # # # -+{ _ o#s.C@N.U@$+P l.H+e+f@p#C@q#r#s#c t#u#J.{ # # # # # 1.1.1.1.1.1.1.1.1.# # # # # v#>.w.w.B.8.7.;.X+l.N.e+",
"q@U.X@w#q@Q@x## # # # # 1.1.1.1.1.# # # # y#z#  *#J+i.+ ^ c+J.m.A#O@D@{ C@  y = j.B#i._ _ # # # # # 1.1.1.1.1.1.1.1.1.# # # # # J@;.C#T.;.&+y@K@K@<+6.=+",
"_.D#>.E#7#<+N+# # # # # # # # # # _   * { F#T G#F#H#{ ^ ^ { I#|@J#$ * (@K#> { y J.^ _ h.X y P y.q@F # # # # # # # # # # # # # # ,.e.K@L#P M#y@Y.$+O+O+Q@",
"5.k+X O.H+#+N## # # # # # # # # #   ^ i.$ w $ T w V++     c ] 4.c * * _ O#h.s#) i.{ { / B@k+q@e@P#f+# # # # # # # # # # # # # # k+Y.N.Q#r.R#l.h.H+. Z+N.",
"S#1@T#H+. h.i.# # # # # # # # # #     *     ( $ ) * + U#] ] 3.3.p.+#*   * ) (. +, *   V#W#X X#y@Q@y@# # # # # # # # # # # # # # c#1@c#. J.H+1@    Z+{ Z+",
"Y#  +         # # # # # # # # # # b   +   * ) * ] #.9 > ; 9+/.Z#F#& * c `#$ q. +$ ^ Z+{ $ 1@Q 1@B@P # # # # # # # # # # # # # # v+^@ $H+  * * ^ .$`+p i.",
"> p *   { ) c # # # # # # # # # # *   *   * )   >   * > ) ] h.v v * *     $ * & +$@$Z+    ^ H+  B@I.# # # # # # # # # # # # # #   ^ Z+    $ F@  i.    : "};
