/* XPM */
static char * bound_1_xpm[] = {
"76 76 2 1",
" 	c #FFFFFF",
".	c #000000",
"                                                                            ",
" .......................................................................... ",
" .......................................................................... ",
" .......................................................................... ",
" .......................................................................... ",
" .......................................................................... ",
" .......................................................................... ",
" .......................................................................... ",
" .......................................................................... ",
" .......................................................................... ",
" .......................................................................... ",
" .......................................................................... ",
" .......................................................................... ",
" .......................................................................... ",
" .......................................................................... ",
" .......................................................................... ",
" .......................................................................... ",
" .......................................................................... ",
" .......................................................................... ",
" .......................................................................... ",
" .......................................................................... ",
" .......................................................................... ",
" .......................................................................... ",
" .......................................................................... ",
" .......................................................................... ",
" .......................................................................... ",
" .......................................................................... ",
" .......................................................................... ",
" .......................................................................... ",
" .......................................................................... ",
" .......................................................................... ",
" .......................................................................... ",
" .......................................................................... ",
" .......................................................................... ",
" .......................................................................... ",
" .......................................................................... ",
" .......................................................................... ",
" .......................................................................... ",
" .......................................................................... ",
" .......................................................................... ",
" .......................................................................... ",
" .......................................................................... ",
" .......................................................................... ",
" .......................................................................... ",
" .......................................................................... ",
" .......................................................................... ",
" .......................................................................... ",
" .......................................................................... ",
" .......................................................................... ",
" .......................................................................... ",
" .......................................................................... ",
" .......................................................................... ",
" .......................................................................... ",
" .......................................................................... ",
" .......................................................................... ",
" .......................................................................... ",
" .......................................................................... ",
" .......................................................................... ",
" .......................................................................... ",
" .......................................................................... ",
" .......................................................................... ",
" .......................................................................... ",
" .......................................................................... ",
" .......................................................................... ",
" .......................................................................... ",
" .......................................................................... ",
" .......................................................................... ",
" .......................................................................... ",
" .......................................................................... ",
" .......................................................................... ",
" .......................................................................... ",
" .......................................................................... ",
" .......................................................................... ",
" .......................................................................... ",
" .......................................................................... ",
"                                                                            "};
