/* XPM */
static char * bound_7_xpm[] = {
"76 76 2 1",
" 	c #FFFFFF",
".	c #000000",
"                                                                            ",
" .......................................................................... ",
" .......................................................................... ",
" .......................................................................... ",
" .......................................................................... ",
" .......................................................................... ",
" .......................................................................... ",
" .......................................................................... ",
" .......................................................................... ",
" .......................................................................... ",
" .......................................................................... ",
" .......................................................................... ",
" .......................................................................... ",
" .......................................................................... ",
" .......................................................................... ",
" .......................................................................... ",
" .......................................................................... ",
" .......................................................................... ",
" .......................................................................... ",
" .......................................................................... ",
" .......................................................................... ",
" .......................................................................... ",
" .......................................................................... ",
" .......................................................................... ",
" .......................................................................... ",
" .......................................................................... ",
" .......................................................................... ",
" .......................................................................... ",
" .......................................................................... ",
" .......................................................................... ",
" .......................................................................... ",
" .......................................................................... ",
" .......................................................................... ",
" .......................................................................... ",
" .......................................................................... ",
" .......................................................................... ",
" .......................................................................... ",
" .......................................................................... ",
" .......................................................................... ",
" .......................................................................... ",
" .......................................................................... ",
" .......................................................................... ",
" .......................................................................... ",
" .......................................................................... ",
" .......................................................................... ",
" .......................................................................... ",
" .......................................................................... ",
" .......................................................................... ",
" .......................................................................... ",
" .......................................................................... ",
" .......................................................................... ",
" .......................................................................... ",
" .......................................................................... ",
" .......................................................................... ",
" .......................................................................... ",
" .......................................................................... ",
" .......................................................................... ",
" .......................................................................... ",
" .......................................................................... ",
" .......................................................................... ",
" .......................................................................... ",
" .......................................................................... ",
" .......................................................................... ",
" .......................................................................... ",
" .......................................................................... ",
" .......................................................................... ",
" .......................................................................... ",
" .......................................................................... ",
" .......................................................................... ",
" .......................................................................... ",
" .......................................................................... ",
" .......................................................................... ",
" .......................................................................... ",
" .......................................................................... ",
" .......................................................................... ",
"                                                                            "};
