/* XPM */
static char * collectible_xpm[] = {
"76 76 6 1",
" 	c #000000",
".	c #9E9E9E",
"+	c #3D3D3D",
"@	c #FFFFFF",
"#	c #CBCBCB",
"$	c #A8A8A8",
"                                                                            ",
"                                                                            ",
"                                                                            ",
"                                                                            ",
"                                                                            ",
"                                                                            ",
"                                                                            ",
"                                                                            ",
"                                                                            ",
"                                .+                                          ",
"                                @# @@@@                                     ",
"                               @ @@@@@@@                                    ",
"                              $@        @                                   ",
"                              @$        @@                                  ",
"                             @@          @@                                 ",
"                             @            @$                                ",
"                            @@            @@                                ",
"                            @$             @@                               ",
"                           @@               @                               ",
"                           @@               @@                              ",
"                           @                $@                              ",
"                          @@                 @@                             ",
"                          @@                 $@                             ",
"                          @@                  @$                            ",
"                         $@                   $@                            ",
"                         @@                    @$                           ",
"                         @$         $          @@                           ",
"                         @          @          $@                           ",
"                        $@          @           @@                          ",
"                        @@          @           $@                          ",
"                        @$          @            @$                         ",
"                        @$         $@            @$                         ",
"                        @          @@            @$                         ",
"                       $@          @@            @$                         ",
"                       @@          @$            @$                         ",
"                       @@          @$            @$                         ",
"                       @$         $@             @                          ",
"                       @          $@            $@                          ",
"                       @          $@            $@                          ",
"                      @@          @@            $@                          ",
"                      @@          @@            $@                          ",
"                      @@          @              @                          ",
"                      @@          @$            $@                          ",
"                      @@          @$            $@                          ",
"                      @@          @$            @@                          ",
"                      @@                        @@                          ",
"                      @@                        @@                          ",
"                      @@                        @@                          ",
"                      @@                        @                           ",
"                      @@                       $@                           ",
"                      @@                       @@                           ",
"                      @@                       @$                           ",
"                      @@                       @                            ",
"                      @@                      @@                            ",
"                      @@                      @                             ",
"                      $@                     $@                             ",
"                       @$                    @$                             ",
"                       $@                   @@                              ",
"                        @@$                 @                               ",
"                         @@@$              @$                               ",
"                           @@@            @                                 ",
"                             @@@@      @@@@                                 ",
"                               $@@@@@@@@@                                   ",
"                                 $$$$ $                                     ",
"                                                                            ",
"                                                                            ",
"                                                                            ",
"                                                                            ",
"                                                                            ",
"                                                                            ",
"                                                                            ",
"                                                                            ",
"                                                                            ",
"                                                                            ",
"                                                                            ",
"                                                                            "};
