/* XPM */
static char * collectible_xpm[] = {
"76 76 36 1",
" 	c #000000",
".	c #3A3A3A",
"+	c #525252",
"@	c #060606",
"#	c #202020",
"$	c #282828",
"%	c #333333",
"&	c #414141",
"*	c #161616",
"=	c #343434",
"-	c #444444",
";	c #FFFFFF",
">	c #A8A8A8",
",	c #A0A0A0",
"'	c #DADADA",
")	c #232323",
"!	c #4A4A4A",
"~	c #A9A9A9",
"{	c #AEAEAE",
"]	c #BCBCBC",
"^	c #ADADAD",
"/	c #AAAAAA",
"(	c #ACACAC",
"_	c #2D2D2D",
":	c #404040",
"<	c #B1B1B1",
"[	c #090909",
"}	c #101010",
"|	c #868686",
"1	c #7A7A7A",
"2	c #8B8B8B",
"3	c #CCCCCC",
"4	c #9E9E9E",
"5	c #171717",
"6	c #0F0F0F",
"7	c #F1F1F1",
"                                                                            ",
"                  .                                                         ",
"                 .+.                                                        ",
"       @#        .+.                       $$                               ",
"      @%+#        .                       $++$                  ..          ",
"      #++&                 *=             $++$                 .++.         ",
"       #&                 *-+=             $$                   ..          ",
"                          *-+=                       $$                     ",
"                           *=                       $++$                    ",
"                                  &#                $++$                    ",
"                                 &++#                $$           $$        ",
"                                 #+%@                            $++$       ",
"              @#              ;;  #@     *=                      $++$       ",
"             @%+#       $$    ;;        *-+=                      $$        ",
"             #++&      $++$  ;> ;       *-+=                                ",
"              #&       $++$ ;;  ;;       *=                                 ",
" *=                     $$ ;;    ;>                                         ",
"*-+=                       ;     ;;                                         ",
"*-+=                      ;;      ;                                         ",
" *=                       ;;      ;> #&                                     ",
"                          ;>      >;#++&              $$                    ",
"            ..            ;;       ;>%+#             $++$    ==             ",
"           .++.          >;;       ;;@#              $++$   =++=    ..      ",
"            ..           >;;>      ;;                 $$    *--*   .++.     ",
"                         >;>;  #   ;;                        **   ,;..      ",
"                         >;>;    @>;;                          >;;;;        ",
"                         >; ;;   #;;;                        >;;;'>;        ",
"        )          $$    >; >;    ;;;                      ;;;;   >;        ",
"       )+)        $++$   >;  ;   >;>;                    ;;;;      ;>       ",
"       !+!        $++$   >;  ;;  ;; ;                    ;;        ;;       ",
"        !          $$    >;  >; >;  ;                =* ;;         >;       ",
"                         >;   ; ;;  ;               =+-';          ;;       ",
"   #@                    >;   ;;;   ;     )+        =+-;;          ;>**     ",
"  #+%@                    ;    ;;   ;>   )+++        =~;;          ;;--*    ",
"  &++#                    ;>   ;;   ;>    )+          ;;;       ;;;;;++=    ",
"   &#                     ;>   ;;   ;>               >;;;      ;;;;> ==     ",
"                          ;>   ;;   ;>               ; ;;     ;; >;         ",
"                    $$    ;;   ;>   ;>              ;; ;;    >;  ;;         ",
"                   $++$   ;;   ;>   ;;              ;  ;;    ;   ;          ",
"      .            $++$   ;;   ;>   ;;             ;;  ;>   ;>  >;          ",
"     .+.            $$    >;   ;>   ;;            >;  @;>  ;;   ;;          ",
"     .+.                  >;   ;>   >;            ;;   ;#  ;    ;>          ",
"      .                   >;   ;>   >;            ;    ;{>;    >;           ",
"                           ;   ;;   >;           >;    ;>;     ;;           ",
"                           ;>  ;;    ;>  $$      ;;    ;;     >;.           ",
"                           ;>  >;    ;  $++$    >;    ];>     ^;+.          ",
"                           ;>   ;    ;> $++$    ;;    ;;      ;;.           ",
"                           ;;  >;    ;>  $$     ;    >;       ;>            ",
"                           ;;   ;    ;>        ;;    ;>      >;             ",
"               $$          ;;   ;>   ;>        ;     ;.      ;;             ",
"    +         $++$         >;   ;>   ;>       ;;    ;;       ;>             ",
"   +++        $++$          ;$$ ;;   ;;       ;>   >;)      >;              ",
"    +          $$           ;;+$>;   ;;      >;    ;;       ;;              ",
"                            ;;+$>;   ;;      ;~    ;;       ;               ",
"                             ;/ >;   >;     (;-*   ;       ;;               ",
"      ;;;;;;>>>>             ;>  ;   >;     ;;-*  >;       ;>               ",
"      ;;;;;;;;;;;;>>         ;;  ;>  >;     ;=*   ;>      >;        .       ",
"      ;>         >;;;        >;  ;;  >;    ;;     ;      _;;       .+.      ",
"      ;;            ;;        ;  >;   ;    ;>    ;;      :;>       .+.      ",
"      ;;            ;;;       ;>  ;   ;   ;;     ;       <;         .       ",
"      >;            ;>;;      ;;  ;>  ;   ;>    >;       ;;                 ",
"    +  ;>       [}  ;> ;;   . ;; >;   ;  ;;     ;;      |;                  ",
"   +++ ;>           ;>  ;  .+.;;  ;   ;  ;>    $;       ;;                  ",
"    +  ;;           ;   >; .+.;;  ;~  ;>>;     ;;       ;>                  ",
"       ;;;;;>>>> $ 1;     ; . >;  ;{* ;>;>    2;*      >;                   ",
"       ;;;;;;;;;;;;;;>     ;   ;  ;{* ;3;     ;;       ;>                   ",
"         ;;>      > ;;>    ;;;>;  ;~  4;     |;        ;                    ",
"          >;;>        ;;    >;;;  ;>  ;;     ;;       ;;              ==    ",
"            >;;        ;;>    ];  ;> >;      ;        ;>             =++=   ",
"              ;;;       ^;;    ;> ;> ;>     ;;        ;              *--*   ",
"       $$       ;;;       ;;>  ;> ;>;;5    >;      6 ;>               **    ",
"      $++$        ;;;       ;  ;; ;>;#     ;>      *;;        $$            ",
"      $++$         ;;;;>     ; ;;  ;;     >;        ;        $++$           ",
"       $$             ;;;     ;>; >;      ;>       ;;        $++$           ",
"                        ;;   >;>; ;>     >;       ;;          $$            ",
"                         >;;;> >;7;      ;>       ;;                        "};
