/* XPM */
static char * collectible_xpm[] = {
"75 75 240 2",
"  	c #00FF00",
". 	c #01FF00",
"+ 	c #79FF00",
"@ 	c #93FF00",
"# 	c #78FF00",
"$ 	c #06FF00",
"% 	c #13FF00",
"& 	c #9FFF00",
"* 	c #E7FF00",
"= 	c #E8FF00",
"- 	c #F2FF00",
"; 	c #F7FF00",
"> 	c #E9FF00",
", 	c #DBFF00",
"' 	c #9BFF00",
") 	c #3DFF00",
"! 	c #19FF00",
"~ 	c #77FF00",
"{ 	c #E6FF00",
"] 	c #FEFF00",
"^ 	c #FFFF00",
"/ 	c #FCFF00",
"( 	c #C8FF00",
"_ 	c #6FFF00",
": 	c #2AFF00",
"< 	c #0FFF00",
"[ 	c #FBFF00",
"} 	c #C7FF00",
"| 	c #95FF00",
"1 	c #ABFF00",
"2 	c #CEFF00",
"3 	c #55FF00",
"4 	c #F6FF00",
"5 	c #74FF00",
"6 	c #1DFF00",
"7 	c #F8FF00",
"8 	c #A5FF00",
"9 	c #AFFF00",
"0 	c #FDFF00",
"a 	c #FAFF00",
"b 	c #AAFF00",
"c 	c #1BFF00",
"d 	c #BBFF00",
"e 	c #A9FF00",
"f 	c #15FF00",
"g 	c #C3FF00",
"h 	c #91FF00",
"i 	c #58FF00",
"j 	c #E4FF00",
"k 	c #F4FF00",
"l 	c #6DFF00",
"m 	c #FBFB00",
"n 	c #F5F500",
"o 	c #F2F200",
"p 	c #F4F400",
"q 	c #FAFA00",
"r 	c #FEFE00",
"s 	c #E9E900",
"t 	c #CCCC00",
"u 	c #BEBE00",
"v 	c #A5A500",
"w 	c #979700",
"x 	c #959500",
"y 	c #A0A000",
"z 	c #B7B700",
"A 	c #CACA00",
"B 	c #DFDF00",
"C 	c #E3E300",
"D 	c #999900",
"E 	c #7E7E00",
"F 	c #7F7F00",
"G 	c #8C8C00",
"H 	c #DCDC00",
"I 	c #ECFF00",
"J 	c #4AFF00",
"K 	c #F9F900",
"L 	c #C9C900",
"M 	c #868600",
"N 	c #808000",
"O 	c #B2B200",
"P 	c #B9FF00",
"Q 	c #8DFF00",
"R 	c #F8F800",
"S 	c #7B7B00",
"T 	c #7A7A00",
"U 	c #7C7C00",
"V 	c #C4C400",
"W 	c #4CFF00",
"X 	c #B3FF00",
"Y 	c #C6C600",
"Z 	c #828200",
"` 	c #DEDE00",
" .	c #EDED00",
"..	c #EEEE00",
"+.	c #D6D600",
"@.	c #848400",
"#.	c #AFAF00",
"$.	c #F0F000",
"%.	c #F3FF00",
"&.	c #6AFF00",
"*.	c #1FFF00",
"=.	c #DFFF00",
"-.	c #FDFD00",
";.	c #CFCF00",
">.	c #818100",
",.	c #AAAA00",
"'.	c #73FF00",
").	c #22FF00",
"!.	c #EEFF00",
"~.	c #BBBB00",
"{.	c #F7F700",
"].	c #8CFF00",
"^.	c #23FF00",
"/.	c #F1FF00",
"(.	c #FCFC00",
"_.	c #B0B000",
":.	c #B5B500",
"<.	c #B2FF00",
"[.	c #12FF00",
"}.	c #21FF00",
"|.	c #E4F200",
"1.	c #D7D700",
"2.	c #D1D100",
"3.	c #E0E000",
"4.	c #D5D500",
"5.	c #E4E400",
"6.	c #F3F300",
"7.	c #C6FF00",
"8.	c #18FF00",
"9.	c #19FE00",
"0.	c #AFBA00",
"a.	c #989800",
"b.	c #CDCD00",
"c.	c #ECEC00",
"d.	c #10FD00",
"e.	c #899000",
"f.	c #ADAD00",
"g.	c #B1BB00",
"h.	c #818000",
"i.	c #A2A200",
"j.	c #E3F100",
"k.	c #D2D200",
"l.	c #CBCB00",
"m.	c #888800",
"n.	c #7D7D00",
"o.	c #BDBD00",
"p.	c #C1C100",
"q.	c #EFFD00",
"r.	c #838300",
"s.	c #898900",
"t.	c #1EFE00",
"u.	c #CEDA00",
"v.	c #B6B600",
"w.	c #B3B300",
"x.	c #8E8E00",
"y.	c #C7C700",
"z.	c #DDDD00",
"A.	c #898F00",
"B.	c #8A8A00",
"C.	c #A1A100",
"D.	c #ACAC00",
"E.	c #D3D300",
"F.	c #E1E100",
"G.	c #EFEF00",
"H.	c #14FF00",
"I.	c #0DFD00",
"J.	c #7D8300",
"K.	c #969600",
"L.	c #99FF00",
"M.	c #0AFF00",
"N.	c #16FE00",
"O.	c #A3B000",
"P.	c #1EFF00",
"Q.	c #D7F600",
"R.	c #DCDB00",
"S.	c #C4FF00",
"T.	c #9B9B00",
"U.	c #E8E800",
"V.	c #B9B900",
"W.	c #A4A400",
"X.	c #C3C300",
"Y.	c #10FF00",
"Z.	c #ABAB00",
"`.	c #02FF00",
" +	c #81FF00",
".+	c #B4B400",
"++	c #E5E500",
"@+	c #E6E600",
"#+	c #CECE00",
"$+	c #F1F100",
"%+	c #909000",
"&+	c #949400",
"*+	c #C5C500",
"=+	c #72FF00",
"-+	c #D9D900",
";+	c #919100",
">+	c #BAFF00",
",+	c #A9A900",
"'+	c #B4FF00",
")+	c #B1B100",
"!+	c #F9FF00",
"~+	c #05FF00",
"{+	c #BEFF00",
"]+	c #F6F600",
"^+	c #E2E200",
"/+	c #A7A700",
"(+	c #E7E700",
"_+	c #EFFF00",
":+	c #60FF00",
"<+	c #B6FF00",
"[+	c #E2FF00",
"}+	c #A2FF00",
"|+	c #F0FF00",
"1+	c #3BFF00",
"2+	c #E0FF00",
"3+	c #97FF00",
"4+	c #0BFF00",
"5+	c #CBFF00",
"6+	c #3FFF00",
"7+	c #3CFF00",
"8+	c #D5FF00",
"9+	c #43FF00",
"0+	c #11FF00",
"a+	c #AEFF00",
"b+	c #28FF00",
"c+	c #5AFF00",
"d+	c #9EFF00",
"e+	c #D4FF00",
"f+	c #6CFF00",
"g+	c #BCFF00",
"h+	c #98FF00",
"i+	c #16FF00",
"j+	c #D0FF00",
"k+	c #EBFF00",
"l+	c #B7FF00",
"m+	c #8FFF00",
"n+	c #3AFF00",
"o+	c #67FF00",
"p+	c #70FF00",
"q+	c #61FF00",
"                                                                                                                                                      ",
"                                                                                                                                                      ",
"                                                                                                                                                      ",
"                                                                                                                                                      ",
"                                                        .       + @ #                                                                                 ",
"                                                      $ % & * = - ; - > , ' ) !                                                                       ",
"                                                    $ ~ { ] ^ ^ ^ ^ ^ ^ ^ ] / ( _ :                                                                   ",
"                                                  . < { ^ ^ ^ ^ ^ ^ ^ ^ ^ ^ ^ ^ [ } |                                                                 ",
"                                                    1 ] ^ ^ ^ ^ ^ ^ ^ ^ ^ ^ ^ ^ ^ ^ ; 2 3 .                                                           ",
"                                                    = ^ ^ ^ ^ ^ ^ ^ ^ ^ ^ ^ ^ ^ ^ ^ ^ ^ 4 5 6                                                         ",
"                                                  ~ - ^ ^ ^ ^ ^ ^ ^ ^ ^ ^ ^ ^ ^ ^ ^ ^ ^ ^ 7 8 :                                                       ",
"                                                  9 0 ^ ^ ^ ^ ^ ^ ^ ^ ^ ^ ^ ^ ^ ^ ^ ^ ^ ^ ^ a b c                                                     ",
"                                                  d ^ ^ ^ ^ ^ ^ ^ ^ ^ ^ ^ ^ ^ ^ ^ ^ ^ ^ ^ ^ ^ 0 e f                                                   ",
"                                                6 g ^ ^ ^ ^ ^ ^ ^ ^ ^ ^ ^ ^ ^ ^ ^ ^ ^ ^ ^ ^ ^ ^ 7 h                                                   ",
"                                                i j ^ ^ ^ ^ ^ ^ ^ ^ ^ ^ ^ ^ ^ ^ ^ ^ ^ ^ ^ ^ ^ ^ ^ k _ .                                               ",
"                                                l 4 ^ ^ ^ ^ ^ ^ ^ ^ ^ ^ ^ m n o o p q ^ ^ ^ ^ ^ ^ ^ > c                                               ",
"                                                5 / ^ ^ ^ ^ ^ ^ ^ ^ r s t u v w x y z A B m ^ ^ ^ ^ ] e                                               ",
"                                                # ^ ^ ^ ^ ^ ^ ^ ^ ^ C D E E E F F F E E G H ^ ^ ^ ^ ^ I J                                             ",
"                                                + ^ ^ ^ ^ ^ ^ ^ K L M F F F F F F F F F N O ^ ^ ^ ^ ^ ] P $                                           ",
"                                              $ Q ^ ^ ^ ^ ^ ^ R u E F F F E S T T U E F F V ^ ^ ^ ^ ^ ^ , W                                           ",
"                                              % X ^ ^ ^ ^ ^ m Y Z F F F F y `  ...+.x @.#.$.^ ^ ^ ^ ^ ^ %.&.                                          ",
"                                              *.=.^ ^ ^ ^ -.;.E F F F >.,.$.^ ^ ^ ^ -.-.r ^ ^ ^ ^ ^ ^ ^ / '.                                          ",
"                                              ).!.^ ^ ^ ^ s M F F F F ~.{.^ ^ ^ ^ ^ ^ ^ ^ ^ ^ ^ ^ ^ ^ ^ ^ ].$                                         ",
"                                              ^./.^ r ^ (._.N F F F :.{.^ ^ ^ ^ ^ ^ ^ ^ ^ ^ ^ ^ ^ ^ ^ ^ ^ <.[.                                        ",
"                                              }.|.1.2.3.4.G F F F x 5.6.q ^ ^ ^ ^ ^ ^ ^ ^ ^ ^ ^ ^ ^ ^ ^ ^ 7.8.                                        ",
"                                              9.0.T U S U F F F F E F a.z A t t t b.c.^ ^ ^ ^ ^ ^ ^ ^ ^ ^ } 8.                                        ",
"                                              d.e.F F F F F F F F F F F E E E E E E f.^ ^ ^ ^ ^ ^ ^ ^ ^ ^ } 8.                                        ",
"                                              9.g.h.E F F F F F F F F F F F F F F F i.^ ^ ^ ^ ^ ^ ^ ^ ^ ^ } 8.                                        ",
"                                              ).j.k.l.m.F F F n.T T T T T T T T T S o.^ ^ ^ ^ ^ ^ ^ ^ ^ ^ } 8.                                        ",
"                                              ^./.^ r M F F E p... . . . . . . . . .R ^ ^ ^ ^ ^ ^ ^ ^ ^ ^ } 8.                                        ",
"                                              ^.q.q {.r.F F s.H ^ ^ ^ ^ ^ ^ ^ ^ ^ ^ ^ ^ ^ ^ ^ ^ ^ ^ ^ ^ ^ } 8.                                        ",
"                                              t.u.v.w.N F F x.y.t t ;.z.o ^ ^ ^ ^ ^ ^ ^ ^ ^ ^ ^ ^ ^ ^ ^ ^ } 8.                                        ",
"                                              d.A.E E F F F F E E E F B.a.C.i.i.D.E.F.G.r ^ ^ ^ ^ ^ ^ ^ ^ P H.                                        ",
"                                              I.J.F F F F F F F F F F F F F F F F >.>.K.o ^ ^ ^ ^ ^ ^ ^ ^ L.M.                                        ",
"                                              N.O.T n.F F F F F F F F F F F F F F F F T  .^ ^ ^ ^ ^ ^ ^ ^ #                                           ",
"                                              P.Q.R.O N F F F F Z r.r.r.>.N F F F F F U ..^ ^ ^ ^ ^ ^ ^ ^ +                                           ",
"                                              8.S.^ (.T.E F F M U.-.-.{.` V.W.i.i.i.i.X.q ^ ^ ^ ^ ^ ^ ^ ^ #                                           ",
"                                              Y.1 ^ ^ 1.F F F n.Z.$.^ ^ ^ ^ ^ ^ ^ ^ ^ ^ ^ ^ ^ ^ ^ ^ ^ ^ / 5                                           ",
"                                              `. +^ ^ R .+F F F F i.++-.^ ^ ^ ^ ^ ^ ^ ^ ^ ^ ^ ^ ^ ^ ^ ^ 4 l                                           ",
"                                                + ^ ^ ^ @+w F F F F M #+o r ^ ^ ^ r R $+.. . ...q ^ ^ ^ j i                                           ",
"                                                ~ ^ ^ ^ r C %+E F F F U &+*+t t t y._.%+U T T U X.^ ^ ^ g 6                                           ",
"                                                =+[ ^ ^ ^ ^ -+;+F F F F F E E E E E E F F F F F i.^ ^ ^ >+                                            ",
"                                                &.%.^ ^ ^ ^ ^ $.,.r.E F F F F F F F F F F F F F ,+^ ^ ] '+                                            ",
"                                                W , ^ ^ ^ ^ ^ ^ {.2.v n.S n.E E n.U S T T U %+)+3.^ ^ !+&                                             ",
"                                                ~+{+^ ^ ^ ^ ^ ^ ^ ^ ]+..^+X.D./+_.l.(+ . ...$+R r ^ ^ _+:+                                            ",
"                                                  <+] ^ ^ ^ ^ ^ ^ ^ ^ ^ ^ r r r r r ^ ^ ^ ^ ^ ^ ^ ^ ^ [+                                              ",
"                                                  & !+^ ^ ^ ^ ^ ^ ^ ^ ^ ^ ^ ^ ^ ^ ^ ^ ^ ^ ^ ^ ^ ^ ^ ] }+                                              ",
"                                                  :+_+^ ^ ^ ^ ^ ^ ^ ^ ^ ^ ^ ^ ^ ^ ^ ^ ^ ^ ^ ^ ^ ^ ^ |+1+                                              ",
"                                                    2+^ ^ ^ ^ ^ ^ ^ ^ ^ ^ ^ ^ ^ ^ ^ ^ ^ ^ ^ ^ ^ ^ 0 3+4+                                              ",
"                                                    }+] ^ ^ ^ ^ ^ ^ ^ ^ ^ ^ ^ ^ ^ ^ ^ ^ ^ ^ ^ ^ ] 5+6+                                                ",
"                                                    7+!+^ ^ ^ ^ ^ ^ ^ ^ ^ ^ ^ ^ ^ ^ ^ ^ ^ ^ ^ ] 8+9+                                                  ",
"                                                    0+a+^ ^ ^ ^ ^ ^ ^ ^ ^ ^ ^ ^ ^ ^ ^ ^ ^ ^ ; g b+                                                    ",
"                                                      c+= ^ ^ ^ ^ ^ ^ ^ ^ ^ ^ ^ ^ ^ ^ ^ ^ - h 4+                                                      ",
"                                                      M.d+7 ^ ^ ^ ^ ^ ^ ^ ^ ^ ^ ^ ^ ^ ^ e+f+                                                          ",
"                                                          g+4 ^ ^ ^ ^ ^ ^ ^ ^ ^ ^ 4 j h+i+.                                                           ",
"                                                        .   h j+|+7 k+S.g+g+d d l+m+                                                                  ",
"                                                              n+o+p+q+P.                                                                              ",
"                                                                                                                                                      ",
"                                                                                                                                                      ",
"                                                                                                                                                      ",
"                                                                                                                                                      ",
"                                                                                                                                                      ",
"                                                                                                                                                      ",
"                                                                                                                                                      ",
"                                                                                                                                                      ",
"                                                                                                                                                      ",
"                                                                                                                                                      ",
"                                                                                                                                                      ",
"                                                                                                                                                      ",
"                                                                                                                                                      ",
"                                                                                                                                                      ",
"                                                                                                                                                      ",
"                                                                                                                                                      ",
"                                                                                                                                                      ",
"                                                                                                                                                      "};
