/* XPM */
static char * exit_xpm[] = {
"76 76 55 1",
" 	c #3E7500",
".	c #4D9000",
"+	c #427C00",
"@	c #509600",
"#	c #356600",
"$	c #254900",
"%	c #1F3F00",
"&	c #183300",
"*	c #000000",
"=	c #0C1E00",
"-	c #1B3800",
";	c #224500",
">	c #2D5800",
",	c #346500",
"'	c #3B6F00",
")	c #488700",
"!	c #091A00",
"~	c #0D2100",
"{	c #305D00",
"]	c #3B7000",
"^	c #1D3C00",
"/	c #1C3B00",
"(	c #122900",
"_	c #2B5500",
":	c #285000",
"<	c #305C00",
"[	c #295300",
"}	c #336200",
"|	c #1D3D00",
"1	c #183400",
"2	c #1A3700",
"3	c #458200",
"4	c #3F7700",
"5	c #468400",
"6	c #0B1D00",
"7	c #326000",
"8	c #142C00",
"9	c #468300",
"0	c #4B8D00",
"a	c #132B00",
"b	c #234700",
"c	c #030B00",
"d	c #112800",
"e	c #2F5C00",
"f	c #0F2400",
"g	c #264C00",
"h	c #295000",
"i	c #0A1B00",
"j	c #040D00",
"k	c #376A00",
"l	c #0B1C00",
"m	c #152F00",
"n	c #061200",
"o	c #2E5900",
"p	c #2B5400",
"                                                                            ",
"                                                                            ",
"                                                                            ",
"                                                                            ",
"                ..                                                          ",
"                ++                                                          ",
"                            ++                  .+              @@          ",
"                            ..                  .+                          ",
"                                                                            ",
"                 #$%&*****=-%%%%%%%%%%;>,'                                  ",
"        ))      #***************************!~-%%%%%%%;{]                   ",
"        ))      ^***************************************/]                  ",
"                (****************************************_                  ",
"                *****************************************%                  ",
"                *****:   '<;[[%%%%%%%%-~!****************}                  ",
"               @*****                      ',>;%%%%%%|12}                   ",
"               @*****                           34                          ",
"                *****                           @3                          ",
"                *****                                             )@        ",
"                *****                                             )@        ",
"                *****                                  34                   ",
"                *****     ++                           @3                   ",
"                *****     ..                                                ",
"                *****                                                       ",
"     @@         *****                          @5                           ",
"                *****                          @3                           ",
"                *****'                                           43         ",
"                !****,                                           3@         ",
"                6****7                                                      ",
"                ~****>                                                      ",
"                -****;              @                                       ",
"                %****%              @                                       ",
"                2****2                                                      ",
"    @           8****8                                                      ",
"    9           2****2                                                      ",
"                %****%                                                      ",
"               @%****%                              ))                      ",
"               @;****-            +)                0@                      ",
"                >*****a(b%;>7777,'.@                                        ",
"                7****************c**!666de                         ..       ",
"                ,*************************e                        +@       ",
"                '*************************f                                 ",
"       @         *************************g                                 ",
"       @         *****hh;%-~666ij********&'                                 ",
"                 *****          'k'',777,'                                  ",
"                 *****                                                      ",
"                 *****                                     ++               ",
"                '*****              ).                     ..               ",
"                ,****!              @.                                      ",
"                7****6                          @)                          ",
"                7****6                          .+                     @3   ",
"              @ 7****6                                                 34   ",
"              9 7****6                                                      ",
"                7****6                                                      ",
"                7****6          ..                                          ",
"                7****6          ++                         43               ",
"                7****6                                     3@               ",
"       ))       >****~                                                      ",
"       ))       ;****-                                                      ",
"                %****%                                               ++     ",
"                %****%                                               ..     ",
"                %****%                                                      ",
"                %****%                                                      ",
"                %****%                 35                                   ",
"                8****c-;<'             @@                     @@            ",
"                **********l-%;>7,'    ',777,'                               ",
"       @9       $*********************************&^f~-mn6o                 ",
"                 &*****************************************o                ",
"                  p****************************************(                ",
"            @@      '<;-l**********************************&                ",
"                         '<;%-~6!******!666!***************#                ",
"                                                 #$;>>;28%#    34           ",
"                                                               @3           ",
"                                                                            ",
"                                                                            ",
"                                                                            "};
