/* XPM */
static char * exit_xpm[] = {
"75 75 289 2",
"  	c #00FF00",
". 	c #0EFF00",
"+ 	c #2BFF00",
"@ 	c #05FF00",
"# 	c #18FF00",
"$ 	c #06FF00",
"% 	c #1BEE00",
"& 	c #2ADA00",
"* 	c #2ED200",
"= 	c #2ED100",
"- 	c #2ED300",
"; 	c #28DE00",
"> 	c #15F400",
", 	c #01FF00",
"' 	c #2BD800",
") 	c #477900",
"! 	c #496C00",
"~ 	c #4B5500",
"{ 	c #4C4B00",
"] 	c #4C4900",
"^ 	c #4C4C00",
"/ 	c #4B5A00",
"( 	c #487200",
"_ 	c #467E00",
": 	c #467F00",
"< 	c #468000",
"[ 	c #468100",
"} 	c #429500",
"| 	c #1DED00",
"1 	c #04FD00",
"2 	c #4E2800",
"3 	c #4E2C00",
"4 	c #4C2B00",
"5 	c #4A2900",
"6 	c #482800",
"7 	c #472700",
"8 	c #462700",
"9 	c #4D2B00",
"0 	c #4E2900",
"a 	c #37BF00",
"b 	c #05FD00",
"c 	c #4C4F00",
"d 	c #4E2B00",
"e 	c #4F2D00",
"f 	c #4A2A00",
"g 	c #412400",
"h 	c #391F00",
"i 	c #371D00",
"j 	c #361D00",
"k 	c #2F1900",
"l 	c #211000",
"m 	c #130700",
"n 	c #000000",
"o 	c #020100",
"p 	c #010000",
"q 	c #0F0500",
"r 	c #301900",
"s 	c #371E00",
"t 	c #381E00",
"u 	c #442500",
"v 	c #4E2700",
"w 	c #37BE00",
"x 	c #03FD00",
"y 	c #438D00",
"z 	c #4E2600",
"A 	c #412300",
"B 	c #1F0E00",
"C 	c #200F00",
"D 	c #1B0C00",
"E 	c #100600",
"F 	c #140700",
"G 	c #261300",
"H 	c #422400",
"I 	c #37BD00",
"J 	c #02FE00",
"K 	c #33C600",
"L 	c #4F1C00",
"M 	c #4D2C00",
"N 	c #050200",
"O 	c #3A2000",
"P 	c #3BB100",
"Q 	c #06FC00",
"R 	c #23E500",
"S 	c #4F1100",
"T 	c #160900",
"U 	c #1F0F00",
"V 	c #448C00",
"W 	c #14F500",
"X 	c #20E900",
"Y 	c #4F0F00",
"Z 	c #3A1F00",
"` 	c #000100",
" .	c #1C0C00",
"..	c #4B2A00",
"+.	c #4E2A00",
"@.	c #496D00",
"#.	c #1AF000",
"$.	c #001500",
"%.	c #070200",
"&.	c #3C2000",
"*.	c #496500",
"=.	c #1AEF00",
"-.	c #4A6200",
";.	c #4D4200",
">.	c #1EEB00",
",.	c #1E0E00",
"'.	c #492900",
").	c #472800",
"!.	c #060200",
"~.	c #040100",
"{.	c #3E2200",
"].	c #140800",
"^.	c #000C00",
"/.	c #000300",
"(.	c #402400",
"_.	c #271300",
":.	c #080300",
"<.	c #391E00",
"[.	c #341B00",
"}.	c #150800",
"|.	c #33C700",
"1.	c #4E2400",
"2.	c #419B00",
"3.	c #03FE00",
"4.	c #448700",
"5.	c #3B2000",
"6.	c #4F2800",
"7.	c #2A1500",
"8.	c #090300",
"9.	c #2E1700",
"0.	c #4F2B00",
"a.	c #210F00",
"b.	c #231100",
"c.	c #4D3A00",
"d.	c #4D3B00",
"e.	c #1A0C00",
"f.	c #3C2100",
"g.	c #4D3900",
"h.	c #31CC00",
"i.	c #4E3400",
"j.	c #3CAB00",
"k.	c #4E3000",
"l.	c #4E2D00",
"m.	c #241100",
"n.	c #4F2C00",
"o.	c #2D1800",
"p.	c #4E2E00",
"q.	c #060301",
"r.	c #0F0904",
"s.	c #110A04",
"t.	c #100A04",
"u.	c #0E0803",
"v.	c #0A0502",
"w.	c #030201",
"x.	c #191007",
"y.	c #1B1208",
"z.	c #1A1208",
"A.	c #1A1107",
"B.	c #181007",
"C.	c #180F06",
"D.	c #160F06",
"E.	c #0B0602",
"F.	c #2E1800",
"G.	c #4F2900",
"H.	c #477700",
"I.	c #251200",
"J.	c #4F2700",
"K.	c #458600",
"L.	c #4F2600",
"M.	c #429400",
"N.	c #100904",
"O.	c #191107",
"P.	c #1B1207",
"Q.	c #181006",
"R.	c #170F06",
"S.	c #4F1F00",
"T.	c #37BC00",
"U.	c #0DF900",
"V.	c #040301",
"W.	c #090603",
"X.	c #0C0804",
"Y.	c #0E0905",
"Z.	c #0F0B05",
"`.	c #0F0B06",
" +	c #140F07",
".+	c #1C150B",
"++	c #1F160C",
"@+	c #1E160B",
"#+	c #110B05",
"$+	c #501400",
"%+	c #26E000",
"&+	c #24E300",
"*+	c #4A6000",
"=+	c #201A10",
"-+	c #261E14",
";+	c #282015",
">+	c #2A2216",
",+	c #2B2317",
"'+	c #251D13",
")+	c #010100",
"!+	c #501000",
"~+	c #4C4A00",
"{+	c #19140B",
"]+	c #020101",
"^+	c #501100",
"/+	c #35C300",
"(+	c #4E3200",
"_+	c #1C150D",
":+	c #292216",
"<+	c #010101",
"[+	c #140F08",
"}+	c #292116",
"|+	c #2C2317",
"1+	c #2A2116",
"2+	c #282016",
"3+	c #292217",
"4+	c #241D12",
"5+	c #251E13",
"6+	c #1B150C",
"7+	c #100B05",
"8+	c #251606",
"9+	c #2C1A05",
"0+	c #311D06",
"a+	c #321F06",
"b+	c #331F07",
"c+	c #311E07",
"d+	c #2E1B06",
"e+	c #301D06",
"f+	c #291905",
"g+	c #1C1106",
"h+	c #110C05",
"i+	c #0D0804",
"j+	c #080502",
"k+	c #090503",
"l+	c #331B00",
"m+	c #4F1000",
"n+	c #070300",
"o+	c #120800",
"p+	c #140900",
"q+	c #1A0D01",
"r+	c #231301",
"s+	c #211201",
"t+	c #190C00",
"u+	c #1E0F01",
"v+	c #2B1801",
"w+	c #331D02",
"x+	c #341F02",
"y+	c #351F02",
"z+	c #341E02",
"A+	c #2E1A01",
"B+	c #291701",
"C+	c #251401",
"D+	c #2A1701",
"E+	c #271501",
"F+	c #180B00",
"G+	c #341C00",
"H+	c #351D00",
"I+	c #241401",
"J+	c #361F02",
"K+	c #311C02",
"L+	c #351C00",
"M+	c #2F1800",
"N+	c #321D02",
"O+	c #030100",
"P+	c #3F2300",
"Q+	c #331E02",
"R+	c #301B02",
"S+	c #2F1B02",
"T+	c #301C02",
"U+	c #38BA00",
"V+	c #180C01",
"W+	c #2B1802",
"X+	c #281601",
"Y+	c #241301",
"Z+	c #1E1001",
"`+	c #1C0E01",
" @	c #1D0E01",
".@	c #170B01",
"+@	c #11F700",
"@@	c #429600",
"#@	c #432500",
"$@	c #321B00",
"%@	c #291500",
"&@	c #2D1700",
"*@	c #3F2200",
"=@	c #4F0D00",
"-@	c #448B00",
";@	c #4E1100",
">@	c #34C600",
"                                                                                                                                                      ",
"                                                                                                                                                      ",
"                                                                                                                                                      ",
"                                                                                                                                                      ",
"                                                                  . + .                                                                               ",
"                                                                  @ # $                                                                               ",
"                                                                                                                                                      ",
"                            % & * = = = = = = - ; >                                                                                                   ",
"                      , ' ) ! ~ { ] ] ] ] ] ] ^ / ( _ : : : : : : : : : : : : : : : : : : : : : < [ : : : : : : : : : : : : : } |                     ",
"                      1 ) 2 3 3 3 3 3 3 3 3 3 3 3 3 3 3 3 3 3 4 5 6 7 7 7 8 8 8 8 8 8 8 8 8 8 8 8 8 8 8 8 6 9 3 3 3 3 3 3 3 3 0 a                     ",
"                      b c d 3 3 e e 3 f g h i i i i i i i i j k l m n o p n n n n n n n n n n n n n n n n q r s t u 3 3 3 3 3 v w                     ",
"                      x y z 3 A B C C D E o n n n n n n n n n n n n n n n n n n n n n n n n n n n n n n n n n n n F G H 3 3 3 v I                     ",
"                      J K L M C n n n n n n n n n n n n n n n n n n n n n n n n n n n n n n n n n n n n n n n n n n n N O 3 3 v P Q                   ",
"                        R S M T n n n n n n n n n n n n n n n n n n n n n n n n n n n n n n n n n n n n n n n n n n n n U e 3 0 V W                   ",
"                        X Y 3 Z n n n n n n n n n n n n n n n n n n n n n n n n n n n n n n n n n n n n n n n n ` n n n  ...3 +.@.#.                  ",
"                        X Y 3 4 r n n n n n n n n n n n n n n n n n n n n n n n n n n n n n n n n n n n n n n n $.` n n %.&.3 d *.=.                  ",
"                        X Y 3 6 m n n n n n n n n n n n n n n n n n n n n n n n n n n n n n n n n n n n n n n n n n n n n i 3 d -.%                   ",
"                        X Y 3 8 n n n n n n n n n n n n n n n n n n n n n n n n n n n n n n n n n n n n n n n n n n n n n i 3 3 ;.>.                  ",
"                        X Y 3 8 n n n n n n n n n n n n n n n n n n n n n n n n n n n n n n n n n n n n n n n n n n n n n j 3 3 S X                   ",
"                        X Y 3 8 n n n n n n n n n n n n n n n n n n n n n n n n n n n n n n n n n n n n n n n n n n n n n k 4 3 Y X                   ",
"                        X Y 3 8 n n n n n n n n n n n n n n n n n n n n n n n n n n n n n n n n n n n n n n n n n n n n n ,.'.3 Y X                   ",
"                        X Y 3 ).!.n n n n n n n n n n n n n n n n n n n n n n n n n n n n n n n n n n n n n n n n n n n n ~.7 3 Y X                   ",
"                        X Y 3 4 {.].n n n n n n n n n n n n n n n n n n n n n n n n n n n n n n n n n n n n n n n n n n n n 8 3 Y X                   ",
"                        X Y 3 3 e C n n n n n n n n n n n n ^.n n n n n n n n n n n n n n n n n n n n n n n n n n ` /.n n n 8 3 Y X                   ",
"                        X Y 3 3 3 C n n n n n n n n n n n n n n n n n n n n n n n n n n n n n n n n n n n n n n n n n n n n (.3 Y X                   ",
"                        X Y 3 3 f D n n n n n n n n n n n n n n n n n n n n n n n n n n n n n n n n n n n n n n n n n n n n _.M Y X                   ",
"                        X Y 3 3 g E n n n n n n n n n n n n n n n n n n n n n n n n n n n n n n n n n n n n n n n n n n n n :.M Y X                   ",
"                        X Y 3 3 <.p n n n n n n n n n n n n n n n n n n n n n n n n n n n n n n n n n n n n n n n n n n n n N M Y X                   ",
"                        X Y 3 M [.n n n n n n n n n n n n n n n n n n n n n n n n n n n n n n n n n n n n n n n n n n n n n N M S R                   ",
"                        X Y 3 6 }.n n n n n n n n n n n n n n n n n n n n n n n n n n n n n n n n n n n n n n n n n n n n n N M L |.J                 ",
"                        X Y 3 g n n n n n n n n n n n n n n n n n n n n n n n n n n n n n n n n n n n n n n n n n n n n n n N 9 1.2.3.                ",
"                        R S 3 <.n n n n n n n n n n n n n n n n n n n n n n n n n n n n n n n n n n n n n n n n n n n n n n ~.8 v 4.1                 ",
"                      J K L 3 5.n n n n n n n n n n n n n n n n n n n n n n n n n n n n n n n n n n n n n n n n n n n n n n o h 6._ 1                 ",
"                      x V z 3 ).7.8.n n n n n n n n n n n n n n n n n n n n n n n n n n n n n n n n n n n n n n n n n n n n p 9.0.~ b                 ",
"                      b ^ d 3 3 e a.n n n n n n n n n n n n n n n n n n n n n n n n n n n n n n n n n n n n n n n n n n n n n b.e c.b                 ",
"                      b d.3 3 3 e C n n n n n n n n n n n n n n n n n n n n n n n n n n n n n n n n n n n n n n n n n n n n n C e d.b                 ",
"                      b d.3 3 3 e C n n n n n n n n n n n n n n n n n n n n n n n n n n n n n n n n n n n n n n n n n n n n n C e d.b                 ",
"                      b d.3 3 3 e C n n n n n n n n n n n n n n n n n n n n n n n n n n n n n n n n n n n n n n n n n n n n n C e d.b                 ",
"                      b d.3 3 3 e C n n n n n n n n n n n n n n n n n n n n n n n n n n n n n n n n n n n n n n n n n n n n n C e d.b                 ",
"                      b d.3 3 3 3 C n n n n n n n n n n n n n n n n n n n n n n n n n n n n n n n n n n n n n n n n n n n n n C e d.b                 ",
"                      b d.3 3 3 '.e.n n n n n n n n n n n n n n n n n n n n n n n n n n n n n n n n n n n n n n n n n n n n n C e d.b                 ",
"                      b d.3 3 3 f.:.n n n n n n n n n n n n n n n n n n n n n n n n n n n n n n n n n n n n n n n n n n n n n C e d.b                 ",
"                      b d.3 3 3 i n n n n n n n n n n n n n n n n n n n n n n n n n n n n n n n n n n n n n n n n n n n n n n C e d.b                 ",
"                      b d.3 3 3 i n n n n n n n n n n n n n n n n n n n n n n n n n n n n n n n n n n n n n n n n n n n n n n C e d.b                 ",
"                      b d.3 3 3 s n n n n n n n n n n n n n n n n n n n n n n n n n n n n n n n n n n n n n n n n n n n n n n C e d.b                 ",
"                      #.g.3 3 3 i n n n n n n n n n n n n n n n n n n n n n n n n n n n n n n n n n n n n n n n n n n n n n n C e d.b                 ",
"                      h.i.3 3 3 i n n n n n n n n n n n n n n n n n n n n n n n n n n n n n n n n n n n n n n n n n n n n n n C e d.b                 ",
"                      j.k.3 3 3 i n n n n n n n n n n n n n n n n n n n n n n n n n n n n n n n n n n n n n n n n n n n n n n C e d.b                 ",
"                      y l.3 3 3 i n n n n n n n n n n n n n n n n n n n n n n n n n n n n n n n n n n n n n n n n n n n n n n m.n.d.b                 ",
"                      [ 3 3 3 3 i n n n n n n n n n n n n n n n n n n n n n n n n n n n n n n n n n n n n n n n n n n n n n p o.n.d.b                 ",
"                      < 3 3 3 3 i n n n n n n n n n n n n n n n n n n n n n n n n n n n n n n n n n n n n n n n n n n n n n p r n.d.b                 ",
"                      : 3 3 3 3 i n n n n n n n n n n n n n n n n n n n n n n n n n n n n n n n n n n n n n n n n n n n n n p r n.d.b                 ",
"                      : 3 3 3 3 i n n n n n n n n n n n n n n n n n n n n n n n n n n n n n n n n n n n n n n n n n n n n n p r n.d.b                 ",
"                      : 3 3 3 3 i n n n n n n n n n n n n n n n n n n n n n n n n n n n n n n n n n n n n n n n n n n n n n p r n.d.b                 ",
"                      : 3 3 3 3 i n n n n n n n n n n n n n n n n n n n n n n n n n n n n n n n n n n n n n n n n n n n n n p r n.d.b                 ",
"                      : 3 3 3 p.i n q.r.s.s.s.s.s.s.s.s.s.s.s.s.s.s.s.s.s.s.s.s.s.s.s.s.s.s.s.s.s.s.s.s.t.u.v.w.n n n n n n p r n.{ b                 ",
"                      : 3 3 3 l.i n x.y.y.y.y.y.y.y.y.y.y.y.y.y.y.y.y.y.y.y.y.y.y.y.y.y.y.y.y.y.y.y.y.y.y.z.A.B.C.C.D.E.n n p F.G.H.1                 ",
"                      : 3 3 3 3 i n y.y.y.y.y.y.y.y.y.y.y.y.y.y.y.y.y.y.y.y.y.y.y.y.y.y.y.y.y.y.y.y.y.y.y.y.y.y.y.y.y.z.p n n I.J.K.1                 ",
"                      : 3 3 3 3 i n y.y.y.y.y.y.y.y.y.y.y.y.y.y.y.y.y.y.y.y.y.y.y.y.y.y.y.y.y.y.y.y.y.y.y.y.y.y.y.y.y.y.p n n C L.M.3.                ",
"                      : 3 3 3 3 i n N.O.y.y.y.y.y.y.y.y.y.P.y.A.Q.R.R.R.A.y.y.y.y.y.y.y.y.y.y.y.y.y.y.y.y.y.y.y.y.y.y.z.p n n C S.T.J                 ",
"                    U.H.3 3 3 3 i n p V.W.X.Y.Z.`.`.`.`.`.`.`.`.`.`.`.`.`.`.`.`.`.`.`.`.`.`.`.`.`.`.`.`.`.`.`. +.+++@+#+n n n C $+%+                  ",
"                    &+*+3 3 3 3 i n X.=+-+;+>+,+,+,+,+,+,+,+,+,+,+,+,+,+,+,+,+,+,+,+,+,+,+,+,+,+,+,+,+,+,+,+,+,+,+,+,+'+)+n n C !+X                   ",
"                    = ~+3 3 3 3 i n {+,+,+,+,+,+,+,+,+,+,+,+,+,+,+,+,+,+,+,+,+,+,+,+,+,+,+,+,+,+,+,+,+,+,+,+,+,+,+,+,+,+]+n n C ^+X                   ",
"                    /+(+3 3 3 3 i n _+,+,+,+,+,+,+,+,+,+,+,+,+,+,+,+,+,+,+,+,+,+,+,+,+,+,+,+,+,+,+,+,+,+,+,+,+,+,+,+,+:+<+n n C ^+X                   ",
"                    I z 3 3 3 3 i n [+}+|+,+,+,+,+,+,+,+,+,+,+,+,+,+,+,+,+1+;+;+2+3+,+}+;+;+;+;+}+,+,+|+,+;+4+5+;+;+5+6+p n n m.!+X                   ",
"                    w v 3 3 3 3 i n w.X.Z.Z.Z.Z.Z.Z.7+7+7+7+7+7+7+7+7+7+C.8+9+0+a+b+c+d+e+a+a+0+f+g+h+7+7+i+j+W.X.X.k+]+n n p l+m+X                   ",
"                    w v 3 3 3 3 i n n+o+p+q+r+s+t+u+v+w+x+x+x+x+x+x+x+x+y+y+y+y+y+y+y+y+y+y+y+y+y+y+x+x+z+A+B+C+C+D+E+F+n n o G+m+X                   ",
"                    w v 3 3 3 3 H+n I+x+J+y+y+y+J+y+y+y+y+y+y+y+y+y+y+y+y+y+y+y+y+y+y+y+y+y+y+y+y+y+y+y+y+y+y+y+y+y+y+K+o n o L+m+X                   ",
"                    w v 3 3 3 4 M+p N+y+y+y+y+y+y+y+y+y+y+y+y+y+y+y+y+y+y+y+y+y+y+y+y+y+y+y+y+y+y+y+y+y+y+y+y+y+y+y+y+x+o n O+P+S X                   ",
"                    w v 3 3 3 ..7.p A+y+y+y+y+y+y+y+y+y+y+y+y+y+z+Q+Q+Q+K+R+S+S+S+S+S+S+S+S+S+S+T+Q+y+y+y+y+y+y+y+y+y+N+o n T ..;.>.                  ",
"                  , U+v 3 3 3 9 r n V+D+W+X+C+I+I+I+I+I+I+I+I+Y+Z+q+`+q+E n n n n n n n n n n n n+ @Y+I+I+I+I+I+I+I+I+.@n m g d -.%                   ",
"                  +@@@0 3 3 3 3 8 B N n+:.N o O+~.~.~.~.~.~.O+o n n n n n n n n n n n n n n n n n n n n n o ~.~.~.~.~.N l #@M d *.=.                  ",
"                  >.c.3 3 3 3 3 3 ..P+G+r $@f.'.M M M M M M '.5.%@C C C C C C C C C C C C C C C C C C l &@*@..M M M M M M 3 3 +.@.#.                  ",
"                  X =@3 3 3 3 3 3 3 3 n.n.n.3 3 3 3 3 3 3 3 3 3 n.e e e e e e e e e e e e e e e e e e n.n.3 3 3 3 3 3 3 3 3 3 2 -@W                   ",
"                  X ;@3 3 3 3 3 3 3 3 3 3 3 3 3 3 3 3 3 3 3 3 3 3 3 3 3 3 3 3 3 3 3 3 3 3 3 3 3 3 3 3 3 3 3 3 3 3 3 3 3 3 3 3 ~+>@Q                   "};
