/* XPM */
static char * exit_xpm[] = {
"76 76 21 1",
" 	c #000000",
".	c #3A3A3A",
"+	c #525252",
"@	c #060606",
"#	c #202020",
"$	c #282828",
"%	c #333333",
"&	c #414141",
"*	c #161616",
"=	c #343434",
"-	c #444444",
";	c #A8A8A8",
">	c #FFFFFF",
",	c #B1B1B1",
"'	c #030303",
")	c #1E1E1E",
"!	c #0D0D0D",
"~	c #232323",
"{	c #4A4A4A",
"]	c #080808",
"^	c #A9A9A9",
"                                                                            ",
"                  .                                                         ",
"                 .+.                                                        ",
"       @#        .+.                       $$                               ",
"      @%+#        .                       $++$                  ..          ",
"      #++&                 *=             $++$                 .++.         ",
"       #&                 *-+=             $$                   ..          ",
"                          *-+=                       $$                     ",
"                           *=                       $++$                    ",
"                                  &#                $++$                    ",
"                                 &++#                $$           $$        ",
"                                 #+%@ ;>>>>                      $++$       ",
"              @#                >>>>>>>>>>>>;                    $++$       ",
"             @%+#       $$    >>>>>;;;  *>>>>                     $$        ",
"             #++&      $++$ >>>         *-+=>>>                             ",
"              #&       $+,>>>            *=   >>>;                          ",
" *=                     $>;                     >>>                         ",
"*-+=                    >                         >>>                       ",
"*-+=                   >>                           >>>                     ",
" *=                   >>             '*              ;>>                    ",
"                     >;                                $>;                  ",
"            ..      >                                   )>;  ==             ",
"           .++.    >>                                !    > =++=    ..      ",
"            ..    >>                                   )   >*--*   .++.     ",
"                  >                                        >>**     ..      ",
"                 >;                                         >;              ",
"                >>                                          >>              ",
"        ~       >;                                           >;             ",
"       ~+~     ;>                                            >>             ",
"       {+{     >;                                             >;            ",
"        {     >>                                              >;            ",
"              >>                                              >;            ",
"   #@         >;                                              >;     **     ",
"  #+%@       ;>                                               >;    *--*    ",
"  &++#       >>                                               >;    =++=    ",
"   &#        >>                                               >      ==     ",
"             >>                                               >             ",
"             >>                                              ;>             ",
"             >>                                              >>             ",
"      .      >;                                              >>             ",
"     .+.     >;                                              >;             ",
"     .+.     >;                                             ;>              ",
"      .      >;                                             >;              ",
"             >                                             ;>               ",
"             >                                             >>  ..           ",
"             >                                            >>  .++.          ",
"             >                                            >    ..           ",
"             >                                           >;                 ",
"             >                                          >>                  ",
"             >;]                                        >                   ",
"    +        >>                                        >                    ",
"   +++        >                                       >~                    ",
"    +         >>                                    >>~                     ",
"              ;>                                   >>                       ",
"               >>                              * ;>;                        ",
"                >>                             ^>>                          ",
"                 >>;                          >>;                   .       ",
"                  ;>>;                     >>>>          .         .+.      ",
"                    >>>;            ;;;>>>>>>           .+.        .+.      ",
"                      >>>>>>>>>>>>>>>>>>>>              .+.         .       ",
"                           ;;;;;                         .                  ",
"    +           **          .                                               ",
"   +++         *--*        .+.                ==                            ",
"    +          =++=        .+.    =*         =++=                           ",
"                ==          .    =+-*        *--*                           ",
"                                 =+-*         **                            ",
"                                  =*                                        ",
"                                                                      ==    ",
"                                                                     =++=   ",
"                        ..                       =*                  *--*   ",
"       $$              .++.           #@        =+-*                  **    ",
"      $++$              ..           #+%@       =+-*          $$            ",
"      $++$                           &++#        =*          $++$           ",
"       $$                             &#                     $++$           ",
"                                                              $$            ",
"                                                                            "};
