/* XPM */
static char * exit_xpm[] = {
"76 76 123 2",
"  	c #000000",
". 	c #010101",
"+ 	c #A5A5A5",
"@ 	c #CDCDCD",
"# 	c #CBCBCB",
"$ 	c #9C9C9C",
"% 	c #A6A6A6",
"& 	c #CACACA",
"* 	c #F0F0F0",
"= 	c #FFFFFF",
"- 	c #C5C5C5",
"; 	c #848484",
"> 	c #9F9F9F",
", 	c #F1F1F1",
"' 	c #D3D3D3",
") 	c #ADADAD",
"! 	c #AFAFAF",
"~ 	c #AEAEAE",
"{ 	c #B9B9B9",
"] 	c #E4E4E4",
"^ 	c #EEEEEE",
"/ 	c #D7D7D7",
"( 	c #686868",
"_ 	c #B2B2B2",
": 	c #CCCCCC",
"< 	c #7B7B7B",
"[ 	c #A1A1A1",
"} 	c #A2A2A2",
"| 	c #EFEFEF",
"1 	c #676767",
"2 	c #7C7C7C",
"3 	c #B5B5B5",
"4 	c #B3B3B3",
"5 	c #B8B8B8",
"6 	c #E1E1E1",
"7 	c #D2D2D2",
"8 	c #A3A3A3",
"9 	c #ABABAB",
"0 	c #D0D0D0",
"a 	c #DCDCDC",
"b 	c #6E6E6E",
"c 	c #7A7A7A",
"d 	c #BEBEBE",
"e 	c #9D9D9D",
"f 	c #DADADA",
"g 	c #989898",
"h 	c #737373",
"i 	c #9A9A9A",
"j 	c #9B9B9B",
"k 	c #727272",
"l 	c #D8D8D8",
"m 	c #999999",
"n 	c #D9D9D9",
"o 	c #A8A8A8",
"p 	c #D6D6D6",
"q 	c #EDEDED",
"r 	c #797979",
"s 	c #DBDBDB",
"t 	c #D4D4D4",
"u 	c #DDDDDD",
"v 	c #959595",
"w 	c #D5D5D5",
"x 	c #7D7D7D",
"y 	c #949494",
"z 	c #616161",
"A 	c #D1D1D1",
"B 	c #ECECEC",
"C 	c #757575",
"D 	c #DFDFDF",
"E 	c #929292",
"F 	c #7E7E7E",
"G 	c #C0C0C0",
"H 	c #8F8F8F",
"I 	c #5B5B5B",
"J 	c #9E9E9E",
"K 	c #969696",
"L 	c #868686",
"M 	c #E9E9E9",
"N 	c #E5E5E5",
"O 	c #040404",
"P 	c #919191",
"Q 	c #767676",
"R 	c #6A6A6A",
"S 	c #C6C6C6",
"T 	c #808080",
"U 	c #DEDEDE",
"V 	c #939393",
"W 	c #B4B4B4",
"X 	c #505050",
"Y 	c #C1C1C1",
"Z 	c #B1B1B1",
"` 	c #E8E8E8",
" .	c #525252",
"..	c #818181",
"+.	c #0D0D0D",
"@.	c #E0E0E0",
"#.	c #909090",
"$.	c #979797",
"%.	c #FAFAFA",
"&.	c #858585",
"*.	c #A4A4A4",
"=.	c #878787",
"-.	c #F5F5F5",
";.	c #4B4B4B",
">.	c #BABABA",
",.	c #151515",
"'.	c #1F1F1F",
").	c #111111",
"!.	c #090909",
"~.	c #3F3F3F",
"{.	c #E2E2E2",
"].	c #F3F3F3",
"^.	c #0A0A0A",
"/.	c #131313",
"(.	c #8D8D8D",
"_.	c #313131",
":.	c #FDFDFD",
"<.	c #CECECE",
"[.	c #FEFEFE",
"}.	c #2A2A2A",
"|.	c #AAAAAA",
"1.	c #CFCFCF",
"2.	c #383838",
"                                                                                                                                                        ",
"                                                                                                                                                        ",
"                                                                                                                                                        ",
"                                                                                                                                                        ",
"                                                                                                                                                        ",
"                                                                                                                                                        ",
"                                                                                                                                                        ",
"                                                                                                                                                        ",
"                                                                                                                                                        ",
"                                                                                                                                                        ",
"                                                                                                                                                        ",
"                                                                                                                                                        ",
"                                                                                                                                                        ",
"                                                                                                                                                        ",
"                                                                                                                                                        ",
"                                                                                                                                                        ",
"                                                                                                                                                        ",
"                                                                                                                                                        ",
"                                                                                                                                                        ",
"                                                                                                                                                        ",
"                                                                                                                                                        ",
"                                                                                                                                                        ",
"                                                                                                                                                        ",
"                                                                                                                                                        ",
"                                                                                                                                                        ",
"                                                                                                                                                        ",
"                                                                                                                                                        ",
"                                                                                                                                                        ",
"                                                                                                                                                        ",
"                                                    .                                 .                                                                 ",
"                                                .     + @ # # # # # # # # # # # # @ $     .                                                             ",
"                                              .   % & * = = = = = = = = = = = = = = - ; >   .                                                           ",
"                                                % , = ' ) ! ! ! ! ! ! ! ! ! ! ! ! ~ { ] ^ $     .                                                       ",
"                                            .   / = ' (                             _ = = : < [                                                         ",
"                                              } | ' 1   .                           2 3 4 5 6 7                                                         ",
"                                            8 * = $   .                           .       9 = 0   .                                                     ",
"                                            a = ' b                                       c { d e   .                                                   ",
"                                            f = g   .                                   .     h d i   .                                                 ",
"                                            f = j                                             k l ^ m                                                   ",
"                                            n = $                                             o = = p                                                   ",
"                                          j q n k                                             r s = t                                                   ",
"                                          u = v   .                                         .   [ = w   .                                               ",
"                                          s = g                                                 x - d y                                                 ",
"                                          f = m                                               .   z A n                                                 ",
"                                        y B u C                                                   8 = /   .                                             ",
"                                        D = E   .                                                 F : G H                                               ",
"                                        u = v                                                   .   I : f                                               ",
"                                        u = v                                                       J = l                                               ",
"                                        u = v                                                       e = l                                               ",
"                                        u = v                                                       e = l                                               ",
"                                        a = K                                                       e = l                                               ",
"                                    . L M N <                 .     .                               J = n                                               ",
"                                    O D = P               .     Q R                                 ; n S T                                             ",
"                                    O U = V                 Q y u W                                   X Y s                                             ",
"                                      U = V                 # = = Z                                   j = f                                             ",
"                                  O F M ` x              ...a = = Z                                   j = f                                             ",
"                                  +.@.= #.              $.D %.= = Z                                   j = f                                             ",
"                                  +.@.= #.              &.*.6 = = Z                                   =.6 & C                                           ",
"                                  +.@.= #.              O   4 -.= Z                                     ;.>.s                                           ",
"                                  +.@.= #.                    & = _                                     $.= s                                           ",
"                                  +.@.= #.                    W ` J                                     g = s                                           ",
"                                  +.@.= #.                    ,.'.).                                    g = s                                           ",
"                                  +.@.= #.                                                              g = s                                           ",
"                                  +.@.= #.                                                              g = s                                           ",
"                                  +.@.= #.                                                              g = s                                           ",
"                                  !.@.= #.                                                              g = s                                           ",
"                                . ~.{.].;                                                               g = s                                           ",
"                                ^.[ * v                                                                 g = s                                           ",
"                                /.D = (.                                                                g = s                                           ",
"                                /.6 = (.                                                              _.9 :.<.                                          ",
"                                /.6 = (.                                                              $.[.a _.                                          ",
"                                /.6 = (.                                                              j = f                                             ",
"                                /.6 = (.                                                            }.|.[.1.                                            ",
"                                /.6 = (.                                                            g :.s 2.                                            ",
"                                /.6 = (.                                                            e = l                                               ",
"                                /.6 = (.                                                            e = l                                               "};
