/* XPM */
static char * ground_xpm[] = {
"76 76 13 1",
" 	c #000000",
".	c #3A3A3A",
"+	c #525252",
"@	c #060606",
"#	c #202020",
"$	c #282828",
"%	c #333333",
"&	c #414141",
"*	c #161616",
"=	c #343434",
"-	c #444444",
";	c #232323",
">	c #4A4A4A",
"                                                                            ",
"                  .                                                         ",
"                 .+.                                                        ",
"       @#        .+.                       $$                               ",
"      @%+#        .                       $++$                  ..          ",
"      #++&                 *=             $++$                 .++.         ",
"       #&                 *-+=             $$                   ..          ",
"                          *-+=                       $$                     ",
"                           *=                       $++$                    ",
"                                  &#                $++$                    ",
"                                 &++#                $$           $$        ",
"                                 #+%@                            $++$       ",
"              @#                  #@     *=                      $++$       ",
"             @%+#       $$              *-+=                      $$        ",
"             #++&      $++$             *-+=                                ",
"              #&       $++$              *=                                 ",
" *=                     $$                                                  ",
"*-+=                                                                        ",
"*-+=                                                                        ",
" *=                                  #&                                     ",
"                                    #++&              $$                    ",
"            ..                      @%+#             $++$    ==             ",
"           .++.                      @#              $++$   =++=    ..      ",
"            ..                                        $$    *--*   .++.     ",
"                               #@                            **     ..      ",
"                              #+%@                                          ",
"                              &++#                                          ",
"        ;          $$          &#                                           ",
"       ;+;        $++$                                                      ",
"       >+>        $++$                                                      ",
"        >          $$                                =*                     ",
"                                                    =+-*                    ",
"   #@                                     ;+        =+-*             **     ",
"  #+%@                                   ;+++        =*             *--*    ",
"  &++#                                    ;+                        =++=    ",
"   &#                                                                ==     ",
"                                                                            ",
"                    $$                                                      ",
"                   $++$           ==                                        ",
"      .            $++$          =++=                                       ",
"     .+.            $$           *--*                 @#                    ",
"     .+.                          **                 @%+#                   ",
"      .                                              #++&                   ",
"                                                      #&                    ",
"                                         $$                    ..           ",
"                                        $++$                  .++.          ",
"                                        $++$                   ..           ",
"                                         $$                                 ",
"                                                                            ",
"               $$                                     >                     ",
"    +         $++$                                   >+>                    ",
"   +++        $++$           $$                      ;+;                    ",
"    +          $$           $++$                      ;                     ",
"                            $++$             =*                             ",
"                             $$             =+-*                            ",
"                                            =+-*                            ",
"                                             =*                     .       ",
"                                                         .         .+.      ",
"                                                        .+.        .+.      ",
"                                                        .+.         .       ",
"                                                         .                  ",
"    +           **          .                                               ",
"   +++         *--*        .+.                ==                            ",
"    +          =++=        .+.    =*         =++=                           ",
"                ==          .    =+-*        *--*                           ",
"                                 =+-*         **                            ",
"                                  =*                                        ",
"                                                                      ==    ",
"                                                                     =++=   ",
"                        ..                       =*                  *--*   ",
"       $$              .++.           #@        =+-*                  **    ",
"      $++$              ..           #+%@       =+-*          $$            ",
"      $++$                           &++#        =*          $++$           ",
"       $$                             &#                     $++$           ",
"                                                              $$            ",
"                                                                            "};
