/* XPM */
static char * player_xpm[] = {
"76 76 23 1",
" 	c #000000",
".	c #3A3A3A",
"+	c #525252",
"@	c #060606",
"#	c #202020",
"$	c #282828",
"%	c #333333",
"&	c #414141",
"*	c #161616",
"=	c #343434",
"-	c #444444",
";	c #FFFFFF",
">	c #A8A8A8",
",	c #AEAEAE",
"'	c #232323",
")	c #4A4A4A",
"!	c #ADADAD",
"~	c #CFCFCF",
"{	c #F1F1F1",
"]	c #BDBDBD",
"^	c #D0D0D0",
"/	c #7A7A7A",
"(	c #ACACAC",
"                                                                            ",
"                  .                                                         ",
"                 .+.                                                        ",
"       @#        .+.                       $$                               ",
"      @%+#        .                       $++$                  ..          ",
"      #++&                 *=             $++$                 .++.         ",
"       #&                 *-+=             $$                   ..          ",
"                          *-+=                       $$                     ",
"                           *=                       $++$                    ",
"                                  &#                $++$                    ",
"                                 &++#                $$           $$        ",
"                                 #+%@                            $++$       ",
"              @#                  #@     *=                      $++$       ",
"             @%+#       $$       ;;;;;;;;;+=                      $$        ",
"             #++&      $++$     ;;;;;;;;;;;;;                               ",
"              #&       $++$   >;>        *=;;;                              ",
" *=                     $$    ;>              ;>                            ",
"*-+=                         ;;                ;;                           ",
"*-+=                         ;>                ;;                           ",
" *=                          ;       #&         ;>                          ",
"                            ;;      #++&        ;>    $$                    ",
"            ..              ;;      @%+#        ;>   $++$    ==             ",
"           .++.             ;>       @#         ;>   $++$   =++=    ..      ",
"            ..              ;;                  ;     $$    *--*   .++.     ",
"                            ;; #@              ;;            **     ..      ",
"                            ;;#+%@             ;>                           ",
"                             ;,++#           >;                             ",
"        '          $$        >;&#           ;;                              ",
"       '+'        $++$         ;;>>;>>>>>>;;;                               ",
"       )+)        $++$          ;;;;;;;;;;;                                 ",
"        )          $$               !;               =*                     ",
"                                    ;;              =+-*                    ",
"   #@                               ;;    '+        =+-*             **     ",
"  #+%@                              ;;   '+++        =*             *--*    ",
"  &++#                              ;;    '+                        =++=    ",
"   &#                               ;;                               ==     ",
"                                    ;>                                      ",
"                    $$              ;>                                      ",
"                   $++$           ==;>                                      ",
"      .            $++$          =++;>                                      ",
"     .+.            $$           *-~;                 @#                    ",
"     .+.                          *;;{;              @%+#                   ",
"      .                           ;>;];>             #++&                   ",
"                                 ;; ;> ;;             #&                    ",
"                                ;;  ;>  ;;$                    ..           ",
"                               ;;   ;>  $;+$                  .++.          ",
"                              ;;    ;>  $+;$                   ..           ",
"                              ;     ;>   $$;                                ",
"                            >;      ;      ;;                               ",
"               $$           ;      >;       ;;        )                     ",
"    +         $++$         ;;      ;;       >;       )+)                    ",
"   +++        $++$        ;; $$    ;;        ;;      '+'                    ",
"    +          $$         ; $++$   >;        >;;      '                     ",
"                         ;; $++$   ;;        =*>                            ",
"                        ;;   $$    ;        =+-*                            ",
"                                  >;        =+-*                            ",
"                                  ^;/        =*                     .       ",
"                                  >;/                    .         .+.      ",
"                                  >;                    .+.        .+.      ",
"                                  ;;                    .+.         .       ",
"                                 >;;>                    .                  ",
"    +           **          .    ;;>;                                       ",
"   +++         *--*        .+.   ;  ;;        ==                            ",
"    +          =++=        .+.  >;=* ;>      =++=                           ",
"                ==          .   ;;+-*;;      *--*                           ",
"                                ;(+-* ;>      **                            ",
"                               ;; =*   ;                                    ",
"                               ;>      ;;                             ==    ",
"                               ;        ;>                           =++=   ",
"                        ..    ;;         ;       =*                  *--*   ",
"       $$              .++.   ;       #@ ;;     =+-*                  **    ",
"      $++$              ..   ;;      #+%@ ;>    =+-*          $$            ",
"      $++$                   ;       &++# >;     =*          $++$           ",
"       $$                   ;;        &#   ;;                $++$           ",
"                            ;>             >;                 $$            ",
"                           >;               ;>                              "};
