/* XPM */
static char * player_xpm[] = {
"75 75 39 1",
" 	c #00FF00",
".	c #00F400",
"+	c #00D100",
"@	c #00A700",
"#	c #008F00",
"$	c #008800",
"%	c #00CB00",
"&	c #000000",
"*	c #007800",
"=	c #00E100",
"-	c #44FC00",
";	c #55F400",
">	c #00A000",
",	c #00BC00",
"'	c #009600",
")	c #00C100",
"!	c #005F00",
"~	c #004E00",
"{	c #7A7A7A",
"]	c #E8E8E8",
"^	c #9E9E9E",
"/	c #3D3D3D",
"(	c #006800",
"_	c #BDBDBD",
":	c #FFFFFF",
"<	c #A8A8A8",
"[	c #001C00",
"}	c #BCBCBC",
"|	c #006C00",
"1	c #00AE00",
"2	c #009400",
"3	c #00A600",
"4	c #28FD00",
"5	c #3FF900",
"6	c #45F800",
"7	c #005500",
"8	c #01FF00",
"9	c #19FE00",
"0	c #004A00",
"                                                                           ",
"                                                                           ",
"                                                                           ",
"                                                                           ",
"                                                                           ",
"                                                                           ",
"                                                                           ",
"                                                                           ",
"                                                                           ",
"                                                                           ",
"                                                                           ",
"                                                                           ",
"                                                                           ",
"                                                                           ",
"                                                                           ",
"                                                                           ",
"                                                                           ",
"                                                                           ",
"                                                                           ",
"                                                                           ",
"                                                                           ",
"                            .+@#$#@+.                                      ",
"                          %&&&&&&&&&&&&&&*=                                ",
"                  -;     =&&&&&&&&&&&&&&&&&>.                              ",
"                        ,&&&&&&&&&&&&&&&&&&&'                              ",
"                       %&&&&&&&&&&&&&&&&&&&&&'.                            ",
"                   .)!&&&&&&&&&&&&&&&&&&&&&&&&)                            ",
"                  =~&&&&&&&{]&&&&&&&&^/&&&&&&&(                            ",
"                 ,&&&&&&&&&_:&&&&&&&&:^&&&&&&&&                            ",
"                =&&&&&&&&&&::&&&&&&&&:&&&&&&&&(                            ",
"                *&&&&&&&&&&::&&&&&&&&:&&&&&&&&)                            ",
"                &&&&&&&&&&&<&&&&&&&&&:&&&&&&&&.                            ",
"                &&&&&&&&&&&&&&&&&&&&<:&&&&&&&[                             ",
"                *&&&&&&&&&&&&&&&&&&&::&&&&&&&&,                            ",
"                =&&&&&&&&&&&&&&&&&&&&&&&&&&&&&&=                           ",
"                 &&&&&&&&&}}&&&&&&&&&&&&&&&&&&&|                           ",
"                 &&&&&&&&&::&&&&&&&&&&&&&&&&&&&&                           ",
"                 *&&&&&&&&&:&&&&&&&&&&&&&&&&&&&&                           ",
"                 =&&&&&&&&&&::<<&&&&&&&&&&&&&&&&                           ",
"                  =~&&&&&&&&&:::::::<:<<<::&&&&&                           ",
"                   .1&&&&&&&&&&&<<:::::::::&&&&&                           ",
"                     .2&&&&&&&&&&&&&&&&&&&&&&&&&                           ",
"                       =~&&&&&&&&&&&&&&&&&&&&&&3                           ",
"     456                .)~&&&&&&&&&&&&&&&&&&&&.                           ",
"                           .)7&&&&&&&&&&&&&&&&,                            ",
"           89                  .)0&&&&&&&&&&&%                       8     ",
"                                    .)!&&&!).                              ",
"                                                                           ",
"                                                                           ",
"                                                                           ",
"                                                                           ",
"                                                                           ",
"                                                                           ",
"                                                                           ",
"                                                                           ",
"                                                                           ",
"                                                                           ",
"                                                                           ",
"                                                                           ",
"                                                                           ",
"                                                                           ",
"                                                                           ",
"                                                                           ",
"                                                                           ",
"                                                                           ",
"                                                                           ",
"                                                                           ",
"                                                                           ",
"                                                                           ",
"                                                                           ",
"                                                                           ",
"                                                                           ",
"                                                                           ",
"                                                                           ",
"                                                                           "};
