/* XPM */
static char * player_xpm[] = {
"76 76 8 1",
" 	c #000000",
".	c #FFFFFF",
"+	c #E8E8E8",
"@	c #A8A8A8",
"#	c #9E9E9E",
"$	c #DBDBDB",
"%	c #F1F1F1",
"&	c #D0D0D0",
"                                                                            ",
"                                                                            ",
"                                                                            ",
"                                                                            ",
"                                                                            ",
"                                                                            ",
"                                                                            ",
"                                                                            ",
"                                                                            ",
"                                                                            ",
"                                                                            ",
"                                                                            ",
"                                                                            ",
"                                                                            ",
"                                                                            ",
"                                     ..+                                    ",
"                                  @......@                                  ",
"                                 ...@  @@..                                 ",
"                                ..        @.@                               ",
"                                .          @.                               ",
"                               .@           .@                              ",
"                               ..            .                              ",
"                               ..            .@                             ",
"                                .            .@                             ",
"                                @.@          .@                             ",
"                                  ..@        .@                             ",
"                                   @..........                              ",
"                                     @.....@                                ",
"                                      .#                                    ",
"                                      .$                                    ",
"                                      ..                                    ",
"                                      ..@                                   ",
"                                      ...                                   ",
"                                     @....                                  ",
"                                    ..@. .                                  ",
"                                  @.@ @.  .                                 ",
"                                 ..@  @.  ..                                ",
"                                ..    %.  ...                               ",
"                               .@     ..    ..                              ",
"                              .@      ..     @..                            ",
"                             .        ..       ...                          ",
"                           @.         ..        @..                         ",
"                          @.          @.          @..                       ",
"                                      @.            @                       ",
"                                      @.                                    ",
"                                      @.                                    ",
"                                      @.                                    ",
"                                      @.                                    ",
"                                      @.                                    ",
"                                      @.                                    ",
"                                      @.                                    ",
"                                      @.                                    ",
"                                      @.                                    ",
"                                      @.                                    ",
"                                      @.                                    ",
"                                      ..                                    ",
"                                      ..@                                   ",
"                                     ....                                   ",
"                                     .  .                                   ",
"                                    ..  ..                                  ",
"                                    .    .@                                 ",
"                                   ..    @.                                 ",
"                                  @.      ..                                ",
"                                  .        .&                               ",
"                                 @.         .                               ",
"                                 .@          .                              ",
"                                ..           @.                             ",
"                                .             ..                            ",
"                               ..              .@                           ",
"                              @.               @.                           ",
"                              ..                ..                          ",
"                             @.                  .                          ",
"                             ..                  @.                         ",
"                            ..                    ..                        ",
"                            ..                    @.                        ",
"                            .                      @.                       "};
