/* XPM */
static char * wall_xpm[] = {
"75 75 206 2",
"  	c #00FF00",
". 	c #AACC00",
"+ 	c #ACED00",
"@ 	c #E87C00",
"# 	c #B0F300",
"$ 	c #BABD00",
"% 	c #FD2100",
"& 	c #2CFD00",
"* 	c #BBBA00",
"= 	c #FF8900",
"- 	c #26FD00",
"; 	c #C0B800",
"> 	c #9FE000",
", 	c #0CFF00",
"' 	c #78F400",
") 	c #FF8100",
"! 	c #79E800",
"~ 	c #FF0000",
"{ 	c #FF8000",
"] 	c #79F400",
"^ 	c #21FE00",
"/ 	c #E7CA00",
"( 	c #AAC900",
"_ 	c #78E800",
": 	c #FF8F00",
"< 	c #79F700",
"[ 	c #26FE00",
"} 	c #FDBB00",
"| 	c #BCB900",
"1 	c #19FF00",
"2 	c #CAD300",
"3 	c #E3A600",
"4 	c #56FB00",
"5 	c #FEB900",
"6 	c #01FF00",
"7 	c #19FE00",
"8 	c #FD2A00",
"9 	c #BCBB00",
"0 	c #BAE200",
"a 	c #FB6400",
"b 	c #25FD00",
"c 	c #BABB00",
"d 	c #FCC000",
"e 	c #FD1F00",
"f 	c #BCBC00",
"g 	c #FD8A00",
"h 	c #BCBA00",
"i 	c #FD1C00",
"j 	c #09FE00",
"k 	c #BBB900",
"l 	c #CAD100",
"m 	c #FD2200",
"n 	c #BCBD00",
"o 	c #BDBA00",
"p 	c #FF1600",
"q 	c #D4DE00",
"r 	c #6DF800",
"s 	c #F89700",
"t 	c #D3A100",
"u 	c #D3DF00",
"v 	c #21FD00",
"w 	c #FD6600",
"x 	c #BCE900",
"y 	c #FE3600",
"z 	c #BCC500",
"A 	c #78E900",
"B 	c #FF1100",
"C 	c #E8C900",
"D 	c #79E900",
"E 	c #E8D600",
"F 	c #DBE200",
"G 	c #E68100",
"H 	c #F27400",
"I 	c #86F700",
"J 	c #75EA00",
"K 	c #E28500",
"L 	c #F69C00",
"M 	c #E87800",
"N 	c #EAD500",
"O 	c #73FB00",
"P 	c #34FC00",
"Q 	c #E67F00",
"R 	c #EC7200",
"S 	c #BBBD00",
"T 	c #71F700",
"U 	c #E77E00",
"V 	c #73F600",
"W 	c #24FD00",
"X 	c #E6D700",
"Y 	c #E87D00",
"Z 	c #FA6A00",
"` 	c #AAED00",
" .	c #FD6700",
"..	c #BAEA00",
"+.	c #57F400",
"@.	c #BFB800",
"#.	c #E8B000",
"$.	c #E87B00",
"%.	c #EAAE00",
"&.	c #FD4D00",
"*.	c #BCD400",
"=.	c #E67D00",
"-.	c #E97B00",
";.	c #E6C900",
">.	c #FD1E00",
",.	c #34FB00",
"'.	c #FD5E00",
").	c #82F100",
"!.	c #7EE600",
"~.	c #FE1800",
"{.	c #FF9100",
"].	c #78F700",
"^.	c #BCEA00",
"/.	c #86E200",
"(.	c #F25A00",
"_.	c #BABC00",
":.	c #FF7E00",
"<.	c #FF4100",
"[.	c #BBBB00",
"}.	c #FF6000",
"|.	c #79F000",
"1.	c #FD3600",
"2.	c #7DE600",
"3.	c #BEB800",
"4.	c #FCAB00",
"5.	c #25FE00",
"6.	c #6DED00",
"7.	c #F74C00",
"8.	c #9ED400",
"9.	c #A0D700",
"0.	c #FE5B00",
"a.	c #FB3400",
"b.	c #77E900",
"c.	c #F74900",
"d.	c #72EC00",
"e.	c #9FD300",
"f.	c #C0B600",
"g.	c #27FD00",
"h.	c #CAD400",
"i.	c #FF0B00",
"j.	c #CBB400",
"k.	c #BDD400",
"l.	c #ACEC00",
"m.	c #F55600",
"n.	c #E87600",
"o.	c #E87900",
"p.	c #BCD300",
"q.	c #FD4C00",
"r.	c #F89800",
"s.	c #72F600",
"t.	c #E59700",
"u.	c #A1D200",
"v.	c #D49F00",
"w.	c #EBC700",
"x.	c #4FFC00",
"y.	c #E99000",
"z.	c #E67E00",
"A.	c #BCE100",
"B.	c #FD5D00",
"C.	c #FE1E00",
"D.	c #72EB00",
"E.	c #F84300",
"F.	c #30FC00",
"G.	c #CBB500",
"H.	c #EB7900",
"I.	c #31FD00",
"J.	c #EB7200",
"K.	c #31FC00",
"L.	c #C1B700",
"M.	c #7BE800",
"N.	c #D4DD00",
"O.	c #33FB00",
"P.	c #59F300",
"Q.	c #36FB00",
"R.	c #7AE700",
"S.	c #86E100",
"T.	c #CFB100",
"U.	c #BFD200",
"V.	c #4FFD00",
"W.	c #58F400",
"X.	c #76E900",
"Y.	c #C1B600",
"Z.	c #7CE700",
"`.	c #86F600",
" +	c #F27300",
".+	c #51F400",
"++	c #BDB900",
"@+	c #CDA600",
"#+	c #7AEF00",
"$+	c #FF6300",
"%+	c #57FB00",
"&+	c #7FEA00",
"*+	c #E5CB00",
"=+	c #37FB00",
"-+	c #FE8900",
";+	c #ECC400",
">+	c #4FF500",
",+	c #37FC00",
"'+	c #78EC00",
")+	c #FF4600",
"!+	c #FB3700",
"~+	c #FF2900",
"{+	c #FDB900",
"]+	c #FE3200",
"^+	c #BAC700",
"/+	c #89F500",
"                                                                                                                                                      ",
"                                                                                                                                                      ",
"                                                                                                                                                      ",
"                                                                                                                                                      ",
"                                                                                                                                                      ",
"                                                                                                                                                      ",
"                                                                                                                                                      ",
"                                                                                                                                                      ",
"                                                                                                                                                      ",
"                                                                                                                                                      ",
"                                                                                                                                                      ",
"                                                                                                                                                      ",
"                                                                                                                                                      ",
"                                                                                                                                                      ",
"                                                                                                                                                      ",
"                                                                                                                                                      ",
"          . +                                                                                                                                         ",
"          @ #                                                                                                                                         ",
"        $ % &                                                                                                                                         ",
"        * = -                                                                                                                                         ",
"        ; > ,                                                                                                                                         ",
"      ' ) !                                                                                                                                           ",
"      ! ~ !                                                                                                                                           ",
"      ! { ]                       ^ / (                                                                                                               ",
"      _ : <                       [ } |                                                                                                               ",
"    1 2 3 4                       [ } |                                                                                                               ",
"    [ 5 *                         [ } |           1 - 6                   7 [ 6                                                                       ",
"    - 8 9                         [ } |           0 a b                   c d [                                                                       ",
"    - e f                         - g h           h i j 6                 k l 1                   6     6                                             ",
"    - m n                         - i f           o p q                 r s _                       t u                           ^ v                 ",
"    - w x                         - y z         A ~ B C                 D ~ !                       @ E                           F G                 ",
"    - w x                         - H I         J K L M                 ! ~ !                       @ N                           O H I               ",
"    - w x                         P Q         v R S T U                 ! ) '                       U V                           W y z               ",
"    - w x                         X Y         V Z ` v  ...            , > ;                       .. .-                           - i f               ",
"    - w x         +.@.+.          #.$.        %.M   - &.*.            - = *                       x w -                           - = *               ",
"    - w x         ! ~ !           M =.        -.;.  - >.9             - i f                       x w -                           , > ;               ",
"    - w x         ! ~ !           Q ,.      0 '.).! !.~.f             - y z                       x w -                             ! {.].            ",
"    -  .^.        ! ~ !         /.(.-       _.~ :.~ ~ <.[.            - H I                       x w -                             ! }.|.            ",
"    - 1.z       6 2.~ !         3.4.5.    6.7.8.! ! ! 9.;             P Q                         x w -                             A ~ A             ",
"    - 0.[.      b a.~ !       b.c.d.6     e.f.        ! ) '           ;.@                         ^. .-                             , g.,             ",
"    1 h.k         i.~ !   6   j.k.      l.m./.        ! ~ !           n.o.                        p.q.-                                               ",
"      _ r.s.v l.t.u.~ !     v.w.x.      y.z.          ' ) !           o.@                         A.B.-                                               ",
"      r L ~.C.m.D.6.E.A F.G.H.I.      $ J.K.            L.M.          Y N.          O.P.          x w -                             Q.R.A ,           ",
"        S.9 9 /.    k.T.| U.V.      W.$.X.              Y.Z.        `. +.+++| | | | @+Y.          ^. .-                             #+$+~ -           ",
"                    %+&+*+          =+Z.Q.              P.=+        .. .J.-+} } } } ;+>+          z 1.,+[ [ [ [ [ - - - - 7         '+)+!+b           ",
"                      6 ^                                           1 - - - [ [ [ [ ^             z ~+{+} } } } {+8 e e ]+^+        , - b 6           ",
"                                                                                                  /+z | | | | | | 9 f f z /+                          ",
"                                                                                                                                                      ",
"                                                                                                                                                      ",
"                                                                                                                                                      ",
"                                                                                                                                                      ",
"                                                                                                                                                      ",
"                                                                                                                                                      ",
"                                                                                                                                                      ",
"                                                                                                                                                      ",
"                                                                                                                                                      ",
"                                                                                                                                                      ",
"                                                                                                                                                      ",
"                                                                                                                                                      ",
"                                                                                                                                                      ",
"                                                                                                                                                      ",
"                                                                                                                                                      ",
"                                                                                                                                                      ",
"                                                                                                                                                      ",
"                                                                                                                                                      ",
"                                                                                                                                                      ",
"                                                                                                                                                      ",
"                                                                                                                                                      ",
"                                                                                                                                                      ",
"                                                                                                                                                      ",
"                                                                                                                                                      ",
"                                                                                                                                                      ",
"                                                                                                                                                      ",
"                                                                                                                                                      ",
"                                                                                                                                                      "};
