/* XPM */
static char * 2_xpm[] = {
"34 60 3 1",
" 	c #000000",
".	c #FF0000",
"+	c #800000",
"                                  ",
"                                  ",
"                                  ",
"     ........................     ",
"     ........................     ",
"   ++   ..................   ..   ",
"   ++   ..................   ..   ",
"   ++   ..................   ..   ",
"     +++  ..............  .....   ",
"     +++  ..............  .....   ",
"   ++   ++              .......   ",
"   ++   ++              .......   ",
"   ++   ++              .......   ",
"     +++                .......   ",
"     +++                .......   ",
"     +++                .......   ",
"   ++   ++              .......   ",
"   ++   ++              .......   ",
"     +++                .......   ",
"     +++                .......   ",
"     +++                .......   ",
"   ++   ++              .......   ",
"   ++   ++              .......   ",
"     +++                  .....   ",
"     +++                  .....   ",
"     +++                  .....   ",
"   ++   ..................   ..   ",
"   ++   ..................   ..   ",
"   ++   ..................   ..   ",
"     ........................     ",
"     ........................     ",
"   ..   ..................   ++   ",
"   ..   ..................   ++   ",
"   ..   ..................   ++   ",
"   .....                  +++     ",
"   .....                  +++     ",
"   .....                  +++     ",
"   .......              ++   ++   ",
"   .......              ++   ++   ",
"   .......                +++     ",
"   .......                +++     ",
"   .......                +++     ",
"   .......              ++   ++   ",
"   .......              ++   ++   ",
"   .......                +++     ",
"   .......                +++     ",
"   .......                +++     ",
"   .......              ++   ++   ",
"   .......              ++   ++   ",
"   .......              ++   ++   ",
"   .....  ..............  +++     ",
"   .....  ..............  +++     ",
"   ..   ..................   ++   ",
"   ..   ..................   ++   ",
"   ..   ..................   ++   ",
"     ........................     ",
"     ........................     ",
"                                  ",
"                                  ",
"                                  "};
