/* XPM */
static char * 4_xpm[] = {
"34 60 3 1",
" 	c #000000",
".	c #800000",
"+	c #FF0000",
"                                  ",
"                                  ",
"                                  ",
"        ..   ...  ...   ..        ",
"        ..   ...  ...   ..        ",
"   ++     ...   ..   ...     ++   ",
"   ++     ...   ..   ...     ++   ",
"   ++     ...   ..   ...     ++   ",
"   +++++     ...  ...     +++++   ",
"   +++++     ...  ...     +++++   ",
"   +++++++              +++++++   ",
"   +++++++              +++++++   ",
"   +++++++              +++++++   ",
"   +++++++              +++++++   ",
"   +++++++              +++++++   ",
"   +++++++              +++++++   ",
"   +++++++              +++++++   ",
"   +++++++              +++++++   ",
"   +++++++              +++++++   ",
"   +++++++              +++++++   ",
"   +++++++              +++++++   ",
"   +++++++              +++++++   ",
"   +++++++              +++++++   ",
"   +++++                  +++++   ",
"   +++++                  +++++   ",
"   +++++                  +++++   ",
"   ++   ++++++++++++++++++   ++   ",
"   ++   ++++++++++++++++++   ++   ",
"   ++   ++++++++++++++++++   ++   ",
"     ++++++++++++++++++++++++     ",
"     ++++++++++++++++++++++++     ",
"   ..   ++++++++++++++++++   ++   ",
"   ..   ++++++++++++++++++   ++   ",
"   ..   ++++++++++++++++++   ++   ",
"     ...                  +++++   ",
"     ...                  +++++   ",
"     ...                  +++++   ",
"   ..   ..              +++++++   ",
"   ..   ..              +++++++   ",
"     ...                +++++++   ",
"     ...                +++++++   ",
"     ...                +++++++   ",
"   ..   ..              +++++++   ",
"   ..   ..              +++++++   ",
"     ...                +++++++   ",
"     ...                +++++++   ",
"     ...                +++++++   ",
"   ..   ..              +++++++   ",
"   ..   ..              +++++++   ",
"   ..   ..              +++++++   ",
"     ...     ...  ...     +++++   ",
"     ...     ...  ...     +++++   ",
"   ..     ...   ..   ...     ++   ",
"   ..     ...   ..   ...     ++   ",
"   ..     ...   ..   ...     ++   ",
"        ..   ...  ...   ..        ",
"        ..   ...  ...   ..        ",
"                                  ",
"                                  ",
"                                  "};
