/* XPM */
static char * 8_xpm[] = {
"34 60 2 1",
" 	c #000000",
".	c #FF0000",
"                                  ",
"                                  ",
"                                  ",
"     ........................     ",
"     ........................     ",
"   ..   ..................   ..   ",
"   ..   ..................   ..   ",
"   ..   ..................   ..   ",
"   .....  ..............  .....   ",
"   .....  ..............  .....   ",
"   .......              .......   ",
"   .......              .......   ",
"   .......              .......   ",
"   .......              .......   ",
"   .......              .......   ",
"   .......              .......   ",
"   .......              .......   ",
"   .......              .......   ",
"   .......              .......   ",
"   .......              .......   ",
"   .......              .......   ",
"   .......              .......   ",
"   .......              .......   ",
"   .....                  .....   ",
"   .....                  .....   ",
"   .....                  .....   ",
"   ..   ..................   ..   ",
"   ..   ..................   ..   ",
"   ..   ..................   ..   ",
"     ........................     ",
"     ........................     ",
"   ..   ..................   ..   ",
"   ..   ..................   ..   ",
"   ..   ..................   ..   ",
"   .....                  .....   ",
"   .....                  .....   ",
"   .....                  .....   ",
"   .......              .......   ",
"   .......              .......   ",
"   .......              .......   ",
"   .......              .......   ",
"   .......              .......   ",
"   .......              .......   ",
"   .......              .......   ",
"   .......              .......   ",
"   .......              .......   ",
"   .......              .......   ",
"   .......              .......   ",
"   .......              .......   ",
"   .......              .......   ",
"   .....  ..............  .....   ",
"   .....  ..............  .....   ",
"   ..   ..................   ..   ",
"   ..   ..................   ..   ",
"   ..   ..................   ..   ",
"     ........................     ",
"     ........................     ",
"                                  ",
"                                  ",
"                                  "};
